<?xml version="1.0" encoding="UTF-8"?>
<svg version="1.1" viewBox="0 0 469.55 512.1" xmlns="http://www.w3.org/2000/svg" xmlns:cc="http://creativecommons.org/ns#" xmlns:dc="http://purl.org/dc/elements/1.1/" xmlns:rdf="http://www.w3.org/1999/02/22-rdf-syntax-ns#">
 <defs>
  <radialGradient id="radialGradient882" cx="261.8" cy="276.16" r="217.75" gradientTransform="matrix(2.5345 .0081988 -.0099861 3.087 -411.99 -540.73)" gradientUnits="userSpaceOnUse">
   <stop stop-color="#b6e9f9" offset="0"/>
   <stop stop-color="#109bc6" stop-opacity="0" offset="1"/>
  </radialGradient>
 </defs>
 <g transform="translate(-21.318 -.099976)" fill="#11b4e6">
  <path d="m482 402-160-363c-13.3-24.4-37.8-38.9-65.6-38.9s-52.3 14.5-65.9 39.7l-160 362c-12.7 23.4-12.2 51 1.34 73.9 13.6 22.9 37.6 36.5 64.2 36.5h320c26.6 0 50.6-13.7 64.2-36.5 13.6-22.9 14.1-50.5 1.73-73.1m-20.1 62.2c-9.71 16.4-26.9 26.1-45.9 26.1h-320c-19 0-36.2-9.75-45.9-26.1s-10.1-36.1-0.555-53.6l160-362c9.47-17.4 27-27.8 46.8-27.8s37.3 10.4 46.4 27l160 363c9.11 16.7 8.75 36.4-0.938 52.8" fill="#11b4e6"/>
 </g>
 <path d="m57.022 490.73c-11.46-2.6912-25.129-12.496-31.858-22.852-7.1308-10.974-10.266-26.143-7.8375-37.923 0.8584-4.1642 31.777-74.595 85.138-193.94 46.085-103.07 84.942-189.37 86.349-191.78 3.2703-5.6018 11.998-14.232 17.826-17.627 16.452-9.5832 38.838-9.8772 54.826-0.72005 6.6401 3.8032 15.131 11.765 18.357 17.213 2.903 4.9023 164.66 366.49 168.72 377.15 5.414 14.218 4.53 27.498-2.8388 42.647-5.4394 11.182-13.268 18.747-25.242 24.394l-8.6174 4.0638-175.33 0.17234c-99.393 0.0971-177.14-0.25059-179.49-0.80389z" fill="#11b4e6"/>
 <path d="m57.436 491.79c-11.46-2.6912-25.129-12.496-31.858-22.852-7.1308-10.974-10.266-26.143-7.8375-37.923 0.8584-4.1642 31.777-74.595 85.138-193.94 46.085-103.07 84.942-189.37 86.349-191.78 3.2703-5.6018 11.998-14.232 17.826-17.627 16.452-9.5832 38.838-9.8772 54.826-0.72005 6.6401 3.8032 15.131 11.765 18.357 17.213 2.903 4.9023 164.66 366.49 168.72 377.15 5.414 14.218 4.53 27.498-2.8388 42.647-5.4394 11.182-13.268 18.747-25.242 24.394l-8.6174 4.0638-175.33 0.17234c-99.393 0.0971-177.14-0.25059-179.49-0.80389z" fill="url(#radialGradient882)"/>
 <path d="m234.08 377.08c-17.7 0-32 14.3-32 32s14.3 32 32 32 32-14.3 32-32-14.3-32-32-32" fill="#c44536"/>
 <path d="m205.08 134.08c-7.51 8.3-11.2 19.4-10 30.5l18.2 182c0.533 5.46 5.14 9.6 10.6 9.6h21.3c5.48 0 10.1-4.14 10.6-9.6l18.2-182c1.11-11.1-2.54-22.2-10-30.5-15-16.6-43.8-16.6-58.8 0" fill="#c44536"/>
</svg>
