<?xml version="1.0" encoding="UTF-8"?>
<svg data-name="Layer 1" version="1.1" viewBox="0 0 185.24 55.36" xmlns="http://www.w3.org/2000/svg" xmlns:cc="http://creativecommons.org/ns#" xmlns:dc="http://purl.org/dc/elements/1.1/" xmlns:rdf="http://www.w3.org/1999/02/22-rdf-syntax-ns#">
 <defs>
  <style>.cls-1{fill:#009ac6;}.cls-2,.cls-3{fill:#c44536;}.cls-2{fill-rule:evenodd;}</style>
  <linearGradient id="linearGradient860" x1="94.301" x2="93.769" y1="54.67" y2="-18.136" gradientUnits="userSpaceOnUse">
   <stop stop-color="#c44536" offset="0"/>
   <stop stop-color="#c44536" stop-opacity="0" offset="1"/>
  </linearGradient>
  <radialGradient id="radialGradient868" cx="100.13" cy="16.62" r="92.6" gradientTransform="matrix(1.8573 -.012868 .033188 4.7901 -86.388 -61.703)" gradientUnits="userSpaceOnUse">
   <stop stop-color="#009ac6" offset="0"/>
   <stop stop-color="#009ac6" stop-opacity="0" offset="1"/>
  </radialGradient>
 </defs>
 <title>Scannx Logo</title>
 <path class="cls-1" transform="translate(-7.49 -5.13)" d="M10,18.28l.26-.21c-.21.16.36-.27.59-.43a33.93,33.93,0,0,1,3.24-2,36.35,36.35,0,0,1,11.47-4c14.65-2.53,27.91,5.85,37.56,16.11a1.44,1.44,0,0,0,2,0l.13-.1-.16.13.59-.44c.69-.5,1.4-1,2.12-1.41a40.26,40.26,0,0,1,8-3.83,28.76,28.76,0,0,1,25.37,2.73,1.43,1.43,0,0,0,2.08-.85,17.36,17.36,0,0,1,3.42-7.66c4.47-6.09,12.27-8.15,19.46-8.3s14.67,1.82,19,7.78A17.91,17.91,0,0,1,147.81,21a17.13,17.13,0,0,1,.47,1.86c0,.18.07.37.09.55l0-.3,0,.16c.09,1,1.17,1.91,2.13,1.23a27.89,27.89,0,0,1,9.17-4.16,15.72,15.72,0,0,1,17.55,6.48,1.43,1.43,0,0,0,2.59-.34c1.49-4.95,7-8,11.9-8.85,1.8-.32,1-3-.76-2.73-5.87,1-12.06,4.79-13.88,10.83l2.59-.34c-4.56-6.51-11.28-9.47-19.13-8.14A28.71,28.71,0,0,0,149.05,22l2.13,1.22a19,19,0,0,0-3.37-8.67c-4.1-6-10.92-8.67-17.92-9.32-12.21-1.12-26.51,4.25-29.29,17.45,0,.16-.06.32-.08.47l2.08-.84c-12.29-7.78-28.4-5.65-39.52,3.37h2c-10.34-11-24-19.11-39.53-17A35.47,35.47,0,0,0,8,16.27c-1.4,1.19.62,3.18,2,2" fill="url(#radialGradient868)"/>
 <path d="m22.58 28.18a11.63 11.63 0 0 0-6.6191 1.8008 6.51 6.51 0 0 0-3.1816 5.7695c0 3.7733 2.6481 6.0675 7.9414 6.8809 3.28 0.49333 5.0424 0.77628 5.2891 0.84961 3.5267 0.80667 5.291 2.2687 5.291 4.3887a4.2 4.2 0 0 1-2.5508 3.9004 12 12 0 0 1-5.2402 1c-3.1067 0.006667-5.3834-0.62706-6.8301-1.9004-1.4467-1.2733-2.1699-3.3032-2.1699-6.0898h-2.7988c0 7.0533 3.9322 10.58 11.799 10.58a14.8 14.8 0 0 0 7.0996-1.6094 6.42 6.42 0 0 0 3.4902-6c0.006667-3.7867-2.5654-6.12-7.7188-7-2.82-0.49-4.6913-0.82-5.6113-1-3.46-0.59333-5.1895-1.9503-5.1895-4.0703a4.24 4.24 0 0 1 2.3301-3.8105 9.67 9.67 0 0 1 4.8789-1.0898c2.8667 0 4.9674 0.538 6.3008 1.6113 1.3333 1.0733 2 2.809 2 5.209h2.8711c0-6.28-3.7942-9.4199-11.381-9.4199zm83.949 0.03125c-4.3067-1e-6 -7.4826 1.3756-9.5293 4.1289v-3.5391h-2.6992v25.869h2.6992v-14.49a8.93 8.93 0 0 1 9.5801-9.4805 9.18 9.18 0 0 1 5.9297 1.75 6.66 6.66 0 0 1 2.25 5.3398v16.881h2.6699v-17.359a8.12 8.12 0 0 0-3.2305-6.8809 12.45 12.45 0 0 0-7.6699-2.2188zm27.271 0c-4.3067-1e-6 -7.4846 1.3756-9.5312 4.1289v-3.5391h-2.6992v25.869h2.6992v-14.5a8.93 8.93 0 0 1 9.5801-9.4805 9.2 9.2 0 0 1 5.9297 1.75 6.66 6.66 0 0 1 2.2305 5.3496v16.881h2.7305v-17.359a8.12 8.12 0 0 0-3.2305-6.8809 12.46 12.46 0 0 0-7.709-2.2188zm-57.061 0.009765c-4.2 0-7.4798 1.3035-9.8398 3.9102a13.79 13.79 0 0 0-3.3906 9.6797 13.71 13.71 0 0 0 3.3203 9.5391c2.36 2.6067 5.5864 3.9102 9.6797 3.9102 4.7867 0 8.3545-1.7295 10.701-5.1895v4.7402l2.7598-0.080078v-26.41h-2.7012v4.9004c-2.2933-3.3333-5.8026-5-10.529-5zm-26.17 0.048828c-4.4467 0-7.9137 1.288-10.4 3.8613a13.93 13.93 0 0 0-3.7305 10.1 12.69 12.69 0 0 0 3.6504 9.5c2.4333 2.38 5.7306 3.5703 9.8906 3.5703a14.24 14.24 0 0 0 7.6191-2v-0.041015a10.62 10.62 0 0 0 4.6602-6.8301l-2.5391-1.1094a8.31 8.31 0 0 1-3.6016 5.8203 11.63 11.63 0 0 1-6.1895 1.5898c-3.3933 0-6.0395-0.95466-7.9395-2.8613a10.44 10.44 0 0 1-2.8398-7.6797 11.68 11.68 0 0 1 3-8.3086c1.9733-2.12 4.7594-3.1816 8.3594-3.1816 4.8 0 7.8 2.2582 9 6.7715l2.5098-1.1602a10.13 10.13 0 0 0-4.4492-6.2402 13.22 13.22 0 0 0-7-1.8008zm127.22 0.44141a2.95 2.95 0 0 0-2.9394 2.9395 2.94 2.94 0 1 0 2.9394-2.9395zm-31.648 0.13867 11.059 12.43-12.17 13.391h3.4902l10.371-11.42 10.42 11.42h3.5l-12.121-13.391 11.061-12.43h-3.3906l-9.4688 10.58-9.2598-10.58h-3.4902zm31.742 0.29297a2.51 2.51 0 1 1-0.09375 5.0176 2.4 2.4 0 0 1-2.3887-2.5 2.51 2.51 0 0 1 2.4824-2.5176zm-1.2226 0.78711-0.01954 3.4395h0.5586v-1.4395h0.4707l1 1.5312h0.59961l-1-1.5312a0.88 0.88 0 0 0 0.89063-1c0-0.68-0.38969-1-1.1797-1h-1.3203zm0.56054 0.42969h0.66992c0.36 0 0.70899 0.059766 0.70899 0.50977s-0.27898 0.54102-0.70899 0.54102h-0.66992v-1.0508zm-100.81 0.33984c3.4933 0 6.1929 1.0236 8.0996 3.0703v0.041016a11.5 11.5 0 0 1 2.7012 8 11 11 0 0 1-2.9414 7.8301 10.27 10.27 0 0 1-7.8594 3.1191 9.67 9.67 0 0 1-7.7207-3.1699 11.39 11.39 0 0 1-2.5996-7.7793 11.72 11.72 0 0 1 2.5996-7.8301 9.72 9.72 0 0 1 7.7207-3.2812z" fill="url(#linearGradient860)"/>
</svg>
