<?xml version="1.0" encoding="UTF-8"?>
<svg version="1.1" viewBox="0 0 36.8 36.8" xmlns="http://www.w3.org/2000/svg" xmlns:cc="http://creativecommons.org/ns#" xmlns:dc="http://purl.org/dc/elements/1.1/" xmlns:rdf="http://www.w3.org/1999/02/22-rdf-syntax-ns#">
 <defs>
  <radialGradient id="radialGradient865" cx="11.472" cy="25.791" r="14.518" gradientTransform="matrix(2.1101 -.3533 .34315 2.0495 -21.363 -20.348)" gradientUnits="userSpaceOnUse">
   <stop stop-color="#df948b" offset="0"/>
   <stop stop-color="#c44536" stop-opacity="0" offset="1"/>
  </radialGradient>
 </defs>
 <rect x="17.289" y="13.29" width="2.6906" height=".27362" fill="#009ac6" stroke="#11b4e6" stroke-linecap="round" stroke-opacity=".99608" stroke-width="16.336"/>
 <path d="m17.9 12.3h2.15c-0.09-2.59-2.21-4.67-4.82-4.67-2.67 0-4.83 2.17-4.83 4.83s2.17 4.83 4.83 4.83c2.38 0 4.35-1.73 4.75-4h-2.08v-0.999m-2.27 2.46c0.649 0 1.08-0.169 1.4-0.312l0.195 0.857c-0.299 0.156-0.961 0.364-1.81 0.364-1.9 0-3.13-1.29-3.13-3.21 0-1.94 1.32-3.34 3.38-3.34 0.675 0 1.27 0.168 1.58 0.324l-0.26 0.884c-0.272-0.155-0.701-0.299-1.32-0.299-1.44 0-2.22 1.06-2.22 2.38 1e-3 1.45 0.937 2.35 2.18 2.35m15.4 1.46c-0.896-1.73 0.379-2.76 0.465-3.65 0.396-4.12-0.994-6.63-2.88-8.63-3.12-3.3-7.13-3.92-9.76-3.9-6.72 0.049-9.45 2.18-11.5 4.48-4.28 4.78-3.38 8.98-3.38 8.98 0.103 2.49 3.54 7.02 3.54 7.02 2.74 3.94 1.39 6.97 1.39 6.97 5.53 1.24 10.1 9.31 10.1 9.31 0.2-1.2 2.86-6.24 2.86-6.24 1.11-1.4 2.98-0.906 3.98-0.782 2.89 0.355 3.6-0.494 3.6-0.494 0.631-0.386 0.332-1.99 0.332-1.99-0.231-0.831 0.146-1.24 0.381-1.56 0.633-0.884 0.268-1.29 0.268-1.29-0.199-0.251-0.066-0.383-0.066-0.383 0.697-0.232 0.748-0.613 0.748-0.613l-0.018-1.28c-0.115-0.878 0.281-0.932 0.281-0.932 1.6-0.029 1.56-1.06 1.56-1.06 0.064-0.568-1.86-3.95-1.86-3.95m-3.14-2.92h-3.23l-0.623-1.72-1.9 5.85-0.787-4.13h-0.36c-0.406 2.82-2.83 5-5.77 5-3.22 0-5.83-2.62-5.83-5.83s2.62-5.83 5.83-5.83c3.16 0 5.73 2.53 5.82 5.67h1.13l0.213 1.12 1.6-4.9 1.38 3.78h2.52v0.997h-1e-3" fill="#c44536"/>
 <path d="m17.891 12.291h2.15c-0.09-2.59-2.21-4.67-4.82-4.67-2.67 0-4.83 2.17-4.83 4.83s2.17 4.83 4.83 4.83c2.38 0 4.35-1.73 4.75-4h-2.08v-0.999m-2.27 2.46c0.649 0 1.08-0.169 1.4-0.312l0.195 0.857c-0.299 0.156-0.961 0.364-1.81 0.364-1.9 0-3.13-1.29-3.13-3.21 0-1.94 1.32-3.34 3.38-3.34 0.675 0 1.27 0.168 1.58 0.324l-0.26 0.884c-0.272-0.155-0.701-0.299-1.32-0.299-1.44 0-2.22 1.06-2.22 2.38 1e-3 1.45 0.937 2.35 2.18 2.35m15.4 1.46c-0.896-1.73 0.379-2.76 0.465-3.65 0.396-4.12-0.994-6.63-2.88-8.63-3.12-3.3-7.13-3.92-9.76-3.9-6.72 0.049-9.45 2.18-11.5 4.48-4.28 4.78-3.38 8.98-3.38 8.98 0.103 2.49 3.54 7.02 3.54 7.02 2.74 3.94 1.39 6.97 1.39 6.97 5.53 1.24 10.1 9.31 10.1 9.31 0.2-1.2 2.86-6.24 2.86-6.24 1.11-1.4 2.98-0.906 3.98-0.782 2.89 0.355 3.6-0.494 3.6-0.494 0.631-0.386 0.332-1.99 0.332-1.99-0.231-0.831 0.146-1.24 0.381-1.56 0.633-0.884 0.268-1.29 0.268-1.29-0.199-0.251-0.066-0.383-0.066-0.383 0.697-0.232 0.748-0.613 0.748-0.613l-0.018-1.28c-0.115-0.878 0.281-0.932 0.281-0.932 1.6-0.029 1.56-1.06 1.56-1.06 0.064-0.568-1.86-3.95-1.86-3.95m-3.14-2.92h-3.23l-0.623-1.72-1.9 5.85-0.787-4.13h-0.36c-0.406 2.82-2.83 5-5.77 5-3.22 0-5.83-2.62-5.83-5.83s2.62-5.83 5.83-5.83c3.16 0 5.73 2.53 5.82 5.67h1.13l0.213 1.12 1.6-4.9 1.38 3.78h2.52v0.997h-1e-3" fill="url(#radialGradient865)"/>
</svg>
