<?xml version="1.0" encoding="UTF-8"?>
<!-- Created with Inkscape (http://www.inkscape.org/) -->
<svg version="1.1" viewBox="0 0 238 238" xmlns="http://www.w3.org/2000/svg" xmlns:cc="http://creativecommons.org/ns#" xmlns:dc="http://purl.org/dc/elements/1.1/" xmlns:rdf="http://www.w3.org/1999/02/22-rdf-syntax-ns#">
 <defs>
  <radialGradient id="radialGradient840" cx="123.82" cy="172.38" r="117.15" gradientTransform="matrix(3.8203 .0032026 -.0031294 3.7329 -353.36 -466.02)" gradientUnits="userSpaceOnUse">
   <stop stop-color="#b6e9f9" offset="0"/>
   <stop stop-color="#109bc6" stop-opacity="0" offset="1"/>
  </radialGradient>
 </defs>
 <g transform="translate(0,-59)">
  <rect x="3.7592" y="62.44" width="230.79" height="230.79" rx="54.468" fill="#109bc6" fill-opacity=".99502" stroke="#11b4e6" stroke-opacity=".99608" stroke-width="6.2101"/>
  <rect x="3.8125" y="62.495" width="230.68" height="230.68" rx="54.442" fill="url(#radialGradient840)" stroke="#11b4e6" stroke-opacity=".99608" stroke-width="6.3191"/>
  <path d="m66.971 127.42c-7e-3 0.21053-0.016 0.42069-0.016 0.63304v118.77c0 9.9627 8.0207 17.983 17.983 17.983h68.355c9.9626 0 17.983-8.0202 17.983-17.983v-118.77c0-0.21235-9e-3 -0.42251-0.016-0.63304zm52.208 10.25c2.6652 0 4.811 2.1459 4.811 4.8111v99.491c0 2.6652-2.1459 4.8106-4.811 4.8106-2.6652 0-4.8106-2.1454-4.8106-4.8106v-99.491c0-2.6652 2.1453-4.8111 4.8106-4.8111zm31.634 0.046c2.6652 0 4.811 2.1459 4.811 4.8111v99.491c0 2.6652-2.1459 4.8106-4.811 4.8106-2.6652 0-4.811-2.1454-4.811-4.8106v-99.491c0-2.6652 2.1458-4.8111 4.811-4.8111zm-63.45 0.0785c2.6652 0 4.8105 2.1454 4.8105 4.8106v99.491c0 2.6652-2.1453 4.8111-4.8105 4.8111s-4.8111-2.1459-4.8111-4.8111v-99.491c0-2.6652 2.1459-4.8106 4.8111-4.8106z" fill="#c54536"/>
  <rect x="100.19" y="93.27" width="38.03" height="23.802" rx="9.5755" ry="0" fill="none" stroke="#c54536" stroke-linecap="round" stroke-width="6.743"/>
  <rect x="253.33" y="7.4449" width=".75595" height=".56696" rx="6.1421" ry=".56696" fill="#0d00e4"/>
  <path d="m56.784 111.99h123.98v9.2831h-123.98zm7.8013-9.4269h108.37c4.3219 0 7.8013 4.1723 7.8013 9.355s-3.4794 9.355-7.8013 9.355h-108.37c-4.3219 0-7.8013-4.1723-7.8013-9.355s3.4794-9.355 7.8013-9.355z" fill="#c54536"/>
 </g>
</svg>
