<?xml version="1.0" encoding="UTF-8"?>
<svg version="1.1" viewBox="0 0 150 100" xml:space="preserve" xmlns="http://www.w3.org/2000/svg" xmlns:cc="http://creativecommons.org/ns#" xmlns:dc="http://purl.org/dc/elements/1.1/" xmlns:rdf="http://www.w3.org/1999/02/22-rdf-syntax-ns#"><metadata><rdf:RDF><cc:Work rdf:about=""><dc:format>image/svg+xml</dc:format><dc:type rdf:resource="http://purl.org/dc/dcmitype/StillImage"/><dc:title/></cc:Work></rdf:RDF></metadata>
  
<path d="m91.3 8.41h-60.7c-2.13 0-3.88 1.75-3.88 3.88v79.5c0 2.13 1.75 3.88 3.88 3.88h60.7c2.13 0 3.88-1.75 3.88-3.88v-79.5c0-2.13-1.75-3.88-3.88-3.88" fill="#ffd15c"/><rect transform="matrix(.186 0 0 .186 26.7 77.3)" x="28.1" y="-343" width="312" height="414" fill="#fff"/><path d="m74.1 2.59h-26.2c-2.33 0-4.27 1.94-4.27 4.07v10.7h34.5v-10.7c0.194-2.13-1.75-4.07-4.07-4.07" fill="#ff7058"/><g fill="#4cdbc4">
	<rect transform="matrix(.186 0 0 .186 26.7 2.59)" x="137" y="127" width="182" height="24"/>
	<rect transform="matrix(.186 0 0 .186 26.7 2.59)" x="137" y="212" width="182" height="24"/>
	<rect transform="matrix(.186 0 0 .186 26.7 2.59)" x="137" y="297" width="182" height="24"/>
	<rect transform="matrix(.186 0 0 .186 26.7 2.59)" x="137" y="381" width="182" height="24"/>
</g><g fill="#cdd6e0">
	<rect transform="matrix(.186 0 0 .186 26.7 2.59)" x="49.5" y="365" width="57.5" height="57.5"/>
	<rect transform="matrix(.186 0 0 .186 26.7 2.59)" x="49.5" y="280" width="57.5" height="57.5"/>
	<rect transform="matrix(.186 0 0 .186 26.7 2.59)" x="49.5" y="195" width="57.5" height="57.5"/>
	<rect transform="matrix(.186 0 0 .186 26.7 2.59)" x="49.5" y="111" width="57.5" height="57.5"/>
</g><g fill="#40596b">
	<polygon points="38.6 27.8 39.7 29 43.6 25.3 45 26.6 39.7 31.9 37.2 29.2"/>
	<polygon points="38.8 43.5 39.9 44.7 43.8 41 45.2 42.3 39.9 47.4 37.4 44.9"/>
</g><g fill="#334a5e">
	<path d="m105 79.4h-6.79l10.7 15.1c0.969 1.16 2.52 1.55 3.88 0.582 1.16-0.969 1.55-2.52 0.776-3.88l-8.53-11.8"/>
	<path d="m90.4 79.4-8.34 12c-0.969 1.16-0.582 2.91 0.776 3.88 1.16 0.969 2.91 0.582 3.88-0.582l10.7-15.1h-6.98v-0.194"/>
</g><ellipse cx="384" cy="-25.2" rx="118" ry="117" fill="#40596b"/><path d="m97.9 90c-9.7 0-17.5-7.76-17.5-17.5 0-9.7 7.95-17.5 17.5-17.5 9.7 0 17.5 7.76 17.5 17.5 0 9.5-7.76 17.5-17.5 17.5" fill="#f2f2f2"/><g fill="#ff7058">
	<circle transform="matrix(.186 0 0 .186 26.7 2.59)" cx="384" cy="299" r="8.36"/>
	<circle transform="matrix(.186 0 0 .186 26.7 2.59)" cx="384" cy="455" r="8.36"/>
	<circle transform="matrix(.186 0 0 .186 26.7 2.59)" cx="462" cy="377" r="8.36"/>
	<circle transform="matrix(.186 0 0 .186 26.7 2.59)" cx="306" cy="377" r="8.36"/>
</g><g fill="#ffd15c">
	<path d="m97.3 72.6c0-0.582 0.582-1.16 1.16-1.16h6.59c0.582 0 1.16 0.582 1.16 1.16 0 0.582-0.582 1.16-1.16 1.16h-6.59c-0.582-0.194-1.16-0.582-1.16-1.16"/>
	<path d="m97.9 60.8c0.582 0 1.16 0.582 1.16 1.16v10.5c0 0.582-0.582 1.16-1.16 1.16-0.582 0-1.16-0.582-1.16-1.16v-10.5c0-0.582 0.582-1.16 1.16-1.16"/>
</g><circle transform="matrix(.186 0 0 .186 26.7 77.3)" cx="384" cy="-25.2" r="14.6" fill="#ff7058"/><path d="m91.1 46.2 19.8-19.6s-8.92-8.92-8.92-8.92l-19.8 19.6c-0.194 0.194-0.194 0.388-0.388 0.388 0 0.194-0.194 0.388-0.194 0.388l-0.194 0.388-1.75 6.59-1.16 4.65 4.65-1.16 6.79-1.75 0.388-0.194c0.194 0 0.388-0.194 0.388-0.194s0.194-0.194 0.388-0.194" fill="#ffd15c"/><g fill="#ff7058">
	<path d="m83.8 41 20.7-20.7s-2.71-2.71-2.71-2.71-19.6 19.8-19.6 19.8c-0.194 0.194-0.194 0.388-0.388 0.388 0 0.194-0.194 0.388-0.194 0.388l-0.194 0.388 2.33 2.52"/>
	<path d="m91.1 46.2 19.8-19.6s-2.71-2.71-2.71-2.71l-20.7 20.6 2.33 2.33 0.388-0.194c0.194 0 0.388-0.194 0.388-0.194 0.194 0 0.388-0.194 0.582-0.194"/>
</g><polygon points="78.3 49.9 83 48.5 79.7 45.2" fill="#334a5e"/><path d="m118 13.3-3.49-3.49c-1.55-1.55-4.07-1.55-5.43 0l-5.04 5.04 8.92 8.92 5.04-5.04c1.55-1.36 1.55-3.88 0-5.43" fill="#40596b"/><polygon points="83.8 41 105 20.2 108 23.9 87.4 44.5" fill="#f1543f"/><polygon points="105 15 113 23.9 111 26.6 102 17.7" fill="#ffd15c"/>
</svg>
