<?xml version="1.0" encoding="UTF-8" standalone="no"?>
<!-- Created with Inkscape (http://www.inkscape.org/) -->

<svg
   xmlns:osb="http://www.openswatchbook.org/uri/2009/osb"
   xmlns:dc="http://purl.org/dc/elements/1.1/"
   xmlns:cc="http://creativecommons.org/ns#"
   xmlns:rdf="http://www.w3.org/1999/02/22-rdf-syntax-ns#"
   xmlns:svg="http://www.w3.org/2000/svg"
   xmlns="http://www.w3.org/2000/svg"
   xmlns:sodipodi="http://sodipodi.sourceforge.net/DTD/sodipodi-0.dtd"
   xmlns:inkscape="http://www.inkscape.org/namespaces/inkscape"
   width="254mm"
   height="254mm"
   viewBox="0 0 254 254"
   version="1.1"
   id="svg8"
   inkscape:version="0.92.4 (5da689c313, 2019-01-14)"
   sodipodi:docname="onedrive-scan-7.svg">
  <defs
     id="defs2">
    <linearGradient
       osb:paint="solid"
       id="linearGradient4880">
      <stop
         id="stop4878"
         offset="0"
         style="stop-color:#000000;stop-opacity:1;" />
    </linearGradient>
    <linearGradient
       osb:paint="gradient"
       id="linearGradient4850">
      <stop
         id="stop4846"
         offset="0"
         style="stop-color:#ff8080;stop-opacity:1;" />
      <stop
         id="stop4848"
         offset="1"
         style="stop-color:#ff8080;stop-opacity:0;" />
    </linearGradient>
    <linearGradient
       osb:paint="solid"
       id="linearGradient4822">
      <stop
         id="stop4820"
         offset="0"
         style="stop-color:#f600f4;stop-opacity:1;" />
    </linearGradient>
  </defs>
  <sodipodi:namedview
     id="base"
     pagecolor="#ffffff"
     bordercolor="#666666"
     borderopacity="1.0"
     inkscape:pageopacity="0.0"
     inkscape:pageshadow="2"
     inkscape:zoom="0.49497475"
     inkscape:cx="195.09587"
     inkscape:cy="323.326"
     inkscape:document-units="mm"
     inkscape:current-layer="layer1"
     showgrid="true"
     inkscape:window-width="1920"
     inkscape:window-height="1001"
     inkscape:window-x="-9"
     inkscape:window-y="-9"
     inkscape:window-maximized="1">
    <inkscape:grid
       type="xygrid"
       id="grid1849"
       spacingx="3.3866667"
       spacingy="3.3866667" />
  </sodipodi:namedview>
  <metadata
     id="metadata5">
    <rdf:RDF>
      <cc:Work
         rdf:about="">
        <dc:format>image/svg+xml</dc:format>
        <dc:type
           rdf:resource="http://purl.org/dc/dcmitype/StillImage" />
        <dc:title></dc:title>
      </cc:Work>
    </rdf:RDF>
  </metadata>
  <g
     inkscape:label="Layer 1"
     inkscape:groupmode="layer"
     id="layer1"
     transform="translate(0,-43)">
    <rect
       style="fill:#0948ad;fill-opacity:1;stroke-width:0.37693506;stroke:none"
       id="rect12"
       width="247.70001"
       height="247.70001"
       x="3.0238037"
       y="46.351601"
       rx="58.458519" />
    <path
       style="fill:#ffffff;fill-opacity:1;stroke-width:0.48962075"
       inkscape:connector-curvature="0"
       id="path235"
       d="m 203.19994,169.43595 c 0,13.08512 -9.08791,23.68789 -20.29643,23.68789 H 80.206327 c -13.625025,0 -24.668561,-12.88834 -24.668561,-28.79066 0,-15.90124 11.043536,-28.79015 24.668561,-28.79015 0.963527,0 1.907135,0.0762 2.839863,0.20048 0.420133,-21.38591 15.384006,-38.588882 33.81453,-38.588882 11.69074,0 21.99689,6.913882 28.07996,17.436242 3.69691,-2.12109 7.84565,-3.34664 12.24502,-3.34664 15.36316,0 27.81802,14.53231 27.81802,32.46684 0,0.72729 -0.0517,1.4382 -0.0929,2.15705 10.26493,1.17743 18.28914,11.27825 18.28914,23.56783 z M 76.791361,127.58872 c 3.676483,-21.89634 20.399743,-38.602128 40.069359,-38.602128 11.68349,0 22.67853,5.805745 30.37597,15.793338 3.21875,-1.13301 6.5508,-1.70373 9.94857,-1.70373 0.0204,0 0.0377,0 0.0548,0 -2.28557,-23.780465 -19.55632,-42.269317 -40.53756,-42.269317 -15.90067,0 -29.646298,10.634493 -36.382907,26.122639 -4.27563,-2.836232 -9.201623,-4.479674 -14.472092,-4.479674 -16.196612,0 -29.329035,15.327342 -29.329035,34.234072 0,2.87325 0.337193,5.64493 0.908701,8.30873 -13.673101,0.73523 -24.578421,13.86478 -24.578421,30.00776 0,16.60899 11.538906,30.07601 25.769929,30.07601 h 15.398058 c -3.452617,-5.91788 -5.476691,-13.06134 -5.476691,-20.74324 -4.42e-4,-19.03527 12.39233,-34.75244 28.251278,-36.74446 z" />
    <g
       id="layer1-6"
       inkscape:label="Layer 1"
       transform="matrix(0.85487251,0,0,0.85487251,68.689986,116.62605)"
       style="stroke:#0948ad;stroke-opacity:1">
      <rect
         ry="0"
         rx="7.3342748"
         y="138.7603"
         x="12.60465"
         height="41.159508"
         width="176.66515"
         id="rect9111"
         style="fill:#ffffff;fill-opacity:1;stroke:#0948ad;stroke-width:4;stroke-miterlimit:4;stroke-dasharray:none;stroke-opacity:1" />
      <path
         inkscape:connector-curvature="0"
         id="rect9111-3"
         d="M 60.137765,33.433654 C 53.075953,29.618926 44.319594,32.233049 40.504866,39.294863 l -1.359927,2.517491 c -0.241729,0.447488 -0.457353,0.902094 -0.647953,1.361499 l -4.350689,8.053981 c -1.071664,1.983862 -0.337301,4.443694 1.64656,5.515358 L 184.43225,137.03689 c 1.98386,1.07166 4.4437,0.33731 5.51536,-1.64655 l 6.81266,-12.61157 c 0.16782,-0.31062 0.28633,-0.63338 0.36772,-0.96018 2.61191,-6.72041 -0.11295,-14.44503 -6.628,-17.9644 z"
         style="fill:#ffffff;fill-opacity:1;stroke:#0948ad;stroke-width:4;stroke-miterlimit:4;stroke-dasharray:none;stroke-opacity:1" />
    </g>
  </g>
</svg>
