<?xml version="1.0" encoding="UTF-8"?>
<!-- Created with Inkscape (http://www.inkscape.org/) -->
<svg version="1.1" viewBox="0 0 250 250" xmlns="http://www.w3.org/2000/svg" xmlns:cc="http://creativecommons.org/ns#" xmlns:dc="http://purl.org/dc/elements/1.1/" xmlns:rdf="http://www.w3.org/1999/02/22-rdf-syntax-ns#">
 <metadata>
  <rdf:RDF>
   <cc:Work rdf:about="">
    <dc:format>image/svg+xml</dc:format>
    <dc:type rdf:resource="http://purl.org/dc/dcmitype/StillImage"/>
    <dc:title/>
   </cc:Work>
  </rdf:RDF>
 </metadata>
 <g transform="translate(0,-47)">
  <rect x="1.4363" y="47.939" width="247.7" height="247.7" rx="58.459" fill="none" stroke="#000" stroke-width=".977"/>
  <g stroke="#130000">
   <path d="m78.644 108.62c-1.0211 0-2.0421 0.51052-2.5527 1.5316l-51.054 122.53c-0.89962 3.4845 1.1905 4.7701 4.0843 5.1054h46.969c2.8897 0.17405 5.1054-1.0211 5.1054-5.1054v-122.53c-0.51053-1.0211-1.5316-1.5316-2.5527-1.5316zm21.169 1.9504v11.551l0.73592 4e-3c3.1439 0.0113 9.7038 0.69507 13.362 1.39 21.776 4.1368 36.658 16.486 41.994 34.846 0.52458 1.8052 1.6672 6.6875 1.6672 7.1256 0 0.0154 0.39885 0.0347 0.71993 0.0536l-0.84558-2e-3 -11.134 8e-3 17.951 24.841 17.288-24.807-9.9016 3e-3c-0.0154-0.13276-0.2605-1.4326-0.58035-3.0612-2.0186-10.286-5.996-19.094-12.053-26.698-1.8274-2.2938-6.4264-6.8624-8.7869-8.729-10.114-7.9977-22.913-13.23-38.021-15.545-3.4087-0.52238-8.3481-0.98121-10.566-0.98121zm2.11 70.851c-2.1968 0.11766-3.0959 1.9385-3.3684 4.2897v46.969c-0.17405 2.8897 1.0211 5.1054 5.1054 5.1054h122.53c2.0421-1.0211 2.0421-4.0843 0-5.1054l-122.53-51.054c-0.65336-0.16864-1.0515-0.25502-1.5585-0.22763z" fill="none" stroke-width="4.496"/>
   <path d="m27.586 234.48c-0.26474-0.68994 49.93-122.03 50.903-123.05 0.64912-0.68123 0.61365 120.76-0.03473 122.47l-0.49792 1.3096h-25.045c-21.198 0-25.088-0.11155-25.324-0.72707z" stroke-linecap="round" stroke-width="2.248"/>
   <path d="m157.7 177.04c-3.4382-4.759-6.2512-8.78-6.2512-8.9354 0-0.15553 1.6082-0.2825 3.5738-0.2825h3.5738l0.0154-1.9145c0.0155-1.7879 0.0656-1.8494 0.76053-0.93072 0.80593 1.0653 1.637 0.79202 0.94813-0.31182-0.23078-0.3697-0.92589-2.6694-1.5447-5.1105-1.3122-5.1762-4.264-11.727-7.2965-16.192-8.7754-12.922-25.657-21.7-44.831-23.309l-4.212-0.3535v-6.5052l1.9146 2e-3c3.0092 4e-3 11.321 1.3717 16.827 2.7673 26.134 6.6247 43.082 23.509 47.425 47.248l0.84331 4.6093h7.4921l-6.1316 8.8068c-3.3724 4.8437-6.2948 8.8646-6.4941 8.9354-0.1995 0.0705-3.1756-3.7652-6.6137-8.5242z" stroke-linecap="round" stroke-width="2.248"/>
  </g>
 </g>
</svg>
