<?xml version="1.0" encoding="UTF-8" standalone="no"?>
<svg
   xmlns:dc="http://purl.org/dc/elements/1.1/"
   xmlns:cc="http://creativecommons.org/ns#"
   xmlns:rdf="http://www.w3.org/1999/02/22-rdf-syntax-ns#"
   xmlns:svg="http://www.w3.org/2000/svg"
   xmlns="http://www.w3.org/2000/svg"
   xmlns:xlink="http://www.w3.org/1999/xlink"
   xmlns:sodipodi="http://sodipodi.sourceforge.net/DTD/sodipodi-0.dtd"
   xmlns:inkscape="http://www.inkscape.org/namespaces/inkscape"
   id="Layer_1"
   data-name="Layer 1"
   viewBox="0 0 185.24 55.36"
   version="1.1"
   sodipodi:docname="scannx.svg"
   inkscape:version="0.92.4 (5da689c313, 2019-01-14)">
  <metadata
     id="metadata27">
    <rdf:RDF>
      <cc:Work
         rdf:about="">
        <dc:format>image/svg+xml</dc:format>
        <dc:type
           rdf:resource="http://purl.org/dc/dcmitype/StillImage" />
        <dc:title>Scannx Logo</dc:title>
      </cc:Work>
    </rdf:RDF>
  </metadata>
  <sodipodi:namedview
     pagecolor="#ffffff"
     bordercolor="#666666"
     borderopacity="1"
     objecttolerance="10"
     gridtolerance="10"
     guidetolerance="10"
     inkscape:pageopacity="0"
     inkscape:pageshadow="2"
     inkscape:window-width="1920"
     inkscape:window-height="1001"
     id="namedview25"
     showgrid="false"
     inkscape:zoom="4.3079247"
     inkscape:cx="88.326175"
     inkscape:cy="21.855199"
     inkscape:window-x="-9"
     inkscape:window-y="-9"
     inkscape:window-maximized="1"
     inkscape:current-layer="Layer_1" />
  <defs
     id="defs4">
    <linearGradient
       inkscape:collect="always"
       id="linearGradient866">
      <stop
         style="stop-color:#009ac6;stop-opacity:1;"
         offset="0"
         id="stop862" />
      <stop
         style="stop-color:#009ac6;stop-opacity:0;"
         offset="1"
         id="stop864" />
    </linearGradient>
    <linearGradient
       inkscape:collect="always"
       id="linearGradient858">
      <stop
         style="stop-color:#c44536;stop-opacity:1;"
         offset="0"
         id="stop854" />
      <stop
         style="stop-color:#c44536;stop-opacity:0;"
         offset="1"
         id="stop856" />
    </linearGradient>
    <style
       id="style2">.cls-1{fill:#009ac6;}.cls-2,.cls-3{fill:#c44536;}.cls-2{fill-rule:evenodd;}</style>
    <linearGradient
       inkscape:collect="always"
       xlink:href="#linearGradient858"
       id="linearGradient860"
       x1="94.300781"
       y1="54.669922"
       x2="94.46492"
       y2="-5.8329554"
       gradientUnits="userSpaceOnUse" />
    <radialGradient
       inkscape:collect="always"
       xlink:href="#linearGradient866"
       id="radialGradient868"
       cx="100.12696"
       cy="16.619871"
       fx="100.12696"
       fy="16.619871"
       r="92.600124"
       gradientTransform="matrix(1.8572732,-0.01286793,0.03318783,4.7901241,-86.387738,-61.70295)"
       gradientUnits="userSpaceOnUse" />
  </defs>
  <title
     id="title6">Scannx Logo</title>
  <path
     class="cls-1"
     d="M10,18.28l.26-.21c-.21.16.36-.27.59-.43a33.93,33.93,0,0,1,3.24-2,36.35,36.35,0,0,1,11.47-4c14.65-2.53,27.91,5.85,37.56,16.11a1.44,1.44,0,0,0,2,0l.13-.1-.16.13.59-.44c.69-.5,1.4-1,2.12-1.41a40.26,40.26,0,0,1,8-3.83,28.76,28.76,0,0,1,25.37,2.73,1.43,1.43,0,0,0,2.08-.85,17.36,17.36,0,0,1,3.42-7.66c4.47-6.09,12.27-8.15,19.46-8.3s14.67,1.82,19,7.78A17.91,17.91,0,0,1,147.81,21a17.13,17.13,0,0,1,.47,1.86c0,.18.07.37.09.55l0-.3,0,.16c.09,1,1.17,1.91,2.13,1.23a27.89,27.89,0,0,1,9.17-4.16,15.72,15.72,0,0,1,17.55,6.48,1.43,1.43,0,0,0,2.59-.34c1.49-4.95,7-8,11.9-8.85,1.8-.32,1-3-.76-2.73-5.87,1-12.06,4.79-13.88,10.83l2.59-.34c-4.56-6.51-11.28-9.47-19.13-8.14A28.71,28.71,0,0,0,149.05,22l2.13,1.22a19,19,0,0,0-3.37-8.67c-4.1-6-10.92-8.67-17.92-9.32-12.21-1.12-26.51,4.25-29.29,17.45,0,.16-.06.32-.08.47l2.08-.84c-12.29-7.78-28.4-5.65-39.52,3.37h2c-10.34-11-24-19.11-39.53-17A35.47,35.47,0,0,0,8,16.27c-1.4,1.19.62,3.18,2,2"
     transform="translate(-7.49 -5.13)"
     id="path8"
     style="fill-opacity:1;fill:url(#radialGradient868)" />
  <path
     d="M 22.580078 28.179688 A 11.63 11.63 0 0 0 15.960938 29.980469 A 6.51 6.51 0 0 0 12.779297 35.75 C 12.779297 39.523333 15.42737 41.817526 20.720703 42.630859 C 24.000703 43.124193 25.763099 43.407135 26.009766 43.480469 C 29.536432 44.287135 31.300781 45.749141 31.300781 47.869141 A 4.2 4.2 0 0 1 28.75 51.769531 A 12 12 0 0 1 23.509766 52.769531 C 20.403099 52.776198 18.126354 52.142474 16.679688 50.869141 C 15.233021 49.595807 14.509766 47.565964 14.509766 44.779297 L 11.710938 44.779297 C 11.710938 51.83263 15.643099 55.359375 23.509766 55.359375 A 14.8 14.8 0 0 0 30.609375 53.75 A 6.42 6.42 0 0 0 34.099609 47.75 C 34.106276 43.963333 31.534193 41.63 26.380859 40.75 C 23.560859 40.26 21.689531 39.93 20.769531 39.75 C 17.309531 39.156667 15.580078 37.799687 15.580078 35.679688 A 4.24 4.24 0 0 1 17.910156 31.869141 A 9.67 9.67 0 0 1 22.789062 30.779297 C 25.655729 30.779297 27.75651 31.317292 29.089844 32.390625 C 30.423177 33.463958 31.089844 35.199609 31.089844 37.599609 L 33.960938 37.599609 C 33.960938 31.319609 30.166745 28.179688 22.580078 28.179688 z M 106.5293 28.210938 C 102.22263 28.210937 99.046667 29.58651 97 32.339844 L 97 28.800781 L 94.300781 28.800781 L 94.300781 54.669922 L 97 54.669922 L 97 40.179688 A 8.93 8.93 0 0 1 106.58008 30.699219 A 9.18 9.18 0 0 1 112.50977 32.449219 A 6.66 6.66 0 0 1 114.75977 37.789062 L 114.75977 54.669922 L 117.42969 54.669922 L 117.42969 37.310547 A 8.12 8.12 0 0 0 114.19922 30.429688 A 12.45 12.45 0 0 0 106.5293 28.210938 z M 133.80078 28.210938 C 129.49411 28.210937 126.3162 29.58651 124.26953 32.339844 L 124.26953 28.800781 L 121.57031 28.800781 L 121.57031 54.669922 L 124.26953 54.669922 L 124.26953 40.169922 A 8.93 8.93 0 0 1 133.84961 30.689453 A 9.2 9.2 0 0 1 139.7793 32.439453 A 6.66 6.66 0 0 1 142.00977 37.789062 L 142.00977 54.669922 L 144.74023 54.669922 L 144.74023 37.310547 A 8.12 8.12 0 0 0 141.50977 30.429688 A 12.46 12.46 0 0 0 133.80078 28.210938 z M 76.740234 28.220703 C 72.540234 28.220703 69.260391 29.524193 66.900391 32.130859 A 13.79 13.79 0 0 0 63.509766 41.810547 A 13.71 13.71 0 0 0 66.830078 51.349609 C 69.190078 53.956276 72.416432 55.259766 76.509766 55.259766 C 81.296432 55.259766 84.864271 53.530313 87.210938 50.070312 L 87.210938 54.810547 L 89.970703 54.730469 L 89.970703 28.320312 L 87.269531 28.320312 L 87.269531 33.220703 C 84.976198 29.88737 81.466901 28.220703 76.740234 28.220703 z M 50.570312 28.269531 C 46.123646 28.269531 42.656589 29.557526 40.169922 32.130859 A 13.93 13.93 0 0 0 36.439453 42.230469 A 12.69 12.69 0 0 0 40.089844 51.730469 C 42.523177 54.110469 45.820469 55.300781 49.980469 55.300781 A 14.24 14.24 0 0 0 57.599609 53.300781 L 57.599609 53.259766 A 10.62 10.62 0 0 0 62.259766 46.429688 L 59.720703 45.320312 A 8.31 8.31 0 0 1 56.119141 51.140625 A 11.63 11.63 0 0 1 49.929688 52.730469 C 46.536354 52.730469 43.890234 51.775807 41.990234 49.869141 A 10.44 10.44 0 0 1 39.150391 42.189453 A 11.68 11.68 0 0 1 42.150391 33.880859 C 44.123724 31.760859 46.909766 30.699219 50.509766 30.699219 C 55.309766 30.699219 58.309766 32.95737 59.509766 37.470703 L 62.019531 36.310547 A 10.13 10.13 0 0 0 57.570312 30.070312 A 13.22 13.22 0 0 0 50.570312 28.269531 z M 177.78906 28.710938 A 2.95 2.95 0 0 0 174.84961 31.650391 A 2.94 2.94 0 1 0 177.78906 28.710938 z M 146.14062 28.849609 L 157.19922 41.279297 L 145.0293 54.669922 L 148.51953 54.669922 L 158.89062 43.25 L 169.31055 54.669922 L 172.81055 54.669922 L 160.68945 41.279297 L 171.75 28.849609 L 168.35938 28.849609 L 158.89062 39.429688 L 149.63086 28.849609 L 146.14062 28.849609 z M 177.88281 29.142578 A 2.51 2.51 0 1 1 177.78906 34.160156 A 2.4 2.4 0 0 1 175.40039 31.660156 A 2.51 2.51 0 0 1 177.88281 29.142578 z M 176.66016 29.929688 L 176.64062 33.369141 L 177.19922 33.369141 L 177.19922 31.929688 L 177.66992 31.929688 L 178.66992 33.460938 L 179.26953 33.460938 L 178.26953 31.929688 A 0.88 0.88 0 0 0 179.16016 30.929688 C 179.16016 30.249688 178.77047 29.929688 177.98047 29.929688 L 176.66016 29.929688 z M 177.2207 30.359375 L 177.89062 30.359375 C 178.25062 30.359375 178.59961 30.419141 178.59961 30.869141 C 178.59961 31.319141 178.32063 31.410156 177.89062 31.410156 L 177.2207 31.410156 L 177.2207 30.359375 z M 76.410156 30.699219 C 79.90349 30.699219 82.603099 31.722865 84.509766 33.769531 L 84.509766 33.810547 A 11.5 11.5 0 0 1 87.210938 41.810547 A 11 11 0 0 1 84.269531 49.640625 A 10.27 10.27 0 0 1 76.410156 52.759766 A 9.67 9.67 0 0 1 68.689453 49.589844 A 11.39 11.39 0 0 1 66.089844 41.810547 A 11.72 11.72 0 0 1 68.689453 33.980469 A 9.72 9.72 0 0 1 76.410156 30.699219 z "
     id="path10"
     style="fill:url(#linearGradient860);fill-opacity:1" />
</svg>
