<?xml version="1.0" encoding="UTF-8"?>
<!-- Created with Inkscape (http://www.inkscape.org/) -->
<svg version="1.1" viewBox="0 0 250 250" xmlns="http://www.w3.org/2000/svg" xmlns:cc="http://creativecommons.org/ns#" xmlns:dc="http://purl.org/dc/elements/1.1/" xmlns:rdf="http://www.w3.org/1999/02/22-rdf-syntax-ns#">
 <metadata>
  <rdf:RDF>
   <cc:Work rdf:about="">
    <dc:format>image/svg+xml</dc:format>
    <dc:type rdf:resource="http://purl.org/dc/dcmitype/StillImage"/>
    <dc:title/>
   </cc:Work>
  </rdf:RDF>
 </metadata>
 <g transform="translate(0,-47)" fill="none">
  <rect x="1.4363" y="47.939" width="247.7" height="247.7" rx="58.459" stroke="#000" stroke-width=".977"/>
  <g stroke="#1b0001" stroke-linecap="round">
   <path d="m141.03 150.51v1.261h-23.602v-1.261zm-82.236 0.0219v1.2611h-23.602v-1.2612zm28.593-52.519h1.2611v23.602h-1.2611zm32.431 53.158a31.646 31.646 0 0 1-31.646 31.646 31.646 31.646 0 0 1-31.646-31.646 31.646 31.646 0 0 1 31.646-31.646 31.646 31.646 0 0 1 31.646 31.646zm5.4076-38.066 0.8975 0.88594-16.579 16.798-0.89752-0.88599zm-74.13 0.2094-0.89754 0.88588 16.579 16.798 0.89754-0.88589zm36.419 67.248h1.2611v23.602h-1.2611zm21.954-9.1776-0.89754 0.88576 16.579 16.798 0.89754-0.88575zm-42.867 0.0302 0.89753 0.88586-16.579 16.798-0.89754-0.88595z" stroke-width="15.684"/>
   <ellipse cx="88.156" cy="151.16" rx="31.646" ry="31.646" stroke-width="25.851"/>
   <path d="m216.27 209.05v0.96321h-17.825v-0.96321zm-62.108 0.0166v0.96321h-17.825v-0.96321zm21.594-40.107h0.9524v18.024h-0.9524zm24.493 40.595a23.9 24.168 0 0 1-23.901 24.168 23.9 24.168 0 0 1-23.9-24.168 23.9 24.168 0 0 1 23.9-24.168 23.9 24.168 0 0 1 23.901 24.168zm4.0839-29.07 0.67784 0.67641-12.521 12.828-0.67788-0.67642zm-55.986 0.15997-0.67778 0.67637 12.521 12.828 0.67785-0.67657zm27.505 51.356h0.95243v18.024h-0.95243zm16.581-7.0087-0.67784 0.67642 12.521 12.828 0.67783-0.67643zm-32.375 0.023 0.67784 0.6764-12.521 12.828-0.6779-0.67641z" stroke-width="11.911"/>
   <ellipse cx="176.34" cy="209.54" rx="23.9" ry="24.168" stroke-width="19.632"/>
  </g>
 </g>
</svg>
