<svg id="Layer_1" data-name="Layer 1" xmlns="http://www.w3.org/2000/svg" viewBox="0 0 185.24 55.36">
  <defs>
    <style>.cls-1{fill:#009ac6;}.cls-2,.cls-3{fill:#c44536;}.cls-2{fill-rule:evenodd;}</style>
  </defs>
  <title>Scannx Logo</title>
  <path class="cls-1" d="M10,18.28l.26-.21c-.21.16.36-.27.59-.43a33.93,33.93,0,0,1,3.24-2,36.35,36.35,0,0,1,11.47-4c14.65-2.53,27.91,5.85,37.56,16.11a1.44,1.44,0,0,0,2,0l.13-.1-.16.13.59-.44c.69-.5,1.4-1,2.12-1.41a40.26,40.26,0,0,1,8-3.83,28.76,28.76,0,0,1,25.37,2.73,1.43,1.43,0,0,0,2.08-.85,17.36,17.36,0,0,1,3.42-7.66c4.47-6.09,12.27-8.15,19.46-8.3s14.67,1.82,19,7.78A17.91,17.91,0,0,1,147.81,21a17.13,17.13,0,0,1,.47,1.86c0,.18.07.37.09.55l0-.3,0,.16c.09,1,1.17,1.91,2.13,1.23a27.89,27.89,0,0,1,9.17-4.16,15.72,15.72,0,0,1,17.55,6.48,1.43,1.43,0,0,0,2.59-.34c1.49-4.95,7-8,11.9-8.85,1.8-.32,1-3-.76-2.73-5.87,1-12.06,4.79-13.88,10.83l2.59-.34c-4.56-6.51-11.28-9.47-19.13-8.14A28.71,28.71,0,0,0,149.05,22l2.13,1.22a19,19,0,0,0-3.37-8.67c-4.1-6-10.92-8.67-17.92-9.32-12.21-1.12-26.51,4.25-29.29,17.45,0,.16-.06.32-.08.47l2.08-.84c-12.29-7.78-28.4-5.65-39.52,3.37h2c-10.34-11-24-19.11-39.53-17A35.47,35.47,0,0,0,8,16.27c-1.4,1.19.62,3.18,2,2" transform="translate(-7.49 -5.13)"/>
  <path class="cls-2" d="M31,60.49q-11.8,0-11.8-10.58H22q0,4.18,2.17,6.09T31,57.9a12,12,0,0,0,5.24-1A4.2,4.2,0,0,0,38.79,53q0-3.18-5.29-4.39-.37-.11-5.29-.85-7.94-1.22-7.94-6.88a6.51,6.51,0,0,1,3.18-5.77,11.63,11.63,0,0,1,6.62-1.8q11.38,0,11.38,9.42H38.58q0-3.6-2-5.21t-6.3-1.61A9.67,9.67,0,0,0,25.4,37a4.24,4.24,0,0,0-2.33,3.81q0,3.18,5.19,4.07c.92.18,2.79.51,5.61,1q7.73,1.32,7.72,7a6.42,6.42,0,0,1-3.49,6A14.8,14.8,0,0,1,31,60.49" transform="translate(-7.49 -5.13)"/>
  <path class="cls-2" d="M65.09,58.43a14.24,14.24,0,0,1-7.62,2q-6.24,0-9.89-3.57a12.69,12.69,0,0,1-3.65-9.5,13.93,13.93,0,0,1,3.73-10.1q3.73-3.86,10.4-3.86a13.22,13.22,0,0,1,7,1.8,10.13,10.13,0,0,1,4.45,6.24L67,42.6q-1.8-6.77-9-6.77-5.4,0-8.36,3.18a11.68,11.68,0,0,0-3,8.31A10.44,10.44,0,0,0,49.48,55q2.85,2.86,7.94,2.86a11.63,11.63,0,0,0,6.19-1.59,8.31,8.31,0,0,0,3.6-5.82l2.54,1.11a10.62,10.62,0,0,1-4.66,6.83" transform="translate(-7.49 -5.13)"/>
  <path class="cls-2" d="M92,38.9q-2.86-3.07-8.1-3.07a9.72,9.72,0,0,0-7.72,3.28,11.72,11.72,0,0,0-2.6,7.83,11.39,11.39,0,0,0,2.6,7.78,9.67,9.67,0,0,0,7.72,3.17,10.27,10.27,0,0,0,7.86-3.12,11,11,0,0,0,2.94-7.83,11.5,11.5,0,0,0-2.7-8m2.7,21V55.2Q91.18,60.39,84,60.39q-6.14,0-9.68-3.91A13.71,13.71,0,0,1,71,46.94a13.79,13.79,0,0,1,3.39-9.68q3.54-3.91,9.84-3.91,7.09,0,10.53,5V33.45h2.7V59.86Z" transform="translate(-7.49 -5.13)"/>
  <path class="cls-2" d="M122.25,59.8V42.92A6.66,6.66,0,0,0,120,37.58a9.18,9.18,0,0,0-5.93-1.75,8.93,8.93,0,0,0-9.58,9.48V59.8h-2.7V33.93h2.7v3.54q3.07-4.13,9.53-4.13a12.45,12.45,0,0,1,7.67,2.22,8.12,8.12,0,0,1,3.23,6.88V59.8Z" transform="translate(-7.49 -5.13)"/>
  <path class="cls-2" d="M149.5,59.8V42.92a6.66,6.66,0,0,0-2.23-5.35,9.2,9.2,0,0,0-5.93-1.75,8.93,8.93,0,0,0-9.58,9.48V59.8h-2.7V33.93h2.7v3.54q3.07-4.13,9.53-4.13A12.46,12.46,0,0,1,149,35.56a8.12,8.12,0,0,1,3.23,6.88V59.8Z" transform="translate(-7.49 -5.13)"/>
  <polygon class="cls-2" points="169.31 54.67 158.89 43.25 148.52 54.67 145.03 54.67 157.2 41.28 146.14 28.85 149.63 28.85 158.89 39.43 168.36 28.85 171.75 28.85 160.69 41.28 172.81 54.67 169.31 54.67"/>
  <path class="cls-3" d="M185.28,33.84a2.94,2.94,0,1,1-2.94,2.94,2.95,2.95,0,0,1,2.94-2.94m0,5.45a2.51,2.51,0,1,0-2.39-2.5,2.4,2.4,0,0,0,2.39,2.5m-1.13-4.23h1.32c.79,0,1.18.32,1.18,1a.88.88,0,0,1-.89,1l1,1.53h-.6l-1-1.53h-.47V38.5h-.56Zm.56,1.48h.67c.43,0,.71-.09.71-.54s-.35-.51-.71-.51h-.67Z" transform="translate(-7.49 -5.13)"/>
</svg>