<?xml version="1.0" encoding="UTF-8"?>
<!-- Created with Inkscape (http://www.inkscape.org/) -->
<svg width="159mm" height="161mm" version="1.1" viewBox="0 0 159 161" xmlns="http://www.w3.org/2000/svg" xmlns:cc="http://creativecommons.org/ns#" xmlns:dc="http://purl.org/dc/elements/1.1/" xmlns:rdf="http://www.w3.org/1999/02/22-rdf-syntax-ns#">
 <metadata>
  <rdf:RDF>
   <cc:Work rdf:about="">
    <dc:format>image/svg+xml</dc:format>
    <dc:type rdf:resource="http://purl.org/dc/dcmitype/StillImage"/>
    <dc:title/>
   </cc:Work>
  </rdf:RDF>
 </metadata>
 <g transform="translate(0,-136)" stroke="#09000f">
  <g fill="none">
   <path transform="matrix(.26458 0 0 .26458 0 136)" d="m211.26 79.312c-9.69 0-17.49 7.8002-17.49 17.49v38.324h-109.94c-9.69 0-17.492 7.8002-17.492 17.49v374.54c0 9.69 7.8022 17.49 17.492 17.49h283.19c9.69 0 17.492-7.8002 17.492-17.49v-38.324h109.94c9.69 0 17.49-7.8002 17.49-17.49v-334.77l-61.211-57.268z" stroke-width="20.751"/>
   <rect x="34.372" y="204.56" width="16.795" height="2.1269" rx="0" ry="0" stroke-width="3.2887"/>
   <rect x="34.148" y="217.94" width="15.66" height="2.1919" rx="0" ry="0" stroke-width="3.2237"/>
   <rect x="34.367" y="231.58" width="16.701" height="2.1322" rx="0" ry="0" stroke-width="3.2834"/>
   <rect x="34.243" y="245.06" width="15.66" height="2.1919" rx="0" ry="0" stroke-width="3.2237"/>
  </g>
  <g fill="#fff" stroke-width="4.2331">
   <rect x="68.261" y="190.1" width="50.05" height="1.1825" rx="0" ry="0"/>
   <rect x="68.07" y="203.52" width="50.05" height="1.1825" rx="0" ry="0"/>
   <rect x="68.259" y="217.13" width="50.05" height="1.1825" rx="0" ry="0"/>
   <rect x="68.165" y="230.64" width="50.05" height="1.1825" rx="0" ry="0"/>
  </g>
  <path transform="matrix(.26458 0 0 .26458 0 136)" d="m445.94 79.312h-234.68c-9.69 0-17.49 7.8002-17.49 17.49v374.54c0 9.69 7.8002 17.49 17.49 17.49h283.19c9.69 0 17.49-7.8002 17.49-17.49v-328.29c-0.0618 0.16805-0.0382 0.3709-0.10742 0.53516-0.58837 1.3957-1.4405 2.6515-2.4941 3.7051s-2.3094 1.9058-3.7051 2.4942c-1.3957 0.58836-2.9303 0.9121-4.5449 0.9121h-51.674c-1.6146 0-3.1512-0.32374-4.5469-0.9121-1.3957-0.58837-2.6515-1.4406-3.7051-2.4942s-1.9058-2.3094-2.4941-3.7051c-0.58837-1.3957-0.91211-2.9322-0.91211-4.5469v-48.779c0-1.6146 0.32374-3.1512 0.91211-4.5469 0.58836-1.3957 1.4405-2.6495 2.4941-3.7031 1.0536-1.0536 2.3094-1.9058 3.7051-2.4941 0.32795-0.13825 0.72573-0.10648 1.0684-0.21484z" fill="none" stroke-width="20.751"/>
  <path transform="matrix(.26458 0 0 .26458 0 136)" d="m445.94 79.312c-0.34263 0.10836-0.74041 0.07659-1.0684 0.21484-1.3957 0.58837-2.6515 1.4405-3.7051 2.4941-1.0536 1.0536-1.9058 2.3074-2.4941 3.7031-0.58837 1.3957-0.91211 2.9322-0.91211 4.5469v48.779c0 1.6146 0.32374 3.1512 0.91211 4.5469 0.58836 1.3957 1.4405 2.6515 2.4941 3.7051s2.3094 1.9058 3.7051 2.4942c1.3957 0.58836 2.9322 0.9121 4.5469 0.9121h51.674c1.6146 0 3.1492-0.32374 4.5449-0.9121 1.3957-0.58837 2.6515-1.4406 3.7051-2.4942s1.9058-2.3094 2.4941-3.7051c0.0692-0.16426 0.0456-0.36711 0.10742-0.53516v-6.4824l-61.211-57.268z" fill="none" stroke-width="20.751"/>
 </g>
</svg>
