<?xml version="1.0" encoding="UTF-8" standalone="no"?>
<!-- Created with Inkscape (http://www.inkscape.org/) -->

<svg
   xmlns:dc="http://purl.org/dc/elements/1.1/"
   xmlns:cc="http://creativecommons.org/ns#"
   xmlns:rdf="http://www.w3.org/1999/02/22-rdf-syntax-ns#"
   xmlns:svg="http://www.w3.org/2000/svg"
   xmlns="http://www.w3.org/2000/svg"
   xmlns:sodipodi="http://sodipodi.sourceforge.net/DTD/sodipodi-0.dtd"
   xmlns:inkscape="http://www.inkscape.org/namespaces/inkscape"
   width="127mm"
   height="132mm"
   viewBox="0 0 127 132"
   version="1.1"
   id="svg3257"
   inkscape:version="0.92.4 (5da689c313, 2019-01-14)"
   sodipodi:docname="copy.svg">
  <defs
     id="defs3251" />
  <sodipodi:namedview
     id="base"
     pagecolor="#ffffff"
     bordercolor="#666666"
     borderopacity="1.0"
     inkscape:pageopacity="0.0"
     inkscape:pageshadow="2"
     inkscape:zoom="7.9195959"
     inkscape:cx="432.28483"
     inkscape:cy="458.4027"
     inkscape:document-units="mm"
     inkscape:current-layer="layer1"
     showgrid="false"
     inkscape:window-width="1920"
     inkscape:window-height="1001"
     inkscape:window-x="-9"
     inkscape:window-y="-9"
     inkscape:window-maximized="1"
     inkscape:pagecheckerboard="true" />
  <metadata
     id="metadata3254">
    <rdf:RDF>
      <cc:Work
         rdf:about="">
        <dc:format>image/svg+xml</dc:format>
        <dc:type
           rdf:resource="http://purl.org/dc/dcmitype/StillImage" />
        <dc:title></dc:title>
      </cc:Work>
    </rdf:RDF>
  </metadata>
  <g
     inkscape:label="Layer 1"
     inkscape:groupmode="layer"
     id="layer1"
     transform="translate(0,-165)">
    <path
       style="fill:none;fill-opacity:1;stroke:#09000f;stroke-width:5.49045897;stroke-miterlimit:4;stroke-dasharray:none;stroke-opacity:1"
       d="m 42.667154,169.68484 c -2.563809,0 -4.627626,2.06381 -4.627626,4.62763 v 10.13995 H 8.9519006 c -2.5638115,0 -4.6281383,2.06381 -4.6281383,4.62762 v 99.09834 c 0,2.56382 2.0643268,4.62763 4.6281383,4.62763 H 83.879109 c 2.563812,0 4.628127,-2.06381 4.628127,-4.62763 V 278.03843 H 117.5948 c 2.56382,0 4.62763,-2.06381 4.62763,-4.62762 v -88.57392 l -16.1954,-15.15205 z"
       id="rect3816-7"
       inkscape:connector-curvature="0" />
    <rect
       style="fill:none;fill-opacity:1;stroke:#09000f;stroke-width:3.28869033;stroke-miterlimit:4;stroke-dasharray:none;stroke-opacity:1"
       id="rect3818-2"
       width="16.795307"
       height="2.1269109"
       x="21.142639"
       y="217.2579"
       rx="0"
       ry="0" />
    <rect
       style="fill:none;fill-opacity:1;stroke:#09000f;stroke-width:3.22374296;stroke-miterlimit:4;stroke-dasharray:none;stroke-opacity:1"
       id="rect3818-8-4"
       width="15.66026"
       height="2.1918592"
       x="20.918991"
       y="230.64337"
       rx="0"
       ry="0" />
    <rect
       style="fill:none;fill-opacity:1;stroke:#09000f;stroke-width:3.28344417;stroke-miterlimit:4;stroke-dasharray:none;stroke-opacity:1"
       id="rect3818-9-8"
       width="16.700552"
       height="2.1321578"
       x="21.137814"
       y="244.28035"
       rx="0"
       ry="0" />
    <rect
       style="fill:none;fill-opacity:1;stroke:#09000f;stroke-width:3.22374201;stroke-miterlimit:4;stroke-dasharray:none;stroke-opacity:1"
       id="rect3818-6-9"
       width="15.660267"
       height="2.1918597"
       x="21.01347"
       y="257.76324"
       rx="0"
       ry="0" />
    <rect
       style="fill:#ffffff;fill-opacity:1;stroke:#09000f;stroke-width:4.23310328;stroke-miterlimit:4;stroke-dasharray:none;stroke-opacity:1"
       id="rect3818"
       width="50.050415"
       height="1.1824992"
       x="55.032318"
       y="202.80193"
       rx="0"
       ry="0" />
    <rect
       style="fill:#ffffff;fill-opacity:1;stroke:#09000f;stroke-width:4.23310328;stroke-miterlimit:4;stroke-dasharray:none;stroke-opacity:1"
       id="rect3818-8"
       width="50.050419"
       height="1.1824992"
       x="54.841125"
       y="216.21991"
       rx="0"
       ry="0" />
    <rect
       style="fill:#ffffff;fill-opacity:1;stroke:#09000f;stroke-width:4.23310328;stroke-miterlimit:4;stroke-dasharray:none;stroke-opacity:1"
       id="rect3818-9"
       width="50.050419"
       height="1.1824992"
       x="55.030106"
       y="229.82697"
       rx="0"
       ry="0" />
    <rect
       style="fill:#ffffff;fill-opacity:1;stroke:#09000f;stroke-width:4.23310328;stroke-miterlimit:4;stroke-dasharray:none;stroke-opacity:1"
       id="rect3818-6"
       width="50.050419"
       height="1.1824992"
       x="54.935608"
       y="243.33961"
       rx="0"
       ry="0" />
    <path
       style="fill:none;fill-opacity:1;stroke:#09000f;stroke-width:5.49045897;stroke-miterlimit:4;stroke-dasharray:none;stroke-opacity:1"
       d="M 104.75889,169.68484 H 42.667154 c -2.563809,0 -4.627626,2.06381 -4.627626,4.62763 v 99.09834 c 0,2.56381 2.063817,4.62762 4.627626,4.62762 H 117.5948 c 2.56382,0 4.62763,-2.06381 4.62763,-4.62762 v -86.85878 c -0.0164,0.0445 -0.0101,0.0981 -0.0284,0.14159 -0.15568,0.36928 -0.38115,0.70154 -0.65991,0.9803 -0.27877,0.27877 -0.61103,0.50424 -0.9803,0.65991 -0.36928,0.15567 -0.77531,0.24133 -1.20251,0.24133 h -13.67206 c -0.42721,0 -0.83375,-0.0857 -1.20303,-0.24133 -0.36927,-0.15567 -0.70153,-0.38114 -0.9803,-0.65991 -0.27876,-0.27876 -0.50423,-0.61102 -0.6599,-0.9803 -0.15568,-0.36928 -0.24133,-0.77582 -0.24133,-1.20302 v -12.90619 c 0,-0.42721 0.0857,-0.83375 0.24133,-1.20303 0.15567,-0.36928 0.38114,-0.70102 0.6599,-0.97979 0.27877,-0.27876 0.61103,-0.50423 0.9803,-0.6599 0.0868,-0.0366 -3.75021,0.13884 -3.65956,0.11014 z"
       id="path16551"
       inkscape:connector-curvature="0"
       sodipodi:nodetypes="cssssssccscsscscssccccc" />
  </g>
</svg>
