<?xml version="1.0" encoding="UTF-8" standalone="no"?>
<!-- Created with Inkscape (http://www.inkscape.org/) -->

<svg
   xmlns:osb="http://www.openswatchbook.org/uri/2009/osb"
   xmlns:dc="http://purl.org/dc/elements/1.1/"
   xmlns:cc="http://creativecommons.org/ns#"
   xmlns:rdf="http://www.w3.org/1999/02/22-rdf-syntax-ns#"
   xmlns:svg="http://www.w3.org/2000/svg"
   xmlns="http://www.w3.org/2000/svg"
   xmlns:sodipodi="http://sodipodi.sourceforge.net/DTD/sodipodi-0.dtd"
   xmlns:inkscape="http://www.inkscape.org/namespaces/inkscape"
   width="254mm"
   height="254mm"
   viewBox="0 0 254 254"
   version="1.1"
   id="svg8"
   inkscape:version="0.92.4 (5da689c313, 2019-01-14)"
   sodipodi:docname="onedrive-print-17.svg">
  <defs
     id="defs2">
    <linearGradient
       id="linearGradient4880"
       osb:paint="solid">
      <stop
         style="stop-color:#000000;stop-opacity:1;"
         offset="0"
         id="stop4878" />
    </linearGradient>
  </defs>
  <sodipodi:namedview
     id="base"
     pagecolor="#ffffff"
     bordercolor="#666666"
     borderopacity="1.0"
     inkscape:pageopacity="0.0"
     inkscape:pageshadow="2"
     inkscape:zoom="0.49497475"
     inkscape:cx="677.75339"
     inkscape:cy="363.1436"
     inkscape:document-units="mm"
     inkscape:current-layer="layer1"
     showgrid="true"
     inkscape:window-width="1920"
     inkscape:window-height="1001"
     inkscape:window-x="-9"
     inkscape:window-y="-9"
     inkscape:window-maximized="1"
     inkscape:pagecheckerboard="true">
    <inkscape:grid
       type="xygrid"
       id="grid10414"
       spacingx="1.8520833"
       spacingy="1.8520833" />
  </sodipodi:namedview>
  <metadata
     id="metadata5">
    <rdf:RDF>
      <cc:Work
         rdf:about="">
        <dc:format>image/svg+xml</dc:format>
        <dc:type
           rdf:resource="http://purl.org/dc/dcmitype/StillImage" />
        <dc:title></dc:title>
      </cc:Work>
    </rdf:RDF>
  </metadata>
  <g
     inkscape:label="Layer 1"
     inkscape:groupmode="layer"
     id="layer1"
     transform="translate(0,-43)">
    <path
       style="fill:#0948ad;fill-opacity:1;stroke-width:1.42463648"
       d="m 232.375,12.667969 c -122.40385,0 -220.947266,98.541461 -220.947266,220.945311 v 494.29688 c 0,122.40381 98.543416,220.94726 220.947266,220.94726 h 494.29688 c 122.40381,0 220.94531,-98.54345 220.94531,-220.94726 V 233.61328 c 0,-122.40385 -98.5415,-220.945311 -220.94531,-220.945311 z M 457.94531,121.41016 c 67.6351,0 123.3088,51.06921 130.67578,116.75195 h -0.18359 c -10.95231,0 -21.69422,1.57758 -32.07031,4.70703 -24.81381,-27.58745 -60.25633,-43.62305 -97.91992,-43.62305 -63.40751,0 -117.31642,46.14242 -129.16797,106.6211 -51.1202,5.50542 -91.06544,48.91487 -91.06446,101.49023 0,21.21759 6.52459,40.9493 17.6543,57.29492 h -49.63672 c -45.87499,0 -83.07226,-37.19802 -83.07226,-83.07226 0,-44.58841 35.1558,-80.85185 79.23242,-82.88281 -1.84237,-7.35727 -2.92969,-15.01278 -2.92969,-22.94922 0,-52.22166 42.33345,-94.5586 94.54492,-94.5586 16.98987,0 32.86918,4.5412 46.65235,12.375 21.71616,-42.77924 66.0272,-72.15429 117.28515,-72.15429 z m 0.50196,100.39648 c 37.68612,0 70.90926,19.09729 90.51953,48.16016 11.9159,-5.85797 25.2887,-9.24414 39.4707,-9.24414 49.52568,0 89.67578,40.13963 89.67578,89.67578 0,2.00836 -0.17429,3.97284 -0.30469,5.95898 5.65922,0.55621 11.09737,1.85096 16.23829,3.75977 h 33.11328 c 2.68236,0 4.84179,2.15943 4.84179,4.84179 v 103.17579 h 57.8086 c 26.0736,0 47.06445,20.99058 47.06445,47.06445 v 151.83984 c 0,26.07375 -20.99085,47.06446 -47.06445,47.06446 h -11.92578 v -98.71094 c 0,-3.53118 -2.84398,-6.37305 -6.375,-6.37305 H 408.92383 c -3.53118,0 -6.375,2.84187 -6.375,6.37305 v 98.71094 h -11.75781 c -26.0736,0 -47.0625,-20.99071 -47.0625,-47.06446 V 515.19922 c 0,-10.65071 3.50546,-20.45019 9.42578,-28.32031 h -12.86719 c -43.92174,0 -79.52148,-35.59884 -79.52149,-79.52149 0,-43.92075 35.59975,-79.51953 79.52149,-79.51953 3.10607,0 6.14948,0.21747 9.15625,0.55273 1.35434,-59.06825 49.59094,-106.58398 109.00391,-106.58398 z m 275.67968,181.20117 c 1.71701,5.85 2.63867,12.03775 2.63867,18.44336 h 0.006 c 0,6.39437 -0.9348,12.56726 -2.64453,18.40821 z m -316.82226,220.6543 h 345.26367 c 0.0719,0 0.13086,0.057 0.13086,0.12891 v 91.32226 c 0,0.0719 -0.059,0.12891 -0.13086,0.12891 h -31.60352 v 117.27148 c 0,2.68237 -2.15943,4.8418 -4.84179,4.8418 H 450.67969 c -2.68237,0 -4.8418,-2.15943 -4.8418,-4.8418 V 715.24219 h -28.5332 c -0.0719,0 -0.12891,-0.057 -0.12891,-0.12891 v -91.32226 c 0,-0.0719 0.057,-0.12891 0.12891,-0.12891 z"
       transform="matrix(0.26458333,0,0,0.26458333,0,43)"
       id="rect12"
       inkscape:connector-curvature="0" />
    <rect
       style="opacity:1;fill:#800000;fill-opacity:1;stroke-width:0.2718657"
       id="rect4526"
       width="0"
       height="0"
       x="56.993286"
       y="129.09325" />
    <rect
       style="opacity:1;fill:#0948ad;fill-opacity:1;stroke:#0948ad;stroke-width:1.30241036;stroke-miterlimit:4;stroke-dasharray:none;stroke-opacity:1"
       id="rect4941"
       width="55.28846"
       height="0.32210493"
       x="128.27"
       y="254.3309"
       rx="1.1336584" />
    <rect
       style="opacity:1;fill:#0948ad;fill-opacity:1;stroke:#0948ad;stroke-width:1.30241036;stroke-miterlimit:4;stroke-dasharray:none;stroke-opacity:1"
       id="rect4941-2"
       width="55.28846"
       height="0.32210493"
       x="128.4151"
       y="244.89587"
       rx="1.1336584" />
    <rect
       style="opacity:1;fill:#0948ad;fill-opacity:1;stroke:#0948ad;stroke-width:1.18482673;stroke-miterlimit:4;stroke-dasharray:none;stroke-opacity:1"
       id="rect4941-0"
       width="33.519806"
       height="0.43968856"
       x="128.35643"
       y="227.43741"
       rx="0.68730408" />
    <rect
       style="opacity:1;fill:#0948ad;fill-opacity:1;stroke:#0948ad;stroke-width:1.18482673;stroke-miterlimit:4;stroke-dasharray:none;stroke-opacity:1"
       id="rect4941-0-6"
       width="33.519806"
       height="0.43968856"
       x="128.23212"
       y="235.7616"
       rx="0.68730408" />
    <circle
       style="opacity:1;fill:#0948ad;fill-opacity:1;stroke:#0948ad;stroke-width:3.08454728;stroke-miterlimit:4;stroke-dasharray:none;stroke-opacity:1"
       id="path4987"
       cx="202.53516"
       cy="179.10184"
       r="1.0265365" />
    <circle
       style="opacity:1;fill:#0948ad;fill-opacity:1;stroke:#0948ad;stroke-width:3.08454728;stroke-miterlimit:4;stroke-dasharray:none;stroke-opacity:1"
       id="path4987-3"
       cx="211.88908"
       cy="179.10985"
       r="1.0265365" />
    <path
       style="opacity:1;fill:none;fill-opacity:1;stroke:#0948ad;stroke-width:7.80602598;stroke-miterlimit:4;stroke-dasharray:none;stroke-opacity:1"
       d="m 419.42969,627.2168 c -0.0719,0 -0.13086,0.059 -0.13086,0.13086 v 91.32031 c 0,0.0719 0.059,0.13086 0.13086,0.13086 h 28.53125 v -47.37305 c 0,-2.68236 2.15943,-4.8418 4.84179,-4.8418 h 275.44336 c 2.68237,0 4.8418,2.15944 4.8418,4.8418 v 47.37305 h 31.60547 c 0.0719,0 0.12891,-0.059 0.12891,-0.13086 v -91.32031 c 0,-0.0719 -0.057,-0.13086 -0.12891,-0.13086 z"
       transform="matrix(0.26458333,0,0,0.26458333,0,43)"
       id="rect4922-2"
       inkscape:connector-curvature="0" />
    <path
       style="opacity:1;fill:none;fill-opacity:1;stroke:#0948ad;stroke-width:10.38462639;stroke-miterlimit:4;stroke-dasharray:none;stroke-opacity:1"
       d="m 393.78906,471.69141 c -26.07355,0 -47.0625,20.99058 -47.0625,47.06445 v 151.83789 c 0,26.07375 20.98895,47.06641 47.0625,47.06641 h 11.75782 v -98.71094 c 0,-3.53118 2.84382,-6.37305 6.375,-6.37305 h 362.58593 c 3.53103,0 6.375,2.84187 6.375,6.37305 v 98.71094 h 11.92578 c 26.0736,0 47.06446,-20.99266 47.06446,-47.06641 V 518.75586 c 0,-26.07387 -20.99086,-47.06445 -47.06446,-47.06445 H 735 V 533.1582 C 735,535.84057 732.84057,538 730.1582,538 H 454.71484 c -2.68236,0 -4.84179,-2.15943 -4.84179,-4.8418 v -61.46679 z"
       transform="matrix(0.26458333,0,0,0.26458333,0,43)"
       id="rect4844"
       inkscape:connector-curvature="0" />
    <rect
       style="opacity:1;fill:none;fill-opacity:1;stroke:#0948ad;stroke-width:2.76506686;stroke-miterlimit:4;stroke-dasharray:none;stroke-opacity:1"
       id="rect4894-0-4"
       width="75.439621"
       height="46.124134"
       x="118.53333"
       y="219.21249"
       rx="1.2810634" />
    <rect
       style="opacity:1;fill:none;fill-opacity:1;stroke:#0948ad;stroke-width:2.76506686;stroke-miterlimit:4;stroke-dasharray:none;stroke-opacity:1"
       id="rect4894-0"
       width="75.439621"
       height="46.124134"
       x="119.02911"
       y="139.57292"
       rx="1.2810634" />
  </g>
</svg>
