<?xml version="1.0" encoding="UTF-8" standalone="no"?>
<!-- Created with Inkscape (http://www.inkscape.org/) -->

<svg
   xmlns:osb="http://www.openswatchbook.org/uri/2009/osb"
   xmlns:dc="http://purl.org/dc/elements/1.1/"
   xmlns:cc="http://creativecommons.org/ns#"
   xmlns:rdf="http://www.w3.org/1999/02/22-rdf-syntax-ns#"
   xmlns:svg="http://www.w3.org/2000/svg"
   xmlns="http://www.w3.org/2000/svg"
   xmlns:sodipodi="http://sodipodi.sourceforge.net/DTD/sodipodi-0.dtd"
   xmlns:inkscape="http://www.inkscape.org/namespaces/inkscape"
   width="254mm"
   height="254mm"
   viewBox="0 0 254 254"
   version="1.1"
   id="svg8"
   inkscape:version="0.92.4 (5da689c313, 2019-01-14)"
   sodipodi:docname="phone-print-1.svg">
  <defs
     id="defs2">
    <linearGradient
       id="linearGradient4880"
       osb:paint="solid">
      <stop
         style="stop-color:#000000;stop-opacity:1;"
         offset="0"
         id="stop4878" />
    </linearGradient>
  </defs>
  <sodipodi:namedview
     id="base"
     pagecolor="#ffffff"
     bordercolor="#666666"
     borderopacity="1.0"
     inkscape:pageopacity="0.0"
     inkscape:pageshadow="2"
     inkscape:zoom="0.24748738"
     inkscape:cx="1090.3768"
     inkscape:cy="431.13166"
     inkscape:document-units="mm"
     inkscape:current-layer="layer1"
     showgrid="true"
     inkscape:window-width="1920"
     inkscape:window-height="1001"
     inkscape:window-x="-9"
     inkscape:window-y="-9"
     inkscape:window-maximized="1"
     inkscape:pagecheckerboard="true">
    <inkscape:grid
       type="xygrid"
       id="grid10414"
       spacingx="1.8520833"
       spacingy="1.8520833" />
  </sodipodi:namedview>
  <metadata
     id="metadata5">
    <rdf:RDF>
      <cc:Work
         rdf:about="">
        <dc:format>image/svg+xml</dc:format>
        <dc:type
           rdf:resource="http://purl.org/dc/dcmitype/StillImage" />
        <dc:title></dc:title>
      </cc:Work>
    </rdf:RDF>
  </metadata>
  <g
     inkscape:label="Layer 1"
     inkscape:groupmode="layer"
     id="layer1"
     transform="translate(0,-43)">
    <path
       style="fill:#006341;fill-opacity:1;stroke-width:1.42463648"
       d="m 232.375,12.667969 c -122.40385,0 -220.947266,98.541461 -220.947266,220.945311 v 494.29688 c 0,122.40381 98.543416,220.94726 220.947266,220.94726 h 494.29688 c 122.40381,0 220.94531,-98.54345 220.94531,-220.94726 V 233.61328 c 0,-122.40385 -98.5415,-220.945311 -220.94531,-220.945311 z M 179.88672,120.97266 h 186.55273 c 30.18162,0 54.48047,24.29886 54.48047,54.48046 v 292.68165 h 25.95703 V 364.95898 c 0,-2.68236 2.15943,-4.84179 4.8418,-4.84179 h 275.44141 c 2.68236,0 4.84179,2.15943 4.84179,4.84179 v 103.17579 h 57.8086 c 26.0736,0 47.06445,20.99058 47.06445,47.06445 v 151.83984 c 0,26.07375 -20.99085,47.06446 -47.06445,47.06446 h -11.92578 v -98.71094 c 0,-3.53118 -2.84398,-6.37305 -6.375,-6.37305 H 408.92383 c -3.53118,0 -6.375,2.84187 -6.375,6.37305 v 98.71094 h -11.75781 c -26.0736,0 -47.0625,-20.99071 -47.0625,-47.06446 V 630 h -163.8418 c -30.18162,0 -54.48047,-24.29885 -54.48047,-54.48047 V 175.45312 c 0,-30.1816 24.29885,-54.48046 54.48047,-54.48046 z m 237.41797,502.68945 h 345.26367 c 0.0719,0 0.13086,0.057 0.13086,0.12891 v 91.32226 c 0,0.0719 -0.059,0.12891 -0.13086,0.12891 h -31.60352 v 117.27148 c 0,2.68237 -2.15943,4.8418 -4.84179,4.8418 H 450.67969 c -2.68237,0 -4.8418,-2.15943 -4.8418,-4.8418 V 715.24219 h -28.5332 c -0.0719,0 -0.12891,-0.057 -0.12891,-0.12891 v -91.32226 c 0,-0.0719 0.057,-0.12891 0.12891,-0.12891 z"
       transform="matrix(0.26458333,0,0,0.26458333,0,43)"
       id="rect12"
       inkscape:connector-curvature="0" />
    <rect
       style="opacity:1;fill:#800000;fill-opacity:1;stroke-width:0.2718657"
       id="rect4526"
       width="0"
       height="0"
       x="56.993286"
       y="129.09325" />
    <rect
       style="opacity:1;fill:#006341;fill-opacity:1;stroke:#006341;stroke-width:1.30241036;stroke-miterlimit:4;stroke-dasharray:none;stroke-opacity:1"
       id="rect4941"
       width="55.28846"
       height="0.32210493"
       x="128.27"
       y="254.3309"
       rx="1.1336584" />
    <rect
       style="opacity:1;fill:#006341;fill-opacity:1;stroke:#006341;stroke-width:1.30241036;stroke-miterlimit:4;stroke-dasharray:none;stroke-opacity:1"
       id="rect4941-2"
       width="55.28846"
       height="0.32210493"
       x="128.4151"
       y="244.89587"
       rx="1.1336584" />
    <rect
       style="opacity:1;fill:#006341;fill-opacity:1;stroke:#006341;stroke-width:1.18482673;stroke-miterlimit:4;stroke-dasharray:none;stroke-opacity:1"
       id="rect4941-0"
       width="33.519806"
       height="0.43968856"
       x="128.35643"
       y="227.43741"
       rx="0.68730408" />
    <rect
       style="opacity:1;fill:#006341;fill-opacity:1;stroke:#006341;stroke-width:1.18482673;stroke-miterlimit:4;stroke-dasharray:none;stroke-opacity:1"
       id="rect4941-0-6"
       width="33.519806"
       height="0.43968856"
       x="128.23212"
       y="235.7616"
       rx="0.68730408" />
    <circle
       style="opacity:1;fill:#006341;fill-opacity:1;stroke:#006341;stroke-width:3.08454728;stroke-miterlimit:4;stroke-dasharray:none;stroke-opacity:1"
       id="path4987"
       cx="202.53516"
       cy="179.10184"
       r="1.0265365" />
    <circle
       style="opacity:1;fill:#006341;fill-opacity:1;stroke:#006341;stroke-width:3.08454728;stroke-miterlimit:4;stroke-dasharray:none;stroke-opacity:1"
       id="path4987-3"
       cx="211.88908"
       cy="179.10985"
       r="1.0265365" />
    <path
       style="opacity:1;fill:none;fill-opacity:1;stroke:#006341;stroke-width:7.80602598;stroke-miterlimit:4;stroke-dasharray:none;stroke-opacity:1"
       d="m 419.42969,627.2168 c -0.0719,0 -0.13086,0.059 -0.13086,0.13086 v 91.32031 c 0,0.0719 0.059,0.13086 0.13086,0.13086 h 28.53125 v -47.37305 c 0,-2.68236 2.15943,-4.8418 4.84179,-4.8418 h 275.44336 c 2.68237,0 4.8418,2.15944 4.8418,4.8418 v 47.37305 h 31.60547 c 0.0719,0 0.12891,-0.059 0.12891,-0.13086 v -91.32031 c 0,-0.0719 -0.057,-0.13086 -0.12891,-0.13086 z"
       transform="matrix(0.26458333,0,0,0.26458333,0,43)"
       id="rect4922-2"
       inkscape:connector-curvature="0" />
    <rect
       style="fill:#006341;fill-opacity:1;stroke:none;stroke-width:1.16220105;stroke-miterlimit:4;stroke-dasharray:none;stroke-opacity:1"
       id="rect1428-4"
       width="23.314983"
       height="2.4840403"
       x="60.609959"
       y="83.593239"
       rx="1.3714571" />
    <circle
       style="fill:#006341;fill-opacity:1;stroke:none;stroke-width:1.07438004;stroke-miterlimit:4;stroke-dasharray:none;stroke-opacity:1"
       id="path1434-7"
       cx="72.235764"
       cy="198.01675"
       r="6.8117566" />
    <path
       style="fill:#006341;fill-opacity:1;stroke:none;stroke-width:5.82153177;stroke-miterlimit:4;stroke-dasharray:none;stroke-opacity:1"
       d="m 157.78125,206.13086 c -5.62865,0 -10.16016,4.53151 -10.16016,10.16016 v 316.60742 c 0,5.62864 4.53151,10.16015 10.16016,10.16015 h 187.94531 v -25.30273 c 0,-26.07387 20.98887,-47.06445 47.0625,-47.06445 h 7.13672 V 216.29102 c 0,-5.62865 -4.53151,-10.16016 -10.16016,-10.16016 z"
       transform="matrix(0.26458333,0,0,0.26458333,0,43)"
       id="rect1436-5"
       inkscape:connector-curvature="0" />
    <path
       style="opacity:1;fill:none;fill-opacity:1;stroke:#006341;stroke-width:10.38462639;stroke-miterlimit:4;stroke-dasharray:none;stroke-opacity:1"
       d="m 393.78906,470.69141 c -26.07357,0 -47.0625,20.99058 -47.0625,47.06445 V 669.5957 c 0,26.07372 20.98893,47.06446 47.0625,47.06446 h 11.75782 v -98.71094 c 0,-3.53118 2.84382,-6.37305 6.375,-6.37305 h 362.58593 c 3.53103,0 6.375,2.84187 6.375,6.37305 v 98.71094 h 11.92578 c 26.0736,0 47.06446,-20.99074 47.06446,-47.06446 V 517.75586 c 0,-26.07387 -20.99086,-47.06445 -47.06446,-47.06445 H 735 V 533.1582 C 735,535.84057 732.84057,538 730.1582,538 H 454.71484 c -2.68236,0 -4.84179,-2.15943 -4.84179,-4.8418 v -62.46679 z"
       transform="matrix(0.26458333,0,0,0.26458333,0,43)"
       id="rect4844-3-7"
       inkscape:connector-curvature="0" />
    <rect
       style="opacity:1;fill:none;fill-opacity:1;stroke:#006341;stroke-width:2.76506686;stroke-miterlimit:4;stroke-dasharray:none;stroke-opacity:1"
       id="rect4894-0-2-9"
       width="75.439621"
       height="46.124134"
       x="119.02912"
       y="139.22173"
       rx="1.2810634" />
    <rect
       style="opacity:1;fill:none;fill-opacity:1;stroke:#006341;stroke-width:2.76506686;stroke-miterlimit:4;stroke-dasharray:none;stroke-opacity:1"
       id="rect4894-0-4-7-7-0"
       width="75.439621"
       height="46.124134"
       x="118.25861"
       y="219.36716"
       rx="1.2810634" />
  </g>
</svg>
