<?xml version="1.0" encoding="UTF-8" standalone="no"?>
<!-- Created with Inkscape (http://www.inkscape.org/) -->

<svg
   xmlns:dc="http://purl.org/dc/elements/1.1/"
   xmlns:cc="http://creativecommons.org/ns#"
   xmlns:rdf="http://www.w3.org/1999/02/22-rdf-syntax-ns#"
   xmlns:svg="http://www.w3.org/2000/svg"
   xmlns="http://www.w3.org/2000/svg"
   xmlns:sodipodi="http://sodipodi.sourceforge.net/DTD/sodipodi-0.dtd"
   xmlns:inkscape="http://www.inkscape.org/namespaces/inkscape"
   width="254mm"
   height="254mm"
   viewBox="0 0 254 254"
   version="1.1"
   id="svg8"
   inkscape:version="0.92.4 (5da689c313, 2019-01-14)"
   sodipodi:docname="usb-scan-5.svg">
  <defs
     id="defs2" />
  <sodipodi:namedview
     id="base"
     pagecolor="#ffffff"
     bordercolor="#666666"
     borderopacity="1.0"
     inkscape:pageopacity="0.0"
     inkscape:pageshadow="2"
     inkscape:zoom="0.35"
     inkscape:cx="-121.10258"
     inkscape:cy="249.44762"
     inkscape:document-units="mm"
     inkscape:current-layer="layer1"
     showgrid="true"
     inkscape:window-width="1920"
     inkscape:window-height="1001"
     inkscape:window-x="-9"
     inkscape:window-y="-9"
     inkscape:window-maximized="1">
    <inkscape:grid
       type="xygrid"
       id="grid6017"
       spacingx="1.8520833"
       spacingy="1.8520833" />
  </sodipodi:namedview>
  <metadata
     id="metadata5">
    <rdf:RDF>
      <cc:Work
         rdf:about="">
        <dc:format>image/svg+xml</dc:format>
        <dc:type
           rdf:resource="http://purl.org/dc/dcmitype/StillImage" />
        <dc:title></dc:title>
      </cc:Work>
    </rdf:RDF>
  </metadata>
  <g
     inkscape:label="Layer 1"
     inkscape:groupmode="layer"
     id="layer1"
     transform="translate(0,-43)">
    <path
       style="fill:#441650;fill-opacity:1;stroke-width:1.42463648"
       d="m 232.375,12.667969 c -122.40385,0 -220.947266,98.541461 -220.947266,220.945311 v 494.29688 c 0,122.4038 98.543416,220.94726 220.947266,220.94726 h 494.29688 c 122.4038,0 220.94531,-98.54346 220.94531,-220.94726 V 233.61328 c 0,-122.40385 -98.54151,-220.945311 -220.94531,-220.945311 z m -16.51172,107.378911 34.44336,59.95703 -24.70703,-0.0527 -0.49805,231.20117 63.09766,-59.46875 c 4.07588,-5.06018 6.93778,-11.69501 7.10937,-18.52148 0.0771,-35.69446 0.12696,-48.24805 0.12696,-48.24805 l -20.04883,-0.0469 0.1289,-59.89063 59.88672,0.12891 -0.1289,59.89062 -20.07617,-0.0449 -0.0937,47.66406 c -0.0289,13.40708 -7.40898,27.44374 -16.04883,36.36524 -0.004,0.003 -3.3e-4,5.4e-4 -0.004,0.004 -0.21584,0.19457 -66.92187,63.07031 -66.92187,63.07031 -4.07464,5.04699 -6.92702,11.66538 -7.11524,18.47265 l -0.16211,75.23243 c 0.003,0.0888 1.9e-4,0.17636 0,0.26367 l -0.0742,34.01367 c 22.88055,4.63842 40.08341,24.87356 40.03125,49.10547 -0.0596,27.62199 -22.4991,49.96401 -50.12109,49.9043 C 187.07395,658.9874 164.73128,636.54786 164.791,608.9259 164.84325,584.69871 182.11866,564.53986 205,560 l 0.0742,-34.62109 c -0.14805,-6.82122 -2.96756,-13.45798 -7.01563,-18.52735 0,0 -66.43993,-63.17783 -66.65234,-63.36718 -0.53159,-0.51406 -0.2594,-0.26017 -0.004,-0.0156 -8.60247,-8.95869 -15.92672,-23.02104 -15.89648,-36.42578 l 0.11523,-49.45899 c -11.63792,-4.11646 -20.022437,-15.1246 -19.99598,-28.18948 0.03564,-16.52912 13.47261,-29.91475 30.01367,-29.87695 16.53396,0.0357 29.91488,13.47795 29.88086,30.00586 -0.0282,13.06488 -8.46565,24.03735 -20.13086,28.10351 -0.004,6.03587 -0.0305,22.43257 -0.0898,50.04493 0.1432,6.82597 2.98108,13.46872 7.03515,18.54882 l 62.82813,59.72461 0.66016,-306.04297 -24.66602,-0.0527 z m 276.57813,254.04296 c 8.80716,-0.0528 18.32758,2.80737 26.77148,8.67383 l 332.56055,230.9961 c 16.62021,11.54422 23.08453,30.56948 15.78906,44.40429 -0.23811,0.6968 -0.57122,1.36419 -1.0293,1.97852 l -18.64843,24.91992 c -2.93333,3.9196 -9.37276,4.25106 -14.42969,0.73047 L 454.27148,422.41211 c -5.0609,-3.5153 -6.77321,-9.49983 -3.83984,-13.41992 l 11.9082,-15.91407 c 0.5297,-0.9395 1.12363,-1.85436 1.78516,-2.73828 l 3.72266,-4.97461 c 5.54687,-7.41307 14.61229,-11.21549 24.59375,-11.27539 z m -18.39453,7.625 -1.14454,1.84571 391.54883,272.70312 1.14453,-1.8457 z m 68.58789,228.57227 c 2.686,0 4.84765,2.67085 4.84765,5.99023 v 49.26172 c 0,3.31939 -2.16165,5.99219 -4.84765,5.99219 -2.68601,0 -4.84961,-2.6728 -4.84961,-5.99219 v -49.26172 c 0,-3.31938 2.1636,-5.99023 4.84961,-5.99023 z m -41.55274,24.26367 c 1.13693,0.0506 2.25548,0.53733 3.08789,1.44727 l 24.70703,27.00781 c 1.66483,1.81987 1.53863,4.62423 -0.28125,6.28906 l -0.7832,0.71875 c -1.81987,1.66483 -4.62619,1.53863 -6.29102,-0.28125 l -24.70703,-27.00586 c -1.66482,-1.81987 -1.53862,-4.62619 0.28125,-6.29101 l 0.78321,-0.71875 c 0.90993,-0.83242 2.06619,-1.2166 3.20312,-1.16602 z m 82.31055,0.48438 c 1.12714,-0.0502 2.27368,0.331 3.17578,1.15625 l 0.7793,0.71093 c 1.8042,1.6505 1.92784,4.43212 0.27734,6.23633 l -24.49414,26.77539 c -1.6505,1.80421 -4.43212,1.92784 -6.23633,0.27735 l -0.77734,-0.71289 c -1.80421,-1.6505 -1.92979,-4.43017 -0.2793,-6.23438 l 24.49414,-26.77539 c 0.82525,-0.9021 1.9334,-1.38344 3.06055,-1.43359 z m -220.62305,55.09375 h 460.51563 c 12.86192,0 23.21484,11.60108 23.21484,26.01367 v 93.9668 c 0,14.41254 -10.35292,26.01562 -23.21484,26.01562 H 310.48633 c -12.86193,0 -23.2168,-11.60308 -23.2168,-26.01562 v -37.61719 a 209.38344,126.69831 0 0 0 75.5,-82.36328 z"
       transform="matrix(0.26458333,0,0,0.26458333,0,43)"
       id="rect12"
       inkscape:connector-curvature="0" />
    <rect
       style="fill:#000000;fill-opacity:1;stroke:none;stroke-width:4.59966898;stroke-miterlimit:4;stroke-dasharray:none;stroke-opacity:1"
       id="rect932-2"
       width="1.7503849"
       height="11.846016"
       x="669.6153"
       y="160.31171"
       ry="1.1589233" />
    <rect
       style="fill:#000000;fill-opacity:1;stroke:none;stroke-width:3.99008989;stroke-miterlimit:4;stroke-dasharray:none;stroke-opacity:1"
       id="rect932-6-2"
       width="1.8430403"
       height="8.4660997"
       x="623.95575"
       y="-357.68683"
       ry="0.82825786"
       transform="matrix(0.71413063,0.70001246,-0.64930012,0.76053228,0,0)" />
    <rect
       style="fill:#000000;fill-opacity:1;stroke:none;stroke-width:4.0247364;stroke-miterlimit:4;stroke-dasharray:none;stroke-opacity:1"
       id="rect932-6-7-7"
       width="1.8590443"
       height="8.5396128"
       x="-398.27097"
       y="583.06787"
       ry="0.83544981"
       transform="matrix(-0.71413063,0.70001246,0.64930012,0.76053228,0,0)" />
    <rect
       style="fill:#000000;fill-opacity:1;stroke:none;stroke-width:4.60779858;stroke-miterlimit:4;stroke-dasharray:none;stroke-opacity:1"
       id="rect981-6"
       width="19.096481"
       height="5.8374052"
       x="658.57324"
       y="191.66716" />
    <ellipse
       style="fill:#000000;fill-opacity:1;stroke:none;stroke-width:4.59162378;stroke-miterlimit:4;stroke-dasharray:none;stroke-opacity:1"
       id="path983-0"
       cx="652.71899"
       cy="194.40837"
       rx="2.9340577"
       ry="3.1439009" />
    <circle
       style="fill:#441650;fill-opacity:1;stroke:none;stroke-width:4.35305548;stroke-miterlimit:4;stroke-dasharray:none;stroke-opacity:1"
       id="path983-2"
       cx="112.74189"
       cy="244.90454"
       r="2.8793669" />
    <circle
       style="fill:#441650;fill-opacity:1;stroke:none;stroke-width:4.35305548;stroke-miterlimit:4;stroke-dasharray:none;stroke-opacity:1"
       id="path983-4"
       cx="120.97303"
       cy="244.90454"
       r="2.8793669" />
    <rect
       style="fill:#441650;fill-opacity:1;stroke:none;stroke-width:2.95248008;stroke-miterlimit:4;stroke-dasharray:none;stroke-opacity:1"
       id="rect1090"
       width="14.200628"
       height="4.1253681"
       x="126.58078"
       y="242.82317" />
    <path
       style="fill:none;fill-opacity:1;stroke:#441650;stroke-width:3.54633451;stroke-miterlimit:4;stroke-dasharray:none;stroke-opacity:1"
       d="m 96.503245,226.58785 a 55.399368,33.522261 0 0 1 -19.97622,21.79189 v 9.9529 c 0,3.81332 2.73978,6.88341 6.14283,6.88341 H 218.34766 c 3.40305,0 6.1424,-3.07009 6.1424,-6.88341 v -24.86186 c 0,-3.81333 -2.73935,-6.88293 -6.1424,-6.88293 z"
       id="rect9111-8"
       inkscape:connector-curvature="0" />
    <path
       id="rect823-2"
       style="fill:none;fill-opacity:1;stroke:#441650;stroke-width:3.35123158;stroke-miterlimit:4;stroke-dasharray:none;stroke-opacity:1"
       d="m 125.94496,144.98654 103.59762,72.1527 -0.30276,0.48869 -103.59761,-72.1527 z m 11.95045,0.27773 c -4.76611,-3.31129 -10.82784,-3.00382 -13.5904,0.68818 l -0.98486,1.31618 c -0.17504,0.23387 -0.33243,0.4759 -0.47257,0.72449 l -3.15072,4.21061 c -0.77612,1.03719 -0.3229,2.62097 1.01613,3.55106 l 100.3259,69.68598 c 1.33798,0.93149 3.04173,0.84376 3.81784,-0.1933 l 4.93387,-6.59342 c 0.1212,-0.16254 0.20923,-0.3393 0.27223,-0.52367 1.93026,-3.66046 0.21982,-8.69426 -4.17761,-11.74867 z"
       inkscape:connector-curvature="0" />
  </g>
</svg>
