<?xml version="1.0" encoding="UTF-8" standalone="no"?>
<!-- Created with Inkscape (http://www.inkscape.org/) -->

<svg
   xmlns:dc="http://purl.org/dc/elements/1.1/"
   xmlns:cc="http://creativecommons.org/ns#"
   xmlns:rdf="http://www.w3.org/1999/02/22-rdf-syntax-ns#"
   xmlns:svg="http://www.w3.org/2000/svg"
   xmlns="http://www.w3.org/2000/svg"
   xmlns:sodipodi="http://sodipodi.sourceforge.net/DTD/sodipodi-0.dtd"
   xmlns:inkscape="http://www.inkscape.org/namespaces/inkscape"
   width="252mm"
   height="252mm"
   viewBox="0 0 252 252"
   version="1.1"
   id="svg8"
   inkscape:version="0.92.4 (5da689c313, 2019-01-14)"
   sodipodi:docname="settings.svg">
  <defs
     id="defs2">
    <inkscape:path-effect
       end_linecap_type="zerowidth"
       miter_limit="4"
       linejoin_type="extrp_arc"
       start_linecap_type="zerowidth"
       interpolator_beta="0.2"
       interpolator_type="CubicBezierJohan"
       sort_points="true"
       offset_points="0.058369281,-0.092746346"
       is_visible="true"
       id="path-effect6323"
       effect="powerstroke" />
    <inkscape:path-effect
       end_linecap_type="zerowidth"
       miter_limit="4"
       linejoin_type="extrp_arc"
       start_linecap_type="zerowidth"
       interpolator_beta="0.2"
       interpolator_type="CubicBezierJohan"
       sort_points="true"
       offset_points="1,0.13229166"
       is_visible="true"
       id="path-effect1431"
       effect="powerstroke" />
    <inkscape:path-effect
       end_linecap_type="zerowidth"
       miter_limit="4"
       linejoin_type="extrp_arc"
       start_linecap_type="zerowidth"
       interpolator_beta="0.2"
       interpolator_type="CubicBezierJohan"
       sort_points="true"
       offset_points="3,0.13229166"
       is_visible="true"
       id="path-effect1427"
       effect="powerstroke" />
    <inkscape:path-effect
       end_linecap_type="zerowidth"
       miter_limit="4"
       linejoin_type="extrp_arc"
       start_linecap_type="zerowidth"
       interpolator_beta="0.2"
       interpolator_type="CubicBezierJohan"
       sort_points="true"
       offset_points="4,0.13229166"
       is_visible="true"
       id="path-effect1417"
       effect="powerstroke" />
    <inkscape:path-effect
       end_linecap_type="zerowidth"
       miter_limit="4"
       linejoin_type="extrp_arc"
       start_linecap_type="zerowidth"
       interpolator_beta="0.2"
       interpolator_type="CubicBezierJohan"
       sort_points="true"
       offset_points="3,0.13229166"
       is_visible="true"
       id="path-effect1413"
       effect="powerstroke" />
    <inkscape:path-effect
       end_linecap_type="zerowidth"
       miter_limit="4"
       linejoin_type="extrp_arc"
       start_linecap_type="zerowidth"
       interpolator_beta="0.2"
       interpolator_type="CubicBezierJohan"
       sort_points="true"
       offset_points="4,0.13229166"
       is_visible="true"
       id="path-effect1405"
       effect="powerstroke" />
  </defs>
  <sodipodi:namedview
     id="base"
     pagecolor="#ffffff"
     bordercolor="#666666"
     borderopacity="1.0"
     inkscape:pageopacity="0.0"
     inkscape:pageshadow="2"
     inkscape:zoom="0.35"
     inkscape:cx="383.67211"
     inkscape:cy="394.36589"
     inkscape:document-units="mm"
     inkscape:current-layer="layer1"
     showgrid="true"
     inkscape:window-width="958"
     inkscape:window-height="991"
     inkscape:window-x="-8"
     inkscape:window-y="0"
     inkscape:window-maximized="0"
     inkscape:pagecheckerboard="false">
    <inkscape:grid
       type="xygrid"
       id="grid8952"
       spacingx="4.445"
       spacingy="3.095625" />
  </sodipodi:namedview>
  <metadata
     id="metadata5">
    <rdf:RDF>
      <cc:Work
         rdf:about="">
        <dc:format>image/svg+xml</dc:format>
        <dc:type
           rdf:resource="http://purl.org/dc/dcmitype/StillImage" />
        <dc:title></dc:title>
      </cc:Work>
    </rdf:RDF>
  </metadata>
  <g
     inkscape:label="Layer 1"
     inkscape:groupmode="layer"
     id="layer1"
     transform="translate(0,-45)">
    <rect
       style="fill:none;fill-opacity:1;stroke:#000000;stroke-width:2.77699995;stroke-miterlimit:4;stroke-dasharray:none;stroke-opacity:1"
       id="rect12"
       width="247.70001"
       height="247.70001"
       x="1.9654703"
       y="47.409935"
       rx="58.458519" />
    <path
       id="rect828-4"
       style="fill:none;fill-opacity:1;stroke:#1b0001;stroke-width:14.71422863;stroke-linecap:round;stroke-miterlimit:4;stroke-dasharray:none;stroke-opacity:1"
       d="m 140.67343,150.12489 v 1.18307 H 118.5307 v -1.18307 z m -77.151638,0.0199 v 1.18309 H 41.379067 v -1.1831 z m 26.82475,-49.27161 h 1.183083 v 22.14287 h -1.183083 z m 30.425728,49.87095 a 29.689738,29.689742 0 0 1 -29.689714,29.68974 29.689738,29.689742 0 0 1 -29.68973,-29.68974 29.689738,29.689742 0 0 1 29.68973,-29.68976 29.689738,29.689742 0 0 1 29.689714,29.68976 z m 5.0731,-35.71268 0.84205,0.83106 -15.5543,15.75964 -0.84203,-0.83108 z m -69.546656,0.19639 -0.842046,0.83106 15.55428,15.75963 0.842046,-0.83108 z m 34.167623,63.09029 h 1.183093 v 22.14274 h -1.183093 z m 20.596943,-8.6101 -0.84204,0.83106 15.55428,15.75959 0.84204,-0.83107 z m -40.216591,0.0274 0.842037,0.83106 -15.554279,15.7596 -0.842046,-0.83109 z"
       inkscape:connector-curvature="0" />
    <ellipse
       style="fill:none;fill-opacity:1;stroke:#1b0001;stroke-width:24.25269318;stroke-linecap:round;stroke-miterlimit:4;stroke-dasharray:none;stroke-opacity:1"
       id="path826"
       cx="91.072609"
       cy="150.73381"
       rx="29.689737"
       ry="29.689745" />
    <path
       inkscape:connector-curvature="0"
       id="rect828-4-5"
       style="fill:none;fill-opacity:1;stroke:#1b0001;stroke-width:11.17460537;stroke-linecap:round;stroke-miterlimit:4;stroke-dasharray:none;stroke-opacity:1"
       d="m 211.26344,205.03844 v 0.90349 h -16.72291 v -0.90349 z m -58.26752,0.0151 v 0.9035 h -16.72296 v -0.9035 z m 20.25895,-37.62735 h 0.89351 v 16.90987 h -0.89351 z m 22.97854,38.08507 a 22.422684,22.673296 0 0 1 -22.42268,22.6733 22.422684,22.673296 0 0 1 -22.42269,-22.6733 22.422684,22.673296 0 0 1 22.42269,-22.67332 22.422684,22.673296 0 0 1 22.42268,22.67332 z m 3.8314,-27.27284 0.63593,0.63469 -11.74712,12.03519 -0.63594,-0.63467 z m -52.52401,0.15 -0.63593,0.63468 11.7471,12.03517 0.63594,-0.63467 z m 25.80454,48.1804 h 0.89352 v 16.90985 h -0.89352 z m 15.55553,-6.57532 -0.63593,0.63468 11.7471,12.03519 0.63595,-0.63468 z m -30.37295,0.0209 0.63594,0.63469 -11.74713,12.0352 -0.63594,-0.63467 z" />
    <ellipse
       style="fill:none;fill-opacity:1;stroke:#1b0001;stroke-width:18.41851997;stroke-linecap:round;stroke-miterlimit:4;stroke-dasharray:none;stroke-opacity:1"
       id="path826-0"
       cx="173.80333"
       cy="205.50342"
       rx="22.422684"
       ry="22.673298" />
  </g>
</svg>
