<?xml version="1.0" encoding="UTF-8" standalone="no"?>
<!-- Created with Inkscape (http://www.inkscape.org/) -->

<svg
   xmlns:dc="http://purl.org/dc/elements/1.1/"
   xmlns:cc="http://creativecommons.org/ns#"
   xmlns:rdf="http://www.w3.org/1999/02/22-rdf-syntax-ns#"
   xmlns:svg="http://www.w3.org/2000/svg"
   xmlns="http://www.w3.org/2000/svg"
   xmlns:sodipodi="http://sodipodi.sourceforge.net/DTD/sodipodi-0.dtd"
   xmlns:inkscape="http://www.inkscape.org/namespaces/inkscape"
   width="254mm"
   height="254mm"
   viewBox="0 0 254 254"
   version="1.1"
   id="svg8"
   inkscape:version="0.92.4 (5da689c313, 2019-01-14)"
   sodipodi:docname="email.svg">
  <defs
     id="defs2" />
  <sodipodi:namedview
     id="base"
     pagecolor="#ffffff"
     bordercolor="#666666"
     borderopacity="1.0"
     inkscape:pageopacity="0.0"
     inkscape:pageshadow="2"
     inkscape:zoom="0.35355339"
     inkscape:cx="607.45756"
     inkscape:cy="753.14126"
     inkscape:document-units="mm"
     inkscape:current-layer="layer1"
     showgrid="true"
     inkscape:window-width="958"
     inkscape:window-height="991"
     inkscape:window-x="952"
     inkscape:window-y="0"
     inkscape:window-maximized="0"
     inkscape:pagecheckerboard="false"
     inkscape:snap-nodes="false" />
  <metadata
     id="metadata5">
    <rdf:RDF>
      <cc:Work
         rdf:about="">
        <dc:format>image/svg+xml</dc:format>
        <dc:type
           rdf:resource="http://purl.org/dc/dcmitype/StillImage" />
        <dc:title></dc:title>
      </cc:Work>
    </rdf:RDF>
  </metadata>
  <g
     inkscape:label="Layer 1"
     inkscape:groupmode="layer"
     id="layer1"
     transform="translate(0,-43)">
    <path
       style="fill:#e4aa6d;fill-opacity:1;stroke-width:1.42463648"
       d="m 232.375,12.667969 c -122.40385,0 -220.947266,98.541461 -220.947266,220.945311 v 494.29688 c 0,122.40382 98.543416,220.94726 220.947266,220.94726 h 494.29688 c 122.40382,0 220.94531,-98.54344 220.94531,-220.94726 V 233.61328 c 0,-122.40385 -98.54149,-220.945311 -220.94531,-220.945311 z M 412,312 H 834.69727 C 854.25528,312 870,327.74472 870,347.30273 V 602.69727 C 870,622.25528 854.25528,638 834.69727,638 H 412 c -19.55802,0 -35.30273,-15.74472 -35.30273,-35.30273 V 347.30273 C 376.69727,327.74472 392.44198,312 412,312 Z m -322.8125,90.95117 238.60938,0.2461 c 7.57362,0.008 13.71438,5.47828 13.76757,12.26562 0.0532,6.78735 -6.00254,12.24612 -13.57617,12.23828 L 89.378906,427.45508 c -7.573628,-0.008 -13.714381,-5.47828 -13.767578,-12.26563 -0.0532,-6.78734 6.002544,-12.24611 13.576172,-12.23828 z m 78.53516,56.00391 160.08398,0.23828 c 6.74657,0.0101 12.20747,5.4508 12.24414,12.19726 l 0.002,0.14649 c 0.0367,6.74648 -5.36671,12.17022 -12.11328,12.16016 L 167.85747,483.45898 C 161.1109,483.44888 155.65,478.0082 155.61333,471.26172 l -0.002,-0.14649 c -0.0367,-6.74647 5.36476,-12.17021 12.11133,-12.16015 z m 65.3125,56.01367 94.01172,0.21289 c 7.4606,0.017 13.48557,5.49586 13.50976,12.2832 0.0242,6.78735 -5.96321,12.23768 -13.42383,12.22071 l -94.00976,-0.21485 c -7.46062,-0.017 -13.48753,-5.4939 -13.51172,-12.28125 -0.0242,-6.78734 5.96321,-12.23767 13.42383,-12.2207 z"
       transform="matrix(0.26458333,0,0,0.26458333,0,43)"
       id="rect12"
       inkscape:connector-curvature="0" />
    <path
       style="fill:#e4aa6d;fill-opacity:1;stroke:none;stroke-width:8.26254749;stroke-miterlimit:4;stroke-dasharray:none;stroke-opacity:1"
       d="m 221.03596,138.11831 v 5.2e-4 l -34.78435,27.05257 37.1476,35.19249 c 0.30415,-0.85026 0.4711,-1.76406 0.4711,-2.71769 v -53.37484 c 0,-2.45373 -1.09444,-4.64897 -2.83435,-6.15305 z m -113.11127,0.72862 c -1.30204,1.4459 -2.09138,3.34165 -2.09138,5.42443 v 53.37483 c 0,1.34482 0.33037,2.61121 0.91352,3.72964 l 37.25744,-35.29594 z m 72.86098,30.57505 -11.05873,8.60108 c -0.33781,0.26253 -0.70096,0.49268 -1.08472,0.69063 -0.38332,0.19787 -0.78724,0.36336 -1.20363,0.49656 -0.41622,0.13282 -0.84548,0.23333 -1.28188,0.30147 -0.43639,0.0697 -0.87935,0.10379 -1.32283,0.10674 -0.44311,0.003 -0.88682,-0.0258 -1.32416,-0.09 -0.43747,-0.064 -0.86897,-0.15684 -1.28761,-0.28411 -0.41824,-0.12716 -0.82481,-0.28721 -1.21119,-0.47985 -0.38661,-0.19271 -0.75327,-0.41772 -1.09508,-0.67573 l -10.34864,-7.81095 c -0.32517,0.40385 -0.67727,0.79418 -1.06042,1.15721 l -36.12611,34.22349 c 0.61066,0.13586 1.24576,0.20981 1.90006,0.20981 h 101.14164 c 1.07743,0 2.10522,-0.19661 3.05111,-0.55144 l -36.49083,-34.56926 c -0.4368,-0.4138 -0.8362,-0.86125 -1.19698,-1.32651 z"
       id="rect13818"
       inkscape:connector-curvature="0" />
    <path
       style="fill:#e4aa6d;fill-opacity:1;stroke:none;stroke-width:7.60075808;stroke-miterlimit:4;stroke-dasharray:none;stroke-opacity:1"
       d="m 117.75045,131.44544 c -2.37535,0 -4.49756,0.97917 -5.94342,2.53271 l 48.6156,35.5139 c 0.31976,0.23357 0.66279,0.43748 1.02426,0.61189 0.36132,0.1743 0.74114,0.31893 1.13235,0.43406 0.39145,0.1153 0.7952,0.20092 1.2039,0.25715 0.40907,0.0562 0.82389,0.084 1.23827,0.0809 0.41449,-0.003 0.82893,-0.0339 1.23668,-0.0971 0.40819,-0.0619 0.81007,-0.15226 1.19951,-0.2727 0.38908,-0.12024 0.76647,-0.27018 1.12498,-0.44927 0.35867,-0.17908 0.69869,-0.38732 1.01446,-0.62499 l 47.97767,-36.11262 c -1.39354,-1.16584 -3.22987,-1.8735 -5.24868,-1.8735 z"
       id="rect13818-5"
       inkscape:connector-curvature="0" />
  </g>
</svg>
