<?xml version="1.0" encoding="UTF-8" standalone="no"?>
<!-- Created with Inkscape (http://www.inkscape.org/) -->

<svg
   xmlns:dc="http://purl.org/dc/elements/1.1/"
   xmlns:cc="http://creativecommons.org/ns#"
   xmlns:rdf="http://www.w3.org/1999/02/22-rdf-syntax-ns#"
   xmlns:svg="http://www.w3.org/2000/svg"
   xmlns="http://www.w3.org/2000/svg"
   xmlns:sodipodi="http://sodipodi.sourceforge.net/DTD/sodipodi-0.dtd"
   xmlns:inkscape="http://www.inkscape.org/namespaces/inkscape"
   width="254mm"
   height="254mm"
   viewBox="0 0 254 254"
   version="1.1"
   id="svg8"
   inkscape:version="0.92.4 (5da689c313, 2019-01-14)"
   sodipodi:docname="usb-scan.svg">
  <defs
     id="defs2">
    <clipPath
       clipPathUnits="userSpaceOnUse"
       id="clipPath4550">
      <g
         id="use4552"
         inkscape:label="Clip">
        <path
           id="path838"
           d="m 55.818126,127.23246 -9.182924,15.82249 6.526275,0.0141 -0.174602,80.97396 -16.623489,-15.80245 c -1.072632,-1.34411 -1.823325,-3.10134 -1.861219,-4.90738 0.01575,-7.30577 0.02271,-11.64428 0.02377,-13.24127 3.086423,-1.07584 5.318785,-3.97879 5.326238,-7.43554 0.0095,-4.37301 -3.531483,-7.92954 -7.906087,-7.93898 -4.376493,-0.01 -7.931453,3.53148 -7.940884,7.90481 -0.0074,3.45675 2.211099,6.36929 5.290333,7.45843 l -0.03061,13.08612 c -0.0077,3.54667 1.930224,7.26722 4.206296,9.63754 -0.06759,-0.0647 -0.139652,-0.13201 0.0012,0.004 0.05625,0.0501 17.635206,16.76588 17.635206,16.76588 1.071047,1.34127 1.817005,3.09752 1.856169,4.9023 l -0.01977,9.16012 c -6.054018,1.20117 -10.624726,6.53508 -10.638547,12.94516 -0.01576,7.30831 5.895559,13.24517 13.201646,13.26093 7.308312,0.0158 13.245499,-5.89555 13.261258,-13.20387 0.01381,-6.41136 -4.537642,-11.76494 -10.591451,-12.99219 l 0.01942,-8.99964 c 5.1e-5,-0.0231 0.0013,-0.0462 1.51e-4,-0.0697 l 0.04292,-19.90559 c 0.04984,-1.80109 0.804251,-3.55191 1.882338,-4.88726 0,0 17.6496,-16.63598 17.706711,-16.68746 0.141808,-0.1333 0.0679,-0.067 0.0011,-0.001 2.28596,-2.36048 4.238591,-6.07424 4.246242,-9.62153 l 0.02479,-12.61123 5.31174,0.012 0.0342,-15.84628 -15.84511,-0.0341 -0.03416,15.84633 5.304798,0.012 c 0,0 -0.0131,3.32155 -0.0335,12.76571 -0.0454,1.80617 -0.802701,3.56205 -1.881111,4.90089 l -16.694689,15.7341 0.131902,-61.1719 6.536733,0.0141 z"
           inkscape:connector-curvature="0"
           style="stroke-width:0.31661072" />
      </g>
    </clipPath>
  </defs>
  <sodipodi:namedview
     id="base"
     pagecolor="#ffffff"
     bordercolor="#666666"
     borderopacity="1.0"
     inkscape:pageopacity="0.0"
     inkscape:pageshadow="2"
     inkscape:zoom="0.35"
     inkscape:cx="451.66932"
     inkscape:cy="201.40784"
     inkscape:document-units="mm"
     inkscape:current-layer="layer1"
     showgrid="true"
     inkscape:window-width="958"
     inkscape:window-height="991"
     inkscape:window-x="-8"
     inkscape:window-y="0"
     inkscape:window-maximized="0"
     inkscape:pagecheckerboard="true">
    <inkscape:grid
       type="xygrid"
       id="grid7164"
       spacingx="1.8520833"
       spacingy="1.8520833" />
  </sodipodi:namedview>
  <metadata
     id="metadata5">
    <rdf:RDF>
      <cc:Work
         rdf:about="">
        <dc:format>image/svg+xml</dc:format>
        <dc:type
           rdf:resource="http://purl.org/dc/dcmitype/StillImage" />
        <dc:title></dc:title>
      </cc:Work>
    </rdf:RDF>
  </metadata>
  <g
     inkscape:label="Layer 1"
     inkscape:groupmode="layer"
     id="layer1"
     transform="translate(0,-43)">
    <rect
       transform="translate(0,-1.3125e-6)"
       style="opacity:1;fill:#ffffff;fill-opacity:1;stroke:none;stroke-width:4.27716303;stroke-linecap:round;stroke-miterlimit:4;stroke-dasharray:none;stroke-opacity:1"
       id="rect4544"
       width="194.46877"
       height="203.72916"
       x="27.781242"
       y="65.489586" />
    <path
       style="fill:#9e33b9;fill-opacity:1;stroke-width:1.42463648"
       d="m 232.375,12.667969 c -122.40385,0 -220.947266,98.541461 -220.947266,220.945311 v 494.29688 c 0,122.4038 98.543416,220.94726 220.947266,220.94726 h 494.29688 c 122.4038,0 220.94531,-98.54346 220.94531,-220.94726 V 233.61328 c 0,-122.40385 -98.54151,-220.945311 -220.94531,-220.945311 z m 3.17188,107.421871 33.70898,57.51172 -23.94531,0.3086 0.76953,223.72461 60.83203,-58.46289 c 3.92292,-4.95591 6.66056,-11.4193 6.78906,-18.02735 -0.11603,-34.54008 -0.13867,-46.68945 -0.13867,-46.68945 l -19.43164,0.25195 -0.19922,-57.95508 58.04102,-0.75 0.19922,57.95508 -19.45704,0.25 0.16797,46.12305 c 0.0446,12.97353 -7.03207,26.66304 -15.35742,35.42187 -0.003,0.003 2e-5,1.3e-4 -0.004,0.004 -0.20806,0.19147 -64.51953,62.00781 -64.51953,62.00781 -3.92181,4.94313 -6.64926,11.38696 -6.79492,17.97656 l 0.25,72.80274 c 0.005,0.0858 -2.7e-4,0.17082 0,0.25586 l 0.11328,32.91406 c 22.20073,4.15419 38.98395,23.4815 39.06446,46.92969 0.0919,26.72867 -21.53541,48.67566 -48.30665,49.02148 -26.7631,0.34572 -48.53897,-21.04079 -48.63085,-47.76953 -0.0806,-23.44343 16.5533,-43.20278 38.70507,-47.92969 l -0.11523,-33.50195 c -0.18041,-6.59822 -2.94956,-12.98006 -6.90039,-17.82617 0,0 -64.73433,-60.16151 -64.94141,-60.3418 -0.51884,-0.49383 -0.25425,-0.25322 -0.006,-0.0195 -8.386,-8.54298 -15.5609,-22.04248 -15.60547,-35.01367 l -0.15429,-47.86133 c -11.30178,-3.8132 -19.48786,-14.34201 -19.53125,-26.98437 -0.055,-15.99459 12.89413,-29.14054 28.92578,-29.34766 16.02471,-0.20693 29.06809,12.60421 29.12305,28.59766 0.0435,12.64236 -8.07553,23.38341 -19.35938,27.48828 0.0288,5.84054 0.0937,21.70637 0.18555,48.42578 0.17577,6.60291 2.96131,12.98924 6.91797,17.8457 l 61.21679,56.875 -1.01758,-296.14648 -23.9082,0.30859 z m 219.61328,250.82032 c 8.82169,-0.0528 18.34896,2.80711 26.78515,8.66211 L 814.82617,610.7832 c 16.65419,11.55047 23.10103,30.62141 15.78125,44.45508 -0.20145,0.73871 -0.5358,1.4112 -1.00586,2.01563 l -18.66992,24.91406 c -2.9548,3.96208 -9.40094,4.29742 -14.4375,0.73828 L 416.94141,419.25977 c -5.03653,-3.49202 -6.78293,-9.46758 -3.82813,-13.42969 l 11.88477,-15.91602 c 0.53726,-0.94015 1.1429,-1.88087 1.81445,-2.7539 l 3.69336,-4.96875 c 5.56536,-7.4205 14.65638,-11.22147 24.6543,-11.28125 z m -18.41016,7.65429 -1.14062,1.8125 391.91015,272.98243 1.14063,-1.88086 z m 68.63281,228.79297 c 2.68619,0 4.83399,2.61887 4.83399,5.97656 V 662.625 c 0,3.35769 -2.1478,6.04492 -4.83399,6.04492 -2.68615,0 -4.83594,-2.68723 -4.83593,-6.04492 v -49.29102 c 0,-3.35769 2.14978,-5.97656 4.83593,-5.97656 z m -41.58593,24.27735 c 1.14161,0.0504 2.26603,0.5368 3.10546,1.44335 l 24.71289,26.9961 c 1.67876,1.88028 1.54554,4.63367 -0.26757,6.3125 l -0.80664,0.73828 c -1.81316,1.67871 -4.63439,1.54362 -6.2461,-0.26953 l -24.7793,-27.0625 c -1.67875,-1.81315 -1.54358,-4.63367 0.26954,-6.3125 l 0.80468,-0.67188 c 0.90658,-0.83937 2.06542,-1.22421 3.20704,-1.17382 z m 82.39843,0.46875 c 1.12482,-0.0504 2.26532,0.3364 3.17188,1.17578 l 0.80664,0.67187 c 1.81311,1.67887 1.88112,4.43103 0.26953,6.24414 l -24.51172,26.79492 c -1.67879,1.81312 -4.4329,1.9478 -6.24609,0.33594 l -0.80469,-0.73828 c -1.81319,-1.67883 -1.94828,-4.43298 -0.26953,-6.24609 l 24.51172,-26.79297 c 0.83943,-0.9066 1.94745,-1.39494 3.07226,-1.44531 z m -220.85156,55.16796 h 460.94336 c 12.89352,0 23.23437,11.61735 23.23437,25.98829 v 94.08203 c 0,14.43809 -10.34085,26.05664 -23.23437,26.05664 H 273.0293 c -12.89349,0 -23.23438,-11.61855 -23.23438,-26.05664 V 769.66797 C 291.5644,749.1189 318.6284,719.5725 325.34375,687.27148 Z"
       id="rect12"
       inkscape:connector-curvature="0"
       transform="matrix(0.26458333,0,0,0.26458333,0,43)" />
    <path
       transform="translate(0,-1.3125e-6)"
       id="path7203-0"
       d="m 86.97744,223.71948 c -1.77677,8.54631 -8.93715,16.36414 -19.98866,21.80109 v 9.96773 c 0,3.82008 2.73623,6.89392 6.14763,6.89392 h 135.79911 c 3.41141,0 6.14765,-3.07384 6.14765,-6.89392 v -24.89268 c 0,-3.80231 -2.73624,-6.87614 -6.14765,-6.87614 z"
       style="fill:#f3ffff;fill-opacity:1;stroke:#9e33b9;stroke-width:3.55355906px;stroke-linecap:butt;stroke-linejoin:miter;stroke-miterlimit:4;stroke-dasharray:none;stroke-opacity:1"
       inkscape:connector-curvature="0" />
    <path
       transform="translate(0,-1.3125e-6)"
       id="path7205-3"
       d="m 115.92561,141.77607 103.69286,72.20831 -0.30206,0.4975 -103.69285,-72.22609 z m 11.95772,0.26652 c -4.76176,-3.30482 -10.83835,-3.00276 -13.61012,0.69294 l -0.97723,1.31481 c -0.17768,0.23099 -0.33759,0.47974 -0.47974,0.72849 l -3.14489,4.21096 c -0.78179,1.04831 -0.31982,2.62964 1.01276,3.55357 l 100.42358,69.75636 c 1.33259,0.94168 3.03829,0.85285 3.82008,-0.19546 l 4.93944,-6.59183 c 0.12437,-0.15993 0.21322,-0.33761 0.26652,-0.53306 1.93669,-3.66016 0.23098,-8.70622 -4.17544,-11.76228 z"
       style="fill:#ffffff;fill-opacity:1;stroke:#9e33b9;stroke-width:3.35811353px;stroke-linecap:butt;stroke-linejoin:miter;stroke-miterlimit:4;stroke-dasharray:none;stroke-opacity:1"
       inkscape:connector-curvature="0" />
    <path
       transform="translate(0,-1.3125e-6)"
       id="path7213"
       d="m 105.74918,244.15408 c 0,1.59911 -1.29705,2.89614 -2.89615,2.89614 -1.58134,0 -2.878387,-1.29703 -2.878387,-2.89614 0,-1.58133 1.297047,-2.87839 2.878387,-2.87839 1.5991,0 2.89615,1.29706 2.89615,2.87839 z"
       style="fill:#9e33b9;fill-opacity:1;fill-rule:nonzero;stroke:none;stroke-width:0.22209907"
       inkscape:connector-curvature="0" />
    <path
       transform="translate(0,-1.3125e-6)"
       id="path7215"
       d="m 113.97567,244.15408 c 0,1.59911 -1.27929,2.89614 -2.87839,2.89614 -1.58133,0 -2.87838,-1.29703 -2.87838,-2.89614 0,-1.58133 1.29705,-2.87839 2.87838,-2.87839 1.5991,0 2.87839,1.29706 2.87839,2.87839 z"
       style="fill:#9e33b9;fill-opacity:1;fill-rule:nonzero;stroke:none;stroke-width:0.22209907"
       inkscape:connector-curvature="0" />
    <path
       transform="translate(0,-1.3125e-6)"
       id="path7217"
       d="m 116.7119,242.07524 h 14.21424 v 4.1399 H 116.7119 Z"
       style="fill:#9e33b9;fill-opacity:1;fill-rule:nonzero;stroke:none;stroke-width:0.22209907"
       inkscape:connector-curvature="0" />
  </g>
</svg>
