<?xml version="1.0" encoding="UTF-8" standalone="no"?>
<!-- Created with Inkscape (http://www.inkscape.org/) -->

<svg
   xmlns:dc="http://purl.org/dc/elements/1.1/"
   xmlns:cc="http://creativecommons.org/ns#"
   xmlns:rdf="http://www.w3.org/1999/02/22-rdf-syntax-ns#"
   xmlns:svg="http://www.w3.org/2000/svg"
   xmlns="http://www.w3.org/2000/svg"
   xmlns:sodipodi="http://sodipodi.sourceforge.net/DTD/sodipodi-0.dtd"
   xmlns:inkscape="http://www.inkscape.org/namespaces/inkscape"
   width="159mm"
   height="161mm"
   viewBox="0 0 159 161"
   version="1.1"
   id="svg3257"
   inkscape:version="0.92.4 (5da689c313, 2019-01-14)"
   sodipodi:docname="scan-color-3.svg">
  <defs
     id="defs3251" />
  <sodipodi:namedview
     id="base"
     pagecolor="#ffffff"
     bordercolor="#666666"
     borderopacity="1.0"
     inkscape:pageopacity="0.0"
     inkscape:pageshadow="2"
     inkscape:zoom="0.35355339"
     inkscape:cx="-170.90474"
     inkscape:cy="74.030458"
     inkscape:document-units="mm"
     inkscape:current-layer="layer1"
     showgrid="true"
     inkscape:window-width="1920"
     inkscape:window-height="1001"
     inkscape:window-x="-9"
     inkscape:window-y="-9"
     inkscape:window-maximized="1"
     inkscape:pagecheckerboard="false"
     inkscape:snap-nodes="false">
    <inkscape:grid
       type="xygrid"
       id="grid872"
       spacingx="0.52916665"
       spacingy="0.52916665" />
  </sodipodi:namedview>
  <metadata
     id="metadata3254">
    <rdf:RDF>
      <cc:Work
         rdf:about="">
        <dc:format>image/svg+xml</dc:format>
        <dc:type
           rdf:resource="http://purl.org/dc/dcmitype/StillImage" />
        <dc:title></dc:title>
      </cc:Work>
    </rdf:RDF>
  </metadata>
  <g
     inkscape:label="Layer 1"
     inkscape:groupmode="layer"
     id="layer1"
     transform="translate(0,-136)">
    <path
       id="path861"
       style="fill:#ffffff;fill-opacity:0.98009949;stroke:#290001;stroke-width:4.22808409;stroke-linecap:butt;stroke-linejoin:miter;stroke-miterlimit:4;stroke-dasharray:none;stroke-opacity:1"
       d="m 101.70362,156.88224 23.01141,22.7258 m -21.5261,-22.11639 -74.08644,0.0867 c -3.079006,0.004 -5.557552,2.47852 -5.557552,5.55755 v 119.01232 c 0,3.07901 2.478544,5.55755 5.557552,5.55755 h 89.98458 c 3.07901,0 4.98895,-2.56807 4.98895,-5.64708 0.0145,-3.81313 -0.0142,-101.16612 -0.0137,-101.84742 -1.66446,0.0214 -0.83496,0.0378 -2.86582,0.0535 h -16.4194 c -0.51306,0 -1.0013,-0.10292 -1.44478,-0.28983 -0.44349,-0.18695 -0.84252,-0.45774 -1.1773,-0.79252 -0.33479,-0.33478 -0.60556,-0.73381 -0.79252,-1.17729 -0.18695,-0.44349 -0.28982,-0.93172 -0.28982,-1.44478 V 161.0606 c 0,-0.56267 0.0139,-1.99721 -0.0331,-2.4407 -0.0444,-0.78702 -1.713616,-1.15073 0.31698,-1.11163 z"
       inkscape:connector-curvature="0"
       sodipodi:nodetypes="ccccsssscccscccssccc" />
    <rect
       style="fill:#00ccff;fill-opacity:1;stroke:none;stroke-width:1.42308342;stroke-linecap:round;stroke-miterlimit:4;stroke-dasharray:none;stroke-opacity:1"
       id="rect855-9"
       width="65.082718"
       height="58.954784"
       x="41.361576"
       y="214.23273"
       rx="0.85290062" />
    <path
       inkscape:connector-curvature="0"
       style="fill:#37c837;fill-opacity:1;stroke:none;stroke-width:1.42308342;stroke-linecap:round;stroke-miterlimit:4;stroke-dasharray:none;stroke-opacity:1"
       d="m 95.698131,236.57817 c -0.444256,-0.001 -0.888603,0.18912 -1.230046,0.57096 l -15.503421,17.33795 -7.734644,-8.74376 c -0.67879,-0.76733 -1.774743,-0.77051 -2.457628,-0.007 l -24.545686,27.45052 h 61.365814 c 0.4725,0 0.85271,-0.38021 0.85271,-0.85271 V 247.9169 l -9.519534,-10.76137 c -0.339389,-0.38367 -0.783309,-0.57598 -1.227565,-0.57716 z"
       id="rect855-9-3" />
    <circle
       style="fill:#ffff00;fill-opacity:1;stroke:none;stroke-width:2.21335387;stroke-linecap:round;stroke-linejoin:round;stroke-miterlimit:4;stroke-dasharray:none;stroke-opacity:1"
       id="path1067"
       cx="54.3904"
       cy="223.86816"
       r="6.3550353" />
    <rect
       style="fill:#ffffff;fill-opacity:1;stroke:#000001;stroke-width:3.59474158;stroke-miterlimit:4;stroke-dasharray:none;stroke-opacity:1"
       id="rect3818-6"
       width="61.575661"
       height="0.69313437"
       x="43.113316"
       y="203.23399"
       rx="0"
       ry="0" />
    <rect
       style="fill:#ffffff;fill-opacity:1;stroke:#000001;stroke-width:3.33209348;stroke-miterlimit:4;stroke-dasharray:none;stroke-opacity:1"
       id="rect3818-9-3"
       width="41.937332"
       height="0.87442869"
       x="43.039337"
       y="172.8736"
       rx="0"
       ry="0" />
    <rect
       style="fill:#ffffff;fill-opacity:1;stroke:#000001;stroke-width:3.59474158;stroke-miterlimit:4;stroke-dasharray:none;stroke-opacity:1"
       id="rect3818-6-4"
       width="61.575661"
       height="0.69313437"
       x="43.113312"
       y="193.08565"
       rx="0"
       ry="0" />
    <rect
       style="fill:#ffffff;fill-opacity:1;stroke:#000001;stroke-width:3.33209348;stroke-miterlimit:4;stroke-dasharray:none;stroke-opacity:1"
       id="rect3818-9-3-6"
       width="41.937336"
       height="0.87442869"
       x="43.039333"
       y="182.39847"
       rx="0"
       ry="0" />
  </g>
</svg>
