<?xml version="1.0" encoding="UTF-8"?>
<!-- Created with Inkscape (http://www.inkscape.org/) -->
<svg version="1.1" viewBox="0 0 188.12 144.96" xmlns="http://www.w3.org/2000/svg" xmlns:cc="http://creativecommons.org/ns#" xmlns:dc="http://purl.org/dc/elements/1.1/" xmlns:rdf="http://www.w3.org/1999/02/22-rdf-syntax-ns#">
 <metadata>
  <rdf:RDF>
   <cc:Work rdf:about="">
    <dc:format>image/svg+xml</dc:format>
    <dc:type rdf:resource="http://purl.org/dc/dcmitype/StillImage"/>
    <dc:title/>
   </cc:Work>
  </rdf:RDF>
 </metadata>
 <g transform="translate(-3.1953 -149.26)">
  <path transform="matrix(.26458 0 0 .26458 0 145)" d="m109.79 400.43c-1.3307 35.583-40.328 66.042-90.143 88.018v40.199c0 15.402 12.362 27.803 27.719 27.803h612.25c15.356 0 27.717-12.401 27.717-27.803v-100.42c0-15.402-12.36-27.799-27.717-27.799zm113.79 65.992c11.609 3.7e-4 21.019 9.4109 21.02 21.02-3.7e-4 11.609-9.4109 21.019-21.02 21.02-11.609 7.1e-4 -21.021-9.4102-21.021-21.02 3.7e-4 -11.609 9.4121-21.02 21.021-21.02zm-44 0.37695c11.609 3.7e-4 21.02 9.4121 21.02 21.021-3.7e-4 11.609-9.4109 21.019-21.02 21.02-11.609 7.1e-4 -21.021-9.4102-21.021-21.02-7.2e-4 -11.61 9.4113-21.022 21.021-21.021zm66.412 1.9883h89v37.535h-89z" stroke="#000" stroke-width="15.14"/>
  <rect x="82.382" y="221.56" width="4.5693" height="21.465" ry="2.1"/>
  <rect transform="rotate(47.547)" x="242.73" y="72.931" width="4.5693" height="17.858" ry="1.7471"/>
  <rect transform="matrix(-.67498 .73784 .73784 .67498 0 0)" x="128.38" y="197.95" width="4.5693" height="17.858" ry="1.7471"/>
  <rect transform="matrix(.82067 .5714 -.58038 .81434 0 0)" x="143.1" y="94.184" width="146.69" height="2.7128" rx="0" ry="0" stroke="#000" stroke-linecap="round" stroke-width="3.8632"/>
  <path transform="matrix(.82067 .5714 -.58038 .81434 0 0)" d="m143.27 97.377 146.34-1.8807 0.34901 4.5935h-146.69zm3.5614-14.342 140.39 0.05084c0.2545 9.2e-5 0.45961 0.58309 0.45987 1.3072 3.9539 1.5848 5.2323 1.3089-0.45891 1.3068l-140.39-0.05084c-4.3582 0.14127-4.7438 0.1687-0.45988-1.3072 0.68228-0.23505 0.20441-1.3069 0.45892-1.3068zm6.5077-1.1683c-7.2612-0.5446-12.892 4.2354-12.68 9.87l-0.0312 1.702c-8e-3 0.34814-0.0354 0.75628 1e-3 1.095l-0.14547 6.2677c-0.0358 1.5439 1.5004 2.7851 3.4445 2.7829l145.66-0.1638c1.944-9e-5 3.5378-1.2469 3.5738-2.7906l0.12984-10.513c-0.0123-0.14709-0.0179 0.22684 0 0 0.046-3.9172-5.753-8.5606-12.188-8.6512z" fill="none" stroke="#000" stroke-linecap="round" stroke-width="3.8632"/>
 </g>
 <rect transform="rotate(41.485)" x="49.038" y="-39.51" width="1.7108" height="5.0821" stroke-width="0"/>
 <rect transform="rotate(38.489)" x="198.79" y="-45.84" width="1.7108" height="5.0821" stroke-width="0"/>
</svg>
