<?xml version="1.0" encoding="UTF-8"?>
<!-- Created with Inkscape (http://www.inkscape.org/) -->
<svg version="1.1" viewBox="0 0 254 254" xmlns="http://www.w3.org/2000/svg" xmlns:cc="http://creativecommons.org/ns#" xmlns:dc="http://purl.org/dc/elements/1.1/" xmlns:rdf="http://www.w3.org/1999/02/22-rdf-syntax-ns#" xmlns:xlink="http://www.w3.org/1999/xlink">
 <defs>
  <radialGradient id="radialGradient879" cx="185.27" cy="81.787" r="123.85" gradientTransform="matrix(2.4635 -2.2747 2.2618 2.4519 -475.44 223.64)" gradientUnits="userSpaceOnUse">
   <stop stop-color="#a2e6af" offset="0"/>
   <stop stop-color="#37c570" stop-opacity=".1791" offset="1"/>
  </radialGradient>
  <radialGradient id="radialGradient832-3" cx="111.2" cy="47.337" r="123.85" gradientTransform="matrix(2.5674 -1.5004 1.4888 2.5497 -431.97 41.882)" gradientUnits="userSpaceOnUse">
   <stop stop-color="#e2b994" offset="0"/>
   <stop stop-color="#c53737" stop-opacity=".16863" offset="1"/>
  </radialGradient>
 </defs>
 <metadata>
  <rdf:RDF>
   <cc:Work rdf:about="">
    <dc:format>image/svg+xml</dc:format>
    <dc:type rdf:resource="http://purl.org/dc/dcmitype/StillImage"/>
    <dc:title/>
   </cc:Work>
  </rdf:RDF>
 </metadata>
 <g transform="translate(0,-43)">
  <g stroke-width=".37694">
   <rect x="3.0238" y="46.352" width="247.7" height="247.7" rx="58.459" fill="#37c570"/>
   <rect x="3.0238" y="46.352" width="247.7" height="247.7" rx="58.459" fill="url(#radialGradient879)"/>
   <rect x="3.0238" y="46.352" width="247.7" height="247.7" rx="58.459" fill="#e1c11b" fill-opacity=".90588"/>
   <rect x="3.0238" y="46.352" width="247.7" height="247.7" rx="58.459" fill="url(#radialGradient832-3)"/>
  </g>
  <g fill="#ebebeb">
   <path d="m50.162 88.762c-4.9877 0-9.0031 4.0158-9.0031 9.0035v17.941c0 3.5921 2.0832 6.6794 5.1118 8.1261v63.682c-2.5089 1.5424-4.176 4.3112-4.176 7.4843v18.387c0 4.8645 3.9164 8.7804 8.7809 8.7804h17.206c4.8645 0 8.7803-3.9159 8.7803-8.7804v-18.387c0-3.6406-2.1938-6.7496-5.3366-8.0838v-63.005c3.1202-1.4112 5.2818-4.5449 5.2818-8.2036v-17.941c0-4.9877-4.0158-9.0035-9.0036-9.0035zm33.443 11.566v17.601c0 4.0359-1.9057 7.6085-4.8684 9.8764v55.07c3.1984 2.2446 5.2829 5.9585 5.2829 10.18v13.841h4.4462v-27.831c0-0.0258 0.02061-0.0465 0.04703-0.0465h127.24c0.0262 0 0.0476 0.0207 0.0476 0.0465v27.303c4.7568-1.4802 8.1918-5.9047 8.1918-11.161v-83.188c0-6.476-5.2137-11.69-11.69-11.69zm-49.22 1.8319c-3.2471 2.0724-5.3945 5.7041-5.3945 9.8578v83.188c0 4.3283 2.3307 8.0902 5.809 10.111v-12.262c0-3.8319 1.7183-7.2463 4.4276-9.5229v-55.748c-2.9477-2.2689-4.8421-5.8311-4.8421-9.8552zm64.492 7.152h104.91c1.6717 0 3.0179 1.3457 3.0179 3.0174v26.62c0 1.6717-1.3462 3.0179-3.0179 3.0179h-104.91c-1.6717 0-3.0174-1.3462-3.0174-3.0179v-26.62c0-1.6717 1.3457-3.0174 3.0174-3.0174zm54.15 37.146h19.165v8.5535h-19.165zm21.7 0h19.165v8.5535h-19.165zm-66.204 0.0791h6.7743c0.4691 0 0.84646 0.37739 0.84646 0.84646v6.7743c0 0.4691-0.37736 0.84646-0.84646 0.84646h-6.7743c-0.4691 0-0.84646-0.37736-0.84646-0.84646v-6.7743c0-0.46907 0.37736-0.84646 0.84646-0.84646zm9.525 0h6.7738c0.46909 0 0.84697 0.37739 0.84697 0.84646v6.7743c0 0.4691-0.37788 0.84646-0.84697 0.84646h-6.7738c-0.4691 0-0.84698-0.37736-0.84698-0.84646v-6.7743c0-0.46907 0.37788-0.84646 0.84698-0.84646zm9.525 0h6.7737c0.46911 0 0.84699 0.37739 0.84699 0.84646v6.7743c0 0.4691-0.37788 0.84646-0.84699 0.84646h-6.7737c-0.46911 0-0.84699-0.37736-0.84699-0.84646v-6.7743c0-0.46907 0.37788-0.84646 0.84699-0.84646zm25.453 9.4459h19.165v8.5535h-19.165zm21.7 0h19.165v8.5535h-19.165zm-66.204 0.0791h6.7743c0.4691 0 0.84646 0.37738 0.84646 0.84646v6.7743c0 0.4691-0.37736 0.84646-0.84646 0.84646h-6.7743c-0.4691 0-0.84646-0.37736-0.84646-0.84646v-6.7743c0-0.46908 0.37736-0.84646 0.84646-0.84646zm9.525 0h6.7738c0.46909 0 0.84697 0.3774 0.84697 0.84646v6.7743c0 0.17591-0.053 0.33878-0.14418 0.47388-0.0304 0.045-0.0651 0.0868-0.10335 0.12505-0.0383 0.0384-0.0799 0.0729-0.12505 0.10335-0.13514 0.0911-0.29848 0.14418-0.47439 0.14418h-6.7738c-0.17606 0-0.33923-0.0529-0.47439-0.14418-0.0203-0.0137-0.0374-0.0312-0.0563-0.0465-0.0232-0.0187-0.0477-0.0358-0.0687-0.0568-0.0172-0.0172-0.0308-0.0377-0.0465-0.0563-0.12375-0.14707-0.20102-0.33445-0.20102-0.5426v-6.7743c0-0.23451 0.0944-0.44595 0.24753-0.59893 0.0382-0.0382 0.0802-0.073 0.12506-0.10335 0.045-0.0304 0.0935-0.0567 0.14418-0.078 0.10137-0.0427 0.21294-0.0661 0.33021-0.0661zm9.525 0h6.7737c0.46911 0 0.84699 0.3774 0.84699 0.84646v6.7743c0 0.4691-0.37788 0.84646-0.84699 0.84646h-6.7737c-0.46911 0-0.84699-0.37736-0.84699-0.84646v-6.7743c0-0.46906 0.37788-0.84646 0.84699-0.84646zm-19.049 9.2604h6.7737c0.4691 0 0.84698 0.37738 0.84698 0.84645v6.7743c0 0.4691-0.37788 0.84646-0.84698 0.84646h-6.7737c-0.4691 0-0.84698-0.37736-0.84698-0.84646v-6.7743c0-0.46907 0.37788-0.84645 0.84698-0.84645zm9.5245 0h6.7743c0.4691 0 0.84646 0.37739 0.84646 0.84645v6.7743c0 0.4691-0.37736 0.84646-0.84646 0.84646h-6.7743c-0.4691 0-0.84646-0.37736-0.84646-0.84646v-6.7743c0-0.46906 0.37736-0.84645 0.84646-0.84645zm9.525 0h6.7737c0.46911 0 0.84699 0.3774 0.84699 0.84645v6.7743c0 0.4691-0.37788 0.84646-0.84699 0.84646h-6.7737c-0.46911 0-0.84699-0.37736-0.84699-0.84646v-6.7743c0-0.46905 0.37788-0.84645 0.84699-0.84645zm25.453 0.18551h19.165v8.5535h-19.165zm21.7 0h19.165v8.5535h-19.165z" stroke="#ebebeb" stroke-linecap="round" stroke-width="3.416"/>
   <path d="m194.27 200.02-85.87 7e-3c-0.87302 5e-5 -2.0128 1.3108-2.0128 2.2986v6.5851l0.0455 7.3484v35.844c0 0.81981 0.678 1.4795 1.5203 1.4795h86.494c0.84234 0 1.5208-0.65967 1.5208-1.4795v-35.844l8e-3 -4.3072-0.0434-10.402c-4e-3 -0.98777-0.78994-1.5297-1.663-1.5296zm-75.452 8.3923h38.79c1.4265 0 2.575 1.1485 2.575 2.575 0 1.4265-1.1485 2.575-2.575 2.575h-38.79c-1.4265 0-2.575-1.1485-2.575-2.575 0-1.4265 1.1485-2.575 2.575-2.575zm0 10.483h38.79c1.4265 0 2.575 1.1485 2.575 2.575 0 1.4265-1.1485 2.575-2.575 2.575h-38.79c-1.4265 0-2.575-1.1485-2.575-2.575 0-1.4265 1.1485-2.575 2.575-2.575zm0 10.319h63.831c1.4265 0 2.575 1.1485 2.575 2.575s-1.1485 2.575-2.575 2.575h-63.831c-1.4265 0-2.575-1.1485-2.575-2.575s1.1485-2.575 2.575-2.575zm0 11.112h63.831c1.4265 0 2.575 1.1485 2.575 2.575s-1.1485 2.5745-2.575 2.5745h-63.831c-1.4265 0-2.575-1.148-2.575-2.5745s1.1485-2.575 2.575-2.575z" stroke="#ebebeb" stroke-linecap="round" stroke-width="3.095"/>
   <path d="m93.638 184.41c-0.02421 0-0.0434 0.0155-0.0434 0.0348v24.431c0 0.0193 0.019 0.0348 0.0434 0.0348h7.8486v-12.363c0-0.74599 0.75745-1.3466 1.6988-1.3466h96.669c0.94141 0 1.6994 0.6006 1.6994 1.3466v12.363h8.6464c0.0242 0 0.0438-0.0156 0.0438-0.0348v-24.431c0-0.0193-0.0198-0.0348-0.0438-0.0348z"/>
  </g>
 </g>
</svg>
