<?xml version="1.0" encoding="UTF-8"?>
<!-- Created with Inkscape (http://www.inkscape.org/) -->
<svg version="1.1" viewBox="0 0 252 252" xmlns="http://www.w3.org/2000/svg" xmlns:cc="http://creativecommons.org/ns#" xmlns:dc="http://purl.org/dc/elements/1.1/" xmlns:rdf="http://www.w3.org/1999/02/22-rdf-syntax-ns#">
 <metadata>
  <rdf:RDF>
   <cc:Work rdf:about="">
    <dc:format>image/svg+xml</dc:format>
    <dc:type rdf:resource="http://purl.org/dc/dcmitype/StillImage"/>
    <dc:title/>
   </cc:Work>
  </rdf:RDF>
 </metadata>
 <g transform="translate(0,-45)">
  <rect x="1.9655" y="47.41" width="247.7" height="247.7" rx="58.459" fill="#f7f7f7" stroke="#000" stroke-width="2.777"/>
  <g fill="none" stroke="#1b0001" stroke-linecap="round">
   <path d="m140.67 150.12v1.1831h-22.143v-1.1831zm-77.152 0.0199v1.1831h-22.143v-1.1831zm26.825-49.272h1.1831v22.143h-1.1831zm30.426 49.871a29.69 29.69 0 0 1-29.69 29.69 29.69 29.69 0 0 1-29.69-29.69 29.69 29.69 0 0 1 29.69-29.69 29.69 29.69 0 0 1 29.69 29.69zm5.0731-35.713 0.84205 0.83106-15.554 15.76-0.84203-0.83108zm-69.547 0.19639-0.84205 0.83106 15.554 15.76 0.84205-0.83108zm34.168 63.09h1.1831v22.143h-1.1831zm20.597-8.6101-0.84204 0.83106 15.554 15.76 0.84204-0.83107zm-40.217 0.0274 0.84204 0.83106-15.554 15.76-0.84205-0.83109z" stroke-width="14.714"/>
   <ellipse cx="91.073" cy="150.73" rx="29.69" ry="29.69" stroke-width="24.253"/>
   <path d="m211.26 205.04v0.90349h-16.723v-0.90349zm-58.268 0.0151v0.9035h-16.723v-0.9035zm20.259-37.627h0.89351v16.91h-0.89351zm22.979 38.085a22.423 22.673 0 0 1-22.423 22.673 22.423 22.673 0 0 1-22.423-22.673 22.423 22.673 0 0 1 22.423-22.673 22.423 22.673 0 0 1 22.423 22.673zm3.8314-27.273 0.63593 0.63469-11.747 12.035-0.63594-0.63467zm-52.524 0.15-0.63593 0.63468 11.747 12.035 0.63594-0.63467zm25.805 48.18h0.89352v16.91h-0.89352zm15.556-6.5753-0.63593 0.63468 11.747 12.035 0.63595-0.63468zm-30.373 0.0209 0.63594 0.63469-11.747 12.035-0.63594-0.63467z" stroke-width="11.175"/>
   <ellipse cx="173.8" cy="205.5" rx="22.423" ry="22.673" stroke-width="18.419"/>
  </g>
 </g>
</svg>
