<?xml version="1.0" encoding="UTF-8"?>
<!-- Created with Inkscape (http://www.inkscape.org/) -->
<svg version="1.1" viewBox="0 0 254 254" xmlns="http://www.w3.org/2000/svg" xmlns:cc="http://creativecommons.org/ns#" xmlns:dc="http://purl.org/dc/elements/1.1/" xmlns:osb="http://www.openswatchbook.org/uri/2009/osb" xmlns:rdf="http://www.w3.org/1999/02/22-rdf-syntax-ns#" xmlns:xlink="http://www.w3.org/1999/xlink">
 <defs>
  <linearGradient id="linearGradient824" x1="138.55" x2="295.25" y1="92.525" y2="92.525" gradientTransform="matrix(.64424 .54812 -.54622 .65376 86.96 6.2322)" gradientUnits="userSpaceOnUse">
   <stop stop-color="#f6f6f6" offset="0"/>
  </linearGradient>
  <radialGradient id="radialGradient832" cx="156.92" cy="125.03" r="123.85" gradientTransform="matrix(1.1224 -2.4785 2.3554 1.0674 -284.81 216.54)" gradientUnits="userSpaceOnUse">
   <stop stop-color="#e6aba2" offset="0"/>
   <stop stop-color="#c59b37" stop-opacity=".16863" offset="1"/>
  </radialGradient>
 </defs>
 <metadata>
  <rdf:RDF>
   <cc:Work rdf:about="">
    <dc:format>image/svg+xml</dc:format>
    <dc:type rdf:resource="http://purl.org/dc/dcmitype/StillImage"/>
    <dc:title/>
   </cc:Work>
  </rdf:RDF>
 </metadata>
 <g transform="translate(0,-43)">
  <g stroke-width=".37694">
   <rect x="3.0238" y="46.352" width="247.7" height="247.7" rx="58.459" fill="#c54637" fill-opacity=".84"/>
   <rect x="3.0238" y="46.352" width="247.7" height="247.7" rx="58.459" fill="#c54637" fill-opacity=".995"/>
   <rect x="2.8357" y="46.464" width="247.7" height="247.7" rx="58.459" fill="url(#radialGradient832)"/>
  </g>
  <g fill="#f4f4f4">
   <rect x="142.28" y="210.85" width="3.6503" height="17.148" ry="1.6776"/>
   <rect transform="rotate(47.547)" x="270.5" y="24.693" width="3.6503" height="14.267" ry="1.3957"/>
   <rect transform="matrix(-.67498 .73784 .73784 .67498 0 0)" x="75.928" y="237.41" width="3.6503" height="14.267" ry="1.3957"/>
   <path d="m98.804 234.45a53.136 28.778 0 0 1-19.16 18.708v8.5444c0 3.2737 2.6276 5.9095 5.8916 5.9095h130.13c3.264 0 5.8912-2.6358 5.8912-5.9095v-21.344c0-3.2737-2.6272-5.9086-5.8912-5.9086zm24.187 14.027a4.4678 4.4678 0 0 1 4.4677 4.4677 4.4678 4.4678 0 0 1-4.4677 4.4677 4.4678 4.4678 0 0 1-4.4681-4.4677 4.4678 4.4678 0 0 1 4.4681-4.4677zm-9.3522 0.0801a4.4678 4.4678 0 0 1 4.4677 4.4681 4.4678 4.4678 0 0 1-4.4677 4.4677 4.4678 4.4678 0 0 1-4.4681-4.4677 4.4678 4.4678 0 0 1 4.4681-4.4681zm14.116 0.4226h18.917v7.9781h-18.917z" stroke="#f4f4f4" stroke-width="3.218"/>
  </g>
  <g>
   <path transform="matrix(.26458 0 0 .26458 0 43)" d="m388.52 174.19-208.92 210.71 0.0274 0.0273-33.473 33.758c-50.853 51.289-50.502 133.52 0.78711 184.37 51.289 50.853 133.52 50.502 184.37-0.78711 50.33-50.253 96.305-99.442 146.05-150.22l-29.499-24.855c-13.357-11.254-8.5924-29.21-4.4455-33.544 9.8763-12.668 15.306-20.466 23.159-26.162 9.6271-10.062 14.036-12.725 28.8-16.241 12.672-2.3335 24.002-1.0078 34.661 4.4572l28.041 21.677 15.602-19.614zm22.949 162.1-8.3086 31.539-8.2773-8.2051-76.799 77.457 40.895 0.94727c3.0458-0.34809 6.2079-1.6276 8.5274-3.8633 11.857-11.958 16.037-16.154 16.037-16.154l-6.7188-6.6602 19.895-20.064 20.062 19.893-19.893 20.064-6.7266-6.668-15.83 15.973c-4.4533 4.4916-11.584 6.7568-17.441 6.8887h-2e-3c-0.13716-4e-3 -43.373-1.0059-43.373-1.0059-3.041 0.34394-6.1911 1.6201-8.5098 3.8438l-24.992 25.205c-0.0299 0.034-0.0603 0.0604-0.0898 0.0899l-11.297 11.394c6.1444 9.1409 5.2132 21.636-2.8359 29.754-9.1752 9.2539-24.115 9.3179-33.369 0.14258-9.2511-9.1724-9.3139-24.111-0.13867-33.365 8.0476-8.1167 20.528-9.1574 29.715-3.0977l11.502-11.6c2.2112-2.3391 3.464-5.5032 3.7852-8.5469 0 0-1.3668-43.231-1.375-43.365-6e-3 -0.35149 7.4e-4 -0.17638 4e-3 -8e-3 0.0802-5.859 2.2818-13.007 6.7344-17.498l16.434-16.566c-2.543-5.2394-1.7088-11.713 2.6309-16.09 5.4906-5.5377 14.437-5.5786 19.979-0.084 5.5392 5.4921 5.578 14.441 0.0879 19.979-4.3397 4.3769-10.808 5.265-16.072 2.7637-2.0008 2.026-7.4452 7.5227-16.617 16.773-2.2143 2.3394-3.4624 5.5094-3.7852 8.5586l1.2988 40.877 101.66-102.53-8.2637-8.1934z" fill="#f6f6f6"/>
   <path d="m135.87 70.907-23.317 23.517 33.891 33.603 23.317-23.517zm1.6044 11.564 6.2884 6.2349-6.473 6.5285-6.2884-6.2349zm14.416 14.294 6.2884 6.2349-6.473 6.5285-6.2884-6.2349z" fill="#f6f6f6"/>
   <rect transform="matrix(.76372 .64555 -.64362 .76534 0 0)" x="190.82" y="27.875" width="127.49" height="2.3692" rx="0" ry="0" fill="#f4f4f4" stroke="#f6f6f6" stroke-linecap="round" stroke-width="3.3657"/>
  </g>
  <path d="m126.07 148.42 94.503 80.403-1.4818 1.7735-94.503-80.402zm10.128-7.424 90.418 76.984c0.16395 0.13956-0.0231 0.63309-0.41771 1.1066 1.6816 3.2033 2.656 3.7236-1.0095 0.60282l-90.418-76.984c-2.291-1.9506-3.1483-2.4899 0.41772-1.1066 0.56795 0.2203 0.84555-0.74237 1.0095-0.60279zm4.9804 2.6428c-4.4621-3.7885-10.538-4.0014-13.622-0.47845l-1.0995 1.2559c-0.19531 0.22322-0.37426 0.45587-0.53579 0.69735l-3.5172 4.0178c-0.86634 0.9897-0.55459 2.6432 0.69905 3.7073l93.929 79.731c1.2525 1.0655 2.9603 1.124 3.8267 0.13445l5.4262-6.2914c0.0727-0.10285 0.2642-0.37162 0.39966-0.51012 2.2506-3.563 0.99023-8.8418-3.1268-12.336z" fill="none" stroke="url(#linearGradient824)" stroke-linecap="round" stroke-width="3.2793"/>
 </g>
</svg>
