<?xml version="1.0" encoding="UTF-8"?>
<!-- Created with Inkscape (http://www.inkscape.org/) -->
<svg version="1.1" viewBox="0 0 123.46 128.65" xmlns="http://www.w3.org/2000/svg" xmlns:cc="http://creativecommons.org/ns#" xmlns:dc="http://purl.org/dc/elements/1.1/" xmlns:rdf="http://www.w3.org/1999/02/22-rdf-syntax-ns#">
 <metadata>
  <rdf:RDF>
   <cc:Work rdf:about="">
    <dc:format>image/svg+xml</dc:format>
    <dc:type rdf:resource="http://purl.org/dc/dcmitype/StillImage"/>
    <dc:title/>
   </cc:Work>
  </rdf:RDF>
 </metadata>
 <g transform="translate(0,-168.35)" stroke="#09000f">
  <path d="m41.089 171.13c-2.5638 0-4.6276 2.0638-4.6276 4.6276v10.14h-29.088c-2.5638 0-4.6281 2.0638-4.6281 4.6276v99.098c0 2.5638 2.0643 4.6276 4.6281 4.6276h74.927c2.5638 0 4.6281-2.0638 4.6281-4.6276v-10.14h29.088c2.5638 0 4.6276-2.0638 4.6276-4.6276v-88.574l-16.195-15.152z" fill="#fff" stroke-width="5.4905"/>
  <g fill="none">
   <rect x="19.564" y="218.71" width="16.795" height="2.1269" rx="0" ry="0" stroke-width="3.2887"/>
   <rect x="19.34" y="232.09" width="15.66" height="2.1919" rx="0" ry="0" stroke-width="3.2237"/>
   <rect x="19.559" y="245.73" width="16.701" height="2.1322" rx="0" ry="0" stroke-width="3.2834"/>
   <rect x="19.435" y="259.21" width="15.66" height="2.1919" rx="0" ry="0" stroke-width="3.2237"/>
  </g>
  <g fill="#fff">
   <path d="m103.18 171.13h-62.092c-2.5638 0-4.6276 2.0638-4.6276 4.6276v99.098c0 2.5638 2.0638 4.6276 4.6276 4.6276h74.928c2.5638 0 4.6276-2.0638 4.6276-4.6276v-86.859c-0.0164 0.0445-0.0101 0.0981-0.0284 0.14159-0.15568 0.36928-0.38115 0.70154-0.65991 0.9803-0.27877 0.27877-0.61103 0.50424-0.9803 0.65991-0.36928 0.15567-0.77531 0.24133-1.2025 0.24133h-13.672c-0.42721 0-0.83375-0.0857-1.203-0.24133-0.36927-0.15567-0.70153-0.38114-0.9803-0.65991-0.27876-0.27876-0.50423-0.61102-0.6599-0.9803-0.15568-0.36928-0.24133-0.77582-0.24133-1.203v-12.906c0-0.42721 0.0857-0.83375 0.24133-1.203 0.15567-0.36928 0.38114-0.70102 0.6599-0.97979 0.27877-0.27876 0.61103-0.50423 0.9803-0.6599 0.0868-0.0366-2.8554 0.32615-2.7648 0.29745z" stroke-width="5.4905"/>
   <g stroke-width="4.2331">
    <rect x="53.454" y="204.25" width="50.05" height="1.1825" rx="0" ry="0"/>
    <rect x="53.263" y="217.67" width="50.05" height="1.1825" rx="0" ry="0"/>
    <rect x="53.452" y="231.28" width="50.05" height="1.1825" rx="0" ry="0"/>
    <rect x="53.357" y="244.79" width="50.05" height="1.1825" rx="0" ry="0"/>
   </g>
  </g>
  <path d="m103.18 171.13c-0.0906 0.0287-0.1959 0.0203-0.28267 0.0569-0.36927 0.15567-0.70153 0.38114-0.9803 0.6599-0.27876 0.27877-0.50423 0.61051-0.6599 0.97979-0.15568 0.36928-0.24133 0.77582-0.24133 1.203v12.906c0 0.4272 0.0857 0.83374 0.24133 1.203 0.15567 0.36928 0.38114 0.70154 0.6599 0.9803 0.27877 0.27877 0.61103 0.50424 0.9803 0.65991 0.36928 0.15567 0.77582 0.24133 1.203 0.24133h13.672c0.4272 0 0.83323-0.0857 1.2025-0.24133 0.36927-0.15567 0.70153-0.38114 0.9803-0.65991 0.27876-0.27876 0.50423-0.61102 0.65991-0.9803 0.0183-0.0435 0.0121-0.0971 0.0284-0.14159v-1.7151l-16.195-15.152z" fill="#eee" stroke-width="5.4905"/>
 </g>
</svg>
