<?xml version="1.0" encoding="UTF-8"?>
<!-- Created with Inkscape (http://www.inkscape.org/) -->
<svg width="254mm" height="254mm" version="1.1" viewBox="0 0 254 254" xmlns="http://www.w3.org/2000/svg" xmlns:cc="http://creativecommons.org/ns#" xmlns:dc="http://purl.org/dc/elements/1.1/" xmlns:rdf="http://www.w3.org/1999/02/22-rdf-syntax-ns#" xmlns:xlink="http://www.w3.org/1999/xlink">
 <defs>
  <radialGradient id="radialGradient832" cx="177.37" cy="59.971" r="123.85" gradientTransform="matrix(4.0604 .081867 -.068118 3.2888 -547.57 -228.4)" gradientUnits="userSpaceOnUse">
   <stop stop-color="#b5e6a2" offset="0"/>
   <stop stop-color="#5fc537" stop-opacity=".16863" offset="1"/>
  </radialGradient>
 </defs>
 <metadata>
  <rdf:RDF>
   <cc:Work rdf:about="">
    <dc:format>image/svg+xml</dc:format>
    <dc:type rdf:resource="http://purl.org/dc/dcmitype/StillImage"/>
    <dc:title/>
   </cc:Work>
  </rdf:RDF>
 </metadata>
 <g transform="translate(0,-43)">
  <rect x="3.0238" y="46.352" width="247.7" height="247.7" rx="58.459" fill="#31661d" fill-opacity=".995" stroke-width=".37694"/>
  <rect x="3.0238" y="46.352" width="247.7" height="247.7" rx="58.459" fill="url(#radialGradient832)" stroke-width=".37694"/>
  <g fill="#ebebeb">
   <path d="m131.32 224.82v44.107h64.399v-44.107zm8.5649 6.3454h34.419c0.40767 0 0.73572 0.56856 0.73572 1.2743 0 0.70564-0.32805 1.2729-0.73572 1.2729h-34.419c-0.40764 0-0.73551-0.56726-0.73551-1.2729 0-0.70572 0.32787-1.2743 0.73551-1.2743zm0.12741 9.1216h34.418c0.40764 0 0.73573 0.5679 0.73573 1.2738 0 0.70565-0.32809 1.2733-0.73573 1.2733h-34.418c-0.40768 0-0.7355-0.56768-0.7355-1.2733 0-0.70585 0.32782-1.2738 0.7355-1.2738zm0.23316 9.1398h46.3c0.54845 0 0.98946 0.56867 0.98946 1.2741 0 0.70564-0.44101 1.2733-0.98946 1.2733h-46.3c-0.54815 0-0.98997-0.56763-0.98997-1.2733 0-0.70543 0.44182-1.2741 0.98997-1.2741zm-3e-3 9.183h46.299c0.54842 0 0.98993 0.56876 0.98993 1.2741 0 0.70573-0.44151 1.2736-0.98993 1.2736h-46.299c-0.54846 0-0.98986-0.56785-0.98986-1.2736 0-0.7051 0.44114-1.2737 0.98941-1.2741z"/>
   <path d="m121.95 210.78c-0.78751 0-1.4208 0.65302-1.4208 1.4642v20.041c0 0.81115 0.63324 1.4642 1.4208 1.4642h5.4276v-13.099h72.261v13.099h5.3787c0.78734 0 1.4215-0.65305 1.4215-1.4642v-20.041c0-0.81123-0.63415-1.4642-1.4215-1.4642z"/>
   <path d="m84.106 154.58-25.571 44.091h41.349v-16.789c0-7.9126 6.1163-14.283 13.714-14.283h14.261v-13.018zm46.475 32.903c0.22155 0.15039 0.48615 0.23823 0.77153 0.23823h28.542l0.13798-0.23823z"/>
   <path d="m80.537 68.691 47.362 81.693v-9.247c0-0.0609 0.63275-0.11007 1.419-0.11007h44.121l-41.933-72.328z"/>
   <rect transform="matrix(.49996 -.86605 .50822 .86123 0 0)" x="-63.157" y="114.7" width="97.976" height="52.548"/>
   <path d="m113.86 170.25c-6.5008 0-11.734 5.4818-11.734 12.291v39.651c0 6.8087 5.2334 12.291 11.734 12.291h2.9322v-25.777c0-0.92209 0.70844-1.6644 1.5888-1.6644h90.404c0.88043 0 1.5892 0.74233 1.5892 1.6644v25.777h2.9738c6.501 0 11.734-5.4821 11.734-12.291v-39.651c0-6.8088-5.2333-12.291-11.734-12.291h-14.414v16.052c0 0.70056-0.53817 1.2641-1.2069 1.2641h-68.676c-0.669 0-1.2074-0.5635-1.2074-1.2641v-16.052zm93.11 9.4842a2.3907 2.504 0 0 1 2.3908 2.504 2.3907 2.504 0 0 1-2.3908 2.504 2.3907 2.504 0 0 1-2.3908-2.504 2.3907 2.504 0 0 1 2.3908-2.504zm8.4544 0a2.3907 2.504 0 0 1 2.3907 2.504 2.3907 2.504 0 0 1-2.3907 2.504 2.3907 2.504 0 0 1-2.3909-2.504 2.3907 2.504 0 0 1 2.3909-2.504z"/>
   <rect x="131.27" y="143.91" width="64.61" height="40.457" rx="1.2427" ry=".092"/>
  </g>
 </g>
</svg>
