<?xml version="1.0" encoding="UTF-8" standalone="no"?>
<!-- Created with Inkscape (http://www.inkscape.org/) -->

<svg
   xmlns:dc="http://purl.org/dc/elements/1.1/"
   xmlns:cc="http://creativecommons.org/ns#"
   xmlns:rdf="http://www.w3.org/1999/02/22-rdf-syntax-ns#"
   xmlns:svg="http://www.w3.org/2000/svg"
   xmlns="http://www.w3.org/2000/svg"
   xmlns:sodipodi="http://sodipodi.sourceforge.net/DTD/sodipodi-0.dtd"
   xmlns:inkscape="http://www.inkscape.org/namespaces/inkscape"
   width="254mm"
   height="254mm"
   viewBox="0 0 254 254"
   version="1.1"
   id="svg8"
   inkscape:version="0.92.4 (5da689c313, 2019-01-14)"
   sodipodi:docname="fax-scan-3.svg">
  <defs
     id="defs2" />
  <sodipodi:namedview
     id="base"
     pagecolor="#ffffff"
     bordercolor="#666666"
     borderopacity="1.0"
     inkscape:pageopacity="0.0"
     inkscape:pageshadow="2"
     inkscape:zoom="0.175"
     inkscape:cx="1914.8443"
     inkscape:cy="941.91639"
     inkscape:document-units="mm"
     inkscape:current-layer="layer1"
     showgrid="true"
     inkscape:window-width="1920"
     inkscape:window-height="1001"
     inkscape:window-x="-9"
     inkscape:window-y="-9"
     inkscape:window-maximized="1"
     inkscape:pagecheckerboard="true">
    <inkscape:grid
       type="xygrid"
       id="grid4921"
       spacingx="0.79375"
       spacingy="1.0583333" />
  </sodipodi:namedview>
  <metadata
     id="metadata5">
    <rdf:RDF>
      <cc:Work
         rdf:about="">
        <dc:format>image/svg+xml</dc:format>
        <dc:type
           rdf:resource="http://purl.org/dc/dcmitype/StillImage" />
        <dc:title></dc:title>
      </cc:Work>
    </rdf:RDF>
  </metadata>
  <g
     inkscape:label="Layer 1"
     inkscape:groupmode="layer"
     id="layer1"
     transform="translate(0,-43)">
    <path
       style="fill:#006341;fill-opacity:1;stroke-width:1.42463648"
       d="m 232.375,12.667969 c -122.40385,0 -220.947266,98.541461 -220.947266,220.945311 v 494.29688 c 0,122.40382 98.543416,220.94726 220.947266,220.94726 h 494.29688 c 122.40382,0 220.94531,-98.54344 220.94531,-220.94726 V 233.61328 c 0,-122.40385 -98.54149,-220.945311 -220.94531,-220.945311 z M 170.26367,138.47461 h 71.34961 c 20.1722,0 36.41211,16.23991 36.41211,36.41211 v 72.56055 c 0,14.79729 -8.74223,27.47042 -21.36133,33.17773 v 254.81445 c 12.71088,5.39597 21.58399,17.9695 21.58399,32.69336 v 74.36328 c 0,19.6737 -15.83803,35.51172 -35.51172,35.51172 h -69.58789 c -19.6737,0 -35.51172,-15.83802 -35.51172,-35.51172 v -74.36328 c 0,-12.83311 6.74186,-24.02969 16.88867,-30.26758 V 280.3125 c -12.24881,-5.85122 -20.67383,-18.33751 -20.67383,-32.86523 v -72.56055 c 0,-20.1722 16.23991,-36.41211 36.41211,-36.41211 z M 305.51758,185.25 h 520.51758 c 26.19148,0 47.27734,21.08598 47.27734,47.27734 v 336.44141 c 0,26.19133 -21.08586,47.27734 -47.27734,47.27734 h -6.59375 v 41.47266 c 0,0.0994 -0.0783,0.17969 -0.17774,0.17969 h -43.70703 v 162.17773 c 0,3.70948 -2.98778,6.69531 -6.69726,6.69531 H 387.94727 c -3.70949,0 -6.69727,-2.98583 -6.69727,-6.69531 V 657.89844 h -39.45703 c -0.0994,0 -0.17969,-0.0803 -0.17969,-0.17969 v -41.47266 h -34.41797 v -55.97656 c 0,-17.07231 -8.43184,-32.09375 -21.36719,-41.17187 V 296.37695 c 11.98224,-9.17223 19.68946,-23.62075 19.68946,-39.94336 z m -199.0625,7.4082 v 63.77539 c 0,16.27503 7.66255,30.68325 19.58398,39.85938 v 225.46289 c -10.95749,9.20753 -17.90625,23.01621 -17.90625,38.51367 v 49.5918 C 94.065511,601.68855 84.638672,586.47409 84.638672,568.96875 V 232.52734 c 0,-16.79916 8.683929,-31.48754 21.816408,-39.86914 z m 260.83008,28.92578 c -6.7609,0 -12.20313,5.44216 -12.20313,12.20313 v 107.6582 c 0,6.76086 5.44223,12.20703 12.20313,12.20703 H 791.5625 c 6.76086,0 12.20703,-5.44617 12.20703,-12.20703 v -107.6582 c 0,-6.76097 -5.44617,-12.20313 -12.20703,-12.20313 z"
       transform="matrix(0.26458333,0,0,0.26458333,0,43)"
       id="rect12"
       inkscape:connector-curvature="0" />
    <rect
       style="opacity:1;fill:#800000;fill-opacity:1;stroke-width:0.53326106"
       id="rect4526"
       width="0"
       height="0"
       x="216.0065"
       y="29.255432" />
    <rect
       style="opacity:1;fill:#fffffa;fill-opacity:1;stroke:#006341;stroke-width:1.8011229;stroke-miterlimit:4;stroke-dasharray:none;stroke-opacity:1"
       id="rect4941-8"
       width="76.459244"
       height="0.44544369"
       x="115.12838"
       y="247.61725"
       rx="1.5677534" />
    <rect
       style="opacity:1;fill:#fffffa;fill-opacity:1;stroke:#006341;stroke-width:1.8011229;stroke-miterlimit:4;stroke-dasharray:none;stroke-opacity:1"
       id="rect4941-2-7"
       width="76.459244"
       height="0.44544369"
       x="115.32909"
       y="234.56941"
       rx="1.5677534" />
    <rect
       style="opacity:1;fill:#fffffa;fill-opacity:1;stroke:#006341;stroke-width:1.63851464;stroke-miterlimit:4;stroke-dasharray:none;stroke-opacity:1"
       id="rect4941-0-2"
       width="46.355026"
       height="0.60805166"
       x="115.24781"
       y="210.42584"
       rx="0.95048296" />
    <rect
       style="opacity:1;fill:#fffffa;fill-opacity:1;stroke:#006341;stroke-width:1.63851464;stroke-miterlimit:4;stroke-dasharray:none;stroke-opacity:1"
       id="rect4941-0-6-4"
       width="46.355026"
       height="0.60805166"
       x="115.07605"
       y="221.93755"
       rx="0.95048296" />
    <path
       style="opacity:1;fill:none;fill-opacity:1;stroke:#006341;stroke-width:5.39799976;stroke-miterlimit:4;stroke-dasharray:none;stroke-opacity:1"
       d="m 89.779116,182.34926 c -0.02656,0 -0.04749,0.0213 -0.04749,0.0475 v 33.41472 c 0,0.0263 0.02092,0.0476 0.04749,0.0476 h 8.591041 v -16.90942 c 0,-1.02032 0.829104,-1.84179 1.859533,-1.84179 h 105.81213 c 1.03044,0 1.86008,0.82147 1.86008,1.84179 v 16.90942 h 9.46418 c 0.0266,0 0.0479,-0.0213 0.0479,-0.0476 v -33.41472 c 0,-0.0263 -0.0216,-0.0475 -0.0479,-0.0475 z"
       id="rect4922-3"
       inkscape:connector-curvature="0" />
    <rect
       style="fill:none;fill-opacity:1;stroke:#006341;stroke-width:2.50850248;stroke-miterlimit:4;stroke-dasharray:none;stroke-opacity:1"
       id="rect4923"
       width="5.291666"
       height="5.291666"
       x="109.80209"
       y="143.54167"
       rx="0.52916628"
       ry="0" />
    <rect
       style="fill:none;fill-opacity:1;stroke:#006341;stroke-width:2.50850248;stroke-miterlimit:4;stroke-dasharray:none;stroke-opacity:1"
       id="rect4923-5"
       width="5.291666"
       height="5.291666"
       x="109.80209"
       y="153.06654"
       rx="0.52916628"
       ry="0" />
    <rect
       style="fill:none;fill-opacity:1;stroke:#006341;stroke-width:2.50850248;stroke-miterlimit:4;stroke-dasharray:none;stroke-opacity:1"
       id="rect4923-9"
       width="5.291666"
       height="5.291666"
       x="109.80209"
       y="162.59142"
       rx="0.52916628"
       ry="0" />
    <rect
       style="fill:none;fill-opacity:1;stroke:#006341;stroke-width:2.50850248;stroke-miterlimit:4;stroke-dasharray:none;stroke-opacity:1"
       id="rect4923-4"
       width="5.291666"
       height="5.291666"
       x="119.3271"
       y="143.54167"
       rx="0.52916628"
       ry="0" />
    <rect
       style="fill:none;fill-opacity:1;stroke:#006341;stroke-width:2.50850248;stroke-miterlimit:4;stroke-dasharray:none;stroke-opacity:1"
       id="rect4923-1"
       width="5.291666"
       height="5.291666"
       x="119.3271"
       y="153.06654"
       rx="0.52916628"
       ry="0" />
    <rect
       style="fill:none;fill-opacity:1;stroke:#006341;stroke-width:2.50850248;stroke-miterlimit:4;stroke-dasharray:none;stroke-opacity:1"
       id="rect4923-0"
       width="5.291666"
       height="5.291666"
       x="119.3271"
       y="162.59142"
       rx="0.52916628"
       ry="0" />
    <rect
       style="fill:none;fill-opacity:1;stroke:#006341;stroke-width:2.50850248;stroke-miterlimit:4;stroke-dasharray:none;stroke-opacity:1"
       id="rect4923-6"
       width="5.291666"
       height="5.291666"
       x="128.8521"
       y="143.54167"
       rx="0.52916628"
       ry="0" />
    <rect
       style="fill:none;fill-opacity:1;stroke:#006341;stroke-width:2.50850248;stroke-miterlimit:4;stroke-dasharray:none;stroke-opacity:1"
       id="rect4923-2"
       width="5.291666"
       height="5.291666"
       x="128.8521"
       y="153.06654"
       rx="0.52916628"
       ry="0" />
    <rect
       style="fill:none;fill-opacity:1;stroke:#006341;stroke-width:2.50850248;stroke-miterlimit:4;stroke-dasharray:none;stroke-opacity:1"
       id="rect4923-7"
       width="5.291666"
       height="5.291666"
       x="128.8521"
       y="162.59142"
       rx="0.52916628"
       ry="0" />
    <rect
       style="fill:none;fill-opacity:1;stroke:#006341;stroke-width:2.50900006;stroke-miterlimit:4;stroke-dasharray:none;stroke-opacity:1"
       id="rect4923-64"
       width="18.256147"
       height="5.291666"
       x="147.10834"
       y="143.54167"
       rx="1.8256136"
       ry="0" />
    <rect
       style="fill:none;fill-opacity:1;stroke:#006341;stroke-width:2.50900006;stroke-miterlimit:4;stroke-dasharray:none;stroke-opacity:1"
       id="rect4923-64-4"
       width="18.256147"
       height="5.291666"
       x="147.07326"
       y="153.06673"
       rx="1.8256136"
       ry="0" />
    <rect
       style="fill:none;fill-opacity:1;stroke:#006341;stroke-width:2.50900006;stroke-miterlimit:4;stroke-dasharray:none;stroke-opacity:1"
       id="rect4923-64-6"
       width="18.256147"
       height="5.291666"
       x="147.10812"
       y="162.59154"
       rx="1.8256136"
       ry="0" />
    <rect
       style="fill:none;fill-opacity:1;stroke:#006341;stroke-width:2.50900006;stroke-miterlimit:4;stroke-dasharray:none;stroke-opacity:1"
       id="rect4923-64-9"
       width="18.256147"
       height="5.291666"
       x="178.85802"
       y="143.54181"
       rx="1.8256136"
       ry="0" />
    <rect
       style="fill:none;fill-opacity:1;stroke:#006341;stroke-width:2.50900006;stroke-miterlimit:4;stroke-dasharray:none;stroke-opacity:1"
       id="rect4923-64-4-9"
       width="18.256147"
       height="5.291666"
       x="178.82294"
       y="153.06686"
       rx="1.8256136"
       ry="0" />
    <rect
       style="fill:none;fill-opacity:1;stroke:#006341;stroke-width:2.50900006;stroke-miterlimit:4;stroke-dasharray:none;stroke-opacity:1"
       id="rect4923-64-6-0"
       width="18.256147"
       height="5.291666"
       x="178.8578"
       y="162.59167"
       rx="1.8256136"
       ry="0" />
  </g>
</svg>
