<?xml version="1.0" encoding="UTF-8" standalone="no"?>
<!-- Created with Inkscape (http://www.inkscape.org/) -->

<svg
   xmlns:osb="http://www.openswatchbook.org/uri/2009/osb"
   xmlns:dc="http://purl.org/dc/elements/1.1/"
   xmlns:cc="http://creativecommons.org/ns#"
   xmlns:rdf="http://www.w3.org/1999/02/22-rdf-syntax-ns#"
   xmlns:svg="http://www.w3.org/2000/svg"
   xmlns="http://www.w3.org/2000/svg"
   xmlns:sodipodi="http://sodipodi.sourceforge.net/DTD/sodipodi-0.dtd"
   xmlns:inkscape="http://www.inkscape.org/namespaces/inkscape"
   width="254mm"
   height="254mm"
   viewBox="0 0 254 254"
   version="1.1"
   id="svg8"
   inkscape:version="0.92.4 (5da689c313, 2019-01-14)"
   sodipodi:docname="fax-scan-one.svg">
  <defs
     id="defs2">
    <linearGradient
       id="linearGradient4880"
       osb:paint="solid">
      <stop
         style="stop-color:#000000;stop-opacity:1;"
         offset="0"
         id="stop4878" />
    </linearGradient>
  </defs>
  <sodipodi:namedview
     id="base"
     pagecolor="#ffffff"
     bordercolor="#666666"
     borderopacity="1.0"
     inkscape:pageopacity="0.0"
     inkscape:pageshadow="2"
     inkscape:zoom="0.9899495"
     inkscape:cx="520.6379"
     inkscape:cy="354.92995"
     inkscape:document-units="mm"
     inkscape:current-layer="layer1"
     showgrid="false"
     inkscape:window-width="1920"
     inkscape:window-height="1001"
     inkscape:window-x="-9"
     inkscape:window-y="-9"
     inkscape:window-maximized="1"
     inkscape:pagecheckerboard="true" />
  <metadata
     id="metadata5">
    <rdf:RDF>
      <cc:Work
         rdf:about="">
        <dc:format>image/svg+xml</dc:format>
        <dc:type
           rdf:resource="http://purl.org/dc/dcmitype/StillImage" />
        <dc:title></dc:title>
      </cc:Work>
    </rdf:RDF>
  </metadata>
  <g
     inkscape:label="Layer 1"
     inkscape:groupmode="layer"
     id="layer1"
     transform="translate(0,-43)">
    <path
       style="fill:#006341;fill-opacity:1;stroke-width:1.42463648"
       d="m 232.375,12.667969 c -122.40385,0 -220.947266,98.541461 -220.947266,220.945311 v 494.29688 c 0,122.40382 98.543416,220.94726 220.947266,220.94726 h 494.29688 c 122.40382,0 220.94531,-98.54344 220.94531,-220.94726 V 233.61328 c 0,-122.40385 -98.54149,-220.945311 -220.94531,-220.945311 z m 60.99414,128.853511 h 380.59375 c 3.70638,0 6.68945,2.98308 6.68945,6.68946 v 142.56445 h 79.87891 c 36.02748,0 65.0293,29.00573 65.0293,65.0332 v 209.80469 c 0,36.0274 -29.00182,65.0332 -65.0293,65.0332 H 744.05078 V 494.25195 c 0,-4.87899 -3.92765,-8.80664 -8.80664,-8.80664 H 234.23633 c -4.87903,0 -8.80664,3.92765 -8.80664,8.80664 v 136.39453 h -16.2461 c -36.02749,0 -65.03125,-29.0058 -65.03125,-65.0332 V 355.80859 c 0,-36.02747 29.00376,-65.0332 65.03125,-65.0332 h 77.49414 V 148.21094 c 0,-3.70638 2.98504,-6.68946 6.69141,-6.68946 z m -47.55078,364.1543 h 477.07031 c 0.0993,0 0.17969,0.0804 0.17969,0.17969 v 126.18359 c 0,0.0993 -0.0804,0.17969 -0.17969,0.17969 h -43.66992 v 162.04102 c 0,3.70637 -2.98308,6.68945 -6.68945,6.68945 H 291.93359 c -3.70637,0 -6.68945,-2.98308 -6.68945,-6.68945 V 632.21875 h -39.42578 c -0.0993,0 -0.17969,-0.0804 -0.17969,-0.17969 V 505.85547 c 0,-0.0993 0.0804,-0.17969 0.17969,-0.17969 z"
       transform="matrix(0.26458333,0,0,0.26458333,0,43)"
       id="rect12"
       inkscape:connector-curvature="0" />
    <rect
       style="opacity:1;fill:#800000;fill-opacity:1;stroke-width:0.37565219"
       id="rect4526"
       width="0"
       height="0"
       x="-7.309803"
       y="67.749146" />
    <rect
       style="opacity:1;fill:none;fill-opacity:1;stroke:#006341;stroke-width:0.37565222;stroke-opacity:1"
       id="rect4526-9"
       width="0"
       height="0"
       x="-7.2623558"
       y="67.749016" />
    <rect
       style="opacity:1;fill:none;fill-opacity:1;stroke:#006341;stroke-width:3.82064915;stroke-miterlimit:4;stroke-dasharray:none;stroke-opacity:1"
       id="rect4894-0"
       width="104.23917"
       height="63.732327"
       x="75.897675"
       y="80.444099"
       rx="1.7701176" />
    <rect
       style="opacity:1;fill:none;fill-opacity:1;stroke:#006341;stroke-width:3.82064915;stroke-miterlimit:4;stroke-dasharray:none;stroke-opacity:1"
       id="rect4894-0-4"
       width="104.23917"
       height="63.732327"
       x="75.518219"
       y="191.18561"
       rx="1.7701176" />
    <rect
       style="opacity:1;fill:none;fill-opacity:1;stroke:#006341;stroke-width:1.79961407;stroke-miterlimit:4;stroke-dasharray:none;stroke-opacity:1"
       id="rect4941"
       width="76.395203"
       height="0.44507059"
       x="89.7621"
       y="240.79703"
       rx="1.5664405" />
    <rect
       style="opacity:1;fill:none;fill-opacity:1;stroke:#006341;stroke-width:1.79961407;stroke-miterlimit:4;stroke-dasharray:none;stroke-opacity:1"
       id="rect4941-2"
       width="76.395203"
       height="0.44507059"
       x="89.962662"
       y="227.76013"
       rx="1.5664405" />
    <rect
       style="opacity:1;fill:none;fill-opacity:1;stroke:#006341;stroke-width:1.63714218;stroke-miterlimit:4;stroke-dasharray:none;stroke-opacity:1"
       id="rect4941-0"
       width="46.316204"
       height="0.6075424"
       x="89.881409"
       y="203.63676"
       rx="0.94968683" />
    <rect
       style="opacity:1;fill:none;fill-opacity:1;stroke:#006341;stroke-width:1.63714218;stroke-miterlimit:4;stroke-dasharray:none;stroke-opacity:1"
       id="rect4941-0-6"
       width="46.316204"
       height="0.6075424"
       x="89.709793"
       y="215.13878"
       rx="0.94968683" />
    <circle
       style="opacity:1;fill:none;fill-opacity:1;stroke:#006341;stroke-width:4.26209259;stroke-miterlimit:4;stroke-dasharray:none;stroke-opacity:1"
       id="path4987"
       cx="192.37845"
       cy="136.84865"
       r="1.4184234" />
    <circle
       style="opacity:1;fill:none;fill-opacity:1;stroke:#006341;stroke-width:4.26209259;stroke-miterlimit:4;stroke-dasharray:none;stroke-opacity:1"
       id="path4987-3"
       cx="205.30342"
       cy="136.85985"
       r="1.4184234" />
  </g>
</svg>
