<?xml version="1.0" encoding="UTF-8" standalone="no"?>
<!-- Created with Inkscape (http://www.inkscape.org/) -->

<svg
   xmlns:dc="http://purl.org/dc/elements/1.1/"
   xmlns:cc="http://creativecommons.org/ns#"
   xmlns:rdf="http://www.w3.org/1999/02/22-rdf-syntax-ns#"
   xmlns:svg="http://www.w3.org/2000/svg"
   xmlns="http://www.w3.org/2000/svg"
   xmlns:sodipodi="http://sodipodi.sourceforge.net/DTD/sodipodi-0.dtd"
   xmlns:inkscape="http://www.inkscape.org/namespaces/inkscape"
   width="254mm"
   height="254mm"
   viewBox="0 0 254 254"
   version="1.1"
   id="svg8"
   inkscape:version="0.92.4 (5da689c313, 2019-01-14)"
   sodipodi:docname="google-scan-11.svg">
  <defs
     id="defs2" />
  <sodipodi:namedview
     id="base"
     pagecolor="#ffffff"
     bordercolor="#666666"
     borderopacity="1.0"
     inkscape:pageopacity="0.0"
     inkscape:pageshadow="2"
     inkscape:zoom="0.49497475"
     inkscape:cx="707.97214"
     inkscape:cy="596.08534"
     inkscape:document-units="mm"
     inkscape:current-layer="layer1"
     showgrid="false"
     inkscape:window-width="1920"
     inkscape:window-height="1001"
     inkscape:window-x="-9"
     inkscape:window-y="-9"
     inkscape:window-maximized="1" />
  <metadata
     id="metadata5">
    <rdf:RDF>
      <cc:Work
         rdf:about="">
        <dc:format>image/svg+xml</dc:format>
        <dc:type
           rdf:resource="http://purl.org/dc/dcmitype/StillImage" />
        <dc:title></dc:title>
      </cc:Work>
    </rdf:RDF>
  </metadata>
  <g
     inkscape:label="Layer 1"
     inkscape:groupmode="layer"
     id="layer1"
     transform="translate(0,-43)">
    <path
       style="fill:#292726;fill-opacity:1;stroke-width:1.42463648"
       d="m 232.375,12.667969 c -122.40385,0 -220.947266,98.541461 -220.947266,220.945311 v 494.29688 c 0,122.40381 98.543416,220.94726 220.947266,220.94726 h 494.29688 c 122.40381,0 220.94531,-98.54345 220.94531,-220.94726 V 233.61328 c 0,-122.40385 -98.5415,-220.945311 -220.94531,-220.945311 z M 429.95898,304.33203 c 10.50198,-0.063 21.85309,3.34838 31.92188,10.34375 L 858.4375,590.12305 c 19.81852,13.76572 27.5275,36.45211 18.82812,52.94922 -0.28387,0.83085 -0.68034,1.62682 -1.22656,2.35937 l -22.23633,29.71484 c -3.49776,4.67388 -11.17698,5.06917 -17.20703,0.8711 L 384.44336,361.95508 c -6.03477,-4.19172 -8.07795,-11.3295 -4.58008,-16.00391 l 14.19922,-18.97656 c 0.63163,-1.12033 1.34203,-2.21167 2.13086,-3.26563 l 4.43945,-5.93164 c 6.6143,-8.83962 17.42394,-13.37389 29.32617,-13.44531 z m -21.93554,9.0918 -1.36524,2.20312 466.89844,325.17969 1.36524,-2.20117 z m 29.80468,307.0039 h 0.0293 c 2.201,0 3.97266,1.77166 3.97266,3.97266 v 32.66406 c 0,2.201 -1.77166,3.97266 -3.97266,3.97266 h -0.0293 c -2.20099,0 -3.97265,-1.77166 -3.97265,-3.97266 v -32.66406 c 0,-2.201 1.77166,-3.97266 3.97265,-3.97266 z M 468.30469,634.5 c 0.8162,-0.0363 1.64754,0.2403 2.30078,0.83789 l 0.5625,0.51563 c 1.30648,1.19517 1.39635,3.20913 0.20117,4.51562 l -17.73633,19.38867 c -1.19518,1.30649 -3.20914,1.39635 -4.51562,0.20117 l -0.56446,-0.51562 c -1.30648,-1.19518 -1.39635,-3.20914 -0.20117,-4.51563 l 17.73828,-19.38867 c 0.59759,-0.65324 1.39865,-1.00274 2.21485,-1.03906 z m -60.63867,0.125 c 0.8162,0.0363 1.6192,0.38582 2.21679,1.03906 l 17.73633,19.38867 c 1.19518,1.30649 1.10531,3.32045 -0.20117,4.51563 l -0.5625,0.51562 c -1.30649,1.19518 -3.32045,1.10532 -4.51563,-0.20117 l -17.73828,-19.38867 c -1.19518,-1.30649 -1.10531,-3.32045 0.20117,-4.51562 l 0.56446,-0.51563 c 0.65324,-0.59759 1.48262,-0.87421 2.29883,-0.83789 z M 275.33398,681.1875 H 824.4668 c 15.33702,0 27.68359,13.83544 27.68359,31.02148 v 112.04883 c 0,17.18608 -12.34657,31.02149 -27.68359,31.02149 H 212.98828 c -15.33704,0 -27.68359,-13.83541 -27.68359,-31.02149 v -44.85742 a 249.67624,151.07956 0 0 0 90.02929,-98.21289 z"
       transform="matrix(0.26458333,0,0,0.26458333,0,43)"
       id="rect12"
       inkscape:connector-curvature="0" />
    <path
       style="fill:#2a71e9;fill-opacity:1;stroke:none;stroke-width:41.81288528;stroke-miterlimit:4;stroke-dasharray:none;stroke-opacity:1"
       d="M 309.91016,423.39258 197.71289,616.84766 H 614.58203 L 652.57031,551.3457 468.35938,423.39258 Z m 246.95507,0 121.02735,84.29297 1.30273,-2.2461 -117.80273,-82.04687 z m 57.00196,0 80.48828,55.9082 32.42383,-55.9082 z"
       transform="matrix(0.26458333,0,0,0.26458333,0,43)"
       id="rect3636-4"
       inkscape:connector-curvature="0" />
    <path
       style="fill:#fccd48;fill-opacity:1;stroke:none;stroke-width:41.65329361;stroke-miterlimit:4;stroke-dasharray:none;stroke-opacity:1"
       d="M 293.51562,64.664062 432.82031,302.47461 c 8.54795,1.089 17.35374,4.37899 25.35157,9.93555 l 159.74804,110.96093 108.86133,0.0215 L 516.66797,64.708984 Z m 167.54297,286.015628 3.1211,5.32617 96.70508,67.35352 h 4.52929 z"
       transform="matrix(0.26458333,0,0,0.26458333,0,43)"
       id="rect3636-0"
       inkscape:connector-curvature="0" />
    <rect
       style="fill:#0ba25e;fill-opacity:1;stroke:none;stroke-width:11.86440372;stroke-miterlimit:4;stroke-dasharray:none;stroke-opacity:1"
       id="rect3636-03"
       width="110.10658"
       height="58.971333"
       x="-68.44619"
       y="111.66755"
       transform="matrix(0.50172572,-0.86502676,0.50781291,0.86146738,0,0)"
       inkscape:transform-center-x="43.525636"
       inkscape:transform-center-y="-29.961589" />
    <path
       sodipodi:type="star"
       style="fill:#296ad9;fill-opacity:1;stroke:none;stroke-width:4;stroke-miterlimit:4;stroke-dasharray:none;stroke-opacity:1"
       id="path13171"
       sodipodi:sides="4"
       sodipodi:cx="-64.346664"
       sodipodi:cy="213.36"
       sodipodi:r1="59.916248"
       sodipodi:r2="12.210801"
       sodipodi:arg1="-0.8253769"
       sodipodi:arg2="-0.039978737"
       inkscape:flatsided="true"
       inkscape:rounded="0"
       inkscape:randomized="-1.331"
       d="m 8.103873,219.65244 -52.54859,29.73751 -12.766174,-1.84468 -118.337489,-18.59875 z"
       inkscape:transform-center-x="5.6249082"
       inkscape:transform-center-y="12.664468"
       transform="matrix(-0.25958213,0.21027912,0.53248825,-1.3465651,-62.547281,500.22374)" />
    <path
       sodipodi:type="star"
       style="fill:#089156;fill-opacity:1;stroke:none;stroke-width:4;stroke-miterlimit:4;stroke-dasharray:none;stroke-opacity:1"
       id="path13171-3"
       sodipodi:sides="4"
       sodipodi:cx="-64.346664"
       sodipodi:cy="213.36"
       sodipodi:r1="59.916248"
       sodipodi:r2="12.210801"
       sodipodi:arg1="-0.8253769"
       sodipodi:arg2="-0.039978737"
       inkscape:flatsided="true"
       inkscape:rounded="0"
       inkscape:randomized="-1.331"
       d="m 8.103873,219.65244 -52.54859,29.73751 -12.766174,-1.84468 -118.337489,-18.59875 z"
       inkscape:transform-center-x="2.5828787"
       inkscape:transform-center-y="-11.194224"
       transform="matrix(-0.05429048,-0.32962514,0.90669129,1.1290227,-120.98318,-185.1777)" />
    <path
       style="fill:#e3b73a;fill-opacity:1;stroke:none;stroke-width:7.44821739;stroke-miterlimit:4;stroke-dasharray:none;stroke-opacity:1"
       d="m 460.33398,349.53906 2.89649,5.16992 98.53125,68.625 h 4.52734 z m 82.42969,21.00782 76.00586,52.79101 107.94727,0.01 z"
       transform="matrix(0.26458333,0,0,0.26458333,0,43)"
       id="path13171-2"
       inkscape:connector-curvature="0" />
    <rect
       style="fill:#000000;fill-opacity:1;stroke:none;stroke-width:5.88561821;stroke-miterlimit:4;stroke-dasharray:none;stroke-opacity:1"
       id="rect981-7"
       width="23.358547"
       height="7.7861819"
       x="100.94484"
       y="237.91255" />
    <circle
       style="fill:#000000;fill-opacity:1;stroke:none;stroke-width:5.8499999;stroke-miterlimit:4;stroke-dasharray:none;stroke-opacity:1"
       id="path983-8"
       cx="93.503433"
       cy="241.88365"
       r="3.8695312" />
    <path
       style="fill:none;fill-opacity:1;stroke:#000000;stroke-width:4.22877502;stroke-miterlimit:4;stroke-dasharray:none;stroke-opacity:1"
       d="m 73.021908,221.63932 a 66.060172,39.973134 0 0 1 -23.82037,25.98543 v 11.86818 c 0,4.54715 3.26701,8.20803 7.32494,8.20803 H 218.31353 c 4.05792,0 7.32441,-3.66088 7.32441,-8.20803 v -29.64616 c 0,-4.54714 -3.26649,-8.20745 -7.32441,-8.20745 z"
       id="rect9111-4"
       inkscape:connector-curvature="0" />
    <path
       id="rect823"
       style="fill:none;fill-opacity:1;stroke:#000000;stroke-width:3.99612737;stroke-miterlimit:4;stroke-dasharray:none;stroke-opacity:1"
       d="m 108.12928,124.33503 123.53347,86.03744 -0.36102,0.58273 -123.53346,-86.03744 z m 14.25014,0.33117 c -5.68327,-3.9485 -12.91149,-3.58187 -16.20567,0.82061 l -1.17439,1.56947 c -0.2087,0.27887 -0.39639,0.56748 -0.56351,0.86389 l -3.75702,5.02089 c -0.925482,1.23677 -0.38504,3.12534 1.21166,4.2344 l 119.63216,83.09605 c 1.59545,1.11074 3.62707,1.00613 4.55252,-0.2305 l 5.88333,-7.86223 c 0.14452,-0.19382 0.24949,-0.40461 0.32461,-0.62444 2.30171,-4.36486 0.26212,-10.36735 -4.98153,-14.00953 z"
       inkscape:connector-curvature="0" />
  </g>
</svg>
