<?xml version="1.0" encoding="UTF-8" standalone="no"?>
<!-- Created with Inkscape (http://www.inkscape.org/) -->

<svg
   xmlns:osb="http://www.openswatchbook.org/uri/2009/osb"
   xmlns:dc="http://purl.org/dc/elements/1.1/"
   xmlns:cc="http://creativecommons.org/ns#"
   xmlns:rdf="http://www.w3.org/1999/02/22-rdf-syntax-ns#"
   xmlns:svg="http://www.w3.org/2000/svg"
   xmlns="http://www.w3.org/2000/svg"
   xmlns:xlink="http://www.w3.org/1999/xlink"
   xmlns:sodipodi="http://sodipodi.sourceforge.net/DTD/sodipodi-0.dtd"
   xmlns:inkscape="http://www.inkscape.org/namespaces/inkscape"
   width="254mm"
   height="254mm"
   viewBox="0 0 254 254"
   version="1.1"
   id="svg8"
   inkscape:version="0.92.4 (5da689c313, 2019-01-14)"
   sodipodi:docname="google-print-9.svg">
  <defs
     id="defs2">
    <linearGradient
       osb:paint="solid"
       id="linearGradient4880">
      <stop
         id="stop4878"
         offset="0"
         style="stop-color:#000000;stop-opacity:1;" />
    </linearGradient>
    <linearGradient
       osb:paint="gradient"
       id="linearGradient4850">
      <stop
         id="stop4846"
         offset="0"
         style="stop-color:#ff8080;stop-opacity:1;" />
      <stop
         id="stop4848"
         offset="1"
         style="stop-color:#ff8080;stop-opacity:0;" />
    </linearGradient>
    <linearGradient
       osb:paint="solid"
       id="linearGradient4822">
      <stop
         id="stop4820"
         offset="0"
         style="stop-color:#f600f4;stop-opacity:1;" />
    </linearGradient>
    <linearGradient
       gradientTransform="matrix(0.97834107,0,0,0.95750059,-22.667823,69.869577)"
       gradientUnits="userSpaceOnUse"
       y2="165.56056"
       x2="161.04517"
       y1="165.56056"
       x1="29.687277"
       id="linearGradient4882"
       xlink:href="#linearGradient4880"
       inkscape:collect="always" />
  </defs>
  <sodipodi:namedview
     id="base"
     pagecolor="#ffffff"
     bordercolor="#666666"
     borderopacity="1.0"
     inkscape:pageopacity="0.0"
     inkscape:pageshadow="2"
     inkscape:zoom="0.49497475"
     inkscape:cx="527.43606"
     inkscape:cy="323.326"
     inkscape:document-units="mm"
     inkscape:current-layer="layer1"
     showgrid="true"
     inkscape:window-width="1920"
     inkscape:window-height="1001"
     inkscape:window-x="-9"
     inkscape:window-y="-9"
     inkscape:window-maximized="1"
     inkscape:pagecheckerboard="false">
    <inkscape:grid
       type="xygrid"
       id="grid1740"
       spacingx="3.3866667"
       spacingy="3.3866667" />
  </sodipodi:namedview>
  <metadata
     id="metadata5">
    <rdf:RDF>
      <cc:Work
         rdf:about="">
        <dc:format>image/svg+xml</dc:format>
        <dc:type
           rdf:resource="http://purl.org/dc/dcmitype/StillImage" />
        <dc:title></dc:title>
      </cc:Work>
    </rdf:RDF>
  </metadata>
  <g
     inkscape:label="Layer 1"
     inkscape:groupmode="layer"
     id="layer1"
     transform="translate(0,-43)">
    <rect
       style="fill:#c8c8c8;fill-opacity:1;stroke-width:0.37693506"
       id="rect12"
       width="247.70001"
       height="247.70001"
       x="3.0238037"
       y="46.351601"
       rx="58.458519" />
    <g
       id="g1738"
       transform="matrix(0.28234381,0,0,0.30179384,92.440092,50.337719)">
      <g
         id="g1197">
        <path
           id="path1193"
           d="m 167.11,35.1 0.44,-0.01 0.04,0.49 -0.56,0.02 z"
           inkscape:connector-curvature="0"
           style="opacity:1;fill:#0ba25e" />
        <path
           id="path1195"
           d="m 165.4,38.38 c 0.39,-0.56 1.15,-1.68 1.54,-2.24 l 0.7,-0.11 c 0.52,6.34 2.38,12.45 3.78,18.62 6.02,26.81 12.1,53.6 18.43,80.33 4.15,18.33 8.78,36.57 12.58,54.97 3.3,11.39 5.07,23.14 8.26,34.55 2.06,10.64 5.29,21.02 7.02,31.72 -0.7,1.17 -1.4,2.35 -2.11,3.52 -0.17,0.27 -0.53,0.83 -0.7,1.11 l -0.26,0.45 c -0.04,0.08 -0.13,0.25 -0.18,0.33 -0.39,0.72 -1.17,2.15 -1.56,2.86 -0.07,0.13 -0.22,0.39 -0.3,0.52 l -0.71,1.26 c -0.09,0.15 -0.26,0.44 -0.34,0.59 l -0.83,1.45 c -0.04,0.08 -0.13,0.24 -0.18,0.32 l -1.03,1.8 c -0.09,0.15 -0.27,0.47 -0.36,0.63 -0.1,0.17 -0.3,0.5 -0.4,0.67 l -1.01,1.74 c -0.08,0.13 -0.24,0.41 -0.32,0.54 l -0.62,1.05 c -0.1,0.18 -0.32,0.55 -0.42,0.73 -0.4,0.69 -1.19,2.07 -1.59,2.77 -0.07,0.12 -0.22,0.37 -0.29,0.5 l -0.63,1.05 c -0.1,0.19 -0.32,0.55 -0.43,0.74 -0.37,0.65 -1.13,1.94 -1.5,2.59 -0.09,0.15 -0.26,0.46 -0.35,0.61 l -0.75,1.35 c -0.07,0.12 -0.21,0.37 -0.28,0.49 l -0.77,1.35 c -0.08,0.14 -0.24,0.42 -0.32,0.56 -0.4,0.66 -1.18,1.99 -1.57,2.66 -0.09,0.15 -0.27,0.46 -0.36,0.62 l -0.71,1.28 c -0.07,0.12 -0.2,0.35 -0.26,0.47 l -0.82,1.42 c -0.07,0.13 -0.22,0.38 -0.29,0.5 -0.42,0.72 -1.25,2.15 -1.67,2.87 -0.07,0.13 -0.23,0.39 -0.31,0.52 l -0.6,0.99 c -0.1,0.18 -0.31,0.53 -0.41,0.71 -0.38,0.66 -1.13,1.97 -1.51,2.63 -0.06,0.11 -0.2,0.35 -0.26,0.46 l -0.82,1.46 c -0.06,0.11 -0.18,0.32 -0.24,0.43 l -0.84,1.47 c -0.07,0.11 -0.21,0.35 -0.28,0.46 -0.39,0.66 -1.18,1.96 -1.57,2.62 -0.11,0.17 -0.31,0.53 -0.42,0.71 l -0.59,1.1 c -0.08,0.14 -0.23,0.42 -0.3,0.55 l -1.03,1.78 c -0.08,0.15 -0.26,0.45 -0.34,0.6 -0.09,0.14 -0.25,0.43 -0.33,0.57 -1.69,2.85 -3.22,5.79 -5.09,8.53 -10.65,17.37 -20.45,35.28 -30.76,52.86 -16.74,28.97 -33.46,57.94 -50.2,86.91 -2.51,4.51 -5.37,8.83 -7.53,13.54 -0.11,0.16 -0.33,0.48 -0.44,0.64 C 85.91,471.38 82.81,465 79.14,459 62.4,430.01 45.65,401.03 28.92,372.03 19.62,355.72 9.93,339.61 0.88,323.15 36.72,261.3 72.4,199.34 108.17,137.45 c 0.03,-0.06 0.1,-0.17 0.13,-0.23 l 0.98,-1.68 c 0.04,-0.07 0.12,-0.21 0.17,-0.28 l 0.99,-1.69 c 0.09,-0.15 0.27,-0.47 0.37,-0.62 0.1,-0.18 0.3,-0.53 0.4,-0.71 l 0.99,-1.76 c 0.07,-0.12 0.21,-0.36 0.28,-0.48 l 0.74,-1.18 c 0.13,-0.19 0.39,-0.58 0.52,-0.78 0.36,-0.54 1.09,-1.63 1.46,-2.17 0.04,-0.18 0.11,-0.53 0.15,-0.7 l 0.87,-1.67 c 0.04,-0.07 0.12,-0.21 0.16,-0.28 l 1,-1.68 c 0.1,-0.16 0.3,-0.5 0.4,-0.67 0.11,-0.19 0.33,-0.58 0.45,-0.78 l 0.84,-1.47 c 0.09,-0.16 0.27,-0.47 0.36,-0.62 l 0.7,-1.23 c 0.08,-0.13 0.24,-0.41 0.32,-0.55 0.39,-0.67 1.17,-2.01 1.57,-2.68 0.08,-0.14 0.24,-0.42 0.32,-0.56 l 0.73,-1.33 c 0.06,-0.1 0.18,-0.32 0.24,-0.42 l 0.96,-1.68 c 0.12,-0.2 0.37,-0.61 0.5,-0.81 l 0.65,-0.98 c 0.14,-0.2 0.41,-0.59 0.55,-0.78 0.12,-0.2 0.37,-0.6 0.5,-0.8 l 0.54,-1.04 c 0.18,-0.39 0.55,-1.17 0.73,-1.56 l 0.55,-0.77 c 0.1,-0.14 0.29,-0.41 0.39,-0.55 0.37,-0.31 1.12,-0.95 1.49,-1.27 l -0.07,-1.17 c 0.06,-0.14 0.2,-0.42 0.27,-0.56 l 0.85,-1.69 c 0.07,-0.12 0.21,-0.37 0.28,-0.49 l 0.75,-1.22 c 0.14,-0.2 0.41,-0.6 0.55,-0.8 0.34,-0.56 1.03,-1.66 1.37,-2.21 0.1,-0.2 0.28,-0.59 0.38,-0.79 l 0.53,-1.15 c 0.16,-0.3 0.5,-0.91 0.67,-1.22 l 0.66,-0.94 c 0.14,-0.19 0.42,-0.57 0.56,-0.76 0.12,-0.2 0.37,-0.6 0.49,-0.8 l 0.49,-1.03 c 0.11,-0.23 0.34,-0.7 0.45,-0.93 l 0.86,-1.66 c 0.13,-0.2 0.38,-0.62 0.5,-0.83 l 0.66,-0.98 c 0.14,-0.2 0.42,-0.58 0.56,-0.78 0.13,-0.2 0.38,-0.61 0.5,-0.81 l 0.51,-1.04 c 0.15,-0.29 0.44,-0.86 0.58,-1.15 l 0.68,-1.12 c 0.12,-0.19 0.36,-0.57 0.49,-0.76 0.36,-0.56 1.09,-1.68 1.46,-2.23 0.04,-0.17 0.13,-0.51 0.17,-0.68 l 0.87,-1.66 c 0.03,-0.07 0.11,-0.2 0.15,-0.27 l 1,-1.71 c 0.1,-0.17 0.29,-0.5 0.39,-0.67 0.1,-0.16 0.29,-0.5 0.39,-0.66 l 1,-1.75 c 0.04,-0.07 0.12,-0.21 0.16,-0.29 l 0.94,-1.63 c 0.05,-0.07 0.14,-0.22 0.18,-0.3 l 1.01,-1.7 c 0.09,-0.16 0.27,-0.46 0.36,-0.62 0.1,-0.17 0.3,-0.52 0.4,-0.7 l 0.96,-1.69 c 0.06,-0.11 0.18,-0.32 0.24,-0.42 l 0.81,-1.31 c 0.13,-0.19 0.39,-0.58 0.51,-0.77 0.37,-0.55 1.09,-1.65 1.46,-2.2 0.03,-0.17 0.11,-0.51 0.15,-0.68 l 0.85,-1.63 c 0.07,-0.12 0.22,-0.37 0.29,-0.5 l 0.76,-1.19 c 0.14,-0.19 0.4,-0.58 0.54,-0.78 0.35,-0.56 1.05,-1.67 1.4,-2.23 0.05,-0.16 0.14,-0.48 0.19,-0.64 l 0.88,-1.65 c 0.04,-0.08 0.12,-0.22 0.16,-0.3 l 1.02,-1.72 c 0.08,-0.15 0.26,-0.45 0.35,-0.6 0.09,-0.17 0.27,-0.49 0.36,-0.65 l 1,-1.78 c 0.05,-0.07 0.13,-0.22 0.17,-0.29 l 0.95,-1.61 c 0.03,-0.05 0.1,-0.16 0.13,-0.21 z"
           inkscape:connector-curvature="0"
           style="opacity:1;fill:#0ba25e" />
      </g>
      <g
         id="g1201">
        <path
           id="path1199"
           d="m 167.55,35.09 c 32.48,-0.15 64.97,-0.02 97.46,-0.07 26.88,0.1 53.78,-0.21 80.65,0.15 0.53,1.02 1.07,2.03 1.64,3.04 0.08,0.13 0.23,0.41 0.31,0.55 2.6,4.53 5.24,9.04 7.81,13.58 0.05,0.08 0.13,0.23 0.18,0.3 4.98,8.55 9.94,17.11 14.83,25.71 0.04,0.07 0.13,0.21 0.17,0.29 0.89,1.53 1.81,3.06 2.72,4.6 0.08,0.13 0.23,0.4 0.31,0.54 1.25,2.2 2.51,4.39 3.78,6.58 0.05,0.07 0.13,0.21 0.17,0.29 1.27,2.18 2.52,4.38 3.78,6.58 0.08,0.13 0.23,0.39 0.31,0.52 1.27,2.14 2.5,4.3 3.72,6.46 0.08,0.13 0.23,0.4 0.31,0.53 11.94,20.62 23.85,41.25 35.75,61.9 -1.36,5.99 1.93,11.95 0.1,17.97 -1.11,16.45 -7.32,32.46 -17.56,45.38 -3.33,3.61 -0.1,8.62 -0.46,12.9 -3.59,4.35 -8.21,7.6 -12.57,11.11 0.01,3.28 0.02,6.56 -0.13,9.85 -3.89,2.57 -8.35,4.06 -12.3,6.54 -0.42,1.33 -0.85,2.67 -1.26,4.02 -3.17,1.5 -6.56,2.47 -9.73,3.99 -12.55,-3.6 -24.97,-7.61 -37.49,-11.32 -11.65,-3.85 -23.58,-6.87 -35.11,-11.11 l -0.66,-1.18 c -0.06,-0.09 -0.16,-0.27 -0.21,-0.36 l -0.95,-1.61 c -0.1,-0.17 -0.3,-0.51 -0.4,-0.68 -0.09,-0.15 -0.25,-0.44 -0.34,-0.59 -0.71,-1.26 -1.36,-2.55 -1.94,-3.87 l -0.06,-0.13 -0.07,-0.1 c -0.44,-0.7 -1.33,-2.11 -1.78,-2.81 -0.05,-0.08 -0.15,-0.24 -0.2,-0.33 l -0.29,-0.46 c -0.17,-0.29 -0.52,-0.86 -0.69,-1.15 -0.43,-0.73 -1.3,-2.19 -1.73,-2.92 -0.11,-0.18 -0.32,-0.55 -0.43,-0.73 l -0.61,-1.04 c -0.08,-0.14 -0.24,-0.41 -0.32,-0.55 l -0.97,-1.67 c -0.04,-0.07 -0.13,-0.21 -0.17,-0.29 l -1.02,-1.75 c -0.09,-0.16 -0.27,-0.48 -0.36,-0.63 -0.1,-0.18 -0.31,-0.55 -0.41,-0.73 l -0.83,-1.46 c -0.1,-0.17 -0.3,-0.53 -0.4,-0.7 l -0.64,-1.13 c -0.09,-0.15 -0.26,-0.45 -0.35,-0.6 -0.39,-0.72 -1.18,-2.15 -1.58,-2.87 -0.04,-0.08 -0.14,-0.25 -0.18,-0.33 l -0.27,-0.47 c -0.19,-0.28 -0.56,-0.84 -0.75,-1.12 -0.99,-1.66 -1.92,-3.36 -2.81,-5.07 -0.05,-0.08 -0.14,-0.25 -0.18,-0.33 l -0.26,-0.46 c -0.19,-0.27 -0.57,-0.81 -0.76,-1.07 -0.44,-0.79 -1.32,-2.37 -1.76,-3.16 -0.05,-0.08 -0.15,-0.25 -0.19,-0.34 l -0.27,-0.48 c -0.2,-0.33 -0.59,-0.98 -0.79,-1.31 l -0.86,-1.45 c -0.08,-0.14 -0.25,-0.42 -0.34,-0.57 -0.38,-0.66 -1.15,-1.99 -1.54,-2.65 -0.09,-0.15 -0.26,-0.46 -0.35,-0.62 -0.68,-1.13 -1.33,-2.27 -1.97,-3.41 -0.05,-0.09 -0.16,-0.27 -0.21,-0.36 l -0.95,-1.63 c -0.1,-0.16 -0.29,-0.48 -0.38,-0.65 -0.09,-0.15 -0.26,-0.45 -0.35,-0.6 l -1.01,-1.76 c -0.05,-0.08 -0.14,-0.25 -0.19,-0.33 l -0.82,-1.47 c -0.07,-0.12 -0.2,-0.35 -0.27,-0.47 -0.38,-0.67 -1.15,-2 -1.53,-2.67 -0.08,-0.14 -0.24,-0.41 -0.32,-0.54 -0.62,-1.03 -1.24,-2.07 -1.84,-3.1 -27.73,-48.12 -55.5,-96.21 -83.29,-144.3 -1.74,-3 -3.32,-6.12 -5.45,-8.88 l -0.05,-0.45 z"
           inkscape:connector-curvature="0"
           style="opacity:1;fill:#fccd48" />
      </g>
      <g
         id="g1373">
        <path
           id="path1203"
           d="m 167.03,35.6 0.56,-0.02 0.05,0.45 -0.7,0.11 z"
           inkscape:connector-curvature="0"
           style="opacity:1;fill:#089156" />
        <path
           id="path1205"
           d="m 167.64,36.03 c 2.13,2.76 3.71,5.88 5.45,8.88 27.79,48.09 55.56,96.18 83.29,144.3 -12.84,22.36 -25.78,44.67 -38.67,67.01 -1.73,-10.7 -4.96,-21.08 -7.02,-31.72 -3.19,-11.41 -4.96,-23.16 -8.26,-34.55 -3.8,-18.4 -8.43,-36.64 -12.58,-54.97 -6.33,-26.73 -12.41,-53.52 -18.43,-80.33 -1.4,-6.17 -3.26,-12.28 -3.78,-18.62 z"
           inkscape:connector-curvature="0"
           style="opacity:1;fill:#089156" />
        <path
           id="path1207"
           d="m 165.27,38.59 c 0.03,-0.05 0.1,-0.16 0.13,-0.21 -0.03,0.05 -0.1,0.16 -0.13,0.21 z"
           inkscape:connector-curvature="0"
           style="opacity:1;fill:#089156" />
        <path
           id="path1209"
           d="m 164.15,40.49 c 0.05,-0.07 0.13,-0.22 0.17,-0.29 -0.04,0.07 -0.12,0.22 -0.17,0.29 z"
           inkscape:connector-curvature="0"
           style="opacity:1;fill:#089156" />
        <path
           id="path1211"
           d="m 162.79,42.92 c 0.09,-0.17 0.27,-0.49 0.36,-0.65 -0.09,0.16 -0.27,0.48 -0.36,0.65 z"
           inkscape:connector-curvature="0"
           style="opacity:1;fill:#089156" />
        <path
           id="path1213"
           d="m 162.44,43.52 c 0.08,-0.15 0.26,-0.45 0.35,-0.6 -0.09,0.15 -0.27,0.45 -0.35,0.6 z"
           inkscape:connector-curvature="0"
           style="opacity:1;fill:#089156" />
        <path
           id="path1215"
           d="m 161.26,45.54 c 0.04,-0.08 0.12,-0.22 0.16,-0.3 -0.04,0.08 -0.12,0.22 -0.16,0.3 z"
           inkscape:connector-curvature="0"
           style="opacity:1;fill:#089156" />
        <path
           id="path1217"
           d="m 160.19,47.83 c 0.05,-0.16 0.14,-0.48 0.19,-0.64 -0.05,0.16 -0.14,0.48 -0.19,0.64 z"
           inkscape:connector-curvature="0"
           style="opacity:1;fill:#089156" />
        <path
           id="path1219"
           d="m 158.79,50.06 c 0.35,-0.56 1.05,-1.67 1.4,-2.23 -0.35,0.56 -1.05,1.67 -1.4,2.23 z"
           inkscape:connector-curvature="0"
           style="opacity:1;fill:#089156" />
        <path
           id="path1221"
           d="m 158.25,50.84 c 0.14,-0.19 0.4,-0.58 0.54,-0.78 -0.14,0.2 -0.4,0.59 -0.54,0.78 z"
           inkscape:connector-curvature="0"
           style="opacity:1;fill:#089156" />
        <path
           id="path1223"
           d="m 157.2,52.53 c 0.07,-0.12 0.22,-0.37 0.29,-0.5 -0.07,0.13 -0.22,0.38 -0.29,0.5 z"
           inkscape:connector-curvature="0"
           style="opacity:1;fill:#089156" />
        <path
           id="path1225"
           d="m 156.2,54.84 c 0.03,-0.17 0.11,-0.51 0.15,-0.68 -0.04,0.17 -0.12,0.51 -0.15,0.68 z"
           inkscape:connector-curvature="0"
           style="opacity:1;fill:#089156" />
        <path
           id="path1227"
           d="m 154.74,57.04 c 0.37,-0.55 1.09,-1.65 1.46,-2.2 -0.37,0.55 -1.09,1.65 -1.46,2.2 z"
           inkscape:connector-curvature="0"
           style="opacity:1;fill:#089156" />
        <path
           id="path1229"
           d="m 154.23,57.81 c 0.13,-0.19 0.39,-0.58 0.51,-0.77 -0.12,0.19 -0.38,0.58 -0.51,0.77 z"
           inkscape:connector-curvature="0"
           style="opacity:1;fill:#089156" />
        <path
           id="path1231"
           d="m 153.18,59.54 c 0.06,-0.11 0.18,-0.32 0.24,-0.42 -0.06,0.1 -0.18,0.31 -0.24,0.42 z"
           inkscape:connector-curvature="0"
           style="opacity:1;fill:#089156" />
        <path
           id="path1233"
           d="m 151.82,61.93 c 0.1,-0.17 0.3,-0.52 0.4,-0.7 -0.1,0.18 -0.3,0.53 -0.4,0.7 z"
           inkscape:connector-curvature="0"
           style="opacity:1;fill:#089156" />
        <path
           id="path1235"
           d="m 151.46,62.55 c 0.09,-0.16 0.27,-0.46 0.36,-0.62 -0.09,0.16 -0.27,0.46 -0.36,0.62 z"
           inkscape:connector-curvature="0"
           style="opacity:1;fill:#089156" />
        <path
           id="path1237"
           d="m 150.27,64.55 c 0.05,-0.07 0.14,-0.22 0.18,-0.3 -0.04,0.08 -0.13,0.23 -0.18,0.3 z"
           inkscape:connector-curvature="0"
           style="opacity:1;fill:#089156" />
        <path
           id="path1239"
           d="m 149.17,66.47 c 0.04,-0.07 0.12,-0.21 0.16,-0.29 -0.04,0.08 -0.12,0.22 -0.16,0.29 z"
           inkscape:connector-curvature="0"
           style="opacity:1;fill:#089156" />
        <path
           id="path1241"
           d="m 147.78,68.88 c 0.1,-0.16 0.29,-0.5 0.39,-0.66 -0.1,0.16 -0.29,0.5 -0.39,0.66 z"
           inkscape:connector-curvature="0"
           style="opacity:1;fill:#089156" />
        <path
           id="path1243"
           d="m 147.39,69.55 c 0.1,-0.17 0.29,-0.5 0.39,-0.67 -0.1,0.17 -0.29,0.5 -0.39,0.67 z"
           inkscape:connector-curvature="0"
           style="opacity:1;fill:#089156" />
        <path
           id="path1245"
           d="m 146.24,71.53 c 0.03,-0.07 0.11,-0.2 0.15,-0.27 -0.04,0.07 -0.12,0.2 -0.15,0.27 z"
           inkscape:connector-curvature="0"
           style="opacity:1;fill:#089156" />
        <path
           id="path1247"
           d="m 145.2,73.87 c 0.04,-0.17 0.13,-0.51 0.17,-0.68 -0.04,0.17 -0.13,0.51 -0.17,0.68 z"
           inkscape:connector-curvature="0"
           style="opacity:1;fill:#089156" />
        <path
           id="path1249"
           d="m 143.74,76.1 c 0.36,-0.56 1.09,-1.68 1.46,-2.23 -0.37,0.55 -1.1,1.67 -1.46,2.23 z"
           inkscape:connector-curvature="0"
           style="opacity:1;fill:#089156" />
        <path
           id="path1251"
           d="m 143.25,76.86 c 0.12,-0.19 0.36,-0.57 0.49,-0.76 -0.13,0.19 -0.37,0.57 -0.49,0.76 z"
           inkscape:connector-curvature="0"
           style="opacity:1;fill:#089156" />
        <path
           id="path1253"
           d="m 141.99,79.13 c 0.15,-0.29 0.44,-0.86 0.58,-1.15 -0.14,0.29 -0.43,0.86 -0.58,1.15 z"
           inkscape:connector-curvature="0"
           style="opacity:1;fill:#089156" />
        <path
           id="path1255"
           d="m 140.98,80.98 c 0.13,-0.2 0.38,-0.61 0.5,-0.81 -0.12,0.2 -0.37,0.61 -0.5,0.81 z"
           inkscape:connector-curvature="0"
           style="opacity:1;fill:#089156" />
        <path
           id="path1257"
           d="m 140.42,81.76 c 0.14,-0.2 0.42,-0.58 0.56,-0.78 -0.14,0.2 -0.42,0.58 -0.56,0.78 z"
           inkscape:connector-curvature="0"
           style="opacity:1;fill:#089156" />
        <path
           id="path1259"
           d="m 139.26,83.57 c 0.13,-0.2 0.38,-0.62 0.5,-0.83 -0.12,0.21 -0.37,0.63 -0.5,0.83 z"
           inkscape:connector-curvature="0"
           style="opacity:1;fill:#089156" />
        <path
           id="path1261"
           d="m 137.95,86.16 c 0.11,-0.23 0.34,-0.7 0.45,-0.93 -0.11,0.23 -0.34,0.7 -0.45,0.93 z"
           inkscape:connector-curvature="0"
           style="opacity:1;fill:#089156" />
        <path
           id="path1263"
           d="m 136.97,87.99 c 0.12,-0.2 0.37,-0.6 0.49,-0.8 -0.12,0.2 -0.37,0.6 -0.49,0.8 z"
           inkscape:connector-curvature="0"
           style="opacity:1;fill:#089156" />
        <path
           id="path1265"
           d="m 136.41,88.75 c 0.14,-0.19 0.42,-0.57 0.56,-0.76 -0.14,0.19 -0.42,0.57 -0.56,0.76 z"
           inkscape:connector-curvature="0"
           style="opacity:1;fill:#089156" />
        <path
           id="path1267"
           d="m 135.08,90.91 c 0.16,-0.3 0.5,-0.91 0.67,-1.22 -0.17,0.31 -0.51,0.92 -0.67,1.22 z"
           inkscape:connector-curvature="0"
           style="opacity:1;fill:#089156" />
        <path
           id="path1269"
           d="m 134.17,92.85 c 0.1,-0.2 0.28,-0.59 0.38,-0.79 -0.1,0.2 -0.28,0.59 -0.38,0.79 z"
           inkscape:connector-curvature="0"
           style="opacity:1;fill:#089156" />
        <path
           id="path1271"
           d="m 132.8,95.06 c 0.34,-0.56 1.03,-1.66 1.37,-2.21 -0.34,0.55 -1.03,1.65 -1.37,2.21 z"
           inkscape:connector-curvature="0"
           style="opacity:1;fill:#089156" />
        <path
           id="path1273"
           d="m 132.25,95.86 c 0.14,-0.2 0.41,-0.6 0.55,-0.8 -0.14,0.2 -0.41,0.6 -0.55,0.8 z"
           inkscape:connector-curvature="0"
           style="opacity:1;fill:#089156" />
        <path
           id="path1275"
           d="m 131.22,97.57 c 0.07,-0.12 0.21,-0.37 0.28,-0.49 -0.07,0.12 -0.21,0.37 -0.28,0.49 z"
           inkscape:connector-curvature="0"
           style="opacity:1;fill:#089156" />
        <path
           id="path1277"
           d="m 130.1,99.82 c 0.06,-0.14 0.2,-0.42 0.27,-0.56 -0.07,0.14 -0.21,0.42 -0.27,0.56 z"
           inkscape:connector-curvature="0"
           style="opacity:1;fill:#089156" />
        <path
           id="path1279"
           d="m 128.68,102.26 c 0.35,-0.61 1.06,-1.83 1.42,-2.44 l 0.07,1.17 c -0.37,0.32 -1.12,0.96 -1.49,1.27 z"
           inkscape:connector-curvature="0"
           style="opacity:1;fill:#089156" />
        <path
           id="path1281"
           d="m 128.29,102.81 c 0.1,-0.14 0.29,-0.41 0.39,-0.55 -0.1,0.14 -0.29,0.41 -0.39,0.55 z"
           inkscape:connector-curvature="0"
           style="opacity:1;fill:#089156" />
        <path
           id="path1283"
           d="m 127.01,105.14 c 0.18,-0.39 0.55,-1.17 0.73,-1.56 -0.18,0.39 -0.55,1.17 -0.73,1.56 z"
           inkscape:connector-curvature="0"
           style="opacity:1;fill:#089156" />
        <path
           id="path1285"
           d="m 125.97,106.98 c 0.12,-0.2 0.37,-0.6 0.5,-0.8 -0.13,0.2 -0.38,0.6 -0.5,0.8 z"
           inkscape:connector-curvature="0"
           style="opacity:1;fill:#089156" />
        <path
           id="path1287"
           d="m 125.42,107.76 c 0.14,-0.2 0.41,-0.59 0.55,-0.78 -0.14,0.19 -0.41,0.58 -0.55,0.78 z"
           inkscape:connector-curvature="0"
           style="opacity:1;fill:#089156" />
        <path
           id="path1289"
           d="m 124.27,109.55 c 0.12,-0.2 0.37,-0.61 0.5,-0.81 -0.13,0.2 -0.38,0.61 -0.5,0.81 z"
           inkscape:connector-curvature="0"
           style="opacity:1;fill:#089156" />
        <path
           id="path1291"
           d="m 123.07,111.65 c 0.06,-0.1 0.18,-0.32 0.24,-0.42 -0.06,0.1 -0.18,0.32 -0.24,0.42 z"
           inkscape:connector-curvature="0"
           style="opacity:1;fill:#089156" />
        <path
           id="path1293"
           d="m 122.02,113.54 c 0.08,-0.14 0.24,-0.42 0.32,-0.56 -0.08,0.14 -0.24,0.42 -0.32,0.56 z"
           inkscape:connector-curvature="0"
           style="opacity:1;fill:#089156" />
        <path
           id="path1295"
           d="m 120.13,116.77 c 0.08,-0.13 0.24,-0.41 0.32,-0.55 -0.08,0.14 -0.24,0.42 -0.32,0.55 z"
           inkscape:connector-curvature="0"
           style="opacity:1;fill:#089156" />
        <path
           id="path1297"
           d="m 119.07,118.62 c 0.09,-0.16 0.27,-0.47 0.36,-0.62 -0.09,0.15 -0.27,0.46 -0.36,0.62 z"
           inkscape:connector-curvature="0"
           style="opacity:1;fill:#089156" />
        <path
           id="path1299"
           d="m 117.78,120.87 c 0.11,-0.19 0.33,-0.58 0.45,-0.78 -0.12,0.2 -0.34,0.59 -0.45,0.78 z"
           inkscape:connector-curvature="0"
           style="opacity:1;fill:#089156" />
        <path
           id="path1301"
           d="m 117.38,121.54 c 0.1,-0.16 0.3,-0.5 0.4,-0.67 -0.1,0.17 -0.3,0.51 -0.4,0.67 z"
           inkscape:connector-curvature="0"
           style="opacity:1;fill:#089156" />
        <path
           id="path1303"
           d="m 116.22,123.5 c 0.04,-0.07 0.12,-0.21 0.16,-0.28 -0.04,0.07 -0.12,0.21 -0.16,0.28 z"
           inkscape:connector-curvature="0"
           style="opacity:1;fill:#089156" />
        <path
           id="path1305"
           d="m 115.2,125.87 c 0.04,-0.18 0.11,-0.53 0.15,-0.7 -0.04,0.17 -0.11,0.52 -0.15,0.7 z"
           inkscape:connector-curvature="0"
           style="opacity:1;fill:#089156" />
        <path
           id="path1307"
           d="m 113.74,128.04 c 0.36,-0.54 1.09,-1.63 1.46,-2.17 -0.37,0.54 -1.1,1.63 -1.46,2.17 z"
           inkscape:connector-curvature="0"
           style="opacity:1;fill:#089156" />
        <path
           id="path1309"
           d="m 113.22,128.82 c 0.13,-0.19 0.39,-0.58 0.52,-0.78 -0.13,0.2 -0.39,0.59 -0.52,0.78 z"
           inkscape:connector-curvature="0"
           style="opacity:1;fill:#089156" />
        <path
           id="path1311"
           d="m 112.2,130.48 c 0.07,-0.12 0.21,-0.36 0.28,-0.48 -0.07,0.12 -0.21,0.36 -0.28,0.48 z"
           inkscape:connector-curvature="0"
           style="opacity:1;fill:#089156" />
        <path
           id="path1313"
           d="m 110.81,132.95 c 0.1,-0.18 0.3,-0.53 0.4,-0.71 -0.1,0.18 -0.3,0.53 -0.4,0.71 z"
           inkscape:connector-curvature="0"
           style="opacity:1;fill:#089156" />
        <path
           id="path1315"
           d="m 110.44,133.57 c 0.09,-0.15 0.27,-0.47 0.37,-0.62 -0.1,0.15 -0.28,0.47 -0.37,0.62 z"
           inkscape:connector-curvature="0"
           style="opacity:1;fill:#089156" />
        <path
           id="path1317"
           d="m 109.28,135.54 c 0.04,-0.07 0.12,-0.21 0.17,-0.28 -0.05,0.07 -0.13,0.21 -0.17,0.28 z"
           inkscape:connector-curvature="0"
           style="opacity:1;fill:#089156" />
        <path
           id="path1319"
           d="m 108.17,137.45 c 0.03,-0.06 0.1,-0.17 0.13,-0.23 -0.03,0.06 -0.1,0.17 -0.13,0.23 z"
           inkscape:connector-curvature="0"
           style="opacity:1;fill:#089156" />
        <path
           id="path1321"
           d="m 214.9,260.85 c 0.17,-0.28 0.53,-0.84 0.7,-1.11 -0.17,0.27 -0.53,0.83 -0.7,1.11 z"
           inkscape:connector-curvature="0"
           style="opacity:1;fill:#089156" />
        <path
           id="path1323"
           d="m 214.46,261.63 c 0.05,-0.08 0.14,-0.25 0.18,-0.33 -0.04,0.08 -0.13,0.25 -0.18,0.33 z"
           inkscape:connector-curvature="0"
           style="opacity:1;fill:#089156" />
        <path
           id="path1325"
           d="m 212.6,265.01 c 0.08,-0.13 0.23,-0.39 0.3,-0.52 -0.07,0.13 -0.22,0.39 -0.3,0.52 z"
           inkscape:connector-curvature="0"
           style="opacity:1;fill:#089156" />
        <path
           id="path1327"
           d="m 211.55,266.86 c 0.08,-0.15 0.25,-0.44 0.34,-0.59 -0.09,0.15 -0.26,0.44 -0.34,0.59 z"
           inkscape:connector-curvature="0"
           style="opacity:1;fill:#089156" />
        <path
           id="path1329"
           d="m 210.54,268.63 c 0.05,-0.08 0.14,-0.24 0.18,-0.32 -0.04,0.08 -0.13,0.24 -0.18,0.32 z"
           inkscape:connector-curvature="0"
           style="opacity:1;fill:#089156" />
        <path
           id="path1331"
           d="m 209.15,271.06 c 0.09,-0.16 0.27,-0.48 0.36,-0.63 -0.09,0.15 -0.27,0.47 -0.36,0.63 z"
           inkscape:connector-curvature="0"
           style="opacity:1;fill:#089156" />
        <path
           id="path1333"
           d="m 208.75,271.73 c 0.1,-0.17 0.3,-0.5 0.4,-0.67 -0.1,0.17 -0.3,0.5 -0.4,0.67 z"
           inkscape:connector-curvature="0"
           style="opacity:1;fill:#089156" />
        <path
           id="path1335"
           d="m 207.42,274.01 c 0.08,-0.13 0.24,-0.41 0.32,-0.54 -0.08,0.13 -0.24,0.41 -0.32,0.54 z"
           inkscape:connector-curvature="0"
           style="opacity:1;fill:#089156" />
        <path
           id="path1337"
           d="m 206.38,275.79 c 0.1,-0.18 0.32,-0.55 0.42,-0.73 -0.1,0.18 -0.32,0.55 -0.42,0.73 z"
           inkscape:connector-curvature="0"
           style="opacity:1;fill:#089156" />
        <path
           id="path1339"
           d="m 204.5,279.06 c 0.07,-0.13 0.22,-0.38 0.29,-0.5 -0.07,0.12 -0.22,0.37 -0.29,0.5 z"
           inkscape:connector-curvature="0"
           style="opacity:1;fill:#089156" />
        <path
           id="path1341"
           d="m 203.44,280.85 c 0.11,-0.19 0.33,-0.55 0.43,-0.74 -0.1,0.19 -0.32,0.55 -0.43,0.74 z"
           inkscape:connector-curvature="0"
           style="opacity:1;fill:#089156" />
        <path
           id="path1343"
           d="m 201.59,284.05 c 0.09,-0.15 0.26,-0.46 0.35,-0.61 -0.09,0.15 -0.26,0.46 -0.35,0.61 z"
           inkscape:connector-curvature="0"
           style="opacity:1;fill:#089156" />
        <path
           id="path1345"
           d="m 200.56,285.89 c 0.07,-0.12 0.21,-0.37 0.28,-0.49 -0.07,0.12 -0.21,0.37 -0.28,0.49 z"
           inkscape:connector-curvature="0"
           style="opacity:1;fill:#089156" />
        <path
           id="path1347"
           d="m 199.47,287.8 c 0.08,-0.14 0.24,-0.42 0.32,-0.56 -0.08,0.14 -0.24,0.42 -0.32,0.56 z"
           inkscape:connector-curvature="0"
           style="opacity:1;fill:#089156" />
        <path
           id="path1349"
           d="m 197.54,291.08 c 0.09,-0.16 0.27,-0.47 0.36,-0.62 -0.09,0.15 -0.27,0.46 -0.36,0.62 z"
           inkscape:connector-curvature="0"
           style="opacity:1;fill:#089156" />
        <path
           id="path1351"
           d="m 196.57,292.83 c 0.06,-0.12 0.19,-0.35 0.26,-0.47 -0.07,0.12 -0.2,0.35 -0.26,0.47 z"
           inkscape:connector-curvature="0"
           style="opacity:1;fill:#089156" />
        <path
           id="path1353"
           d="m 195.46,294.75 c 0.07,-0.12 0.22,-0.37 0.29,-0.5 -0.07,0.13 -0.22,0.38 -0.29,0.5 z"
           inkscape:connector-curvature="0"
           style="opacity:1;fill:#089156" />
        <path
           id="path1355"
           d="m 193.48,298.14 c 0.08,-0.13 0.24,-0.39 0.31,-0.52 -0.07,0.13 -0.23,0.39 -0.31,0.52 z"
           inkscape:connector-curvature="0"
           style="opacity:1;fill:#089156" />
        <path
           id="path1357"
           d="m 192.47,299.84 c 0.1,-0.18 0.31,-0.53 0.41,-0.71 -0.1,0.18 -0.31,0.53 -0.41,0.71 z"
           inkscape:connector-curvature="0"
           style="opacity:1;fill:#089156" />
        <path
           id="path1359"
           d="m 190.7,302.93 c 0.06,-0.11 0.2,-0.35 0.26,-0.46 -0.06,0.11 -0.2,0.35 -0.26,0.46 z"
           inkscape:connector-curvature="0"
           style="opacity:1;fill:#089156" />
        <path
           id="path1361"
           d="m 189.64,304.82 c 0.06,-0.11 0.18,-0.32 0.24,-0.43 -0.06,0.11 -0.18,0.32 -0.24,0.43 z"
           inkscape:connector-curvature="0"
           style="opacity:1;fill:#089156" />
        <path
           id="path1363"
           d="m 188.52,306.75 c 0.07,-0.11 0.21,-0.35 0.28,-0.46 -0.07,0.11 -0.21,0.35 -0.28,0.46 z"
           inkscape:connector-curvature="0"
           style="opacity:1;fill:#089156" />
        <path
           id="path1365"
           d="m 186.53,310.08 c 0.11,-0.18 0.31,-0.54 0.42,-0.71 -0.11,0.17 -0.31,0.53 -0.42,0.71 z"
           inkscape:connector-curvature="0"
           style="opacity:1;fill:#089156" />
        <path
           id="path1367"
           d="m 185.64,311.73 c 0.07,-0.13 0.22,-0.41 0.3,-0.55 -0.08,0.14 -0.23,0.42 -0.3,0.55 z"
           inkscape:connector-curvature="0"
           style="opacity:1;fill:#089156" />
        <path
           id="path1369"
           d="m 184.27,314.11 c 0.08,-0.15 0.26,-0.45 0.34,-0.6 -0.08,0.15 -0.26,0.45 -0.34,0.6 z"
           inkscape:connector-curvature="0"
           style="opacity:1;fill:#089156" />
        <path
           id="path1371"
           d="m 183.94,314.68 c 0.08,-0.14 0.24,-0.43 0.33,-0.57 -0.09,0.14 -0.25,0.43 -0.33,0.57 z"
           inkscape:connector-curvature="0"
           style="opacity:1;fill:#089156" />
      </g>
      <g
         id="g1389">
        <path
           id="path1375"
           d="m 347.3,38.21 c 0.08,0.13 0.23,0.41 0.31,0.55 -0.08,-0.14 -0.23,-0.42 -0.31,-0.55 z"
           inkscape:connector-curvature="0"
           style="opacity:1;fill:#10985b" />
        <path
           id="path1377"
           d="m 355.42,52.34 c 0.05,0.08 0.13,0.23 0.18,0.3 -0.05,-0.07 -0.13,-0.22 -0.18,-0.3 z"
           inkscape:connector-curvature="0"
           style="opacity:1;fill:#10985b" />
        <path
           id="path1379"
           d="m 370.43,78.35 c 0.04,0.07 0.13,0.21 0.17,0.29 -0.04,-0.08 -0.13,-0.22 -0.17,-0.29 z"
           inkscape:connector-curvature="0"
           style="opacity:1;fill:#10985b" />
        <path
           id="path1381"
           d="m 373.32,83.24 c 0.08,0.13 0.23,0.4 0.31,0.54 -0.08,-0.14 -0.23,-0.41 -0.31,-0.54 z"
           inkscape:connector-curvature="0"
           style="opacity:1;fill:#10985b" />
        <path
           id="path1383"
           d="m 377.41,90.36 c 0.05,0.07 0.13,0.21 0.17,0.29 -0.04,-0.08 -0.12,-0.22 -0.17,-0.29 z"
           inkscape:connector-curvature="0"
           style="opacity:1;fill:#10985b" />
        <path
           id="path1385"
           d="m 381.36,97.23 c 0.08,0.13 0.23,0.39 0.31,0.52 -0.08,-0.13 -0.23,-0.39 -0.31,-0.52 z"
           inkscape:connector-curvature="0"
           style="opacity:1;fill:#10985b" />
        <path
           id="path1387"
           d="m 385.39,104.21 c 0.08,0.13 0.23,0.4 0.31,0.53 -0.08,-0.13 -0.23,-0.4 -0.31,-0.53 z"
           inkscape:connector-curvature="0"
           style="opacity:1;fill:#10985b" />
      </g>
      <g
         id="g1395">
        <path
           id="path1391"
           d="m 421.45,166.64 c 17.39,30.13 34.89,60.21 52.14,90.43 0.08,0.13 0.24,0.41 0.32,0.54 0.4,0.66 1.2,1.97 1.59,2.62 0.08,0.13 0.24,0.4 0.32,0.53 l 0.8,1.37 c 0.05,0.09 0.15,0.28 0.21,0.37 l 1,1.74 c 0.1,0.17 0.29,0.52 0.39,0.69 0.09,0.15 0.27,0.46 0.36,0.62 l 0.98,1.7 c 0.04,0.07 0.12,0.21 0.16,0.28 l 0.98,1.68 c 0.04,0.07 0.12,0.2 0.16,0.27 l 0.98,1.7 c 0.1,0.17 0.29,0.5 0.39,0.67 0.09,0.17 0.28,0.5 0.37,0.66 l 1.01,1.78 c 0.14,0.35 0.42,1.03 0.56,1.37 l 0.28,0.55 0.13,0.29 0.22,0.29 0.59,0.89 c 0.21,0.33 0.62,0.99 0.83,1.32 0.12,0.2 0.38,0.6 0.5,0.8 l 0.66,1.05 c 0.2,0.45 0.6,1.36 0.8,1.81 l 0.3,0.54 0.11,0.21 0.09,0.13 c 0.44,0.65 1.31,1.96 1.75,2.61 0.11,0.18 0.33,0.54 0.45,0.72 l 0.6,1 c 0.09,0.16 0.27,0.47 0.36,0.62 l 1.01,1.77 c 0.09,0.16 0.27,0.48 0.36,0.64 0.09,0.16 0.27,0.47 0.36,0.63 l 1,1.71 c 0.04,0.08 0.13,0.23 0.18,0.3 l 0.91,1.6 c 0.06,0.1 0.18,0.31 0.24,0.41 l 0.92,1.61 c 0.11,0.18 0.32,0.55 0.43,0.73 0.09,0.16 0.28,0.48 0.37,0.64 0.74,1.23 1.45,2.48 2.11,3.76 0.1,0.21 0.3,0.63 0.39,0.84 l 0.46,1.04 c 0.12,0.2 0.36,0.61 0.47,0.81 0.15,0.2 0.44,0.58 0.59,0.77 l 0.69,0.98 c 0.12,0.19 0.36,0.57 0.49,0.77 l 1.01,1.75 c 0.09,0.16 0.27,0.48 0.36,0.64 0.09,0.16 0.27,0.47 0.37,0.63 l 1,1.72 c 0.04,0.08 0.12,0.22 0.16,0.29 l 0.95,1.66 c 0.04,0.07 0.12,0.2 0.16,0.27 l 0.97,1.69 c 0.1,0.17 0.3,0.51 0.4,0.69 0.1,0.17 0.3,0.51 0.39,0.68 l 1,1.72 c 0.04,0.07 0.11,0.21 0.15,0.28 l 1.06,1.98 -0.01,0.9 c -25.02,-7.19 -49.64,-15.72 -74.73,-22.65 -22.77,-7.35 -45.75,-14.04 -68.52,-21.35 3.17,-1.52 6.56,-2.49 9.73,-3.99 0.41,-1.35 0.84,-2.69 1.26,-4.02 3.95,-2.48 8.41,-3.97 12.3,-6.54 0.15,-3.29 0.14,-6.57 0.13,-9.85 4.36,-3.51 8.98,-6.76 12.57,-11.11 0.36,-4.28 -2.87,-9.29 0.46,-12.9 10.24,-12.92 16.45,-28.93 17.56,-45.38 1.83,-6.02 -1.46,-11.98 -0.1,-17.97 z"
           inkscape:connector-curvature="0"
           style="opacity:1;fill:#f9c941" />
        <path
           id="path1393"
           d="m 510.79,322.4 0.52,0.02 0.29,0.76 -0.59,0.04 z"
           inkscape:connector-curvature="0"
           style="opacity:1;fill:#f9c941" />
      </g>
      <g
         id="g1453">
        <path
           id="path1397"
           d="m 258.22,192.31 c 0.08,0.13 0.24,0.4 0.32,0.54 -0.08,-0.14 -0.24,-0.41 -0.32,-0.54 z"
           inkscape:connector-curvature="0"
           style="opacity:1;fill:#e3b73a" />
        <path
           id="path1399"
           d="m 260.07,195.52 c 0.07,0.12 0.2,0.35 0.27,0.47 -0.07,-0.12 -0.2,-0.35 -0.27,-0.47 z"
           inkscape:connector-curvature="0"
           style="opacity:1;fill:#e3b73a" />
        <path
           id="path1401"
           d="m 261.16,197.46 c 0.05,0.08 0.14,0.25 0.19,0.33 -0.05,-0.08 -0.14,-0.25 -0.19,-0.33 z"
           inkscape:connector-curvature="0"
           style="opacity:1;fill:#e3b73a" />
        <path
           id="path1403"
           d="m 262.36,199.55 c 0.09,0.15 0.26,0.45 0.35,0.6 -0.09,-0.15 -0.26,-0.45 -0.35,-0.6 z"
           inkscape:connector-curvature="0"
           style="opacity:1;fill:#e3b73a" />
        <path
           id="path1405"
           d="m 262.71,200.15 c 0.09,0.17 0.28,0.49 0.38,0.65 -0.1,-0.16 -0.29,-0.48 -0.38,-0.65 z"
           inkscape:connector-curvature="0"
           style="opacity:1;fill:#e3b73a" />
        <path
           id="path1407"
           d="m 264.04,202.43 c 0.05,0.09 0.16,0.27 0.21,0.36 -0.05,-0.09 -0.16,-0.27 -0.21,-0.36 z"
           inkscape:connector-curvature="0"
           style="opacity:1;fill:#e3b73a" />
        <path
           id="path1409"
           d="m 266.22,206.2 c 0.09,0.16 0.26,0.47 0.35,0.62 -0.09,-0.15 -0.26,-0.46 -0.35,-0.62 z"
           inkscape:connector-curvature="0"
           style="opacity:1;fill:#e3b73a" />
        <path
           id="path1411"
           d="m 268.11,209.47 c 0.09,0.15 0.26,0.43 0.34,0.57 -0.08,-0.14 -0.25,-0.42 -0.34,-0.57 z"
           inkscape:connector-curvature="0"
           style="opacity:1;fill:#e3b73a" />
        <path
           id="path1413"
           d="m 269.31,211.49 c 0.2,0.33 0.59,0.98 0.79,1.31 -0.2,-0.33 -0.59,-0.98 -0.79,-1.31 z"
           inkscape:connector-curvature="0"
           style="opacity:1;fill:#e3b73a" />
        <path
           id="path1415"
           d="m 270.37,213.28 c 0.04,0.09 0.14,0.26 0.19,0.34 -0.05,-0.08 -0.15,-0.25 -0.19,-0.34 z"
           inkscape:connector-curvature="0"
           style="opacity:1;fill:#e3b73a" />
        <path
           id="path1417"
           d="m 272.32,216.78 c 0.19,0.26 0.57,0.8 0.76,1.07 -0.19,-0.27 -0.57,-0.81 -0.76,-1.07 z"
           inkscape:connector-curvature="0"
           style="opacity:1;fill:#e3b73a" />
        <path
           id="path1419"
           d="m 273.34,218.31 c 0.04,0.08 0.13,0.25 0.18,0.33 -0.05,-0.08 -0.14,-0.25 -0.18,-0.33 z"
           inkscape:connector-curvature="0"
           style="opacity:1;fill:#e3b73a" />
        <path
           id="path1421"
           d="m 276.33,223.71 c 0.19,0.28 0.56,0.84 0.75,1.12 -0.19,-0.28 -0.56,-0.84 -0.75,-1.12 z"
           inkscape:connector-curvature="0"
           style="opacity:1;fill:#e3b73a" />
        <path
           id="path1423"
           d="m 277.35,225.3 c 0.04,0.08 0.14,0.25 0.18,0.33 -0.04,-0.08 -0.14,-0.25 -0.18,-0.33 z"
           inkscape:connector-curvature="0"
           style="opacity:1;fill:#e3b73a" />
        <path
           id="path1425"
           d="m 279.11,228.5 c 0.09,0.15 0.26,0.45 0.35,0.6 -0.09,-0.15 -0.26,-0.45 -0.35,-0.6 z"
           inkscape:connector-curvature="0"
           style="opacity:1;fill:#e3b73a" />
        <path
           id="path1427"
           d="m 280.1,230.23 c 0.1,0.17 0.3,0.53 0.4,0.7 -0.1,-0.17 -0.3,-0.53 -0.4,-0.7 z"
           inkscape:connector-curvature="0"
           style="opacity:1;fill:#e3b73a" />
        <path
           id="path1429"
           d="m 281.33,232.39 c 0.1,0.18 0.31,0.55 0.41,0.73 -0.1,-0.18 -0.31,-0.55 -0.41,-0.73 z"
           inkscape:connector-curvature="0"
           style="opacity:1;fill:#e3b73a" />
        <path
           id="path1431"
           d="m 281.74,233.12 c 0.09,0.15 0.27,0.47 0.36,0.63 -0.09,-0.16 -0.27,-0.48 -0.36,-0.63 z"
           inkscape:connector-curvature="0"
           style="opacity:1;fill:#e3b73a" />
        <path
           id="path1433"
           d="m 283.12,235.5 c 0.04,0.08 0.13,0.22 0.17,0.29 -0.04,-0.07 -0.13,-0.21 -0.17,-0.29 z"
           inkscape:connector-curvature="0"
           style="opacity:1;fill:#e3b73a" />
        <path
           id="path1435"
           d="m 284.26,237.46 c 0.08,0.14 0.24,0.41 0.32,0.55 -0.08,-0.14 -0.24,-0.41 -0.32,-0.55 z"
           inkscape:connector-curvature="0"
           style="opacity:1;fill:#e3b73a" />
        <path
           id="path1437"
           d="m 285.19,239.05 c 0.11,0.18 0.32,0.55 0.43,0.73 -0.11,-0.18 -0.32,-0.55 -0.43,-0.73 z"
           inkscape:connector-curvature="0"
           style="opacity:1;fill:#e3b73a" />
        <path
           id="path1439"
           d="m 287.35,242.7 c 0.17,0.29 0.52,0.86 0.69,1.15 -0.17,-0.29 -0.52,-0.86 -0.69,-1.15 z"
           inkscape:connector-curvature="0"
           style="opacity:1;fill:#e3b73a" />
        <path
           id="path1441"
           d="m 288.33,244.31 c 0.05,0.09 0.15,0.25 0.2,0.33 -0.05,-0.08 -0.15,-0.24 -0.2,-0.33 z"
           inkscape:connector-curvature="0"
           style="opacity:1;fill:#e3b73a" />
        <path
           id="path1443"
           d="m 290.31,247.45 0.07,0.1 0.06,0.13 c -0.03,-0.06 -0.1,-0.17 -0.13,-0.23 z"
           inkscape:connector-curvature="0"
           style="opacity:1;fill:#e3b73a" />
        <path
           id="path1445"
           d="m 292.38,251.55 c 0.09,0.15 0.25,0.44 0.34,0.59 -0.09,-0.15 -0.25,-0.44 -0.34,-0.59 z"
           inkscape:connector-curvature="0"
           style="opacity:1;fill:#e3b73a" />
        <path
           id="path1447"
           d="m 292.72,252.14 c 0.1,0.17 0.3,0.51 0.4,0.68 -0.1,-0.17 -0.3,-0.51 -0.4,-0.68 z"
           inkscape:connector-curvature="0"
           style="opacity:1;fill:#e3b73a" />
        <path
           id="path1449"
           d="m 294.07,254.43 c 0.05,0.09 0.15,0.27 0.21,0.36 -0.06,-0.09 -0.16,-0.27 -0.21,-0.36 z"
           inkscape:connector-curvature="0"
           style="opacity:1;fill:#e3b73a" />
        <path
           id="path1451"
           d="m 294.94,255.97 c 11.53,4.24 23.46,7.26 35.11,11.11 12.52,3.71 24.94,7.72 37.49,11.32 22.77,7.31 45.75,14 68.52,21.35 -0.34,4.87 0.62,9.86 -0.59,14.64 -0.93,4.65 -6.49,5.38 -8.78,9.09 -30.77,0.01 -61.53,0.1 -92.29,-0.03 l -0.66,-0.05 c -12.71,-22.6 -25.93,-44.92 -38.8,-67.43 z"
           inkscape:connector-curvature="0"
           style="opacity:1;fill:#e3b73a" />
      </g>
      <g
         id="g1527">
        <path
           id="path1455"
           d="m 473.59,257.07 c 0.08,0.13 0.24,0.41 0.32,0.54 -0.08,-0.13 -0.24,-0.41 -0.32,-0.54 z"
           inkscape:connector-curvature="0"
           style="opacity:1;fill:#e8b835" />
        <path
           id="path1457"
           d="m 475.5,260.23 c 0.08,0.13 0.24,0.4 0.32,0.53 -0.08,-0.13 -0.24,-0.4 -0.32,-0.53 z"
           inkscape:connector-curvature="0"
           style="opacity:1;fill:#e8b835" />
        <path
           id="path1459"
           d="m 476.62,262.13 c 0.05,0.09 0.15,0.28 0.21,0.37 -0.06,-0.09 -0.16,-0.28 -0.21,-0.37 z"
           inkscape:connector-curvature="0"
           style="opacity:1;fill:#e8b835" />
        <path
           id="path1461"
           d="m 477.83,264.24 c 0.1,0.17 0.29,0.52 0.39,0.69 -0.1,-0.17 -0.29,-0.52 -0.39,-0.69 z"
           inkscape:connector-curvature="0"
           style="opacity:1;fill:#e8b835" />
        <path
           id="path1463"
           d="m 478.22,264.93 c 0.09,0.15 0.27,0.46 0.36,0.62 -0.09,-0.16 -0.27,-0.47 -0.36,-0.62 z"
           inkscape:connector-curvature="0"
           style="opacity:1;fill:#e8b835" />
        <path
           id="path1465"
           d="m 479.56,267.25 c 0.04,0.07 0.12,0.21 0.16,0.28 -0.04,-0.07 -0.12,-0.21 -0.16,-0.28 z"
           inkscape:connector-curvature="0"
           style="opacity:1;fill:#e8b835" />
        <path
           id="path1467"
           d="m 480.7,269.21 c 0.04,0.07 0.12,0.2 0.16,0.27 -0.04,-0.07 -0.12,-0.2 -0.16,-0.27 z"
           inkscape:connector-curvature="0"
           style="opacity:1;fill:#e8b835" />
        <path
           id="path1469"
           d="m 481.84,271.18 c 0.1,0.17 0.29,0.5 0.39,0.67 -0.1,-0.17 -0.29,-0.5 -0.39,-0.67 z"
           inkscape:connector-curvature="0"
           style="opacity:1;fill:#e8b835" />
        <path
           id="path1471"
           d="m 482.23,271.85 c 0.09,0.17 0.28,0.5 0.37,0.66 -0.09,-0.16 -0.28,-0.49 -0.37,-0.66 z"
           inkscape:connector-curvature="0"
           style="opacity:1;fill:#e8b835" />
        <path
           id="path1473"
           d="m 483.61,274.29 c 0.14,0.35 0.42,1.03 0.56,1.37 -0.14,-0.34 -0.42,-1.02 -0.56,-1.37 z"
           inkscape:connector-curvature="0"
           style="opacity:1;fill:#e8b835" />
        <path
           id="path1475"
           d="m 484.45,276.21 c 0.09,0.15 0.26,0.44 0.35,0.58 l -0.22,-0.29 z"
           inkscape:connector-curvature="0"
           style="opacity:1;fill:#e8b835" />
        <path
           id="path1477"
           d="m 485.39,277.68 c 0.21,0.33 0.62,0.99 0.83,1.32 -0.21,-0.33 -0.62,-0.99 -0.83,-1.32 z"
           inkscape:connector-curvature="0"
           style="opacity:1;fill:#e8b835" />
        <path
           id="path1479"
           d="m 486.22,279 c 0.12,0.2 0.38,0.6 0.5,0.8 -0.12,-0.2 -0.38,-0.6 -0.5,-0.8 z"
           inkscape:connector-curvature="0"
           style="opacity:1;fill:#e8b835" />
        <path
           id="path1481"
           d="m 487.38,280.85 c 0.2,0.45 0.6,1.36 0.8,1.81 -0.2,-0.45 -0.6,-1.36 -0.8,-1.81 z"
           inkscape:connector-curvature="0"
           style="opacity:1;fill:#e8b835" />
        <path
           id="path1483"
           d="m 488.48,283.2 c 0.05,0.09 0.15,0.26 0.2,0.34 l -0.09,-0.13 z"
           inkscape:connector-curvature="0"
           style="opacity:1;fill:#e8b835" />
        <path
           id="path1485"
           d="m 490.43,286.15 c 0.11,0.18 0.33,0.54 0.45,0.72 -0.12,-0.18 -0.34,-0.54 -0.45,-0.72 z"
           inkscape:connector-curvature="0"
           style="opacity:1;fill:#e8b835" />
        <path
           id="path1487"
           d="m 491.48,287.87 c 0.09,0.16 0.27,0.47 0.36,0.62 -0.09,-0.15 -0.27,-0.46 -0.36,-0.62 z"
           inkscape:connector-curvature="0"
           style="opacity:1;fill:#e8b835" />
        <path
           id="path1489"
           d="m 492.85,290.26 c 0.09,0.16 0.27,0.48 0.36,0.64 -0.09,-0.16 -0.27,-0.48 -0.36,-0.64 z"
           inkscape:connector-curvature="0"
           style="opacity:1;fill:#e8b835" />
        <path
           id="path1491"
           d="m 493.21,290.9 c 0.09,0.16 0.27,0.47 0.36,0.63 -0.09,-0.16 -0.27,-0.47 -0.36,-0.63 z"
           inkscape:connector-curvature="0"
           style="opacity:1;fill:#e8b835" />
        <path
           id="path1493"
           d="m 494.57,293.24 c 0.04,0.08 0.13,0.23 0.18,0.3 -0.05,-0.07 -0.14,-0.22 -0.18,-0.3 z"
           inkscape:connector-curvature="0"
           style="opacity:1;fill:#e8b835" />
        <path
           id="path1495"
           d="m 495.66,295.14 c 0.06,0.1 0.18,0.31 0.24,0.41 -0.06,-0.1 -0.18,-0.31 -0.24,-0.41 z"
           inkscape:connector-curvature="0"
           style="opacity:1;fill:#e8b835" />
        <path
           id="path1497"
           d="m 496.82,297.16 c 0.11,0.18 0.32,0.55 0.43,0.73 -0.11,-0.18 -0.32,-0.55 -0.43,-0.73 z"
           inkscape:connector-curvature="0"
           style="opacity:1;fill:#e8b835" />
        <path
           id="path1499"
           d="m 497.25,297.89 c 0.09,0.16 0.28,0.48 0.37,0.64 -0.09,-0.16 -0.28,-0.48 -0.37,-0.64 z"
           inkscape:connector-curvature="0"
           style="opacity:1;fill:#e8b835" />
        <path
           id="path1501"
           d="m 436.06,299.75 c 25.09,6.93 49.71,15.46 74.73,22.65 l 0.22,0.82 c -28.09,0.64 -56.22,0.11 -84.32,0.26 2.29,-3.71 7.85,-4.44 8.78,-9.09 1.21,-4.78 0.25,-9.77 0.59,-14.64 z"
           inkscape:connector-curvature="0"
           style="opacity:1;fill:#e8b835" />
        <path
           id="path1503"
           d="m 499.73,302.29 c 0.1,0.21 0.3,0.63 0.39,0.84 -0.09,-0.21 -0.29,-0.63 -0.39,-0.84 z"
           inkscape:connector-curvature="0"
           style="opacity:1;fill:#e8b835" />
        <path
           id="path1505"
           d="m 500.58,304.17 c 0.12,0.2 0.36,0.61 0.47,0.81 -0.11,-0.2 -0.35,-0.61 -0.47,-0.81 z"
           inkscape:connector-curvature="0"
           style="opacity:1;fill:#e8b835" />
        <path
           id="path1507"
           d="m 501.05,304.98 c 0.15,0.2 0.44,0.58 0.59,0.77 -0.15,-0.19 -0.44,-0.57 -0.59,-0.77 z"
           inkscape:connector-curvature="0"
           style="opacity:1;fill:#e8b835" />
        <path
           id="path1509"
           d="m 502.33,306.73 c 0.12,0.19 0.36,0.57 0.49,0.77 -0.13,-0.2 -0.37,-0.58 -0.49,-0.77 z"
           inkscape:connector-curvature="0"
           style="opacity:1;fill:#e8b835" />
        <path
           id="path1511"
           d="m 503.83,309.25 c 0.09,0.16 0.27,0.48 0.36,0.64 -0.09,-0.16 -0.27,-0.48 -0.36,-0.64 z"
           inkscape:connector-curvature="0"
           style="opacity:1;fill:#e8b835" />
        <path
           id="path1513"
           d="m 504.19,309.89 c 0.09,0.16 0.27,0.47 0.37,0.63 -0.1,-0.16 -0.28,-0.47 -0.37,-0.63 z"
           inkscape:connector-curvature="0"
           style="opacity:1;fill:#e8b835" />
        <path
           id="path1515"
           d="m 505.56,312.24 c 0.04,0.08 0.12,0.22 0.16,0.29 -0.04,-0.07 -0.12,-0.21 -0.16,-0.29 z"
           inkscape:connector-curvature="0"
           style="opacity:1;fill:#e8b835" />
        <path
           id="path1517"
           d="m 506.67,314.19 c 0.04,0.07 0.12,0.2 0.16,0.27 -0.04,-0.07 -0.12,-0.2 -0.16,-0.27 z"
           inkscape:connector-curvature="0"
           style="opacity:1;fill:#e8b835" />
        <path
           id="path1519"
           d="m 507.8,316.15 c 0.1,0.17 0.3,0.51 0.4,0.69 -0.1,-0.18 -0.3,-0.52 -0.4,-0.69 z"
           inkscape:connector-curvature="0"
           style="opacity:1;fill:#e8b835" />
        <path
           id="path1521"
           d="m 508.2,316.84 c 0.1,0.17 0.3,0.51 0.39,0.68 -0.09,-0.17 -0.29,-0.51 -0.39,-0.68 z"
           inkscape:connector-curvature="0"
           style="opacity:1;fill:#e8b835" />
        <path
           id="path1523"
           d="m 509.59,319.24 c 0.04,0.07 0.11,0.21 0.15,0.28 -0.04,-0.07 -0.11,-0.21 -0.15,-0.28 z"
           inkscape:connector-curvature="0"
           style="opacity:1;fill:#e8b835" />
        <path
           id="path1525"
           d="m 510.8,321.5 c 0.13,0.23 0.38,0.69 0.51,0.92 l -0.52,-0.02 z"
           inkscape:connector-curvature="0"
           style="opacity:1;fill:#e8b835" />
      </g>
      <g
         id="g1533">
        <path
           id="path1529"
           d="m 148.09,376.07 c 10.31,-17.58 20.11,-35.49 30.76,-52.86 51.63,0.19 103.27,-0.29 154.89,0.19 l 0.66,0.05 c -26.11,0.84 -52.29,-0.22 -78.4,0.44 -4.98,3.21 -8.3,8.41 -13.07,11.91 -4.43,3.23 -7.69,7.73 -11.92,11.18 -5.93,4.37 -10.34,10.43 -16.36,14.71 -6.96,7.37 -14.99,13.58 -22.01,20.91 -5.26,4.04 -9.66,9.03 -14.56,13.48 -5.39,3.91 -9.52,9.21 -14.56,13.53 -0.13,0.11 -0.38,0.33 -0.51,0.45 -0.27,0.21 -0.8,0.65 -1.07,0.86 -0.13,0.11 -0.37,0.31 -0.5,0.42 -3.97,3.07 -7.01,7.12 -10.91,10.27 -0.13,0.11 -0.38,0.32 -0.5,0.42 -0.13,0.11 -0.38,0.32 -0.51,0.42 -5.69,4.67 -10.25,10.58 -16.22,14.93 -6.01,5.96 -12.79,11.08 -18.5,17.36 -8.44,6.94 -15.74,15.13 -24.44,21.78 2.16,-4.71 5.02,-9.03 7.53,-13.54 16.74,-28.97 33.46,-57.94 50.2,-86.91 z"
           inkscape:connector-curvature="0"
           style="opacity:1;fill:#296ad9" />
        <path
           id="path1531"
           d="m 89.92,477.16 c 0.11,-0.16 0.33,-0.48 0.44,-0.64 l -0.03,0.65 z"
           inkscape:connector-curvature="0"
           style="opacity:1;fill:#296ad9" />
      </g>
      <g
         id="g1537">
        <path
           id="path1535"
           d="m 334.4,323.45 c 30.76,0.13 61.52,0.04 92.29,0.03 28.1,-0.15 56.23,0.38 84.32,-0.26 l 0.59,-0.04 0.4,0.11 v 0.08 c -29.66,51.27 -59.23,102.6 -88.89,153.88 -110.93,-0.03 -221.86,0.1 -332.78,-0.08 l 0.03,-0.65 c 8.7,-6.65 16,-14.84 24.44,-21.78 5.71,-6.28 12.49,-11.4 18.5,-17.36 5.97,-4.35 10.53,-10.26 16.22,-14.93 0.13,-0.1 0.38,-0.31 0.51,-0.42 0.12,-0.1 0.37,-0.31 0.5,-0.42 3.9,-3.15 6.94,-7.2 10.91,-10.27 0.13,-0.11 0.37,-0.31 0.5,-0.42 0.27,-0.21 0.8,-0.65 1.07,-0.86 0.13,-0.12 0.38,-0.34 0.51,-0.45 5.04,-4.32 9.17,-9.62 14.56,-13.53 4.9,-4.45 9.3,-9.44 14.56,-13.48 7.02,-7.33 15.05,-13.54 22.01,-20.91 6.02,-4.28 10.43,-10.34 16.36,-14.71 4.23,-3.45 7.49,-7.95 11.92,-11.18 4.77,-3.5 8.09,-8.7 13.07,-11.91 26.11,-0.66 52.29,0.4 78.4,-0.44 z"
           inkscape:connector-curvature="0"
           style="opacity:1;fill:#2a71e9" />
      </g>
      <g
         id="g1549">
        <path
           id="path1539"
           d="m 163.01,410.06 c 0.13,-0.12 0.38,-0.34 0.51,-0.45 -0.13,0.11 -0.38,0.33 -0.51,0.45 z"
           inkscape:connector-curvature="0"
           style="opacity:1;fill:#286ee6" />
        <path
           id="path1541"
           d="m 161.94,410.92 c 0.27,-0.21 0.8,-0.65 1.07,-0.86 -0.27,0.21 -0.8,0.65 -1.07,0.86 z"
           inkscape:connector-curvature="0"
           style="opacity:1;fill:#286ee6" />
        <path
           id="path1543"
           d="m 161.44,411.34 c 0.13,-0.11 0.37,-0.31 0.5,-0.42 -0.13,0.11 -0.37,0.31 -0.5,0.42 z"
           inkscape:connector-curvature="0"
           style="opacity:1;fill:#286ee6" />
        <path
           id="path1545"
           d="m 150.03,422.03 c 0.12,-0.1 0.37,-0.31 0.5,-0.42 -0.13,0.11 -0.38,0.32 -0.5,0.42 z"
           inkscape:connector-curvature="0"
           style="opacity:1;fill:#286ee6" />
        <path
           id="path1547"
           d="m 149.52,422.45 c 0.13,-0.1 0.38,-0.31 0.51,-0.42 -0.13,0.11 -0.38,0.32 -0.51,0.42 z"
           inkscape:connector-curvature="0"
           style="opacity:1;fill:#286ee6" />
      </g>
    </g>
    <g
       transform="matrix(1.11153,0,0,1.11153,10.788531,-46.614348)"
       id="layer1-4"
       inkscape:label="Layer 1">
      <rect
         y="159.97035"
         x="-24.870836"
         height="0"
         width="0"
         id="rect4526"
         style="opacity:1;fill:#800000;fill-opacity:1;stroke-width:0.26458332" />
      <path
         inkscape:connector-curvature="0"
         id="rect4844"
         d="m 19.25979,196.72609 c -6.713873,0 -12.1186392,5.40528 -12.1186392,12.11915 v 39.09788 c 0,6.71387 5.4047662,12.11915 12.1186392,12.11915 h 3.027723 V 234.6447 c 0,-0.90922 0.732014,-1.64124 1.641242,-1.64124 h 93.364705 c 0.90922,0 1.64124,0.73202 1.64124,1.64124 v 25.41757 h 3.07113 c 6.71387,0 12.11864,-5.40528 12.11864,-12.11915 v -39.09788 c 0,-6.71387 -5.40477,-12.11915 -12.11864,-12.11915 z"
         style="opacity:1;fill:#fffffa;fill-opacity:1;stroke:url(#linearGradient4882);stroke-width:2.67400002;stroke-miterlimit:4;stroke-dasharray:none" />
      <rect
         rx="1.2467479"
         y="168.9119"
         x="33.701309"
         height="44.888626"
         width="73.418839"
         id="rect4894-0"
         style="opacity:1;fill:#fffffa;fill-opacity:1;stroke:#000005;stroke-width:2.69099998;stroke-miterlimit:4;stroke-dasharray:none;stroke-opacity:1" />
      <rect
         ry="0.033412721"
         rx="0"
         y="236.77365"
         x="26.053528"
         height="23.581758"
         width="88.970932"
         id="rect4922"
         style="opacity:1;fill:#fffffa;fill-opacity:1;stroke:#000100;stroke-width:2.01002121;stroke-miterlimit:4;stroke-dasharray:none;stroke-opacity:1" />
      <rect
         rx="1.246748"
         y="246.91055"
         x="33.43404"
         height="44.888626"
         width="73.418839"
         id="rect4894-0-4"
         style="opacity:1;fill:#fffffa;fill-opacity:1;stroke:#000001;stroke-width:2.69099998;stroke-miterlimit:4;stroke-dasharray:none;stroke-opacity:1" />
      <rect
         rx="1.1032919"
         y="281.85336"
         x="43.466446"
         height="0.31347683"
         width="53.807476"
         id="rect4941"
         style="opacity:1;fill:#fffffa;fill-opacity:1;stroke:#000100;stroke-width:1.26752317;stroke-miterlimit:4;stroke-dasharray:none;stroke-opacity:1" />
      <rect
         rx="1.1032919"
         y="272.67108"
         x="43.607704"
         height="0.31347683"
         width="53.807476"
         id="rect4941-2"
         style="opacity:1;fill:#fffffa;fill-opacity:1;stroke:#000100;stroke-width:1.26752317;stroke-miterlimit:4;stroke-dasharray:none;stroke-opacity:1" />
      <rect
         rx="0.66889346"
         y="255.68027"
         x="43.550484"
         height="0.42791069"
         width="32.621918"
         id="rect4941-0"
         style="opacity:1;fill:#fffffa;fill-opacity:1;stroke:#000100;stroke-width:1.15308928;stroke-miterlimit:4;stroke-dasharray:none;stroke-opacity:1" />
      <rect
         rx="0.66889346"
         y="263.78149"
         x="43.429604"
         height="0.42791069"
         width="32.621918"
         id="rect4941-0-6"
         style="opacity:1;fill:#fffffa;fill-opacity:1;stroke:#000100;stroke-width:1.15308928;stroke-miterlimit:4;stroke-dasharray:none;stroke-opacity:1" />
      <circle
         r="0.99903888"
         cy="208.63937"
         cx="115.74228"
         id="path4987"
         style="opacity:1;fill:#000000;fill-opacity:1;stroke:#000005;stroke-width:3.00192213;stroke-miterlimit:4;stroke-dasharray:none;stroke-opacity:1" />
      <circle
         r="0.99903893"
         cy="208.64725"
         cx="124.84573"
         id="path4987-3"
         style="opacity:1;fill:#000000;fill-opacity:1;stroke:#000005;stroke-width:3.00192213;stroke-miterlimit:4;stroke-dasharray:none;stroke-opacity:1" />
    </g>
  </g>
</svg>
