<?xml version="1.0" encoding="UTF-8" standalone="no"?>
<!-- Created with Inkscape (http://www.inkscape.org/) -->

<svg
   xmlns:dc="http://purl.org/dc/elements/1.1/"
   xmlns:cc="http://creativecommons.org/ns#"
   xmlns:rdf="http://www.w3.org/1999/02/22-rdf-syntax-ns#"
   xmlns:svg="http://www.w3.org/2000/svg"
   xmlns="http://www.w3.org/2000/svg"
   xmlns:sodipodi="http://sodipodi.sourceforge.net/DTD/sodipodi-0.dtd"
   xmlns:inkscape="http://www.inkscape.org/namespaces/inkscape"
   width="254mm"
   height="254mm"
   viewBox="0 0 254 254"
   version="1.1"
   id="svg8"
   inkscape:version="0.92.4 (5da689c313, 2019-01-14)"
   sodipodi:docname="google-scan-12.svg">
  <defs
     id="defs2" />
  <sodipodi:namedview
     id="base"
     pagecolor="#ffffff"
     bordercolor="#666666"
     borderopacity="1.0"
     inkscape:pageopacity="0.0"
     inkscape:pageshadow="2"
     inkscape:zoom="2"
     inkscape:cx="617.92919"
     inkscape:cy="220.18649"
     inkscape:document-units="mm"
     inkscape:current-layer="layer1"
     showgrid="true"
     inkscape:window-width="1920"
     inkscape:window-height="1001"
     inkscape:window-x="-9"
     inkscape:window-y="-9"
     inkscape:window-maximized="1"
     inkscape:snap-nodes="false"
     inkscape:pagecheckerboard="true">
    <inkscape:grid
       type="xygrid"
       id="grid7164"
       spacingx="1.8520833"
       spacingy="1.8520833" />
  </sodipodi:namedview>
  <metadata
     id="metadata5">
    <rdf:RDF>
      <cc:Work
         rdf:about="">
        <dc:format>image/svg+xml</dc:format>
        <dc:type
           rdf:resource="http://purl.org/dc/dcmitype/StillImage" />
        <dc:title></dc:title>
      </cc:Work>
    </rdf:RDF>
  </metadata>
  <g
     inkscape:label="Layer 1"
     inkscape:groupmode="layer"
     id="layer1"
     transform="translate(0,-43)">
    <path
       style="fill:#262929;fill-opacity:1;stroke-width:1.42463648"
       d="m 232.375,12.667969 c -122.40385,0 -220.947266,98.541461 -220.947266,220.945311 v 494.29688 c 0,122.40381 98.543416,220.94726 220.947266,220.94726 h 494.29688 c 122.40381,0 220.94531,-98.54345 220.94531,-220.94726 V 233.61328 c 0,-122.40385 -98.5415,-220.945311 -220.94531,-220.945311 z M 455.16016,370.91016 c 8.82169,-0.0528 18.34896,2.80711 26.78515,8.66211 L 814.82617,610.7832 c 16.65419,11.55047 23.10103,30.62141 15.78125,44.45508 -0.20145,0.73871 -0.5358,1.4112 -1.00586,2.01563 l -18.66992,24.91406 c -2.9548,3.96208 -9.40094,4.29742 -14.4375,0.73828 L 416.94141,419.25977 c -5.03653,-3.49202 -6.78293,-9.46758 -3.82813,-13.42969 l 11.88477,-15.91602 c 0.53726,-0.94015 1.1429,-1.88087 1.81445,-2.7539 l 3.69336,-4.96875 c 5.56536,-7.4205 14.65638,-11.22147 24.6543,-11.28125 z m -18.41016,7.65429 -1.14062,1.8125 391.91015,272.98243 1.14063,-1.88086 z m 68.63281,228.79297 c 2.68619,0 4.83399,2.61887 4.83399,5.97656 V 662.625 c 0,3.35769 -2.1478,6.04492 -4.83399,6.04492 -2.68615,0 -4.83594,-2.68723 -4.83593,-6.04492 v -49.29102 c 0,-3.35769 2.14978,-5.97656 4.83593,-5.97656 z m -41.58593,24.27735 c 1.14161,0.0504 2.26603,0.5368 3.10546,1.44335 l 24.71289,26.9961 c 1.67876,1.88028 1.54554,4.63367 -0.26757,6.3125 l -0.80664,0.73828 c -1.81316,1.67871 -4.63439,1.54362 -6.2461,-0.26953 l -24.7793,-27.0625 c -1.67875,-1.81315 -1.54358,-4.63367 0.26954,-6.3125 l 0.80468,-0.67188 c 0.90658,-0.83937 2.06542,-1.22421 3.20704,-1.17382 z m 82.39843,0.46875 c 1.12482,-0.0504 2.26532,0.3364 3.17188,1.17578 l 0.80664,0.67187 c 1.81311,1.67887 1.88112,4.43103 0.26953,6.24414 l -24.51172,26.79492 c -1.67879,1.81312 -4.4329,1.9478 -6.24609,0.33594 l -0.80469,-0.73828 c -1.81319,-1.67883 -1.94828,-4.43298 -0.26953,-6.24609 l 24.51172,-26.79297 c 0.83943,-0.9066 1.94745,-1.39494 3.07226,-1.44531 z m -220.85156,55.16796 h 460.94336 c 12.89352,0 23.23437,11.61735 23.23437,25.98829 v 94.08203 c 0,14.43809 -10.34085,26.05664 -23.23437,26.05664 H 273.0293 c -12.89349,0 -23.23438,-11.61855 -23.23438,-26.05664 V 769.66797 C 291.5644,749.1189 318.6284,719.5725 325.34375,687.27148 Z"
       transform="matrix(0.26458333,0,0,0.26458333,0,43)"
       id="rect12"
       inkscape:connector-curvature="0" />
    <path
       id="path7213"
       d="m 105.74918,244.15408 c 0,1.59911 -1.29705,2.89614 -2.89615,2.89614 -1.58134,0 -2.878387,-1.29703 -2.878387,-2.89614 0,-1.58133 1.297047,-2.87839 2.878387,-2.87839 1.5991,0 2.89615,1.29706 2.89615,2.87839 z"
       style="fill:#262929;fill-opacity:1;fill-rule:nonzero;stroke:none;stroke-width:0.22209907"
       inkscape:connector-curvature="0" />
    <path
       id="path7215"
       d="m 113.97567,244.15408 c 0,1.59911 -1.27929,2.89614 -2.87839,2.89614 -1.58133,0 -2.87838,-1.29703 -2.87838,-2.89614 0,-1.58133 1.29705,-2.87839 2.87838,-2.87839 1.5991,0 2.87839,1.29706 2.87839,2.87839 z"
       style="fill:#262929;fill-opacity:1;fill-rule:nonzero;stroke:none;stroke-width:0.22209907"
       inkscape:connector-curvature="0" />
    <path
       id="path7217"
       d="m 116.7119,242.07524 h 14.21424 v 4.1399 H 116.7119 Z"
       style="fill:#262929;fill-opacity:1;fill-rule:nonzero;stroke:none;stroke-width:0.22209907"
       inkscape:connector-curvature="0" />
    <path
       id="path7203-8"
       d="m 86.977675,223.719 c -1.77677,8.54631 -8.93715,16.36414 -19.98866,21.80109 v 9.96773 c 0,3.82008 2.73623,6.89392 6.14763,6.89392 H 208.93575 c 3.41141,0 6.14765,-3.07384 6.14765,-6.89392 v -24.89268 c 0,-3.80231 -2.73624,-6.87614 -6.14765,-6.87614 z"
       style="fill:none;stroke:#262929;stroke-width:3.55355906px;stroke-linecap:butt;stroke-linejoin:miter;stroke-miterlimit:4;stroke-dasharray:none;stroke-opacity:1"
       inkscape:connector-curvature="0" />
    <path
       style="fill:#2a71e9;fill-opacity:1;stroke:none;stroke-width:34.8739624;stroke-miterlimit:4;stroke-dasharray:none;stroke-opacity:1"
       d="M 310.70312,418.63086 217.125,579.98242 H 564.81641 L 591.77539,533.49805 426.4082,418.63086 Z m 190.17383,0 112.19532,78.14844 1.08984,-1.87891 -109.52539,-76.26953 z m 47.67578,0 78.30079,54.38476 31.54101,-54.38476 z"
       transform="matrix(0.26458333,0,0,0.26458333,0,43)"
       id="rect3636-4"
       inkscape:connector-curvature="0" />
    <path
       style="fill:#fccd48;fill-opacity:1;stroke:none;stroke-width:34.74087524;stroke-miterlimit:4;stroke-dasharray:none;stroke-opacity:1"
       d="m 297.03125,119.43555 147.64648,252.04883 c 11.78975,-6.31619 28.71491,-4.8288 42.66016,4.8496 l 60.86719,42.27735 110.18945,0.0215 -175.24414,-299.16015 z m 153.19531,261.51953 2.58203,4.41015 47.7168,33.23633 h 3.76172 z"
       transform="matrix(0.26458333,0,0,0.26458333,0,43)"
       id="rect3636-0"
       inkscape:connector-curvature="0" />
    <rect
       style="fill:#0ba25e;fill-opacity:1;stroke:none;stroke-width:9.89548492;stroke-miterlimit:4;stroke-dasharray:none;stroke-opacity:1"
       id="rect3636-03"
       width="91.834167"
       height="49.184948"
       x="-57.68523"
       y="120.9371"
       transform="matrix(0.50172572,-0.86502676,0.50781291,0.86146738,0,0)"
       inkscape:transform-center-x="36.302514"
       inkscape:transform-center-y="-24.989517" />
    <path
       sodipodi:type="star"
       style="fill:#296ad9;fill-opacity:1;stroke:none;stroke-width:4;stroke-miterlimit:4;stroke-dasharray:none;stroke-opacity:1"
       id="path13171"
       sodipodi:sides="4"
       sodipodi:cx="-64.346664"
       sodipodi:cy="213.36"
       sodipodi:r1="59.916248"
       sodipodi:r2="12.210801"
       sodipodi:arg1="-0.8253769"
       sodipodi:arg2="-0.039978737"
       inkscape:flatsided="true"
       inkscape:rounded="0"
       inkscape:randomized="-1.331"
       d="m 8.103873,219.65244 -52.54859,29.73751 -12.766174,-1.84468 -118.337489,-18.59875 z"
       inkscape:transform-center-x="4.6914464"
       inkscape:transform-center-y="10.562701"
       transform="matrix(-0.21650405,0.17538285,0.444121,-1.123101,-38.349681,441.6777)" />
    <path
       sodipodi:type="star"
       style="fill:#089156;fill-opacity:1;stroke:none;stroke-width:4;stroke-miterlimit:4;stroke-dasharray:none;stroke-opacity:1"
       id="path13171-3"
       sodipodi:sides="4"
       sodipodi:cx="-64.346664"
       sodipodi:cy="213.36"
       sodipodi:r1="59.916248"
       sodipodi:r2="12.210801"
       sodipodi:arg1="-0.8253769"
       sodipodi:arg2="-0.039978737"
       inkscape:flatsided="true"
       inkscape:rounded="0"
       inkscape:randomized="-1.331"
       d="m 8.103873,219.65244 -52.54859,29.73751 -12.766174,-1.84468 -118.337489,-18.59875 z"
       inkscape:transform-center-x="2.1542537"
       inkscape:transform-center-y="-9.3365964"
       transform="matrix(-0.04528076,-0.27492334,0.75622441,0.94165947,-87.088109,-129.98037)" />
    <path
       style="fill:#e3b73a;fill-opacity:1;stroke:none;stroke-width:6.21217251;stroke-miterlimit:4;stroke-dasharray:none;stroke-opacity:1"
       d="m 434.6875,354.39844 9.26953,16.54297 c 11.76932,-6.05973 28.4575,-4.49792 42.23828,5.0664 l 61.30078,42.57813 110.84571,0.01 z m 14.89258,26.57617 2.39844,4.28125 47.84375,33.32422 3.76171,0.002 z"
       transform="matrix(0.26458333,0,0,0.26458333,0,43)"
       id="path13171-2"
       inkscape:connector-curvature="0" />
    <path
       id="path7205-4"
       d="m 114.86692,142.56968 103.69284,72.2083 -0.30206,0.4975 -103.69283,-72.22608 z m 11.95772,0.26652 c -4.76176,-3.30482 -10.83835,-3.00276 -13.61012,0.69294 l -0.97723,1.31481 c -0.17768,0.23099 -0.33759,0.47974 -0.47974,0.72849 l -3.14489,4.21096 c -0.78179,1.04831 -0.31982,2.62964 1.01276,3.55357 l 100.42356,69.75635 c 1.33259,0.94168 3.03829,0.85285 3.82008,-0.19546 l 4.93944,-6.59183 c 0.12437,-0.15993 0.21322,-0.33761 0.26652,-0.53306 1.93669,-3.66016 0.23099,-8.70622 -4.17544,-11.76228 z"
       style="fill:none;stroke:#262929;stroke-width:3.35811353px;stroke-linecap:butt;stroke-linejoin:miter;stroke-miterlimit:4;stroke-dasharray:none;stroke-opacity:1"
       inkscape:connector-curvature="0" />
  </g>
</svg>
