<?xml version="1.0" encoding="UTF-8" standalone="no"?>
<!-- Created with Inkscape (http://www.inkscape.org/) -->

<svg
   xmlns:osb="http://www.openswatchbook.org/uri/2009/osb"
   xmlns:dc="http://purl.org/dc/elements/1.1/"
   xmlns:cc="http://creativecommons.org/ns#"
   xmlns:rdf="http://www.w3.org/1999/02/22-rdf-syntax-ns#"
   xmlns:svg="http://www.w3.org/2000/svg"
   xmlns="http://www.w3.org/2000/svg"
   xmlns:sodipodi="http://sodipodi.sourceforge.net/DTD/sodipodi-0.dtd"
   xmlns:inkscape="http://www.inkscape.org/namespaces/inkscape"
   width="254mm"
   height="254mm"
   viewBox="0 0 254 254"
   version="1.1"
   id="svg8"
   inkscape:version="0.92.4 (5da689c313, 2019-01-14)"
   sodipodi:docname="onedrive-print-6.svg">
  <defs
     id="defs2">
    <linearGradient
       osb:paint="solid"
       id="linearGradient4880">
      <stop
         id="stop4878"
         offset="0"
         style="stop-color:#000000;stop-opacity:1;" />
    </linearGradient>
    <linearGradient
       osb:paint="gradient"
       id="linearGradient4850">
      <stop
         id="stop4846"
         offset="0"
         style="stop-color:#ff8080;stop-opacity:1;" />
      <stop
         id="stop4848"
         offset="1"
         style="stop-color:#ff8080;stop-opacity:0;" />
    </linearGradient>
    <linearGradient
       osb:paint="solid"
       id="linearGradient4822">
      <stop
         id="stop4820"
         offset="0"
         style="stop-color:#f600f4;stop-opacity:1;" />
    </linearGradient>
  </defs>
  <sodipodi:namedview
     id="base"
     pagecolor="#ffffff"
     bordercolor="#666666"
     borderopacity="1.0"
     inkscape:pageopacity="0.0"
     inkscape:pageshadow="2"
     inkscape:zoom="0.49497475"
     inkscape:cx="527.43606"
     inkscape:cy="323.326"
     inkscape:document-units="mm"
     inkscape:current-layer="layer1"
     showgrid="true"
     inkscape:window-width="1920"
     inkscape:window-height="1001"
     inkscape:window-x="-9"
     inkscape:window-y="-9"
     inkscape:window-maximized="1">
    <inkscape:grid
       type="xygrid"
       id="grid1849"
       spacingx="3.3866667"
       spacingy="3.3866667" />
  </sodipodi:namedview>
  <metadata
     id="metadata5">
    <rdf:RDF>
      <cc:Work
         rdf:about="">
        <dc:format>image/svg+xml</dc:format>
        <dc:type
           rdf:resource="http://purl.org/dc/dcmitype/StillImage" />
        <dc:title></dc:title>
      </cc:Work>
    </rdf:RDF>
  </metadata>
  <g
     inkscape:label="Layer 1"
     inkscape:groupmode="layer"
     id="layer1"
     transform="translate(0,-43)">
    <rect
       style="fill:#26a1e3;fill-opacity:0.94527364;stroke-width:0.37693506;stroke:none"
       id="rect12"
       width="247.70001"
       height="247.70001"
       x="3.0238037"
       y="46.351601"
       rx="58.458519" />
    <path
       style="fill:#fffffc;fill-opacity:1;stroke-width:0.31549495"
       inkscape:connector-curvature="0"
       id="path235"
       d="m 240.74028,129.1403 c 0,8.43161 -5.85594,15.26367 -13.07833,15.26367 h -66.17457 c -8.7795,0 -15.89558,-8.30481 -15.89558,-18.55172 0,-10.24621 7.11608,-18.55139 15.89558,-18.55139 0.62087,0 1.2289,0.0491 1.82991,0.12918 0.27072,-13.780352 9.91293,-24.865362 21.78893,-24.865362 7.53312,0 14.17405,4.45507 18.09378,11.23532 2.38216,-1.36676 5.05546,-2.15646 7.89027,-2.15646 9.8995,0 17.92499,9.364132 17.92499,20.920522 0,0.46865 -0.0333,0.92673 -0.0598,1.38993 6.61437,0.7587 11.7849,7.26732 11.7849,15.18631 z m -81.45339,-26.96493 c 2.36901,-14.109262 13.14491,-24.873902 25.81933,-24.873902 7.52845,0 14.61328,3.74103 19.57325,10.1767 2.07405,-0.73008 4.22111,-1.09783 6.41052,-1.09783 0.0131,0 0.0243,0 0.0353,0 -1.47275,-15.32333 -12.60143,-27.23691 -26.12103,-27.23691 -10.24585,0 -19.10306,6.8525 -23.4439,16.83254 -2.75507,-1.82757 -5.92922,-2.88655 -9.32533,-2.88655 -10.43654,0 -18.89863,9.87641 -18.89863,22.05927 0,1.85142 0.21728,3.6374 0.58554,5.353862 -8.81048,0.47376 -15.8375,8.934 -15.8375,19.33598 0,10.70227 7.43528,19.37996 16.60526,19.37996 h 9.92199 c -2.22475,-3.81328 -3.52899,-8.41628 -3.52899,-13.36624 -2.9e-4,-12.26568 7.98519,-22.39329 18.20416,-23.67688 z" />
    <g
       transform="translate(8.4942661,-9.4802678)"
       id="layer1-0"
       inkscape:label="Layer 1">
      <rect
         y="159.97035"
         x="-24.870836"
         height="0"
         width="0"
         id="rect4526-8"
         style="opacity:1;fill:#800000;fill-opacity:1;stroke-width:0.26458332" />
      <path
         inkscape:connector-curvature="0"
         id="rect4844-3"
         d="m 19.25979,196.72609 c -6.713873,0 -12.1186392,5.40528 -12.1186392,12.11915 v 39.09788 c 0,6.71387 5.4047662,12.11915 12.1186392,12.11915 h 3.027723 V 234.6447 c 0,-0.90922 0.732014,-1.64124 1.641242,-1.64124 h 93.364705 c 0.90922,0 1.64124,0.73202 1.64124,1.64124 v 25.41757 h 3.07113 c 6.71387,0 12.11864,-5.40528 12.11864,-12.11915 v -39.09788 c 0,-6.71387 -5.40477,-12.11915 -12.11864,-12.11915 z"
         style="opacity:1;fill:#fffffa;fill-opacity:1;stroke:#26a1e3;stroke-width:2.67400002;stroke-miterlimit:4;stroke-dasharray:none;stroke-opacity:0.94509804" />
      <rect
         rx="1.2467479"
         y="168.9119"
         x="33.701309"
         height="44.888626"
         width="73.418839"
         id="rect4894-0-8"
         style="opacity:1;fill:#fffffa;fill-opacity:1;stroke:#26a1e3;stroke-width:2.69099998;stroke-miterlimit:4;stroke-dasharray:none;stroke-opacity:0.94509804" />
      <rect
         ry="0.033412721"
         rx="0"
         y="236.77365"
         x="26.053528"
         height="23.581758"
         width="88.970932"
         id="rect4922-6"
         style="opacity:1;fill:#fffffa;fill-opacity:1;stroke:#26a1e3;stroke-width:2.01002121;stroke-miterlimit:4;stroke-dasharray:none;stroke-opacity:0.94509804" />
      <rect
         rx="1.246748"
         y="246.91055"
         x="33.43404"
         height="44.888626"
         width="73.418839"
         id="rect4894-0-4-5"
         style="opacity:1;fill:#fffffa;fill-opacity:1;stroke:#26a1e3;stroke-width:2.69099998;stroke-miterlimit:4;stroke-dasharray:none;stroke-opacity:0.94509804" />
      <rect
         rx="1.1032919"
         y="281.85336"
         x="43.466446"
         height="0.31347683"
         width="53.807476"
         id="rect4941-3"
         style="opacity:1;fill:#fffffa;fill-opacity:1;stroke:#26a1e3;stroke-width:1.26752317;stroke-miterlimit:4;stroke-dasharray:none;stroke-opacity:0.94509804" />
      <rect
         rx="1.1032919"
         y="272.67108"
         x="43.607704"
         height="0.31347683"
         width="53.807476"
         id="rect4941-2-8"
         style="opacity:1;fill:#fffffa;fill-opacity:1;stroke:#26a1e3;stroke-width:1.26752317;stroke-miterlimit:4;stroke-dasharray:none;stroke-opacity:0.94509804" />
      <rect
         rx="0.66889346"
         y="255.68027"
         x="43.550484"
         height="0.42791069"
         width="32.621918"
         id="rect4941-0-1"
         style="opacity:1;fill:#fffffa;fill-opacity:1;stroke:#26a1e3;stroke-width:1.15308928;stroke-miterlimit:4;stroke-dasharray:none;stroke-opacity:0.94509804" />
      <rect
         rx="0.66889346"
         y="263.78149"
         x="43.429604"
         height="0.42791069"
         width="32.621918"
         id="rect4941-0-6-1"
         style="opacity:1;fill:#fffffa;fill-opacity:1;stroke:#26a1e3;stroke-width:1.15308928;stroke-miterlimit:4;stroke-dasharray:none;stroke-opacity:0.94509804" />
      <circle
         r="0.99903888"
         cy="208.63937"
         cx="115.74228"
         id="path4987-6"
         style="opacity:1;fill:#26a1e3;fill-opacity:0.94509804;stroke:#26a1e3;stroke-width:3.00192213;stroke-miterlimit:4;stroke-dasharray:none;stroke-opacity:0.94509804" />
      <circle
         r="0.99903893"
         cy="208.64725"
         cx="124.84573"
         id="path4987-3-2"
         style="opacity:1;fill:#26a1e3;fill-opacity:0.94509804;stroke:#26a1e3;stroke-width:3.00192213;stroke-miterlimit:4;stroke-dasharray:none;stroke-opacity:0.94509804" />
    </g>
  </g>
</svg>
