<?xml version="1.0" encoding="UTF-8" standalone="no"?>
<!-- Created with Inkscape (http://www.inkscape.org/) -->

<svg
   xmlns:osb="http://www.openswatchbook.org/uri/2009/osb"
   xmlns:dc="http://purl.org/dc/elements/1.1/"
   xmlns:cc="http://creativecommons.org/ns#"
   xmlns:rdf="http://www.w3.org/1999/02/22-rdf-syntax-ns#"
   xmlns:svg="http://www.w3.org/2000/svg"
   xmlns="http://www.w3.org/2000/svg"
   xmlns:sodipodi="http://sodipodi.sourceforge.net/DTD/sodipodi-0.dtd"
   xmlns:inkscape="http://www.inkscape.org/namespaces/inkscape"
   width="254mm"
   height="254mm"
   viewBox="0 0 254 254"
   version="1.1"
   id="svg8"
   inkscape:version="0.92.4 (5da689c313, 2019-01-14)"
   sodipodi:docname="onedrive-scan-8.svg">
  <defs
     id="defs2">
    <linearGradient
       osb:paint="solid"
       id="linearGradient4880">
      <stop
         id="stop4878"
         offset="0"
         style="stop-color:#000000;stop-opacity:1;" />
    </linearGradient>
    <linearGradient
       osb:paint="gradient"
       id="linearGradient4850">
      <stop
         id="stop4846"
         offset="0"
         style="stop-color:#ff8080;stop-opacity:1;" />
      <stop
         id="stop4848"
         offset="1"
         style="stop-color:#ff8080;stop-opacity:0;" />
    </linearGradient>
    <linearGradient
       osb:paint="solid"
       id="linearGradient4822">
      <stop
         id="stop4820"
         offset="0"
         style="stop-color:#f600f4;stop-opacity:1;" />
    </linearGradient>
  </defs>
  <sodipodi:namedview
     id="base"
     pagecolor="#ffffff"
     bordercolor="#666666"
     borderopacity="1.0"
     inkscape:pageopacity="0.0"
     inkscape:pageshadow="2"
     inkscape:zoom="2.8"
     inkscape:cx="349.58658"
     inkscape:cy="251.24514"
     inkscape:document-units="mm"
     inkscape:current-layer="layer1"
     showgrid="true"
     inkscape:window-width="1920"
     inkscape:window-height="1001"
     inkscape:window-x="-9"
     inkscape:window-y="-9"
     inkscape:window-maximized="1"
     inkscape:pagecheckerboard="true">
    <inkscape:grid
       type="xygrid"
       id="grid1849"
       spacingx="3.3866667"
       spacingy="3.3866667" />
  </sodipodi:namedview>
  <metadata
     id="metadata5">
    <rdf:RDF>
      <cc:Work
         rdf:about="">
        <dc:format>image/svg+xml</dc:format>
        <dc:type
           rdf:resource="http://purl.org/dc/dcmitype/StillImage" />
        <dc:title></dc:title>
      </cc:Work>
    </rdf:RDF>
  </metadata>
  <g
     inkscape:label="Layer 1"
     inkscape:groupmode="layer"
     id="layer1"
     transform="translate(0,-43)">
    <rect
       style="fill:#0948ad;fill-opacity:1;stroke-width:0.37693506;stroke:#0000fa;stroke-opacity:1"
       id="rect12"
       width="247.70001"
       height="247.70001"
       x="3.0238037"
       y="46.351601"
       rx="58.458519" />
    <path
       style="fill:#ffffff;fill-opacity:1;stroke-width:0.48962075"
       inkscape:connector-curvature="0"
       id="path235"
       d="m 203.19994,169.43595 c 0,13.08512 -9.08791,23.68789 -20.29643,23.68789 H 80.206327 c -13.625025,0 -24.668561,-12.88834 -24.668561,-28.79066 0,-15.90124 11.043536,-28.79015 24.668561,-28.79015 0.963527,0 1.907135,0.0762 2.839863,0.20048 0.420133,-21.38591 15.384006,-38.588882 33.81453,-38.588882 11.69074,0 21.99689,6.913882 28.07996,17.436242 3.69691,-2.12109 7.84565,-3.34664 12.24502,-3.34664 15.36316,0 27.81802,14.53231 27.81802,32.46684 0,0.72729 -0.0517,1.4382 -0.0929,2.15705 10.26493,1.17743 18.28914,11.27825 18.28914,23.56783 z M 76.791361,127.58872 c 3.676483,-21.89634 20.399743,-38.602128 40.069359,-38.602128 11.68349,0 22.67853,5.805745 30.37597,15.793338 3.21875,-1.13301 6.5508,-1.70373 9.94857,-1.70373 0.0204,0 0.0377,0 0.0548,0 -2.28557,-23.780465 -19.55632,-42.269317 -40.53756,-42.269317 -15.90067,0 -29.646298,10.634493 -36.382907,26.122639 -4.27563,-2.836232 -9.201623,-4.479674 -14.472092,-4.479674 -16.196612,0 -29.329035,15.327342 -29.329035,34.234072 0,2.87325 0.337193,5.64493 0.908701,8.30873 -13.673101,0.73523 -24.578421,13.86478 -24.578421,30.00776 0,16.60899 11.538906,30.07601 25.769929,30.07601 h 15.398058 c -3.452617,-5.91788 -5.476691,-13.06134 -5.476691,-20.74324 -4.42e-4,-19.03527 12.39233,-34.75244 28.251278,-36.74446 z" />
    <path
       inkscape:connector-curvature="0"
       style="fill:#ffffff;fill-opacity:1;stroke:#0948ad;stroke-width:4;stroke-miterlimit:4;stroke-dasharray:none;stroke-opacity:1"
       d="m 77.912696,221.01666 a 66.145828,35.718747 0 0 1 -23.851258,23.21977 v 10.60504 c 0,4.06319 3.271248,7.33444 7.334436,7.33444 H 223.39271 c 4.06318,0 7.33391,-3.27125 7.33391,-7.33444 v -26.49089 c 0,-4.06319 -3.27073,-7.33392 -7.33391,-7.33392 z"
       id="rect9111" />
    <path
       style="fill:#ffffff;fill-opacity:1;stroke:#0948ad;stroke-width:4;stroke-miterlimit:4;stroke-dasharray:none;stroke-opacity:1"
       d="m 123.18863,130.10677 c -5.85228,-3.69955 -12.93174,-2.94294 -15.87268,1.69579 l -1.04845,1.65368 c -0.18632,0.29384 -0.35126,0.59646 -0.49561,0.90583 l -3.35417,5.29033 c -0.82624,1.30316 -0.16775,3.18892 1.47637,4.22816 l 123.18433,77.86371 c 1.64279,1.04136 3.63276,0.82666 4.45899,-0.47634 l 5.25247,-8.28413 c 0.12926,-0.20404 0.21799,-0.42346 0.27679,-0.65047 1.96803,-4.54768 -0.4413,-10.52413 -5.84062,-13.93697 z"
       id="rect9111-3"
       inkscape:connector-curvature="0" />
    <rect
       style="fill:#0948ad;fill-opacity:1;stroke:#0948ad;stroke-width:2.44044352;stroke-miterlimit:4;stroke-dasharray:none;stroke-opacity:1"
       id="rect9771"
       width="149.40822"
       height="1.4854217"
       x="164.63914"
       y="50.288521"
       rx="0"
       transform="matrix(0.84449219,0.53556787,-0.55602834,0.83116333,0,0)" />
    <circle
       style="fill:#0948ad;fill-opacity:1;stroke:#0948ad;stroke-width:1.42163324;stroke-miterlimit:4;stroke-dasharray:none;stroke-opacity:1"
       id="path11013"
       cx="98.607033"
       cy="236.38115"
       r="3.1749914" />
    <rect
       style="fill:#0948ad;fill-opacity:1;stroke:#0948ad;stroke-width:2.39658356;stroke-miterlimit:4;stroke-dasharray:none;stroke-opacity:1"
       id="rect11030"
       width="12.349998"
       height="3.5161405"
       x="108.29999"
       y="234.45251" />
  </g>
</svg>
