<?xml version="1.0" encoding="UTF-8" standalone="no"?>
<!-- Created with Inkscape (http://www.inkscape.org/) -->

<svg
   xmlns:osb="http://www.openswatchbook.org/uri/2009/osb"
   xmlns:dc="http://purl.org/dc/elements/1.1/"
   xmlns:cc="http://creativecommons.org/ns#"
   xmlns:rdf="http://www.w3.org/1999/02/22-rdf-syntax-ns#"
   xmlns:svg="http://www.w3.org/2000/svg"
   xmlns="http://www.w3.org/2000/svg"
   xmlns:sodipodi="http://sodipodi.sourceforge.net/DTD/sodipodi-0.dtd"
   xmlns:inkscape="http://www.inkscape.org/namespaces/inkscape"
   width="254mm"
   height="254mm"
   viewBox="0 0 254 254"
   version="1.1"
   id="svg8"
   inkscape:version="0.92.4 (5da689c313, 2019-01-14)"
   sodipodi:docname="onedrive-scan-9.svg">
  <defs
     id="defs2">
    <linearGradient
       osb:paint="solid"
       id="linearGradient4880">
      <stop
         id="stop4878"
         offset="0"
         style="stop-color:#000000;stop-opacity:1;" />
    </linearGradient>
    <linearGradient
       osb:paint="gradient"
       id="linearGradient4850">
      <stop
         id="stop4846"
         offset="0"
         style="stop-color:#ff8080;stop-opacity:1;" />
      <stop
         id="stop4848"
         offset="1"
         style="stop-color:#ff8080;stop-opacity:0;" />
    </linearGradient>
    <linearGradient
       osb:paint="solid"
       id="linearGradient4822">
      <stop
         id="stop4820"
         offset="0"
         style="stop-color:#f600f4;stop-opacity:1;" />
    </linearGradient>
  </defs>
  <sodipodi:namedview
     id="base"
     pagecolor="#ffffff"
     bordercolor="#666666"
     borderopacity="1.0"
     inkscape:pageopacity="0.0"
     inkscape:pageshadow="2"
     inkscape:zoom="0.49497475"
     inkscape:cx="-48.770728"
     inkscape:cy="316.38568"
     inkscape:document-units="mm"
     inkscape:current-layer="layer1"
     showgrid="true"
     inkscape:window-width="1920"
     inkscape:window-height="1001"
     inkscape:window-x="-9"
     inkscape:window-y="-9"
     inkscape:window-maximized="1"
     inkscape:pagecheckerboard="true">
    <inkscape:grid
       type="xygrid"
       id="grid1849"
       spacingx="3.3866667"
       spacingy="3.3866667" />
  </sodipodi:namedview>
  <metadata
     id="metadata5">
    <rdf:RDF>
      <cc:Work
         rdf:about="">
        <dc:format>image/svg+xml</dc:format>
        <dc:type
           rdf:resource="http://purl.org/dc/dcmitype/StillImage" />
        <dc:title></dc:title>
      </cc:Work>
    </rdf:RDF>
  </metadata>
  <g
     inkscape:label="Layer 1"
     inkscape:groupmode="layer"
     id="layer1"
     transform="translate(0,-43)">
    <path
       style="fill:#0948ad;fill-opacity:1;stroke:none;stroke-width:1.42463648"
       d="m 232.375,12.667969 c -122.40385,0 -220.947266,98.541461 -220.947266,220.945311 v 494.29688 c 0,122.4038 98.543416,220.94726 220.947266,220.94726 h 494.29688 c 122.4038,0 220.94531,-98.54346 220.94531,-220.94726 V 233.61328 c 0,-122.40385 -98.54151,-220.945311 -220.94531,-220.945311 z m 216.92773,50.460937 c 78.10141,0 142.3905,58.970864 150.89844,134.818364 h -0.20312 c -12.64797,0 -25.05157,1.81986 -37.03321,5.43359 -28.65324,-31.85538 -69.58315,-50.37305 -113.07422,-50.37305 -73.21897,0 -135.46875,53.28297 -149.15429,123.1211 -59.0341,6.3535 -105.16575,56.48257 -105.16406,117.19531 0,24.50139 7.53459,47.28516 20.38671,66.16016 h -57.31836 c -52.97407,0 -95.927729,-42.9517 -95.927729,-95.92579 0,-51.48778 40.594849,-93.36393 91.492189,-95.70898 -2.1274,-8.49608 -3.38281,-17.33777 -3.38281,-26.50195 0,-60.30274 48.88481,-109.18946 109.17578,-109.18946 19.61898,0 37.95524,5.24301 53.87109,14.28907 25.07666,-49.399209 76.24432,-83.318364 135.43359,-83.318364 z m 0.58789,115.931644 c 43.51805,0 81.88344,22.05032 104.52735,55.61133 13.76145,-6.76521 29.20361,-10.67383 45.58008,-10.67383 57.18837,0 103.55078,46.35083 103.55078,103.55273 0,2.31976 -0.19106,4.58816 -0.34375,6.88086 38.21057,3.75545 68.08008,35.97049 68.08008,75.16797 h -0.002 c 0,35.08369 -23.90785,64.56416 -56.3125,73.07227 l 173.79102,139.28515 c 18.82923,15.09063 24.96695,38.25263 15.1582,54.11524 -0.34012,0.80949 -0.79163,1.57606 -1.38672,2.26953 l -24.21875,28.12304 c -3.27058,3.79754 -9.39612,4.2279 -14.68945,1.36524 6.61403,5.05667 10.86914,13.02891 10.86914,22.03515 v 100.12305 c 0,15.35694 -12.36185,27.7207 -27.71875,27.7207 H 234.50391 c -15.35693,0 -27.72071,-12.36376 -27.72071,-27.7207 v -40.08203 a 249.99998,134.99999 0 0 0 90.14649,-87.75977 h 549.8457 c 5.14805,0 9.9561,1.3948 14.07813,3.82032 L 585.33594,485.15234 H 313.44727 c -50.71851,0 -91.82618,-41.10788 -91.82618,-91.82812 0,-50.7168 41.10767,-91.82422 91.82618,-91.82422 3.58671,0 7.10027,0.24231 10.57226,0.63867 1.56392,-68.21004 57.26459,-123.07812 125.87109,-123.07812 z M 665.90234,485.15234 900.375,673.55859 901.88672,671.45508 670.03125,485.15234 Z M 480,611.59961 c 3.5456,0 6.40039,2.85479 6.40039,6.40039 v 64 c 0,3.5456 -2.85479,6.40039 -6.40039,6.40039 -3.5456,0 -6.40039,-2.85479 -6.40039,-6.40039 v -64 c 0,-3.5456 2.85479,-6.40039 6.40039,-6.40039 z m 59.46484,25.13086 c 1.36216,-0.0559 2.74545,0.40925 3.83204,1.41015 l 1.56835,1.44532 c 2.17317,2.00185 2.31045,5.36394 0.3086,7.53711 l -36.13477,39.22656 c -2.00185,2.17317 -5.36199,2.31044 -7.53515,0.30859 l -1.56836,-1.44531 c -2.17317,-2.00185 -2.3124,-5.36199 -0.31055,-7.53516 l 36.13477,-39.22656 c 1.00092,-1.08658 2.34292,-1.66481 3.70507,-1.7207 z m -117.72851,0.80078 c 1.36215,0.0559 2.70415,0.63217 3.70508,1.71875 l 36.13476,39.22852 c 2.00185,2.17316 1.86262,5.5333 -0.31055,7.53515 l -1.56835,1.44531 c -2.17317,2.00185 -5.53527,1.86458 -7.53711,-0.30859 l -36.13282,-39.22656 c -2.00184,-2.17317 -1.86457,-5.53526 0.3086,-7.53711 l 1.56836,-1.44531 c 1.08658,-1.00093 2.46987,-1.46606 3.83203,-1.41016 z"
       transform="matrix(0.26458333,0,0,0.26458333,0,43)"
       id="rect12"
       inkscape:connector-curvature="0" />
    <path
       style="fill:#ffffff;fill-opacity:1;stroke:none;stroke-width:15.27159786;stroke-miterlimit:4;stroke-dasharray:none;stroke-opacity:1"
       d="M 139.80818,457.06925 C 111.90903,451.34416 87.752828,433.23845 74.235864,407.92108 60.52038,382.23187 59.714663,349.99687 72.126043,323.51168 82.279298,301.8452 101.59738,283.65244 123.73873,274.90557 c 8.18523,-3.23356 20.86501,-6.20778 26.46511,-6.20778 4.35224,0 4.76715,-0.48172 3.67998,-4.27248 -2.17762,-7.59291 -3.10398,-23.66075 -1.96229,-34.03621 5.6866,-51.67883 44.98863,-91.05609 96.90634,-97.09185 18.40605,-2.13982 39.92714,1.49579 57.10331,9.64658 4.08611,1.93903 7.69097,3.5255 8.0108,3.5255 0.31985,0 1.5605,-1.93191 2.757,-4.29314 8.68776,-17.14467 30.32721,-40.87666 47.9118,-52.544891 17.35874,-11.518365 34.40298,-18.640368 55.44942,-23.169767 13.72335,-2.953398 42.96215,-3.187781 56.5972,-0.453692 52.56381,10.540045 94.3384,45.08681 113.65346,93.98916 3.44286,8.71673 7.63169,24.42627 8.67346,32.52843 l 0.66152,5.14492 -10.46319,0.6425 c -5.75476,0.35337 -13.87246,1.47217 -18.03933,2.48624 l -7.57615,1.84374 -8.88791,-8.31199 c -21.10889,-19.74107 -46.16999,-32.65507 -75.45983,-38.88446 -8.76446,-1.86404 -13.85227,-2.25946 -29.29442,-2.27677 -20.24276,-0.0227 -30.29491,1.47773 -47.07721,7.02694 -49.78534,16.46193 -89.38271,59.51151 -101.35519,110.1916 l -1.23455,5.22589 -7.24142,1.21104 c -37.79273,6.32035 -72.51656,33.59929 -87.8138,68.98627 -6.35502,14.70102 -8.93062,26.19101 -9.55909,42.64415 -0.87471,22.89894 2.88541,39.7589 13.33593,59.79691 l 5.40001,10.35406 -34.00275,-0.095 c -24.04993,-0.0671 -35.92468,-0.48927 -40.56876,-1.44226 z"
       id="path1197"
       inkscape:connector-curvature="0"
       transform="matrix(0.26458333,0,0,0.26458333,0,43)" />
    <path
       id="rect823"
       style="fill:none;fill-opacity:1;stroke:#0948ad;stroke-width:3.99612737;stroke-miterlimit:4;stroke-dasharray:none;stroke-opacity:1"
       d="m 121.59019,124.34959 117.35139,94.29529 -0.40007,0.55665 -117.3514,-94.2953 z m 14.194,1.30628 c -5.39953,-4.32843 -12.63589,-4.45767 -16.22383,-0.29112 l -1.2791,1.48536 c -0.22732,0.26392 -0.43433,0.539 -0.62136,0.82327 l -4.09204,4.75181 c -1.00801,1.17049 -0.59817,3.09163 0.91884,4.30744 l 113.66068,91.09365 c 1.51564,1.21739 3.54966,1.25216 4.55762,0.0818 l 6.40795,-7.44086 c 0.15745,-0.18348 0.27661,-0.38657 0.3666,-0.60075 2.59523,-4.19698 0.97148,-10.32505 -4.01042,-14.31778 z"
       inkscape:connector-curvature="0" />
    <path
       style="fill:none;fill-opacity:1;stroke:#0948ad;stroke-width:4;stroke-miterlimit:4;stroke-dasharray:none;stroke-opacity:1"
       d="m 77.681669,229.26667 a 66.145828,35.718747 0 0 1 -23.851258,23.21977 v 10.60504 c 0,4.06319 3.271248,7.33443 7.334436,7.33443 H 223.1617 c 4.06318,0 7.33391,-3.27124 7.33391,-7.33443 v -26.49089 c 0,-4.06319 -3.27073,-7.33392 -7.33391,-7.33392 z"
       id="rect9111"
       inkscape:connector-curvature="0" />
    <path
       style="fill:#ffffff;fill-opacity:1;stroke:#0948ad;stroke-width:15.27159786;stroke-miterlimit:4;stroke-dasharray:none;stroke-opacity:1"
       d="m 294.5018,482.72325 c -19.00871,-4.07981 -37.8729,-15.43676 -50.72431,-30.53795 -33.15592,-38.96019 -27.35217,-98.02275 12.78802,-130.13887 16.28996,-13.03357 35.09772,-19.58078 56.24857,-19.58078 h 11.9923 v -4.91844 c 0,-2.70515 0.67791,-8.80588 1.50647,-13.5572 6.36771,-36.51516 28.43882,-68.48396 60.11283,-87.07016 43.53093,-25.54379 97.77837,-22.58286 138.36987,7.55249 8.92336,6.62476 24.40792,22.75526 28.9303,30.13716 0.1109,0.18102 4.4477,-1.26076 9.63731,-3.20398 14.28129,-5.34751 25.07786,-7.05324 40.7504,-6.43806 27.60859,1.0837 50.88805,11.49908 69.74347,31.20369 18.45805,19.28932 27.3843,39.85711 28.46795,65.5956 l 0.53618,12.7351 8.20489,1.72607 c 10.39689,2.18719 24.49068,8.99596 32.71813,15.80624 26.00273,21.52382 34.15386,59.4832 19.40775,90.3809 -4.2438,8.89208 -13.53765,20.30553 -21.2639,26.11346 -11.90439,8.9487 -9.33006,9.47261 -28.29603,-5.75877 C 559.5244,339.00734 512.30453,301.6243 506.36447,298.68014 c -17.1696,-8.51 -37.00254,-8.75942 -50.858,-0.63957 -2.29948,1.34758 -6.39637,4.83986 -9.10418,7.76062 -6.21967,6.70878 -23.81972,27.64127 -25.01812,29.7551 -3.16514,5.58296 -2.26586,14.55459 2.02244,20.17685 1.38665,1.81799 36.93087,30.86578 78.98716,64.55062 42.05629,33.68486 77.13159,61.86713 77.94513,62.62727 2.22745,2.08128 -276.11707,1.89841 -285.8371,-0.18778 z"
       id="path1510"
       inkscape:connector-curvature="0"
       transform="matrix(0.26458333,0,0,0.26458333,0,43)" />
    <rect
       style="fill:#ffffff;fill-opacity:1;stroke:#0948ad;stroke-width:4;stroke-miterlimit:4;stroke-dasharray:none;stroke-opacity:1"
       id="rect1512"
       width="15.060228"
       height="2.8932321"
       x="95.358437"
       y="248.0666" />
    <circle
       style="fill:none;fill-opacity:1;stroke:#0948ad;stroke-width:3.67527056;stroke-miterlimit:4;stroke-dasharray:none;stroke-opacity:1"
       id="path1514"
       cx="120.54102"
       cy="249.56335"
       r="1.5558647" />
  </g>
</svg>
