<?xml version="1.0" encoding="UTF-8" standalone="no"?>
<!-- Created with Inkscape (http://www.inkscape.org/) -->

<svg
   xmlns:osb="http://www.openswatchbook.org/uri/2009/osb"
   xmlns:dc="http://purl.org/dc/elements/1.1/"
   xmlns:cc="http://creativecommons.org/ns#"
   xmlns:rdf="http://www.w3.org/1999/02/22-rdf-syntax-ns#"
   xmlns:svg="http://www.w3.org/2000/svg"
   xmlns="http://www.w3.org/2000/svg"
   xmlns:xlink="http://www.w3.org/1999/xlink"
   xmlns:sodipodi="http://sodipodi.sourceforge.net/DTD/sodipodi-0.dtd"
   xmlns:inkscape="http://www.inkscape.org/namespaces/inkscape"
   width="254mm"
   height="254mm"
   viewBox="0 0 254 254"
   version="1.1"
   id="svg8"
   inkscape:version="0.92.4 (5da689c313, 2019-01-14)"
   sodipodi:docname="usb-print-2.svg">
  <defs
     id="defs2">
    <linearGradient
       osb:paint="solid"
       id="linearGradient4880">
      <stop
         id="stop4878"
         offset="0"
         style="stop-color:#000000;stop-opacity:1;" />
    </linearGradient>
    <linearGradient
       osb:paint="gradient"
       id="linearGradient4850">
      <stop
         id="stop4846"
         offset="0"
         style="stop-color:#ff8080;stop-opacity:1;" />
      <stop
         id="stop4848"
         offset="1"
         style="stop-color:#ff8080;stop-opacity:0;" />
    </linearGradient>
    <linearGradient
       osb:paint="solid"
       id="linearGradient4822">
      <stop
         id="stop4820"
         offset="0"
         style="stop-color:#f600f4;stop-opacity:1;" />
    </linearGradient>
    <linearGradient
       gradientTransform="matrix(0.97834107,0,0,0.95750059,-22.667823,69.869577)"
       gradientUnits="userSpaceOnUse"
       y2="165.56056"
       x2="161.04517"
       y1="165.56056"
       x1="29.687277"
       id="linearGradient4882"
       xlink:href="#linearGradient4880"
       inkscape:collect="always" />
  </defs>
  <sodipodi:namedview
     id="base"
     pagecolor="#ffffff"
     bordercolor="#666666"
     borderopacity="1.0"
     inkscape:pageopacity="0.0"
     inkscape:pageshadow="2"
     inkscape:zoom="0.7"
     inkscape:cx="484.02457"
     inkscape:cy="441.07251"
     inkscape:document-units="mm"
     inkscape:current-layer="layer1"
     showgrid="true"
     inkscape:window-width="1920"
     inkscape:window-height="1001"
     inkscape:window-x="-9"
     inkscape:window-y="-9"
     inkscape:window-maximized="1"
     inkscape:pagecheckerboard="false">
    <inkscape:grid
       type="xygrid"
       id="grid1740"
       spacingx="3.3866667"
       spacingy="3.3866667" />
  </sodipodi:namedview>
  <metadata
     id="metadata5">
    <rdf:RDF>
      <cc:Work
         rdf:about="">
        <dc:format>image/svg+xml</dc:format>
        <dc:type
           rdf:resource="http://purl.org/dc/dcmitype/StillImage" />
        <dc:title></dc:title>
      </cc:Work>
    </rdf:RDF>
  </metadata>
  <g
     inkscape:label="Layer 1"
     inkscape:groupmode="layer"
     id="layer1"
     transform="translate(0,-43)">
    <rect
       style="fill:#c8c8c8;fill-opacity:1;stroke-width:0.37693506"
       id="rect12"
       width="247.70001"
       height="247.70001"
       x="3.0238037"
       y="46.351601"
       rx="58.458519" />
    <g
       transform="matrix(1.0950012,0,0,1.0950012,90.033411,-40.358729)"
       id="layer1-4"
       inkscape:label="Layer 1">
      <rect
         y="159.97035"
         x="-24.870836"
         height="0"
         width="0"
         id="rect4526"
         style="opacity:1;fill:#800000;fill-opacity:1;stroke-width:0.26458332" />
      <path
         inkscape:connector-curvature="0"
         id="rect4844"
         d="m 19.25979,196.72609 c -6.713873,0 -12.1186392,5.40528 -12.1186392,12.11915 v 39.09788 c 0,6.71387 5.4047662,12.11915 12.1186392,12.11915 h 3.027723 V 234.6447 c 0,-0.90922 0.732014,-1.64124 1.641242,-1.64124 h 93.364705 c 0.90922,0 1.64124,0.73202 1.64124,1.64124 v 25.41757 h 3.07113 c 6.71387,0 12.11864,-5.40528 12.11864,-12.11915 v -39.09788 c 0,-6.71387 -5.40477,-12.11915 -12.11864,-12.11915 z"
         style="opacity:1;fill:#fffffa;fill-opacity:1;stroke:url(#linearGradient4882);stroke-width:2.67400002;stroke-miterlimit:4;stroke-dasharray:none" />
      <rect
         rx="1.2467479"
         y="168.9119"
         x="33.701309"
         height="44.888626"
         width="73.418839"
         id="rect4894-0"
         style="opacity:1;fill:#fffffa;fill-opacity:1;stroke:#000005;stroke-width:2.69099998;stroke-miterlimit:4;stroke-dasharray:none;stroke-opacity:1" />
      <rect
         ry="0.033412721"
         rx="0"
         y="236.77365"
         x="26.053528"
         height="23.581758"
         width="88.970932"
         id="rect4922"
         style="opacity:1;fill:#fffffa;fill-opacity:1;stroke:#000100;stroke-width:2.01002121;stroke-miterlimit:4;stroke-dasharray:none;stroke-opacity:1" />
      <rect
         rx="1.246748"
         y="246.91055"
         x="33.43404"
         height="44.888626"
         width="73.418839"
         id="rect4894-0-4"
         style="opacity:1;fill:#fffffa;fill-opacity:1;stroke:#000001;stroke-width:2.69099998;stroke-miterlimit:4;stroke-dasharray:none;stroke-opacity:1" />
      <rect
         rx="1.1032919"
         y="281.85336"
         x="43.466446"
         height="0.31347683"
         width="53.807476"
         id="rect4941"
         style="opacity:1;fill:#fffffa;fill-opacity:1;stroke:#000100;stroke-width:1.26752317;stroke-miterlimit:4;stroke-dasharray:none;stroke-opacity:1" />
      <rect
         rx="1.1032919"
         y="272.67108"
         x="43.607704"
         height="0.31347683"
         width="53.807476"
         id="rect4941-2"
         style="opacity:1;fill:#fffffa;fill-opacity:1;stroke:#000100;stroke-width:1.26752317;stroke-miterlimit:4;stroke-dasharray:none;stroke-opacity:1" />
      <rect
         rx="0.66889346"
         y="255.68027"
         x="43.550484"
         height="0.42791069"
         width="32.621918"
         id="rect4941-0"
         style="opacity:1;fill:#fffffa;fill-opacity:1;stroke:#000100;stroke-width:1.15308928;stroke-miterlimit:4;stroke-dasharray:none;stroke-opacity:1" />
      <rect
         rx="0.66889346"
         y="263.78149"
         x="43.429604"
         height="0.42791069"
         width="32.621918"
         id="rect4941-0-6"
         style="opacity:1;fill:#fffffa;fill-opacity:1;stroke:#000100;stroke-width:1.15308928;stroke-miterlimit:4;stroke-dasharray:none;stroke-opacity:1" />
      <circle
         r="0.99903888"
         cy="208.63937"
         cx="115.74228"
         id="path4987"
         style="opacity:1;fill:#000000;fill-opacity:1;stroke:#000005;stroke-width:3.00192213;stroke-miterlimit:4;stroke-dasharray:none;stroke-opacity:1" />
      <circle
         r="0.99903893"
         cy="208.64725"
         cx="124.84573"
         id="path4987-3"
         style="opacity:1;fill:#000000;fill-opacity:1;stroke:#000005;stroke-width:3.00192213;stroke-miterlimit:4;stroke-dasharray:none;stroke-opacity:1" />
    </g>
    <path
       id="path1334"
       d="M 74.86851,62.131632 64.267295,80.488952 H 71.82969 V 174.3183 L 52.527668,156.04867 c -1.246274,-1.55483 -2.120533,-3.58915 -2.168968,-5.68181 0,-8.46563 -0.0028,-13.49291 -0.0055,-15.34343 3.573733,-1.25434 6.153237,-4.62372 6.153237,-8.62926 0,-5.06728 -4.111934,-9.17957 -9.181047,-9.17957 -5.071316,0 -9.181781,4.11192 -9.181781,9.17957 0,4.00554 2.578034,7.37492 6.148828,8.62926 l -0.0028,15.16367 c 0,4.10974 2.254813,8.41612 4.898142,11.15703 -0.07848,-0.0749 -0.162164,-0.15261 0.0014,0.005 0.06531,0.0579 20.476747,19.38347 20.476747,19.38347 1.244445,1.55151 2.113199,3.58473 2.163104,5.67592 v 10.61439 c -7.012119,1.40695 -12.295116,7.59907 -12.295116,15.02682 0,8.46857 6.864595,15.33317 15.330593,15.33317 8.468579,0 15.333528,-6.8646 15.333528,-15.33317 0,-7.42922 -5.28739,-13.62132 -12.305344,-15.02829 v -10.42841 c 0,-0.0267 0.0014,-0.0536 0,-0.0807 v -23.06578 c 0.05324,-2.08717 0.923069,-4.11783 2.168969,-5.66786 0,0 20.40998,-19.32111 20.47603,-19.3809 0.16398,-0.15482 0.0785,-0.0778 0.001,-10e-4 2.64295,-2.74094 4.89629,-7.04914 4.89629,-11.15961 l -0.002,-14.61335 h 6.15504 V 94.261561 H 93.226605 v 18.362069 h 6.147 c 0,0 -0.007,3.84888 -0.007,14.79239 -0.0481,2.09303 -0.92122,4.12956 -2.16749,5.68364 L 77.893334,151.37333 V 80.4898 h 7.57449 z"
       inkscape:connector-curvature="0"
       style="stroke-width:0.36687481" />
  </g>
</svg>
