<?xml version="1.0" encoding="UTF-8" standalone="no"?>
<!-- Created with Inkscape (http://www.inkscape.org/) -->

<svg
   xmlns:dc="http://purl.org/dc/elements/1.1/"
   xmlns:cc="http://creativecommons.org/ns#"
   xmlns:rdf="http://www.w3.org/1999/02/22-rdf-syntax-ns#"
   xmlns:svg="http://www.w3.org/2000/svg"
   xmlns="http://www.w3.org/2000/svg"
   xmlns:sodipodi="http://sodipodi.sourceforge.net/DTD/sodipodi-0.dtd"
   xmlns:inkscape="http://www.inkscape.org/namespaces/inkscape"
   width="254mm"
   height="254mm"
   viewBox="0 0 254 254"
   version="1.1"
   id="svg8"
   inkscape:version="0.92.4 (5da689c313, 2019-01-14)"
   sodipodi:docname="usb-scan-4.svg">
  <defs
     id="defs2" />
  <sodipodi:namedview
     id="base"
     pagecolor="#ffffff"
     bordercolor="#666666"
     borderopacity="1.0"
     inkscape:pageopacity="0.0"
     inkscape:pageshadow="2"
     inkscape:zoom="0.7"
     inkscape:cx="355.4455"
     inkscape:cy="530.70252"
     inkscape:document-units="mm"
     inkscape:current-layer="layer1"
     showgrid="false"
     inkscape:window-width="1920"
     inkscape:window-height="1001"
     inkscape:window-x="-9"
     inkscape:window-y="-9"
     inkscape:window-maximized="1" />
  <metadata
     id="metadata5">
    <rdf:RDF>
      <cc:Work
         rdf:about="">
        <dc:format>image/svg+xml</dc:format>
        <dc:type
           rdf:resource="http://purl.org/dc/dcmitype/StillImage" />
        <dc:title></dc:title>
      </cc:Work>
    </rdf:RDF>
  </metadata>
  <g
     inkscape:label="Layer 1"
     inkscape:groupmode="layer"
     id="layer1"
     transform="translate(0,-43)">
    <path
       style="fill:#441650;fill-opacity:1;stroke-width:1.42463648"
       d="M 232.375 12.667969 C 109.97115 12.667969 11.427734 111.20943 11.427734 233.61328 L 11.427734 727.91016 C 11.427734 850.31396 109.97115 948.85742 232.375 948.85742 L 726.67188 948.85742 C 849.07568 948.85742 947.61719 850.31396 947.61719 727.91016 L 947.61719 233.61328 C 947.61719 111.20943 849.07568 12.667969 726.67188 12.667969 L 232.375 12.667969 z M 315.9668 73.359375 L 350.41016 133.31641 L 325.70312 133.26172 L 325.20508 364.46289 L 388.30273 304.99609 C 392.37861 299.93591 395.24247 293.29913 395.41406 286.47266 C 395.49116 250.77819 395.53906 238.22461 395.53906 238.22461 L 375.49023 238.17969 L 375.61914 178.28711 L 435.50586 178.41602 L 435.37695 238.30859 L 415.30078 238.26172 L 415.20703 285.92773 C 415.17812 299.33481 407.79805 313.36952 399.1582 322.29102 C 399.15468 322.29433 399.15789 322.29154 399.1543 322.29492 C 398.93845 322.48949 332.23242 385.36719 332.23242 385.36719 C 328.15777 390.41418 325.30556 397.03062 325.11719 403.83789 L 324.95508 479.07227 C 324.95942 479.16108 324.95527 479.24863 324.95508 479.33594 L 324.88086 513.34961 C 347.7614 517.98803 364.96434 538.22121 364.91211 562.45312 C 364.85255 590.07512 342.41299 612.41714 314.79102 612.35742 C 287.17746 612.29786 264.83497 589.86024 264.89453 562.23828 C 264.94677 538.01121 282.22218 517.85236 305.10352 513.3125 L 305.17773 478.69141 C 305.02972 471.87019 302.21016 465.23148 298.16211 460.16211 C 298.16211 460.16211 231.72236 396.98428 231.50977 396.79492 C 230.97741 396.28087 231.2504 396.53476 231.50586 396.7793 C 222.90338 387.82061 215.57832 373.76021 215.60742 360.35547 L 215.72266 310.89453 C 204.08461 306.7781 195.70055 295.76996 195.72852 282.70508 C 195.76416 266.17596 209.19916 252.79228 225.74023 252.83008 C 242.27417 252.86576 255.65895 266.30803 255.62305 282.83594 C 255.59488 295.90082 247.15741 306.87133 235.49219 310.9375 C 235.48818 316.97337 235.46187 333.37202 235.40234 360.98438 C 235.54556 367.81035 238.3815 374.45115 242.43555 379.53125 L 305.26562 439.25781 L 305.92578 133.21289 L 281.25977 133.16016 L 315.9668 73.359375 z M 501.76562 359.9082 C 510.35138 359.853 519.63167 362.84076 527.86328 368.96875 L 852.0625 610.26367 C 868.26488 622.32252 874.56713 642.19489 867.45508 656.64648 C 867.22294 657.37431 866.89968 658.07312 866.45312 658.71484 L 848.27344 684.74609 C 845.41388 688.84046 839.13682 689.18537 834.20703 685.50781 L 464.55469 410.38672 C 459.62104 406.71476 457.95088 400.462 460.81055 396.36719 L 472.41992 379.74414 C 472.93636 378.76275 473.51526 377.80608 474.16016 376.88281 L 477.78906 371.6875 C 483.19649 363.94393 492.03515 359.97077 501.76562 359.9082 z M 483.83203 367.87305 L 482.7168 369.80273 L 864.42383 654.66406 L 865.53906 652.73438 L 483.83203 367.87305 z M 510.24219 625.83789 C 512.07472 625.83789 513.54883 627.79213 513.54883 630.21875 L 513.54883 666.23047 C 513.54883 668.65709 512.07472 670.61133 510.24219 670.61133 C 508.40966 670.61133 506.93359 668.65709 506.93359 666.23047 L 506.93359 630.21875 C 506.93359 627.79213 508.40966 625.83789 510.24219 625.83789 z M 481.89062 643.58008 C 482.66879 643.61462 483.43209 643.96956 484 644.63477 L 500.85547 664.37891 C 501.9913 665.70932 501.89963 667.76569 500.65039 668.99023 L 500.14258 669.48828 C 498.89334 670.71282 496.97372 670.62727 495.83789 669.29688 L 478.98242 649.55273 C 477.84659 648.22232 477.93826 646.16595 479.1875 644.94141 L 479.69531 644.44336 C 480.31993 643.83109 481.11247 643.54554 481.89062 643.58008 z M 538.05469 643.93359 C 538.82615 643.89935 539.61123 644.18206 540.23047 644.78906 L 540.73438 645.2832 C 541.97283 646.4972 542.06355 648.53651 540.9375 649.85547 L 524.22656 669.42773 C 523.10051 670.74669 521.19552 670.83119 519.95703 669.61719 L 519.45312 669.125 C 518.21467 667.911 518.1259 665.87169 519.25195 664.55273 L 535.96289 644.97852 C 536.52592 644.31904 537.28323 643.96784 538.05469 643.93359 z M 375.35352 690.03711 L 824.29102 690.03711 C 836.8296 690.03711 846.92188 702.15583 846.92188 717.21094 L 846.92188 815.36719 C 846.92187 830.42233 836.8296 842.54297 824.29102 842.54297 L 324.38477 842.54297 C 311.84616 842.54297 301.75 830.42233 301.75 815.36719 L 301.75 776.07227 A 204.11961 132.34678 0 0 0 375.35352 690.03711 z "
       transform="matrix(0.26458333,0,0,0.26458333,0,43)"
       id="rect12" />
    <rect
       style="fill:#441650;fill-opacity:1;stroke:none;stroke-width:4.60779858;stroke-miterlimit:4;stroke-dasharray:none;stroke-opacity:1"
       id="rect981"
       width="19.096481"
       height="5.8374052"
       x="123.0842"
       y="239.94183" />
    <ellipse
       style="fill:#441650;fill-opacity:1;stroke:none;stroke-width:4.59162378;stroke-miterlimit:4;stroke-dasharray:none;stroke-opacity:1"
       id="path983"
       cx="117.23"
       cy="242.68304"
       rx="2.9340577"
       ry="3.1439004" />
    <path
       style="fill:none;fill-opacity:1;stroke:#441650;stroke-width:3.57867455;stroke-miterlimit:4;stroke-dasharray:none;stroke-opacity:1"
       d="m 99.312284,225.57232 a 54.006647,35.016752 0 0 1 -19.47404,22.76342 v 10.39661 c 0,3.98334 2.6709,7.1903 5.98841,7.1903 H 218.09358 c 3.31749,0 5.98797,-3.20696 5.98797,-7.1903 v -25.97024 c 0,-3.98333 -2.67048,-7.18979 -5.98797,-7.18979 z"
       id="rect9111-1"
       inkscape:connector-curvature="0" />
    <path
       id="rect823-7"
       style="fill:none;fill-opacity:1;stroke:#441650;stroke-width:3.38179207;stroke-miterlimit:4;stroke-dasharray:none;stroke-opacity:1"
       d="m 128.01387,140.33307 100.99319,75.36941 -0.29515,0.51048 -100.99319,-75.36942 z m 11.65001,0.2901 c -4.64629,-3.45891 -10.55563,-3.13774 -13.24874,0.71886 l -0.9601,1.37487 c -0.17063,0.24428 -0.32406,0.49711 -0.4607,0.75677 l -3.0715,4.39834 c -0.75662,1.08342 -0.31479,2.73782 0.99057,3.70936 l 97.80374,72.79274 c 1.30434,0.97302 2.96527,0.88138 3.72186,-0.20192 l 4.80984,-6.88737 c 0.11814,-0.16979 0.20395,-0.35444 0.26537,-0.54701 1.88173,-3.82365 0.2143,-9.08188 -4.07258,-12.27245 z"
       inkscape:connector-curvature="0" />
    <rect
       style="fill:#000000;fill-opacity:1;stroke:none;stroke-width:4.5996685;stroke-miterlimit:4;stroke-dasharray:none;stroke-opacity:1"
       id="rect932-2"
       width="1.7503849"
       height="11.846016"
       x="391.23795"
       y="152.18117"
       ry="1.1589231" />
    <rect
       style="fill:#000000;fill-opacity:1;stroke:none;stroke-width:3.99008989;stroke-miterlimit:4;stroke-dasharray:none;stroke-opacity:1"
       id="rect932-6-2"
       width="1.8430403"
       height="8.4660997"
       x="406.44989"
       y="-168.17767"
       ry="0.82825786"
       transform="matrix(0.71413063,0.70001246,-0.64930012,0.76053228,0,0)" />
    <rect
       style="fill:#000000;fill-opacity:1;stroke:none;stroke-width:4.0247364;stroke-miterlimit:4;stroke-dasharray:none;stroke-opacity:1"
       id="rect932-6-7-7"
       width="1.8590443"
       height="8.5396128"
       x="-191.34595"
       y="381.9212"
       ry="0.83544981"
       transform="matrix(-0.71413063,0.70001246,0.64930012,0.76053228,0,0)" />
    <rect
       style="fill:#000000;fill-opacity:1;stroke:none;stroke-width:4.60779858;stroke-miterlimit:4;stroke-dasharray:none;stroke-opacity:1"
       id="rect981-6"
       width="19.096481"
       height="5.8374052"
       x="380.19583"
       y="183.53662" />
    <ellipse
       style="fill:#000000;fill-opacity:1;stroke:none;stroke-width:4.59162378;stroke-miterlimit:4;stroke-dasharray:none;stroke-opacity:1"
       id="path983-0"
       cx="374.34164"
       cy="186.27783"
       rx="2.9340577"
       ry="3.1439006" />
  </g>
</svg>
