<?xml version="1.0" encoding="UTF-8" standalone="no"?>
<!-- Created with Inkscape (http://www.inkscape.org/) -->

<svg
   xmlns:dc="http://purl.org/dc/elements/1.1/"
   xmlns:cc="http://creativecommons.org/ns#"
   xmlns:rdf="http://www.w3.org/1999/02/22-rdf-syntax-ns#"
   xmlns:svg="http://www.w3.org/2000/svg"
   xmlns="http://www.w3.org/2000/svg"
   xmlns:sodipodi="http://sodipodi.sourceforge.net/DTD/sodipodi-0.dtd"
   xmlns:inkscape="http://www.inkscape.org/namespaces/inkscape"
   width="254mm"
   height="254mm"
   viewBox="0 0 254 254"
   version="1.1"
   id="svg8"
   inkscape:version="0.92.4 (5da689c313, 2019-01-14)"
   sodipodi:docname="usb-scan-6.svg">
  <defs
     id="defs2" />
  <sodipodi:namedview
     id="base"
     pagecolor="#ffffff"
     bordercolor="#666666"
     borderopacity="1.0"
     inkscape:pageopacity="0.0"
     inkscape:pageshadow="2"
     inkscape:zoom="0.49497475"
     inkscape:cx="156.80693"
     inkscape:cy="395.42341"
     inkscape:document-units="mm"
     inkscape:current-layer="layer1"
     showgrid="true"
     inkscape:window-width="1920"
     inkscape:window-height="1001"
     inkscape:window-x="-9"
     inkscape:window-y="-9"
     inkscape:window-maximized="1">
    <inkscape:grid
       type="xygrid"
       id="grid7164"
       spacingx="1.8520833"
       spacingy="1.8520833" />
  </sodipodi:namedview>
  <metadata
     id="metadata5">
    <rdf:RDF>
      <cc:Work
         rdf:about="">
        <dc:format>image/svg+xml</dc:format>
        <dc:type
           rdf:resource="http://purl.org/dc/dcmitype/StillImage" />
        <dc:title></dc:title>
      </cc:Work>
    </rdf:RDF>
  </metadata>
  <g
     inkscape:label="Layer 1"
     inkscape:groupmode="layer"
     id="layer1"
     transform="translate(0,-43)">
    <path
       style="fill:#441650;fill-opacity:1;stroke-width:1.42463648"
       d="m 232.375,12.667969 c -122.40385,0 -220.947266,98.541461 -220.947266,220.945311 v 494.29688 c 0,122.4038 98.543416,220.94726 220.947266,220.94726 h 494.29688 c 122.4038,0 220.94531,-98.54346 220.94531,-220.94726 V 233.61328 c 0,-122.40385 -98.54151,-220.945311 -220.94531,-220.945311 z m 12.41992,106.705081 32.92578,57.3164 -23.61718,-0.0508 -0.47657,221.02735 60.32032,-56.85157 c 3.8965,-4.8376 6.63295,-11.18114 6.79687,-17.70703 0.0738,-34.1238 0.12109,-46.125 0.12109,-46.125 l -19.16796,-0.043 0.125,-57.25586 57.25,0.12305 -0.12305,57.25586 -19.19141,-0.041 -0.0898,45.56641 c -0.0276,12.80958 -7.0766,26.22048 -15.33008,34.75 0.44936,-0.423 0.22,-0.2146 -0.0137,0.0156 -0.003,0.003 -5.5e-4,-8.6e-4 -0.004,0.002 -0.20634,0.18588 -63.97656,60.29492 -63.97656,60.29492 -3.89531,4.82498 -6.62268,11.15242 -6.80273,17.66016 l -0.1543,71.92187 c 0.003,0.0839 1.7e-4,0.16685 0,0.25 L 253.31641,540 c 21.8736,4.43403 38.31923,23.7778 38.26953,46.94336 -0.057,26.40639 -21.50962,47.76643 -47.91602,47.70898 -26.39827,-0.0568 -47.75809,-21.50771 -47.70117,-47.91406 0.05,-23.16075 16.56508,-42.43318 38.43945,-46.77344 l 0.0723,-33.09765 c -0.14151,-6.52082 -2.83711,-12.86671 -6.70703,-17.71289 0,0 -63.5156,-60.39558 -63.71875,-60.57813 -0.5082,-0.49205 -0.24777,-0.2493 -0.004,-0.0156 -8.22389,-8.56426 -15.22681,-22.00755 -15.19922,-34.82227 l 0.11133,-47.2832 c -11.12586,-3.93513 -19.13904,-14.45725 -19.11523,-26.94727 0.0341,-15.80171 12.87829,-28.60029 28.6914,-28.5625 15.80632,0.0341 28.5974,12.8852 28.56641,28.68555 -0.0269,12.48998 -8.0923,22.97829 -19.24414,26.86523 -0.004,5.77055 -0.0293,21.44659 -0.0859,47.84375 0.13691,6.52566 2.84897,12.87573 6.72461,17.73243 l 60.06445,57.0957 0.63086,-292.57422 -23.58008,-0.0508 z m 210.36524,251.53711 c 8.82169,-0.0528 18.34896,2.80711 26.78515,8.66211 L 814.82617,610.7832 c 16.65419,11.55047 23.10103,30.62141 15.78125,44.45508 -0.20145,0.73871 -0.5358,1.4112 -1.00586,2.01563 l -18.66992,24.91406 c -2.9548,3.96208 -9.40094,4.29742 -14.4375,0.73828 L 416.94141,419.25977 c -5.03653,-3.49202 -6.78293,-9.46758 -3.82813,-13.42969 l 11.88477,-15.91602 c 0.53726,-0.94015 1.1429,-1.88087 1.81445,-2.7539 l 3.69336,-4.96875 c 5.56536,-7.4205 14.65638,-11.22147 24.6543,-11.28125 z m -18.41016,7.65429 -1.14062,1.8125 391.91015,272.98243 1.14063,-1.88086 z m 68.63281,228.79297 c 2.68619,0 4.83399,2.61887 4.83399,5.97656 V 662.625 c 0,3.35769 -2.1478,6.04492 -4.83399,6.04492 -2.68615,0 -4.83594,-2.68723 -4.83593,-6.04492 v -49.29102 c 0,-3.35769 2.14978,-5.97656 4.83593,-5.97656 z m -41.58593,24.27735 c 1.14161,0.0504 2.26603,0.5368 3.10546,1.44335 l 24.71289,26.9961 c 1.67876,1.88028 1.54554,4.63367 -0.26757,6.3125 l -0.80664,0.73828 c -1.81316,1.67871 -4.63439,1.54362 -6.2461,-0.26953 l -24.7793,-27.0625 c -1.67875,-1.81315 -1.54358,-4.63367 0.26954,-6.3125 l 0.80468,-0.67188 c 0.90658,-0.83937 2.06542,-1.22421 3.20704,-1.17382 z m 82.39843,0.46875 c 1.12482,-0.0504 2.26532,0.3364 3.17188,1.17578 l 0.80664,0.67187 c 1.81311,1.67887 1.88112,4.43103 0.26953,6.24414 l -24.51172,26.79492 c -1.67879,1.81312 -4.4329,1.9478 -6.24609,0.33594 l -0.80469,-0.73828 c -1.81319,-1.67883 -1.94828,-4.43298 -0.26953,-6.24609 l 24.51172,-26.79297 c 0.83943,-0.9066 1.94745,-1.39494 3.07226,-1.44531 z m -220.85156,55.16796 h 460.94336 c 12.89352,0 23.23437,11.61735 23.23437,25.98829 v 94.08203 c 0,14.43809 -10.34085,26.05664 -23.23437,26.05664 H 273.0293 c -12.89349,0 -23.23438,-11.61855 -23.23438,-26.05664 V 769.66797 C 291.5644,749.1189 318.6284,719.5725 325.34375,687.27148 Z"
       transform="matrix(0.26458333,0,0,0.26458333,0,43)"
       id="rect12"
       inkscape:connector-curvature="0" />
    <path
       id="path7213"
       d="m 105.74918,244.15408 c 0,1.59911 -1.29705,2.89614 -2.89615,2.89614 -1.58134,0 -2.878387,-1.29703 -2.878387,-2.89614 0,-1.58133 1.297047,-2.87839 2.878387,-2.87839 1.5991,0 2.89615,1.29706 2.89615,2.87839 z"
       style="fill:#441650;fill-opacity:1;fill-rule:nonzero;stroke:none;stroke-width:0.22209907"
       inkscape:connector-curvature="0" />
    <path
       id="path7215"
       d="m 113.97567,244.15408 c 0,1.59911 -1.27929,2.89614 -2.87839,2.89614 -1.58133,0 -2.87838,-1.29703 -2.87838,-2.89614 0,-1.58133 1.29705,-2.87839 2.87838,-2.87839 1.5991,0 2.87839,1.29706 2.87839,2.87839 z"
       style="fill:#441650;fill-opacity:1;fill-rule:nonzero;stroke:none;stroke-width:0.22209907"
       inkscape:connector-curvature="0" />
    <path
       id="path7217"
       d="m 116.7119,242.07524 h 14.21424 v 4.1399 H 116.7119 Z"
       style="fill:#441650;fill-opacity:1;fill-rule:nonzero;stroke:none;stroke-width:0.22209907"
       inkscape:connector-curvature="0" />
    <path
       id="path7203-2"
       d="m 86.977665,226.10021 c -1.77677,8.54631 -8.93715,16.36414 -19.98865,21.80109 v 9.96773 c 0,3.82008 2.73622,6.89392 6.14762,6.89392 H 208.93575 c 3.41141,0 6.14765,-3.07384 6.14765,-6.89392 v -24.89268 c 0,-3.80231 -2.73624,-6.87614 -6.14765,-6.87614 z"
       style="fill:none;stroke:#441650;stroke-width:3.55355906px;stroke-linecap:butt;stroke-linejoin:miter;stroke-miterlimit:4;stroke-dasharray:none;stroke-opacity:1"
       inkscape:connector-curvature="0" />
    <path
       id="path7205-4"
       d="m 116.45437,144.42167 103.69286,72.20831 -0.30206,0.4975 -103.69285,-72.22609 z m 11.95772,0.26652 c -4.76176,-3.30482 -10.83835,-3.00276 -13.61012,0.69294 l -0.97723,1.31481 c -0.17768,0.23099 -0.33759,0.47974 -0.47974,0.72849 l -3.14489,4.21096 c -0.78179,1.04831 -0.31982,2.62964 1.01276,3.55357 l 100.42358,69.75636 c 1.33259,0.94168 3.03829,0.85285 3.82008,-0.19546 l 4.93944,-6.59183 c 0.12437,-0.15993 0.21322,-0.33761 0.26652,-0.53306 1.93669,-3.66016 0.23098,-8.70622 -4.17544,-11.76228 z"
       style="fill:none;stroke:#441650;stroke-width:3.35811353px;stroke-linecap:butt;stroke-linejoin:miter;stroke-miterlimit:4;stroke-dasharray:none;stroke-opacity:1"
       inkscape:connector-curvature="0" />
  </g>
</svg>
