<?xml version="1.0" encoding="UTF-8" standalone="no"?>
<!-- Created with Inkscape (http://www.inkscape.org/) -->

<svg
   xmlns:dc="http://purl.org/dc/elements/1.1/"
   xmlns:cc="http://creativecommons.org/ns#"
   xmlns:rdf="http://www.w3.org/1999/02/22-rdf-syntax-ns#"
   xmlns:svg="http://www.w3.org/2000/svg"
   xmlns="http://www.w3.org/2000/svg"
   xmlns:xlink="http://www.w3.org/1999/xlink"
   xmlns:sodipodi="http://sodipodi.sourceforge.net/DTD/sodipodi-0.dtd"
   xmlns:inkscape="http://www.inkscape.org/namespaces/inkscape"
   width="254mm"
   height="254mm"
   viewBox="0 0 254 254"
   version="1.1"
   id="svg8"
   inkscape:version="0.92.4 (5da689c313, 2019-01-14)"
   sodipodi:docname="radial-gradient-print-google-items-2.svg">
  <defs
     id="defs2">
    <linearGradient
       inkscape:collect="always"
       id="linearGradient833-1">
      <stop
         style="stop-color:#e6aba2;stop-opacity:1"
         offset="0"
         id="stop829" />
      <stop
         style="stop-color:#c54637;stop-opacity:0.17"
         offset="1"
         id="stop831" />
    </linearGradient>
    <radialGradient
       inkscape:collect="always"
       xlink:href="#linearGradient833-1"
       id="radialGradient832"
       cx="192.31329"
       cy="87.230492"
       fx="192.31329"
       fy="87.230492"
       r="123.85001"
       gradientTransform="matrix(4.0604316,0.08186741,-0.06811813,3.2887523,-547.56585,-228.40237)"
       gradientUnits="userSpaceOnUse" />
  </defs>
  <sodipodi:namedview
     id="base"
     pagecolor="#ffffff"
     bordercolor="#666666"
     borderopacity="1.0"
     inkscape:pageopacity="0.0"
     inkscape:pageshadow="2"
     inkscape:zoom="0.7"
     inkscape:cx="171.9995"
     inkscape:cy="458.99878"
     inkscape:document-units="mm"
     inkscape:current-layer="layer1"
     showgrid="true"
     inkscape:window-width="1920"
     inkscape:window-height="1001"
     inkscape:window-x="-9"
     inkscape:window-y="-9"
     inkscape:window-maximized="1"
     inkscape:pagecheckerboard="false"
     showguides="false">
    <inkscape:grid
       type="xygrid"
       id="grid918"
       spacingx="1.8520833"
       spacingy="1.8520833" />
  </sodipodi:namedview>
  <metadata
     id="metadata5">
    <rdf:RDF>
      <cc:Work
         rdf:about="">
        <dc:format>image/svg+xml</dc:format>
        <dc:type
           rdf:resource="http://purl.org/dc/dcmitype/StillImage" />
        <dc:title></dc:title>
      </cc:Work>
    </rdf:RDF>
  </metadata>
  <g
     inkscape:label="Layer 1"
     inkscape:groupmode="layer"
     id="layer1"
     transform="translate(0,-43)">
    <rect
       style="fill:#c54637;fill-opacity:0.995;stroke-width:0.37693506"
       id="rect12"
       width="247.70001"
       height="247.70001"
       x="3.0238037"
       y="46.351601"
       rx="58.458519" />
    <rect
       style="fill:url(#radialGradient832);fill-opacity:1;stroke-width:0.37693506"
       id="rect12-1"
       width="247.70001"
       height="247.7"
       x="3.0238035"
       y="46.351601"
       rx="58.458519" />
    <rect
       style="fill:#2a71e9;fill-opacity:1;stroke:none;stroke-width:8.77228165;stroke-miterlimit:4;stroke-dasharray:none;stroke-opacity:1"
       id="rect3636-4"
       width="81.343544"
       height="43.638012"
       x="153.07733"
       y="162.42436"
       transform="matrix(1,0,-0.50169426,0.86504501,0,0)" />
    <rect
       style="fill:#fccd48;fill-opacity:1;stroke:none;stroke-width:8.75040054;stroke-miterlimit:4;stroke-dasharray:none;stroke-opacity:1"
       id="rect3636-0"
       width="81.113701"
       height="43.543602"
       x="81.706383"
       y="-70.636108"
       transform="matrix(0.50545116,0.86285522,-0.99999998,-2.0064315e-4,0,0)" />
    <rect
       style="fill:#0ba25e;fill-opacity:1;stroke:none;stroke-width:8.74994564;stroke-miterlimit:4;stroke-dasharray:none;stroke-opacity:1"
       id="rect3636-03"
       width="81.203079"
       height="43.491116"
       x="-54.741516"
       y="108.45927"
       transform="matrix(0.50172572,-0.86502676,0.50781291,0.86146738,0,0)"
       inkscape:transform-center-x="32.100012"
       inkscape:transform-center-y="-22.096533" />
    <path
       sodipodi:type="star"
       style="fill:#296ad9;fill-opacity:1;stroke:none;stroke-width:4;stroke-miterlimit:4;stroke-dasharray:none;stroke-opacity:1"
       id="path13171"
       sodipodi:sides="4"
       sodipodi:cx="-64.346664"
       sodipodi:cy="213.36"
       sodipodi:r1="59.916248"
       sodipodi:r2="12.210801"
       sodipodi:arg1="-0.8253769"
       sodipodi:arg2="-0.039978737"
       inkscape:flatsided="true"
       inkscape:rounded="0"
       inkscape:randomized="-1.331"
       d="m 8.103873,219.65244 -52.54859,29.73751 -12.766174,-1.84468 -118.337489,-18.59875 z"
       inkscape:transform-center-x="4.1483404"
       inkscape:transform-center-y="9.3400229"
       transform="matrix(-0.19144063,0.15507988,0.39270771,-0.9930857,-35.010623,395.08876)" />
    <path
       sodipodi:type="star"
       style="fill:#089156;fill-opacity:1;stroke:none;stroke-width:4;stroke-miterlimit:4;stroke-dasharray:none;stroke-opacity:1"
       id="path13171-3"
       sodipodi:sides="4"
       sodipodi:cx="-64.346664"
       sodipodi:cy="213.36"
       sodipodi:r1="59.916248"
       sodipodi:r2="12.210801"
       sodipodi:arg1="-0.8253769"
       sodipodi:arg2="-0.039978737"
       inkscape:flatsided="true"
       inkscape:rounded="0"
       inkscape:randomized="-1.331"
       d="m 8.103873,219.65244 -52.54859,29.73751 -12.766174,-1.84468 -118.337489,-18.59875 z"
       inkscape:transform-center-x="1.9048606"
       inkscape:transform-center-y="-8.2557043"
       transform="matrix(-0.04003897,-0.24309703,0.66868075,0.83264916,-78.10689,-110.39176)" />
    <path
       sodipodi:type="star"
       style="fill:#e3b73a;fill-opacity:1;stroke:none;stroke-width:4;stroke-miterlimit:4;stroke-dasharray:none;stroke-opacity:1"
       id="path13171-2"
       sodipodi:sides="4"
       sodipodi:cx="-64.346664"
       sodipodi:cy="213.36"
       sodipodi:r1="59.916248"
       sodipodi:r2="12.210801"
       sodipodi:arg1="-0.8253769"
       sodipodi:arg2="-0.039978737"
       inkscape:flatsided="true"
       inkscape:rounded="0"
       inkscape:randomized="-1.331"
       d="m 8.103873,219.65244 -52.54859,29.73751 -12.766174,-1.84468 -118.337489,-18.59875 z"
       inkscape:transform-center-x="-10.266759"
       inkscape:transform-center-y="-1.120775"
       transform="matrix(0.2311753,0.08980536,-1.0618617,0.15856263,384.28839,104.93933)" />
    <path
       style="opacity:1;fill:#ffffff;fill-opacity:1;stroke:none;stroke-width:2.57804942;stroke-miterlimit:4;stroke-dasharray:none;stroke-opacity:1"
       d="m 132.66348,225.93299 v 43.5203 h 63.54192 v -43.5203 z m 8.45089,6.26098 h 33.96088 c 0.40224,0 0.72586,0.56099 0.72586,1.25733 0,0.69624 -0.32362,1.25595 -0.72586,1.25595 h -33.96088 c -0.40221,0 -0.72565,-0.55971 -0.72565,-1.25595 0,-0.69634 0.32344,-1.25733 0.72565,-1.25733 z m 0.12575,9.00018 h 33.96031 c 0.40222,0 0.72587,0.56033 0.72587,1.25679 0,0.69628 -0.32365,1.25639 -0.72587,1.25639 h -33.96031 c -0.40225,0 -0.72578,-0.56011 -0.72578,-1.25639 0,-0.69646 0.32353,-1.25679 0.72578,-1.25679 z m 0.23004,9.01818 h 45.68345 c 0.5412,0 0.9763,0.5611 0.9763,1.25715 0,0.69626 -0.4351,1.25632 -0.9763,1.25632 h -45.68345 c -0.5409,0 -0.9768,-0.56006 -0.9768,-1.25632 0,-0.69605 0.4359,-1.25715 0.9768,-1.25715 z m -0.002,9.0607 h 4.6e-4 45.68288 c 0.54118,0 0.97677,0.5612 0.97677,1.25713 0,0.69633 -0.43559,1.25663 -0.97677,1.25663 h -45.68282 c -0.54106,0 -0.97669,-0.5603 -0.97669,-1.25663 0,-0.69572 0.43537,-1.25678 0.97624,-1.25713 z"
       id="path836"
       inkscape:connector-curvature="0" />
    <path
       style="opacity:1;fill:#ffffff;fill-opacity:1;stroke:none;stroke-width:2.60272956;stroke-miterlimit:4;stroke-dasharray:none;stroke-opacity:0.19402986"
       d="m 115.09371,172.33372 c -6.45086,0 -11.64398,5.32921 -11.64398,11.94853 v 38.54788 c 0,6.6193 5.19312,11.94881 11.64398,11.94881 h 2.90956 v -25.06007 c 0,-0.8965 0.70304,-1.61819 1.57659,-1.61819 h 89.7093 c 0.87356,0 1.57686,0.72169 1.57686,1.61819 v 25.06007 h 2.9511 c 6.45091,0 11.64396,-5.32951 11.64396,-11.94881 v -38.54788 c 0,-6.61932 -5.19305,-11.94853 -11.64396,-11.94853 h -14.30318 v 15.60526 c 0,0.68103 -0.53395,1.22884 -1.1976,1.22884 H 130.1681 c -0.66383,0 -1.19815,-0.54781 -1.19815,-1.22884 v -15.60526 z m 92.3935,9.22028 a 2.3723433,2.4342822 0 0 1 2.37249,2.43427 2.3723433,2.4342822 0 0 1 -2.37249,2.43442 2.3723433,2.4342822 0 0 1 -2.37239,-2.43442 2.3723433,2.4342822 0 0 1 2.37239,-2.43427 z m 8.38943,0 a 2.3723431,2.434282 0 0 1 2.37229,2.43427 2.3723431,2.434282 0 0 1 -2.37229,2.43442 2.3723431,2.434282 0 0 1 -2.37254,-2.43442 2.3723431,2.434282 0 0 1 2.37254,-2.43427 z"
       id="rect4844-7"
       inkscape:connector-curvature="0" />
    <path
       style="opacity:1;fill:#ffffff;fill-opacity:1;stroke:none;stroke-width:2.59395242;stroke-miterlimit:4;stroke-dasharray:none;stroke-opacity:1"
       d="m 123.41145,212.08004 c -0.77699,0 -1.40183,0.6443 -1.40183,1.4448 v 19.77462 c 0,0.8003 0.62484,1.44478 1.40183,1.44478 h 5.35533 v -12.92507 h 71.29985 v 12.92507 h 5.30713 c 0.77682,0 1.40257,-0.64448 1.40257,-1.44478 v -19.77462 c 0,-0.8005 -0.62575,-1.4448 -1.40257,-1.4448 z"
       id="rect4922"
       inkscape:connector-curvature="0" />
    <rect
       style="opacity:1;fill:#ffffff;fill-opacity:1;stroke:#cb584a;stroke-width:2.78276014;stroke-miterlimit:4;stroke-dasharray:none;stroke-opacity:0.99607843"
       id="rect5004"
       width="62.741413"
       height="41.026596"
       x="132.91209"
       y="144.10019"
       rx="1.2067151"
       ry="0.093295366" />
  </g>
</svg>
