<?xml version="1.0" encoding="UTF-8" standalone="no"?>
<!-- Created with Inkscape (http://www.inkscape.org/) -->

<svg
   xmlns:dc="http://purl.org/dc/elements/1.1/"
   xmlns:cc="http://creativecommons.org/ns#"
   xmlns:rdf="http://www.w3.org/1999/02/22-rdf-syntax-ns#"
   xmlns:svg="http://www.w3.org/2000/svg"
   xmlns="http://www.w3.org/2000/svg"
   xmlns:sodipodi="http://sodipodi.sourceforge.net/DTD/sodipodi-0.dtd"
   xmlns:inkscape="http://www.inkscape.org/namespaces/inkscape"
   width="159mm"
   height="161mm"
   viewBox="0 0 159 161"
   version="1.1"
   id="svg3257"
   inkscape:version="0.92.4 (5da689c313, 2019-01-14)"
   sodipodi:docname="copy.svg">
  <defs
     id="defs3251" />
  <sodipodi:namedview
     id="base"
     pagecolor="#ffffff"
     bordercolor="#666666"
     borderopacity="1.0"
     inkscape:pageopacity="0.0"
     inkscape:pageshadow="2"
     inkscape:zoom="0.7"
     inkscape:cx="214.3926"
     inkscape:cy="247.53573"
     inkscape:document-units="mm"
     inkscape:current-layer="layer1"
     showgrid="false"
     inkscape:window-width="958"
     inkscape:window-height="991"
     inkscape:window-x="-8"
     inkscape:window-y="0"
     inkscape:window-maximized="0"
     inkscape:pagecheckerboard="true" />
  <metadata
     id="metadata3254">
    <rdf:RDF>
      <cc:Work
         rdf:about="">
        <dc:format>image/svg+xml</dc:format>
        <dc:type
           rdf:resource="http://purl.org/dc/dcmitype/StillImage" />
        <dc:title />
      </cc:Work>
    </rdf:RDF>
  </metadata>
  <g
     inkscape:label="Layer 1"
     inkscape:groupmode="layer"
     id="layer1"
     transform="translate(0,-136)">
    <path
       style="fill:#ffffff;fill-opacity:1;stroke:#09000f;stroke-width:20.75134087;stroke-miterlimit:4;stroke-dasharray:none;stroke-opacity:1"
       d="m 211.26172,79.3125 c -9.68999,0 -17.49024,7.800206 -17.49024,17.490234 V 135.12695 H 83.833984 c -9.690002,0 -17.492187,7.80024 -17.492187,17.49024 v 374.54492 c 0,9.69 7.802185,17.49023 17.492187,17.49023 H 367.02344 c 9.69,0 17.49218,-7.80023 17.49218,-17.49023 v -38.32422 h 109.9375 c 9.69,0 17.49024,-7.80024 17.49024,-17.49023 V 136.58008 L 450.73242,79.3125 Z"
       transform="matrix(0.26458333,0,0,0.26458333,0,136)"
       id="rect3816-7"
       inkscape:connector-curvature="0" />
    <rect
       style="fill:none;fill-opacity:1;stroke:#09000f;stroke-width:3.28869033;stroke-miterlimit:4;stroke-dasharray:none;stroke-opacity:1"
       id="rect3818-2"
       width="16.795307"
       height="2.1269109"
       x="34.371819"
       y="204.55807"
       rx="0"
       ry="0" />
    <rect
       style="fill:none;fill-opacity:1;stroke:#09000f;stroke-width:3.22374296;stroke-miterlimit:4;stroke-dasharray:none;stroke-opacity:1"
       id="rect3818-8-4"
       width="15.66026"
       height="2.1918592"
       x="34.14817"
       y="217.94354"
       rx="0"
       ry="0" />
    <rect
       style="fill:none;fill-opacity:1;stroke:#09000f;stroke-width:3.28344417;stroke-miterlimit:4;stroke-dasharray:none;stroke-opacity:1"
       id="rect3818-9-8"
       width="16.700552"
       height="2.1321578"
       x="34.366993"
       y="231.58052"
       rx="0"
       ry="0" />
    <rect
       style="fill:none;fill-opacity:1;stroke:#09000f;stroke-width:3.22374201;stroke-miterlimit:4;stroke-dasharray:none;stroke-opacity:1"
       id="rect3818-6-9"
       width="15.660267"
       height="2.1918597"
       x="34.242649"
       y="245.06337"
       rx="0"
       ry="0" />
    <path
       style="fill:#ffffff;fill-opacity:1;stroke:#09000f;stroke-width:20.75134087;stroke-miterlimit:4;stroke-dasharray:none;stroke-opacity:1"
       d="M 445.93945,79.3125 H 211.26172 c -9.68999,0 -17.49024,7.800206 -17.49024,17.490234 V 471.34766 c 0,9.68999 7.80025,17.49023 17.49024,17.49023 h 283.1914 c 9.69,0 17.49024,-7.80024 17.49024,-17.49023 V 143.0625 c -0.0618,0.16805 -0.0382,0.3709 -0.10742,0.53516 -0.58837,1.39569 -1.44054,2.65147 -2.49414,3.70507 -1.0536,1.0536 -2.30939,1.90578 -3.70508,2.49415 -1.39569,0.58836 -2.93028,0.9121 -4.54492,0.9121 h -51.67383 c -1.61465,0 -3.15118,-0.32374 -4.54688,-0.9121 -1.39569,-0.58837 -2.65147,-1.44055 -3.70507,-2.49415 -1.0536,-1.0536 -1.90578,-2.30938 -2.49414,-3.70507 -0.58837,-1.3957 -0.91211,-2.93223 -0.91211,-4.54688 V 90.271484 c 0,-1.614645 0.32374,-3.151182 0.91211,-4.546875 0.58836,-1.395692 1.44054,-2.649524 2.49414,-3.703125 1.0536,-1.0536 2.30938,-1.905771 3.70507,-2.49414 0.32795,-0.138249 0.72573,-0.106479 1.06836,-0.214844 z"
       id="path16551"
       transform="matrix(0.26458333,0,0,0.26458333,0,136)"
       inkscape:connector-curvature="0" />
    <rect
       style="fill:#ffffff;fill-opacity:1;stroke:#09000f;stroke-width:4.23310328;stroke-miterlimit:4;stroke-dasharray:none;stroke-opacity:1"
       id="rect3818"
       width="50.050415"
       height="1.1824992"
       x="68.261497"
       y="190.1021"
       rx="0"
       ry="0" />
    <rect
       style="fill:#ffffff;fill-opacity:1;stroke:#09000f;stroke-width:4.23310328;stroke-miterlimit:4;stroke-dasharray:none;stroke-opacity:1"
       id="rect3818-8"
       width="50.050419"
       height="1.1824992"
       x="68.070305"
       y="203.52008"
       rx="0"
       ry="0" />
    <rect
       style="fill:#ffffff;fill-opacity:1;stroke:#09000f;stroke-width:4.23310328;stroke-miterlimit:4;stroke-dasharray:none;stroke-opacity:1"
       id="rect3818-9"
       width="50.050419"
       height="1.1824992"
       x="68.259285"
       y="217.12714"
       rx="0"
       ry="0" />
    <rect
       style="fill:#ffffff;fill-opacity:1;stroke:#09000f;stroke-width:4.23310328;stroke-miterlimit:4;stroke-dasharray:none;stroke-opacity:1"
       id="rect3818-6"
       width="50.050419"
       height="1.1824992"
       x="68.164787"
       y="230.63979"
       rx="0"
       ry="0" />
    <path
       style="fill:none;fill-opacity:1;stroke:#09000f;stroke-width:20.75134087;stroke-miterlimit:4;stroke-dasharray:none;stroke-opacity:1"
       d="m 445.93945,79.3125 c -0.34263,0.108365 -0.74041,0.07659 -1.06836,0.214844 -1.39569,0.588369 -2.65147,1.44054 -3.70507,2.49414 -1.0536,1.053601 -1.90578,2.307433 -2.49414,3.703125 -0.58837,1.395693 -0.91211,2.93223 -0.91211,4.546875 v 48.779296 c 0,1.61465 0.32374,3.15118 0.91211,4.54688 0.58836,1.39569 1.44054,2.65147 2.49414,3.70507 1.0536,1.0536 2.30938,1.90578 3.70507,2.49415 1.3957,0.58836 2.93223,0.9121 4.54688,0.9121 h 51.67383 c 1.61464,0 3.14923,-0.32374 4.54492,-0.9121 1.39569,-0.58837 2.65148,-1.44055 3.70508,-2.49415 1.0536,-1.0536 1.90577,-2.30938 2.49414,-3.70507 0.0692,-0.16426 0.0456,-0.36711 0.10742,-0.53516 v -6.48242 L 450.73242,79.3125 Z"
       id="rect3816"
       transform="matrix(0.26458333,0,0,0.26458333,0,136)"
       inkscape:connector-curvature="0" />
  </g>
</svg>
