<?xml version="1.0" encoding="UTF-8" standalone="no"?>
<svg
   xmlns:dc="http://purl.org/dc/elements/1.1/"
   xmlns:cc="http://creativecommons.org/ns#"
   xmlns:rdf="http://www.w3.org/1999/02/22-rdf-syntax-ns#"
   xmlns:svg="http://www.w3.org/2000/svg"
   xmlns="http://www.w3.org/2000/svg"
   xmlns:xlink="http://www.w3.org/1999/xlink"
   xmlns:sodipodi="http://sodipodi.sourceforge.net/DTD/sodipodi-0.dtd"
   xmlns:inkscape="http://www.inkscape.org/namespaces/inkscape"
   viewBox="0 0 490 490"
   version="1.1"
   id="svg14"
   sodipodi:docname="payment.svg"
   inkscape:version="0.92.4 (5da689c313, 2019-01-14)">
  <metadata
     id="metadata18">
    <rdf:RDF>
      <cc:Work
         rdf:about="">
        <dc:format>image/svg+xml</dc:format>
        <dc:type
           rdf:resource="http://purl.org/dc/dcmitype/StillImage" />
        <dc:title />
      </cc:Work>
    </rdf:RDF>
  </metadata>
  <sodipodi:namedview
     pagecolor="#ffffff"
     bordercolor="#666666"
     borderopacity="1"
     objecttolerance="10"
     gridtolerance="10"
     guidetolerance="10"
     inkscape:pageopacity="0"
     inkscape:pageshadow="2"
     inkscape:window-width="1920"
     inkscape:window-height="1001"
     id="namedview16"
     showgrid="false"
     inkscape:zoom="1"
     inkscape:cx="43.519033"
     inkscape:cy="249.89385"
     inkscape:window-x="-9"
     inkscape:window-y="-9"
     inkscape:window-maximized="1"
     inkscape:current-layer="g12" />
  <defs
     id="defs4">
    <linearGradient
       inkscape:collect="always"
       id="linearGradient902">
      <stop
         style="stop-color:#57d8ff;stop-opacity:1"
         offset="0"
         id="stop898" />
      <stop
         style="stop-color:#009ac6;stop-opacity:0.98500001"
         offset="1"
         id="stop900" />
    </linearGradient>
    <linearGradient
       inkscape:collect="always"
       id="linearGradient862">
      <stop
         style="stop-color:#e6b3ac;stop-opacity:0.47999999"
         offset="0"
         id="stop858" />
      <stop
         style="stop-color:#c44536;stop-opacity:0.47499999"
         offset="1"
         id="stop860" />
    </linearGradient>
    <style
       id="style2">.cls-1{fill:#009ac6;}.cls-2,.cls-3{fill:#c44536;}.cls-2{fill-rule:evenodd;}</style>
    <radialGradient
       inkscape:collect="always"
       xlink:href="#linearGradient862"
       id="radialGradient866"
       cx="245.18028"
       cy="245.18675"
       fx="245.18028"
       fy="245.18675"
       r="141.05"
       gradientTransform="matrix(3.3109387,0.01039453,-0.00715929,2.2804223,-564.84121,-316.4911)"
       gradientUnits="userSpaceOnUse" />
    <radialGradient
       inkscape:collect="always"
       xlink:href="#linearGradient902"
       id="radialGradient904"
       cx="125.82277"
       cy="60.500492"
       fx="125.82277"
       fy="60.500492"
       r="188.9"
       gradientTransform="matrix(2.1756564,1.0512184,-1.73014,3.5807881,-43.634339,-280.77358)"
       gradientUnits="userSpaceOnUse" />
    <radialGradient
       inkscape:collect="always"
       xlink:href="#linearGradient902"
       id="radialGradient904-8"
       cx="125.82277"
       cy="60.500492"
       fx="125.82277"
       fy="60.500492"
       r="188.89999"
       gradientTransform="matrix(-2.1756564,-1.0512184,1.73014,-3.5807881,534.58721,771.08716)"
       gradientUnits="userSpaceOnUse" />
  </defs>
  <g
     id="g12">
    <path
       d="m 245,386 c 77.8,0 141,-63.1 141,-141 0,-77.8 -63.1,-141 -141,-141 -40.6,0 -77.2,17.2 -103,44.6 -23.6,25.2 -38.1,59.1 -38.1,96.3 0,78 63.2,141 141,141 m -49.2,-85.2 c 1.3,-4.6 2.5,-9.3 4,-13.8 1.7,-5.3 3.1,-6 8,-3.4 8.4,4.4 17.2,6.8 26.5,8 6,0.7 11.9,0.1 17.4,-2.3 10.4,-4.5 12,-16.5 3.2,-23.8 -3,-2.5 -6.4,-4.3 -9.9,-5.8 -9.1,-4 -18.6,-7 -27.1,-12.2 -13.9,-8.3 -22.8,-19.8 -21.7,-36.7 1.2,-19.2 12,-31.1 29.6,-37.5 7.2,-2.6 7.3,-2.5 7.3,-10.1 v -7.7 c 0.1,-5.7 1.1,-6.7 6.8,-6.9 1.8,-0.1 3.5,0 5.3,0 12.1,0 12.1,0 12.2,12.1 0,8.6 0,8.6 8.6,9.9 6.5,1 12.8,2.9 18.8,5.6 3.3,1.5 4.6,3.8 3.6,7.3 -1.5,5.2 -2.9,10.5 -4.6,15.7 -1.6,4.9 -3.1,5.6 -7.8,3.3 -9.5,-4.6 -19.4,-6.5 -29.8,-5.9 -2.7,0.1 -5.4,0.5 -8,1.6 -9,3.9 -10.5,13.9 -2.8,20.1 3.9,3.1 8.3,5.4 12.9,7.3 8,3.3 16,6.5 23.6,10.7 24.2,13.4 30.7,43.7 13.7,64.4 -6.2,7.5 -14.2,12.5 -23.5,15.1 -4.1,1.1 -5.9,3.3 -5.7,7.5 0.2,4.2 0,8.3 0,12.5 0,3.7 -1.9,5.7 -5.6,5.8 -4.5,0.1 -9,0.1 -13.4,0 -3.9,-0.1 -5.8,-2.3 -5.8,-6.1 0,-3 -0.1,-6.1 -0.1,-9.1 -0.1,-6.7 -0.3,-7 -6.7,-8 -8.3,-1.3 -16.4,-3.2 -23.9,-6.9 -6.2,-3 -6.8,-4.5 -5.1,-10.7"
       id="path6"
       inkscape:connector-curvature="0"
       style="fill:#c44536" />
    <path
       inkscape:connector-curvature="0"
       style="fill:url(#radialGradient866);fill-opacity:1"
       d="m 245.23029,386.18675 c 77.8,0 141,-63.1 141,-141 0,-77.8 -63.1,-141 -141,-141 -40.6,0 -77.2,17.2 -103,44.6 -23.6,25.2 -38.1,59.1 -38.1,96.3 0,78 63.2,141 141,141 m -49.2,-85.2 c 1.3,-4.6 2.5,-9.3 4,-13.8 1.7,-5.3 3.1,-6 8,-3.4 8.4,4.4 17.2,6.8 26.5,8 6,0.7 11.9,0.1 17.4,-2.3 10.4,-4.5 12,-16.5 3.2,-23.8 -3,-2.5 -6.4,-4.3 -9.9,-5.8 -9.1,-4 -18.6,-7 -27.1,-12.2 -13.9,-8.3 -22.8,-19.8 -21.7,-36.7 1.2,-19.2 12,-31.1 29.6,-37.5 7.2,-2.6 7.3,-2.5 7.3,-10.1 v -7.7 c 0.1,-5.7 1.1,-6.7 6.8,-6.9 1.8,-0.1 3.5,0 5.3,0 12.1,0 12.1,0 12.2,12.1 0,8.6 0,8.6 8.6,9.9 6.5,1 12.8,2.9 18.8,5.6 3.3,1.5 4.6,3.8 3.6,7.3 -1.5,5.2 -2.9,10.5 -4.6,15.7 -1.6,4.9 -3.1,5.6 -7.8,3.3 -9.5,-4.6 -19.4,-6.5 -29.8,-5.9 -2.7,0.1 -5.4,0.5 -8,1.6 -9,3.9 -10.5,13.9 -2.8,20.1 3.9,3.1 8.3,5.4 12.9,7.3 8,3.3 16,6.5 23.6,10.7 24.2,13.4 30.7,43.7 13.7,64.4 -6.2,7.5 -14.2,12.5 -23.5,15.1 -4.1,1.1 -5.9,3.3 -5.7,7.5 0.2,4.2 0,8.3 0,12.5 0,3.7 -1.9,5.7 -5.6,5.8 -4.5,0.1 -9,0.1 -13.4,0 -3.9,-0.1 -5.8,-2.3 -5.8,-6.1 0,-3 -0.1,-6.1 -0.1,-9.1 -0.1,-6.7 -0.3,-7 -6.7,-8 -8.3,-1.3 -16.4,-3.2 -23.9,-6.9 -6.2,-3 -6.8,-4.5 -5.1,-10.7"
       id="path6-2" />
    <path
       d="m 410.35287,36.013578 v 28.1 c -46.6,-42.5 -106,-63.80000046 -165,-63.80000046 -62.8,0 -125.82322,23.01611746 -172.823223,70.81611746 l -10.376777,11.083883 20.5,20.500002 10.3,-10.300002 c 81.4,-81.4 212,-84.1000005 297,-8.3 h -27.2 v 29.000002 h 57.2 0.7 19.3 v -19.600002 -0.4 -57.1 h -29.1"
       id="path10-5"
       inkscape:connector-curvature="0"
       style="fill:url(#radialGradient904);fill-opacity:1"
       sodipodi:nodetypes="ccscccscccccccccc" />
    <path
       d="m 80.6,454.3 v -28.1 c 46.6,42.5 106,63.8 165,63.8 62.8,0 126,-23.9 173,-71.7 l 10.2,-10.2 -20.5,-20.5 -10.3,10.3 c -81.4,81.4 -212,84.1 -297,8.3 h 27.2 v -29 H 71 70.3 51 v 19.6 0.4 57.1 h 29.1"
       id="path10-3"
       inkscape:connector-curvature="0"
       style="fill:#009ac6" />
    <path
       d="m 80.6,454.3 v -28.1 c 46.6,42.5 106,63.8 165,63.8 62.8,0 126,-23.9 173,-71.7 l 10.2,-10.2 -20.5,-20.5 -10.3,10.3 c -81.4,81.4 -212,84.1 -297,8.3 h 27.2 v -29 H 71 70.3 51 v 19.6 0.4 57.1 h 29.1"
       id="path10-5-8"
       inkscape:connector-curvature="0"
       style="fill:url(#radialGradient904-8);fill-opacity:1" />
  </g>
</svg>
