<?xml version="1.0" encoding="UTF-8"?>
<!-- Created with Inkscape (http://www.inkscape.org/) -->
<svg width="106mm" height="136mm" version="1.1" viewBox="0 0 106 136" xmlns="http://www.w3.org/2000/svg" xmlns:cc="http://creativecommons.org/ns#" xmlns:dc="http://purl.org/dc/elements/1.1/" xmlns:rdf="http://www.w3.org/1999/02/22-rdf-syntax-ns#">
 <metadata>
  <rdf:RDF>
   <cc:Work rdf:about="">
    <dc:format>image/svg+xml</dc:format>
    <dc:type rdf:resource="http://purl.org/dc/dcmitype/StillImage"/>
    <dc:title/>
   </cc:Work>
  </rdf:RDF>
 </metadata>
 <g transform="translate(0,-161)">
  <path d="m81.066 163.23 22.991 22.693m-21.505-22.083-74.086 0.0867c-3.079 4e-3 -5.5575 2.4785-5.5575 5.5576v119.01c0 3.079 2.4785 5.5576 5.5575 5.5576h89.984c3.079 0 4.9889-2.5681 4.9889-5.6471 0.0145-3.8131-0.0142-101.17-0.0137-101.85-1.6645 0.0214-0.83496 0.0378-2.8658 0.0535h-16.419c-0.51306 0-1.0013-0.10292-1.4448-0.28983-0.44349-0.18695-0.84251-0.45774-1.1773-0.79252-0.33479-0.33478-0.60555-0.73381-0.79251-1.1773-0.18695-0.44349-0.28982-0.93172-0.28982-1.4448v-15.5c0-0.56267 0.0139-1.9972-0.0331-2.4407-0.0444-0.78702-1.7136-1.1507 0.31698-1.1116z" fill="#fff" fill-opacity=".9801" stroke="#290001" stroke-width="4.228"/>
  <rect x="20.724" y="221.64" width="65.083" height="58.955" rx=".8529" fill="none" stroke="#000" stroke-linecap="round" stroke-width=".385"/>
  <path d="m75.061 243.99c-0.44426-1e-3 -0.8886 0.18912-1.23 0.57096l-15.503 17.338-7.7346-8.7438c-0.67879-0.76733-1.7747-0.77051-2.4576-7e-3l-24.546 27.451h61.366c0.4725 0 0.8527-0.38021 0.8527-0.85271v-24.417l-9.5195-10.761c-0.33939-0.38367-0.78331-0.57598-1.2276-0.57716z"/>
  <circle cx="33.753" cy="231.28" r="6.355"/>
  <g fill="#fff">
   <g stroke="#000001">
    <rect x="22.476" y="212.23" width="61.576" height=".69313" rx="0" ry="0" stroke-width="3.5947"/>
    <rect x="22.402" y="178.69" width="41.937" height=".87443" rx="0" ry="0" stroke-width="3.3321"/>
    <rect x="22.476" y="201.02" width="61.576" height=".69313" rx="0" ry="0" stroke-width="3.5947"/>
    <rect x="22.402" y="189.81" width="41.937" height=".87443" rx="0" ry="0" stroke-width="3.3321"/>
   </g>
   <path d="m83.64 184.38c-0.38161-0.11061-0.94429-0.73846-1.0146-1.1321-0.0304-0.17028-0.0433-3.7149-0.0287-7.877l0.0266-7.5674 4.6304 4.5686c2.5467 2.5127 6.3412 6.2653 8.4321 8.3391l3.8017 3.7705-7.7773-8e-3c-4.3519-5e-3 -7.9063-0.0458-8.0703-0.0934z" fill-opacity=".9801"/>
  </g>
 </g>
</svg>
