<?xml version="1.0" encoding="UTF-8" standalone="no"?>
<!-- Created with Inkscape (http://www.inkscape.org/) -->

<svg
   xmlns:dc="http://purl.org/dc/elements/1.1/"
   xmlns:cc="http://creativecommons.org/ns#"
   xmlns:rdf="http://www.w3.org/1999/02/22-rdf-syntax-ns#"
   xmlns:svg="http://www.w3.org/2000/svg"
   xmlns="http://www.w3.org/2000/svg"
   xmlns:sodipodi="http://sodipodi.sourceforge.net/DTD/sodipodi-0.dtd"
   xmlns:inkscape="http://www.inkscape.org/namespaces/inkscape"
   width="106mm"
   height="136mm"
   viewBox="0 0 106 136"
   version="1.1"
   id="svg3257"
   inkscape:version="0.92.4 (5da689c313, 2019-01-14)"
   sodipodi:docname="scan-bw-5.svg">
  <defs
     id="defs3251" />
  <sodipodi:namedview
     id="base"
     pagecolor="#ffffff"
     bordercolor="#666666"
     borderopacity="1.0"
     inkscape:pageopacity="0.0"
     inkscape:pageshadow="2"
     inkscape:zoom="1.4142136"
     inkscape:cx="191.30444"
     inkscape:cy="241.80468"
     inkscape:document-units="mm"
     inkscape:current-layer="layer1"
     showgrid="true"
     inkscape:window-width="958"
     inkscape:window-height="991"
     inkscape:window-x="-8"
     inkscape:window-y="0"
     inkscape:window-maximized="0"
     inkscape:pagecheckerboard="true"
     inkscape:snap-nodes="false" />
  <metadata
     id="metadata3254">
    <rdf:RDF>
      <cc:Work
         rdf:about="">
        <dc:format>image/svg+xml</dc:format>
        <dc:type
           rdf:resource="http://purl.org/dc/dcmitype/StillImage" />
        <dc:title></dc:title>
      </cc:Work>
    </rdf:RDF>
  </metadata>
  <g
     inkscape:label="Layer 1"
     inkscape:groupmode="layer"
     id="layer1"
     transform="translate(0,-161)">
    <path
       id="path861"
       style="fill:#ffffff;fill-opacity:0.98009949;stroke:#290001;stroke-width:4.22800016;stroke-linecap:butt;stroke-linejoin:miter;stroke-miterlimit:4;stroke-dasharray:none;stroke-opacity:1"
       d="m 81.066098,163.23228 22.990632,22.69273 m -21.505331,-22.08332 -74.0864211,0.0867 c -3.0790042,0.004 -5.5575487,2.47852 -5.5575487,5.55755 v 119.01232 c 0,3.07901 2.4785425,5.55755 5.5575487,5.55755 H 98.449449 c 3.079001,0 4.988941,-2.56807 4.988941,-5.64708 0.0145,-3.81313 -0.0142,-101.16612 -0.0137,-101.84742 -1.66446,0.0214 -0.83496,0.0378 -2.86582,0.0535 H 84.13956 c -0.513057,0 -1.001294,-0.10292 -1.444771,-0.28983 -0.443487,-0.18695 -0.842514,-0.45774 -1.177294,-0.79252 -0.334787,-0.33478 -0.605554,-0.73381 -0.792514,-1.17729 -0.18695,-0.44349 -0.28982,-0.93172 -0.28982,-1.44478 v -15.49975 c 0,-0.56267 0.0139,-1.99721 -0.0331,-2.4407 -0.0444,-0.78702 -1.713613,-1.15073 0.316977,-1.11163 z"
       inkscape:connector-curvature="0"
       sodipodi:nodetypes="ccccsssscccscccssccc" />
    <rect
       style="fill:none;fill-opacity:0.43921569;stroke:#000000;stroke-width:0.385;stroke-linecap:round;stroke-miterlimit:4;stroke-dasharray:none;stroke-opacity:1"
       id="rect855-9"
       width="65.082718"
       height="58.954784"
       x="20.724056"
       y="221.64096"
       rx="0.85290062" />
    <path
       inkscape:connector-curvature="0"
       style="fill:#000000;fill-opacity:1;stroke:none;stroke-width:1.42308342;stroke-linecap:round;stroke-miterlimit:4;stroke-dasharray:none;stroke-opacity:1"
       d="m 75.060618,243.98655 c -0.444256,-0.001 -0.888603,0.18912 -1.230046,0.57096 l -15.503421,17.33795 -7.734644,-8.74376 c -0.67879,-0.76733 -1.774743,-0.77051 -2.457628,-0.007 l -24.545686,27.45052 h 61.365784 c 0.472497,0 0.852704,-0.38021 0.852704,-0.85271 v -24.41723 l -9.519498,-10.76137 c -0.339389,-0.38367 -0.783309,-0.57598 -1.227565,-0.57716 z"
       id="rect855-9-3" />
    <circle
       style="fill:#000000;fill-opacity:1;stroke:none;stroke-width:2.21335387;stroke-linecap:round;stroke-linejoin:round;stroke-miterlimit:4;stroke-dasharray:none;stroke-opacity:1"
       id="path1067"
       cx="33.75288"
       cy="231.2764"
       r="6.3550353" />
    <rect
       style="fill:#ffffff;fill-opacity:1;stroke:#000001;stroke-width:3.59474158;stroke-miterlimit:4;stroke-dasharray:none;stroke-opacity:1"
       id="rect3818-6"
       width="61.575661"
       height="0.69313437"
       x="22.475796"
       y="212.22971"
       rx="0"
       ry="0" />
    <rect
       style="fill:#ffffff;fill-opacity:1;stroke:#000001;stroke-width:3.33209348;stroke-miterlimit:4;stroke-dasharray:none;stroke-opacity:1"
       id="rect3818-9-3"
       width="41.937332"
       height="0.87442869"
       x="22.401817"
       y="178.69435"
       rx="0"
       ry="0" />
    <rect
       style="fill:#ffffff;fill-opacity:1;stroke:#000001;stroke-width:3.59474158;stroke-miterlimit:4;stroke-dasharray:none;stroke-opacity:1"
       id="rect3818-6-4"
       width="61.575661"
       height="0.69313437"
       x="22.475792"
       y="201.02304"
       rx="0"
       ry="0" />
    <rect
       style="fill:#ffffff;fill-opacity:1;stroke:#000001;stroke-width:3.33209348;stroke-miterlimit:4;stroke-dasharray:none;stroke-opacity:1"
       id="rect3818-9-3-6"
       width="41.937336"
       height="0.87442869"
       x="22.401814"
       y="189.8067"
       rx="0"
       ry="0" />
    <path
       style="fill:#ffffff;fill-opacity:0.98009949;stroke:none;stroke-width:1.49482369;stroke-linecap:round;stroke-miterlimit:4;stroke-dasharray:none;stroke-opacity:1"
       d="m 83.639533,184.37585 c -0.381607,-0.11061 -0.944294,-0.73846 -1.014604,-1.13209 -0.0304,-0.17028 -0.0433,-3.71491 -0.0287,-7.87696 l 0.0266,-7.56735 4.630416,4.56861 c 2.546725,2.51274 6.341184,6.26533 8.432122,8.3391 l 3.801696,3.77048 -7.777315,-0.008 c -4.351886,-0.005 -7.906335,-0.0458 -8.070275,-0.0934 z"
       id="path890"
       inkscape:connector-curvature="0" />
  </g>
</svg>
