<?xml version="1.0" encoding="UTF-8" standalone="no"?>
<!-- Created with Inkscape (http://www.inkscape.org/) -->

<svg
   xmlns:osb="http://www.openswatchbook.org/uri/2009/osb"
   xmlns:dc="http://purl.org/dc/elements/1.1/"
   xmlns:cc="http://creativecommons.org/ns#"
   xmlns:rdf="http://www.w3.org/1999/02/22-rdf-syntax-ns#"
   xmlns:svg="http://www.w3.org/2000/svg"
   xmlns="http://www.w3.org/2000/svg"
   xmlns:xlink="http://www.w3.org/1999/xlink"
   xmlns:sodipodi="http://sodipodi.sourceforge.net/DTD/sodipodi-0.dtd"
   xmlns:inkscape="http://www.inkscape.org/namespaces/inkscape"
   width="254mm"
   height="254mm"
   viewBox="0 0 254 254"
   version="1.1"
   id="svg8"
   inkscape:version="0.92.4 (5da689c313, 2019-01-14)"
   sodipodi:docname="radial-gradient-print-google-complete-3.svg">
  <defs
     id="defs2">
    <linearGradient
       inkscape:collect="always"
       id="linearGradient833-1">
      <stop
         style="stop-color:#a2d4e6;stop-opacity:1"
         offset="0"
         id="stop829" />
      <stop
         style="stop-color:#379fc5;stop-opacity:0.16862746"
         offset="1"
         id="stop831" />
    </linearGradient>
    <radialGradient
       inkscape:collect="always"
       xlink:href="#linearGradient833-1"
       id="radialGradient832"
       cx="187.21815"
       cy="86.449455"
       fx="187.21815"
       fy="86.449455"
       r="123.85001"
       gradientTransform="matrix(3.3529141,-0.03292519,0.02778851,2.9523699,-419.86681,-176.98342)"
       gradientUnits="userSpaceOnUse" />
    <linearGradient
       id="linearGradient822"
       osb:paint="solid">
      <stop
         style="stop-color:#f6f6f6;stop-opacity:1;"
         offset="0"
         id="stop820" />
    </linearGradient>
    <linearGradient
       gradientTransform="matrix(0.65723416,0.4704506,-0.46480054,0.67046849,72.782098,29.230203)"
       inkscape:collect="always"
       xlink:href="#linearGradient822"
       id="linearGradient824"
       x1="138.55219"
       y1="92.525146"
       x2="295.2475"
       y2="92.525146"
       gradientUnits="userSpaceOnUse" />
  </defs>
  <sodipodi:namedview
     id="base"
     pagecolor="#ffffff"
     bordercolor="#666666"
     borderopacity="1.0"
     inkscape:pageopacity="0.0"
     inkscape:pageshadow="2"
     inkscape:zoom="0.35"
     inkscape:cx="621.58227"
     inkscape:cy="72.426337"
     inkscape:document-units="mm"
     inkscape:current-layer="layer1"
     showgrid="true"
     inkscape:window-width="958"
     inkscape:window-height="991"
     inkscape:window-x="952"
     inkscape:window-y="0"
     inkscape:window-maximized="0"
     inkscape:pagecheckerboard="false"
     showguides="false"
     inkscape:snap-others="false"
     inkscape:snap-nodes="false">
    <inkscape:grid
       type="xygrid"
       id="grid918"
       spacingx="1.8520833"
       spacingy="1.8520833" />
  </sodipodi:namedview>
  <metadata
     id="metadata5">
    <rdf:RDF>
      <cc:Work
         rdf:about="">
        <dc:format>image/svg+xml</dc:format>
        <dc:type
           rdf:resource="http://purl.org/dc/dcmitype/StillImage" />
        <dc:title></dc:title>
      </cc:Work>
    </rdf:RDF>
  </metadata>
  <g
     inkscape:label="Layer 1"
     inkscape:groupmode="layer"
     id="layer1"
     transform="translate(0,-43)">
    <rect
       style="fill:#379dc5;fill-opacity:0.90588235;stroke-width:0.37693506"
       id="rect12"
       width="247.70001"
       height="247.70001"
       x="3.0238037"
       y="46.351601"
       rx="58.458519" />
    <rect
       style="fill:url(#radialGradient832);fill-opacity:1;stroke-width:0.37693506"
       id="rect12-1"
       width="247.70001"
       height="247.7"
       x="3.0238035"
       y="46.351601"
       rx="58.458519" />
    <rect
       style="fill:#f4f4f4;fill-opacity:1;stroke:none;stroke-width:7.991889;stroke-miterlimit:4;stroke-dasharray:none;stroke-opacity:1"
       id="rect932"
       width="3.6503434"
       height="17.148205"
       x="142.27779"
       y="210.85176"
       ry="1.6776472" />
    <rect
       style="fill:#f4f4f4;fill-opacity:1;stroke:none;stroke-width:7.2895298;stroke-miterlimit:4;stroke-dasharray:none;stroke-opacity:1"
       id="rect932-8"
       width="3.6503434"
       height="14.26653"
       x="270.50058"
       y="24.693132"
       ry="1.3957275"
       transform="rotate(47.547464)" />
    <rect
       style="fill:#f4f4f4;fill-opacity:1;stroke:none;stroke-width:7.28953123;stroke-miterlimit:4;stroke-dasharray:none;stroke-opacity:1"
       id="rect932-8-6"
       width="3.6503441"
       height="14.26654"
       x="75.927925"
       y="237.4059"
       ry="1.395728"
       transform="matrix(-0.67497921,0.73783675,0.73783675,0.67497921,0,0)" />
    <path
       style="fill:#f4f4f4;fill-opacity:1;stroke:#f4f4f4;stroke-width:3.21801186;stroke-miterlimit:4;stroke-dasharray:none;stroke-opacity:1"
       d="m 98.804369,234.45174 a 53.135762,28.778434 0 0 1 -19.159808,18.70814 v 8.54435 c 0,3.27369 2.627614,5.90947 5.891622,5.90947 H 215.67039 c 3.264,0 5.8912,-2.63578 5.8912,-5.90947 v -21.34385 c 0,-3.27368 -2.6272,-5.90864 -5.8912,-5.90864 z m 24.187141,14.02665 a 4.4678425,4.4678425 0 0 1 4.46771,4.4677 4.4678425,4.4678425 0 0 1 -4.46771,4.4677 4.4678425,4.4678425 0 0 1 -4.46811,-4.4677 4.4678425,4.4678425 0 0 1 4.46811,-4.4677 z m -9.3522,0.0801 a 4.4678425,4.4678425 0 0 1 4.4677,4.46811 4.4678425,4.4678425 0 0 1 -4.4677,4.46771 4.4678425,4.4678425 0 0 1 -4.46812,-4.46771 4.4678425,4.4678425 0 0 1 4.46812,-4.46811 z m 14.1159,0.4226 h 18.91695 v 7.97811 h -18.91695 z"
       id="rect9111-0"
       inkscape:connector-curvature="0" />
    <path
       style="fill:#2a71e9;fill-opacity:1;stroke:none;stroke-width:33.02048111;stroke-miterlimit:4;stroke-dasharray:none;stroke-opacity:1"
       d="m 283.72461,387.14062 -88.60547,152.7754 h 328.9375 L 430.0625,471.86914 c -6.94594,-5.02855 -9.29736,-13.59138 -5.27148,-19.19922 l 16.34375,-22.76562 c 0.72502,-1.3454 1.54363,-2.65131 2.45117,-3.91602 l 5.10937,-7.11523 c 9.34547,-13.01755 25.96999,-18.24606 43.26172,-15.34766 0.12167,-0.0796 0.23869,-0.0912 0.35352,-0.008 l 0.11718,0.084 c 9.07262,1.59711 18.31176,5.42908 26.76563,11.55078 l 54.58008,39.51368 39.16211,-67.5254 z"
       transform="matrix(0.26458333,0,0,0.26458333,0,43)"
       id="rect3636-4"
       inkscape:connector-curvature="0"
       sodipodi:nodetypes="ccccccccccccccc" />
    <rect
       style="fill:#fccd48;fill-opacity:1;stroke:none;stroke-width:9.37004471;stroke-miterlimit:4;stroke-dasharray:none;stroke-opacity:1"
       id="rect3636-0"
       width="86.857666"
       height="46.627048"
       x="81.670639"
       y="-76.989616"
       transform="matrix(0.50545116,0.86285522,-0.99999998,-2.0064315e-4,0,0)" />
    <rect
       style="fill:#0ba25e;fill-opacity:1;stroke:none;stroke-width:9.36955929;stroke-miterlimit:4;stroke-dasharray:none;stroke-opacity:1"
       id="rect3636-03"
       width="86.953392"
       height="46.570854"
       x="-57.263824"
       y="111.66879"
       transform="matrix(0.50172572,-0.86502676,0.50781291,0.86146738,0,0)"
       inkscape:transform-center-x="34.373069"
       inkscape:transform-center-y="-23.661266" />
    <path
       sodipodi:type="star"
       style="fill:#296ad9;fill-opacity:1;stroke:none;stroke-width:4;stroke-miterlimit:4;stroke-dasharray:none;stroke-opacity:1"
       id="path13171"
       sodipodi:sides="4"
       sodipodi:cx="-64.346664"
       sodipodi:cy="213.36"
       sodipodi:r1="59.916248"
       sodipodi:r2="12.210801"
       sodipodi:arg1="-0.8253769"
       sodipodi:arg2="-0.039978737"
       inkscape:flatsided="true"
       inkscape:rounded="0"
       inkscape:randomized="-1.331"
       d="m 8.103873,219.65244 -52.54859,29.73751 -12.766174,-1.84468 -118.337489,-18.59875 z"
       inkscape:transform-center-x="4.4421043"
       inkscape:transform-center-y="10.001386"
       transform="matrix(-0.20499725,0.16606167,0.42051673,-1.0634097,-39.080884,418.04349)" />
    <path
       sodipodi:type="star"
       style="fill:#089156;fill-opacity:1;stroke:none;stroke-width:4;stroke-miterlimit:4;stroke-dasharray:none;stroke-opacity:1"
       id="path13171-3"
       sodipodi:sides="4"
       sodipodi:cx="-64.346664"
       sodipodi:cy="213.36"
       sodipodi:r1="59.916248"
       sodipodi:r2="12.210801"
       sodipodi:arg1="-0.8253769"
       sodipodi:arg2="-0.039978737"
       inkscape:flatsided="true"
       inkscape:rounded="0"
       inkscape:randomized="-1.331"
       d="m 8.103873,219.65244 -52.54859,29.73751 -12.766174,-1.84468 -118.337489,-18.59875 z"
       inkscape:transform-center-x="2.0397501"
       inkscape:transform-center-y="-8.8403085"
       transform="matrix(-0.04287429,-0.26031163,0.71603244,0.89161204,-85.228953,-123.23189)" />
    <path
       sodipodi:type="star"
       style="fill:#e3b73a;fill-opacity:1;stroke:none;stroke-width:4;stroke-miterlimit:4;stroke-dasharray:none;stroke-opacity:1"
       id="path13171-2"
       sodipodi:sides="4"
       sodipodi:cx="-64.346664"
       sodipodi:cy="213.36"
       sodipodi:r1="59.916248"
       sodipodi:r2="12.210801"
       sodipodi:arg1="-0.8253769"
       sodipodi:arg2="-0.039978737"
       inkscape:flatsided="true"
       inkscape:rounded="0"
       inkscape:randomized="-1.331"
       d="m 8.103873,219.65244 -52.54859,29.73751 -12.766174,-1.84468 -118.337489,-18.59875 z"
       inkscape:transform-center-x="-10.993863"
       inkscape:transform-center-y="-1.2001613"
       transform="matrix(0.24754565,0.09616477,-1.1370557,0.16979095,409.91023,107.34756)" />
    <path
       id="rect1516-1-1-2"
       style="fill:none;fill-opacity:1;stroke:url(#linearGradient824);stroke-width:3.13682747;stroke-linecap:round;stroke-miterlimit:4;stroke-dasharray:none;stroke-opacity:1"
       d="m 121.68383,161.92024 96.40857,69.00957 -1.26092,1.81885 -96.40855,-69.00957 z m 9.00683,-7.94029 92.24574,66.08083 c 0.16724,0.11978 0.031,0.60716 -0.30532,1.09274 1.862,2.92267 2.83049,3.33915 -0.90903,0.66031 l -92.24576,-66.08084 c -2.33733,-1.67437 -3.19622,-2.11863 0.30533,-1.09275 0.55767,0.16338 0.7418,-0.78009 0.90904,-0.66029 z m 4.94905,2.11248 c -4.55145,-3.25093 -10.3402,-2.94906 -12.97834,0.67562 l -0.94054,1.29218 c -0.16706,0.22965 -0.31782,0.46695 -0.4513,0.71126 l -3.00882,4.13385 c -0.74113,1.01829 -0.30835,2.57317 0.97036,3.4863 l 95.80765,68.41512 c 1.2777,0.91449 2.90474,0.82838 3.64588,-0.18978 l 4.63418,-6.46634 c 0.0603,-0.10436 0.22024,-0.37729 0.33745,-0.52095 1.84332,-3.5937 0.20991,-8.53568 -3.98948,-11.53435 z"
       inkscape:connector-curvature="0"
       sodipodi:nodetypes="ccccccscssscccccccccccccc" />
    <rect
       style="fill:#f4f4f4;fill-opacity:1;stroke:#f6f6f6;stroke-width:3.21951246;stroke-linecap:round;stroke-miterlimit:4;stroke-dasharray:none;stroke-opacity:1"
       id="rect1516-1-1"
       width="121.81996"
       height="2.2687633"
       x="191.3192"
       y="57.544052"
       ry="0"
       rx="0"
       transform="matrix(0.81502101,0.57943141,-0.57235539,0.82000567,0,0)" />
  </g>
</svg>
