<?xml version="1.0" encoding="UTF-8" standalone="no"?>
<!-- Created with Inkscape (http://www.inkscape.org/) -->

<svg
   xmlns:dc="http://purl.org/dc/elements/1.1/"
   xmlns:cc="http://creativecommons.org/ns#"
   xmlns:rdf="http://www.w3.org/1999/02/22-rdf-syntax-ns#"
   xmlns:svg="http://www.w3.org/2000/svg"
   xmlns="http://www.w3.org/2000/svg"
   xmlns:xlink="http://www.w3.org/1999/xlink"
   xmlns:sodipodi="http://sodipodi.sourceforge.net/DTD/sodipodi-0.dtd"
   xmlns:inkscape="http://www.inkscape.org/namespaces/inkscape"
   width="254mm"
   height="254mm"
   viewBox="0 0 254 254"
   version="1.1"
   id="svg8"
   inkscape:version="0.92.4 (5da689c313, 2019-01-14)"
   sodipodi:docname="google-print.svg">
  <defs
     id="defs2">
    <linearGradient
       inkscape:collect="always"
       id="linearGradient833-1">
      <stop
         style="stop-color:#e6aba2;stop-opacity:1"
         offset="0"
         id="stop829" />
      <stop
         style="stop-color:#c54637;stop-opacity:0.17"
         offset="1"
         id="stop831" />
    </linearGradient>
    <radialGradient
       inkscape:collect="always"
       xlink:href="#linearGradient833-1"
       id="radialGradient832"
       cx="192.31329"
       cy="87.230492"
       fx="192.31329"
       fy="87.230492"
       r="123.85001"
       gradientTransform="matrix(4.0604316,0.08186741,-0.06811813,3.2887523,-547.56585,-228.40237)"
       gradientUnits="userSpaceOnUse" />
  </defs>
  <sodipodi:namedview
     id="base"
     pagecolor="#ffffff"
     bordercolor="#666666"
     borderopacity="1.0"
     inkscape:pageopacity="0.0"
     inkscape:pageshadow="2"
     inkscape:zoom="0.49497475"
     inkscape:cx="150.45924"
     inkscape:cy="456.16273"
     inkscape:document-units="mm"
     inkscape:current-layer="layer1"
     showgrid="true"
     inkscape:window-width="1920"
     inkscape:window-height="1001"
     inkscape:window-x="-9"
     inkscape:window-y="-9"
     inkscape:window-maximized="1"
     inkscape:pagecheckerboard="false"
     inkscape:snap-nodes="false">
    <inkscape:grid
       type="xygrid"
       id="grid918"
       spacingx="1.8520833"
       spacingy="1.8520833" />
  </sodipodi:namedview>
  <metadata
     id="metadata5">
    <rdf:RDF>
      <cc:Work
         rdf:about="">
        <dc:format>image/svg+xml</dc:format>
        <dc:type
           rdf:resource="http://purl.org/dc/dcmitype/StillImage" />
        <dc:title></dc:title>
      </cc:Work>
    </rdf:RDF>
  </metadata>
  <g
     inkscape:label="Layer 1"
     inkscape:groupmode="layer"
     id="layer1"
     transform="translate(0,-43)">
    <rect
       style="fill:#c54637;fill-opacity:0.995;stroke-width:0.37693506"
       id="rect12"
       width="247.70001"
       height="247.70001"
       x="3.0238037"
       y="46.351601"
       rx="58.458519" />
    <rect
       style="fill:url(#radialGradient832);fill-opacity:1;stroke-width:0.37693506"
       id="rect12-1"
       width="247.70001"
       height="247.7"
       x="3.0238035"
       y="46.351601"
       rx="58.458519" />
    <path
       style="opacity:1;fill:#ebebeb;fill-opacity:1;stroke:none;stroke-width:2.61282086;stroke-miterlimit:4;stroke-dasharray:none;stroke-opacity:1"
       d="m 131.3243,224.81681 v 44.10731 h 64.39898 v -44.10731 z m 8.56492,6.3454 h 34.41889 c 0.40767,0 0.73572,0.56856 0.73572,1.27428 0,0.70564 -0.32805,1.2729 -0.73572,1.2729 h -34.41889 c -0.40764,0 -0.73551,-0.56726 -0.73551,-1.2729 0,-0.70572 0.32787,-1.27428 0.73551,-1.27428 z m 0.12741,9.12162 h 34.41831 c 0.40764,0 0.73573,0.5679 0.73573,1.27375 0,0.70565 -0.32809,1.27333 -0.73573,1.27333 h -34.41831 c -0.40768,0 -0.7355,-0.56768 -0.7355,-1.27333 0,-0.70585 0.32782,-1.27375 0.7355,-1.27375 z m 0.23316,9.13981 h 46.2996 c 0.54845,0 0.98946,0.56867 0.98946,1.2741 0,0.70564 -0.44101,1.27327 -0.98946,1.27327 h -46.2996 c -0.54815,0 -0.98997,-0.56763 -0.98997,-1.27327 0,-0.70543 0.44182,-1.2741 0.98997,-1.2741 z m -0.003,9.18296 h 4.5e-4 46.29904 c 0.54842,0 0.98993,0.56876 0.98993,1.27408 0,0.70573 -0.44151,1.27358 -0.98993,1.27358 h -46.29897 c -0.54846,0 -0.98986,-0.56785 -0.98986,-1.27358 0,-0.7051 0.44114,-1.27373 0.98941,-1.27408 z"
       id="path836"
       inkscape:connector-curvature="0" />
    <path
       style="opacity:1;fill:#ebebeb;fill-opacity:1;stroke:none;stroke-width:2.62893939;stroke-miterlimit:4;stroke-dasharray:none;stroke-opacity:1"
       d="m 121.94751,210.77705 c -0.78751,0 -1.42075,0.65302 -1.42075,1.46425 v 20.04137 c 0,0.81115 0.63324,1.4642 1.42075,1.4642 h 5.42759 v -13.09934 h 72.26143 v 13.09934 h 5.37872 c 0.78734,0 1.42149,-0.65305 1.42149,-1.4642 V 212.2413 c 0,-0.81123 -0.63415,-1.46425 -1.42149,-1.46425 z"
       id="rect4922"
       inkscape:connector-curvature="0" />
    <path
       style="fill:#2a71e9;fill-opacity:1;stroke:none;stroke-width:7.89848518;stroke-miterlimit:4;stroke-dasharray:none;stroke-opacity:1"
       d="m 70.525802,136.88066 -21.435609,36.13229 50.72594,0.55242 c 1.101547,-2.04641 2.147357,-2.59149 4.375017,-4.46761 5.55097,-2.85805 14.44714,-2.28033 22.5692,-2.18157 l 0.35771,-27.0521 c 7.3e-4,-0.0554 0.58975,-0.10001 1.32245,-0.10001 h 20.01937 l 1.71062,-2.88324 z"
       id="rect3636-4"
       inkscape:connector-curvature="0"
       sodipodi:nodetypes="cccccssccc" />
    <rect
       style="fill:#fccd48;fill-opacity:1;stroke:none;stroke-width:8.49607468;stroke-miterlimit:4;stroke-dasharray:none;stroke-opacity:1"
       id="rect3636-0"
       width="78.098381"
       height="42.634121"
       x="81.459816"
       y="-68.157112"
       transform="matrix(0.51400179,0.85778911,-0.99999998,-1.9614692e-4,0,0)" />
    <rect
       style="fill:#0ba25e;fill-opacity:1;stroke:none;stroke-width:8.42454147;stroke-miterlimit:4;stroke-dasharray:none;stroke-opacity:1"
       id="rect3636-03"
       width="78.177742"
       height="41.876652"
       x="-53.686214"
       y="106.24001"
       transform="matrix(0.5102572,-0.86002185,0.51637518,0.85636246,0,0)"
       inkscape:transform-center-x="31.429523"
       inkscape:transform-center-y="-21.150216" />
    <path
       sodipodi:type="star"
       style="fill:#296ad9;fill-opacity:1;stroke:none;stroke-width:4;stroke-miterlimit:4;stroke-dasharray:none;stroke-opacity:1"
       id="path13171"
       sodipodi:sides="4"
       sodipodi:cx="-64.346664"
       sodipodi:cy="213.36"
       sodipodi:r1="59.916248"
       sodipodi:r2="12.210801"
       sodipodi:arg1="-0.8253769"
       sodipodi:arg2="-0.039978737"
       inkscape:flatsided="true"
       inkscape:rounded="0"
       inkscape:randomized="-1.331"
       d="m 8.103873,219.65244 -52.54859,29.73751 -12.766174,-1.84468 -118.337489,-18.59875 z"
       inkscape:transform-center-x="4.0616997"
       inkscape:transform-center-y="8.9399798"
       transform="matrix(-0.18744221,0.14843829,0.38450559,-0.95055475,-33.848597,380.56199)" />
    <path
       sodipodi:type="star"
       style="fill:#089156;fill-opacity:1;stroke:none;stroke-width:4;stroke-miterlimit:4;stroke-dasharray:none;stroke-opacity:1"
       id="path13171-3"
       sodipodi:sides="4"
       sodipodi:cx="-64.346664"
       sodipodi:cy="213.36"
       sodipodi:r1="59.916248"
       sodipodi:r2="12.210801"
       sodipodi:arg1="-0.8253769"
       sodipodi:arg2="-0.039978737"
       inkscape:flatsided="true"
       inkscape:rounded="0"
       inkscape:randomized="-1.331"
       d="m 8.103873,219.65244 -52.54859,29.73751 -12.766174,-1.84468 -118.337489,-18.59875 z"
       inkscape:transform-center-x="1.8650757"
       inkscape:transform-center-y="-7.9021169"
       transform="matrix(-0.03920272,-0.23268592,0.65471466,0.79698924,-76.044736,-103.27023)" />
    <path
       sodipodi:type="star"
       style="fill:#e3b73a;fill-opacity:1;stroke:none;stroke-width:4;stroke-miterlimit:4;stroke-dasharray:none;stroke-opacity:1"
       id="path13171-2"
       sodipodi:sides="4"
       sodipodi:cx="-64.346664"
       sodipodi:cy="213.36"
       sodipodi:r1="59.916248"
       sodipodi:r2="12.210801"
       sodipodi:arg1="-0.8253769"
       sodipodi:arg2="-0.039978737"
       inkscape:flatsided="true"
       inkscape:rounded="0"
       inkscape:randomized="-1.331"
       d="m 8.103873,219.65244 -52.54859,29.73751 -12.766174,-1.84468 -118.337489,-18.59875 z"
       inkscape:transform-center-x="-10.052385"
       inkscape:transform-center-y="-1.0727931"
       transform="matrix(0.22634695,0.08595923,-1.0396835,0.15177179,376.69298,102.83885)" />
    <path
       style="opacity:1;fill:#ebebeb;fill-opacity:1;stroke:none;stroke-width:2.65745425;stroke-miterlimit:4;stroke-dasharray:none;stroke-opacity:0.19402986"
       d="m 113.27762,170.28535 c -6.53777,0 -11.801,5.48176 -11.801,12.29061 v 39.65107 c 0,6.80866 5.26323,12.29074 11.801,12.29074 h 2.94887 v -25.77731 c 0,-0.92209 0.71244,-1.66442 1.59782,-1.66442 h 90.91923 c 0.88541,0 1.59824,0.74233 1.59824,1.66442 v 25.77731 h 2.99078 c 6.53796,0 11.80111,-5.48208 11.80111,-12.29074 v -39.65107 c 0,-6.80885 -5.26315,-12.29061 -11.80111,-12.29061 H 198.8365 v 16.05189 c 0,0.70056 -0.54119,1.26406 -1.21374,1.26406 h -69.06737 c -0.67285,0 -1.21428,-0.5635 -1.21428,-1.26406 v -16.05189 z m 93.63976,9.48422 a 2.4043406,2.5039518 0 0 1 2.40443,2.504 2.4043406,2.5039518 0 0 1 -2.40443,2.50403 2.4043406,2.5039518 0 0 1 -2.40446,-2.50403 2.4043406,2.5039518 0 0 1 2.40446,-2.504 z m 8.50251,0 a 2.4043404,2.5039516 0 0 1 2.40436,2.504 2.4043404,2.5039516 0 0 1 -2.40436,2.50403 2.4043404,2.5039516 0 0 1 -2.40448,-2.50403 2.4043404,2.5039516 0 0 1 2.40448,-2.504 z"
       id="rect4844-7"
       inkscape:connector-curvature="0" />
    <rect
       style="opacity:1;fill:#ebebeb;fill-opacity:1;stroke:none;stroke-width:2.81834912;stroke-miterlimit:4;stroke-dasharray:none;stroke-opacity:0.99607843"
       id="rect5004-1"
       width="63.499989"
       height="41.579941"
       x="131.30988"
       y="142.65526"
       rx="1.2213039"
       ry="0.094553746" />
  </g>
</svg>
